<mxfile host="app.diagrams.net" modified="2023-11-07T01:40:52.731Z" agent="Mozilla/5.0 (Windows NT 10.0; Win64; x64) AppleWebKit/537.36 (KHTML, like Gecko) Chrome/118.0.0.0 Safari/537.36" etag="O19eIeFNs5n3MByrb4qF" version="22.0.8" type="device">
  <diagram name="PÃ¡gina-1" id="iHs8OHmFu_Vn6Fr00jFf">
    <mxGraphModel dx="2352" dy="1281" grid="1" gridSize="10" guides="1" tooltips="1" connect="1" arrows="1" fold="1" page="1" pageScale="1" pageWidth="827" pageHeight="1169" math="0" shadow="0">
      <root>
        <mxCell id="0" />
        <mxCell id="1" parent="0" />
        <mxCell id="ba2iB4hTEKFOSkWBmRZo-2" value="can 0" style="rounded=1;whiteSpace=wrap;html=1;" vertex="1" parent="1">
          <mxGeometry x="-516" y="114" width="66" height="20" as="geometry" />
        </mxCell>
        <mxCell id="ba2iB4hTEKFOSkWBmRZo-3" value="alm cont" style="rounded=1;whiteSpace=wrap;html=1;" vertex="1" parent="1">
          <mxGeometry x="-516" y="141" width="66" height="20" as="geometry" />
        </mxCell>
        <mxCell id="ba2iB4hTEKFOSkWBmRZo-4" value="alm acu" style="rounded=1;whiteSpace=wrap;html=1;" vertex="1" parent="1">
          <mxGeometry x="-516" y="168" width="66" height="20" as="geometry" />
        </mxCell>
        <mxCell id="ba2iB4hTEKFOSkWBmRZo-5" value="alm prom&lt;br&gt;" style="rounded=1;whiteSpace=wrap;html=1;" vertex="1" parent="1">
          <mxGeometry x="-516" y="194" width="66" height="20" as="geometry" />
        </mxCell>
        <mxCell id="ba2iB4hTEKFOSkWBmRZo-6" value="can 1" style="rounded=1;whiteSpace=wrap;html=1;" vertex="1" parent="1">
          <mxGeometry x="-516" y="218" width="66" height="20" as="geometry" />
        </mxCell>
        <mxCell id="ba2iB4hTEKFOSkWBmRZo-7" value="alm uno" style="rounded=1;whiteSpace=wrap;html=1;" vertex="1" parent="1">
          <mxGeometry x="-516" y="243" width="66" height="20" as="geometry" />
        </mxCell>
        <mxCell id="ba2iB4hTEKFOSkWBmRZo-8" value="can 11" style="rounded=1;whiteSpace=wrap;html=1;" vertex="1" parent="1">
          <mxGeometry x="-516" y="268" width="66" height="20" as="geometry" />
        </mxCell>
        <mxCell id="ba2iB4hTEKFOSkWBmRZo-9" value="alm ed11" style="rounded=1;whiteSpace=wrap;html=1;" vertex="1" parent="1">
          <mxGeometry x="-516" y="294" width="66" height="20" as="geometry" />
        </mxCell>
        <mxCell id="ba2iB4hTEKFOSkWBmRZo-11" value="can 19" style="rounded=1;whiteSpace=wrap;html=1;" vertex="1" parent="1">
          <mxGeometry x="-516" y="320" width="66" height="20" as="geometry" />
        </mxCell>
        <mxCell id="ba2iB4hTEKFOSkWBmRZo-12" value="alm ed 19" style="rounded=1;whiteSpace=wrap;html=1;" vertex="1" parent="1">
          <mxGeometry x="-516" y="350" width="66" height="20" as="geometry" />
        </mxCell>
        <mxCell id="ba2iB4hTEKFOSkWBmRZo-13" value="lea 3000" style="shape=trapezoid;perimeter=trapezoidPerimeter;whiteSpace=wrap;html=1;fixedSize=1;direction=west;" vertex="1" parent="1">
          <mxGeometry x="-539.5" y="374" width="113" height="20" as="geometry" />
        </mxCell>
        <mxCell id="ba2iB4hTEKFOSkWBmRZo-14" value="alm edad" style="rounded=1;whiteSpace=wrap;html=1;" vertex="1" parent="1">
          <mxGeometry x="-516" y="399" width="66" height="20" as="geometry" />
        </mxCell>
        <mxCell id="ba2iB4hTEKFOSkWBmRZo-15" value="mul uno" style="rounded=1;whiteSpace=wrap;html=1;" vertex="1" parent="1">
          <mxGeometry x="-516" y="424" width="66" height="20" as="geometry" />
        </mxCell>
        <mxCell id="ba2iB4hTEKFOSkWBmRZo-23" style="edgeStyle=orthogonalEdgeStyle;rounded=0;orthogonalLoop=1;jettySize=auto;html=1;exitX=1;exitY=0.5;exitDx=0;exitDy=0;entryX=0.5;entryY=0;entryDx=0;entryDy=0;" edge="1" parent="1" source="ba2iB4hTEKFOSkWBmRZo-16" target="ba2iB4hTEKFOSkWBmRZo-17">
          <mxGeometry relative="1" as="geometry" />
        </mxCell>
        <mxCell id="ba2iB4hTEKFOSkWBmRZo-16" value="JZ" style="rhombus;whiteSpace=wrap;html=1;" vertex="1" parent="1">
          <mxGeometry x="-523" y="448" width="73" height="50" as="geometry" />
        </mxCell>
        <mxCell id="ba2iB4hTEKFOSkWBmRZo-17" value="car acu" style="rounded=1;whiteSpace=wrap;html=1;" vertex="1" parent="1">
          <mxGeometry x="-440" y="502" width="66" height="20" as="geometry" />
        </mxCell>
        <mxCell id="ba2iB4hTEKFOSkWBmRZo-18" value="div cont" style="rounded=1;whiteSpace=wrap;html=1;" vertex="1" parent="1">
          <mxGeometry x="-440" y="524" width="66" height="20" as="geometry" />
        </mxCell>
        <mxCell id="ba2iB4hTEKFOSkWBmRZo-19" value="alm prom" style="rounded=1;whiteSpace=wrap;html=1;" vertex="1" parent="1">
          <mxGeometry x="-440" y="547" width="66" height="20" as="geometry" />
        </mxCell>
        <mxCell id="ba2iB4hTEKFOSkWBmRZo-20" value="car prom" style="rounded=1;whiteSpace=wrap;html=1;" vertex="1" parent="1">
          <mxGeometry x="-440" y="571" width="66" height="20" as="geometry" />
        </mxCell>
        <mxCell id="ba2iB4hTEKFOSkWBmRZo-21" value="esa 6000" style="shape=trapezoid;perimeter=trapezoidPerimeter;whiteSpace=wrap;html=1;fixedSize=1;direction=east;" vertex="1" parent="1">
          <mxGeometry x="-463.5" y="594" width="113" height="20" as="geometry" />
        </mxCell>
        <mxCell id="ba2iB4hTEKFOSkWBmRZo-24" value="PAR" style="ellipse;whiteSpace=wrap;html=1;" vertex="1" parent="1">
          <mxGeometry x="-440" y="614" width="73" height="30" as="geometry" />
        </mxCell>
        <mxCell id="ba2iB4hTEKFOSkWBmRZo-25" value="" style="endArrow=none;html=1;rounded=0;entryX=0.5;entryY=1;entryDx=0;entryDy=0;" edge="1" parent="1" target="ba2iB4hTEKFOSkWBmRZo-16">
          <mxGeometry width="50" height="50" relative="1" as="geometry">
            <mxPoint x="-487" y="644" as="sourcePoint" />
            <mxPoint x="-487" y="504" as="targetPoint" />
          </mxGeometry>
        </mxCell>
        <mxCell id="ba2iB4hTEKFOSkWBmRZo-26" value="res 11" style="rounded=1;whiteSpace=wrap;html=1;" vertex="1" parent="1">
          <mxGeometry x="-516" y="637" width="59.5" height="20" as="geometry" />
        </mxCell>
        <mxCell id="ba2iB4hTEKFOSkWBmRZo-46" style="edgeStyle=orthogonalEdgeStyle;rounded=0;orthogonalLoop=1;jettySize=auto;html=1;exitX=1;exitY=0.5;exitDx=0;exitDy=0;entryX=0.5;entryY=0;entryDx=0;entryDy=0;" edge="1" parent="1" source="ba2iB4hTEKFOSkWBmRZo-29" target="ba2iB4hTEKFOSkWBmRZo-33">
          <mxGeometry relative="1" as="geometry" />
        </mxCell>
        <mxCell id="ba2iB4hTEKFOSkWBmRZo-29" value="JZ" style="rhombus;whiteSpace=wrap;html=1;" vertex="1" parent="1">
          <mxGeometry x="-516" y="657" width="56" height="60" as="geometry" />
        </mxCell>
        <mxCell id="ba2iB4hTEKFOSkWBmRZo-45" style="edgeStyle=orthogonalEdgeStyle;rounded=0;orthogonalLoop=1;jettySize=auto;html=1;exitX=1;exitY=0.5;exitDx=0;exitDy=0;entryX=0;entryY=1;entryDx=0;entryDy=0;" edge="1" parent="1" source="ba2iB4hTEKFOSkWBmRZo-33" target="ba2iB4hTEKFOSkWBmRZo-13">
          <mxGeometry relative="1" as="geometry">
            <Array as="points">
              <mxPoint x="-330" y="734" />
              <mxPoint x="-330" y="354" />
              <mxPoint x="-426" y="354" />
            </Array>
          </mxGeometry>
        </mxCell>
        <mxCell id="ba2iB4hTEKFOSkWBmRZo-33" value="JI 10" style="shape=step;perimeter=stepPerimeter;whiteSpace=wrap;html=1;fixedSize=1;" vertex="1" parent="1">
          <mxGeometry x="-453.5" y="724" width="73" height="20" as="geometry" />
        </mxCell>
        <mxCell id="ba2iB4hTEKFOSkWBmRZo-34" value="&lt;font style=&quot;font-size: 10px;&quot;&gt;00&lt;/font&gt;" style="text;html=1;strokeColor=none;fillColor=none;align=center;verticalAlign=middle;whiteSpace=wrap;rounded=0;" vertex="1" parent="1">
          <mxGeometry x="-570" y="109" width="60" height="30" as="geometry" />
        </mxCell>
        <mxCell id="ba2iB4hTEKFOSkWBmRZo-35" value="&lt;font style=&quot;font-size: 10px;&quot;&gt;01&lt;/font&gt;" style="text;html=1;strokeColor=none;fillColor=none;align=center;verticalAlign=middle;whiteSpace=wrap;rounded=0;" vertex="1" parent="1">
          <mxGeometry x="-570" y="138" width="60" height="30" as="geometry" />
        </mxCell>
        <mxCell id="ba2iB4hTEKFOSkWBmRZo-36" value="&lt;font style=&quot;font-size: 10px;&quot;&gt;02&lt;/font&gt;" style="text;html=1;strokeColor=none;fillColor=none;align=center;verticalAlign=middle;whiteSpace=wrap;rounded=0;" vertex="1" parent="1">
          <mxGeometry x="-570" y="161" width="60" height="30" as="geometry" />
        </mxCell>
        <mxCell id="ba2iB4hTEKFOSkWBmRZo-37" value="&lt;font style=&quot;font-size: 10px;&quot;&gt;03&lt;/font&gt;" style="text;html=1;strokeColor=none;fillColor=none;align=center;verticalAlign=middle;whiteSpace=wrap;rounded=0;" vertex="1" parent="1">
          <mxGeometry x="-570" y="188" width="60" height="30" as="geometry" />
        </mxCell>
        <mxCell id="ba2iB4hTEKFOSkWBmRZo-38" value="&lt;font style=&quot;font-size: 10px;&quot;&gt;04&lt;/font&gt;" style="text;html=1;strokeColor=none;fillColor=none;align=center;verticalAlign=middle;whiteSpace=wrap;rounded=0;" vertex="1" parent="1">
          <mxGeometry x="-570" y="213" width="60" height="30" as="geometry" />
        </mxCell>
        <mxCell id="ba2iB4hTEKFOSkWBmRZo-39" value="&lt;font style=&quot;font-size: 10px;&quot;&gt;05&lt;/font&gt;" style="text;html=1;strokeColor=none;fillColor=none;align=center;verticalAlign=middle;whiteSpace=wrap;rounded=0;" vertex="1" parent="1">
          <mxGeometry x="-570" y="238" width="60" height="30" as="geometry" />
        </mxCell>
        <mxCell id="ba2iB4hTEKFOSkWBmRZo-40" value="&lt;font style=&quot;font-size: 10px;&quot;&gt;06&lt;/font&gt;" style="text;html=1;strokeColor=none;fillColor=none;align=center;verticalAlign=middle;whiteSpace=wrap;rounded=0;" vertex="1" parent="1">
          <mxGeometry x="-570" y="264" width="60" height="30" as="geometry" />
        </mxCell>
        <mxCell id="ba2iB4hTEKFOSkWBmRZo-41" value="&lt;font style=&quot;font-size: 10px;&quot;&gt;07&lt;/font&gt;" style="text;html=1;strokeColor=none;fillColor=none;align=center;verticalAlign=middle;whiteSpace=wrap;rounded=0;" vertex="1" parent="1">
          <mxGeometry x="-570" y="290" width="60" height="30" as="geometry" />
        </mxCell>
        <mxCell id="ba2iB4hTEKFOSkWBmRZo-42" value="&lt;font style=&quot;font-size: 10px;&quot;&gt;08&lt;/font&gt;" style="text;html=1;strokeColor=none;fillColor=none;align=center;verticalAlign=middle;whiteSpace=wrap;rounded=0;" vertex="1" parent="1">
          <mxGeometry x="-570" y="315" width="60" height="30" as="geometry" />
        </mxCell>
        <mxCell id="ba2iB4hTEKFOSkWBmRZo-43" value="&lt;font style=&quot;font-size: 10px;&quot;&gt;09&lt;/font&gt;" style="text;html=1;strokeColor=none;fillColor=none;align=center;verticalAlign=middle;whiteSpace=wrap;rounded=0;" vertex="1" parent="1">
          <mxGeometry x="-570" y="340" width="60" height="30" as="geometry" />
        </mxCell>
        <mxCell id="ba2iB4hTEKFOSkWBmRZo-44" value="&lt;font style=&quot;font-size: 10px;&quot;&gt;10&lt;/font&gt;" style="text;html=1;strokeColor=none;fillColor=none;align=center;verticalAlign=middle;whiteSpace=wrap;rounded=0;" vertex="1" parent="1">
          <mxGeometry x="-583" y="369" width="60" height="30" as="geometry" />
        </mxCell>
        <mxCell id="ba2iB4hTEKFOSkWBmRZo-47" value="" style="endArrow=none;html=1;rounded=0;entryX=0.5;entryY=1;entryDx=0;entryDy=0;" edge="1" parent="1" target="ba2iB4hTEKFOSkWBmRZo-29">
          <mxGeometry width="50" height="50" relative="1" as="geometry">
            <mxPoint x="-488" y="774" as="sourcePoint" />
            <mxPoint x="-488" y="724" as="targetPoint" />
          </mxGeometry>
        </mxCell>
        <mxCell id="ba2iB4hTEKFOSkWBmRZo-63" style="edgeStyle=orthogonalEdgeStyle;rounded=0;orthogonalLoop=1;jettySize=auto;html=1;exitX=1;exitY=0.5;exitDx=0;exitDy=0;entryX=0.5;entryY=0;entryDx=0;entryDy=0;" edge="1" parent="1" source="ba2iB4hTEKFOSkWBmRZo-49" target="ba2iB4hTEKFOSkWBmRZo-62">
          <mxGeometry relative="1" as="geometry" />
        </mxCell>
        <mxCell id="ba2iB4hTEKFOSkWBmRZo-49" value="JN" style="rhombus;whiteSpace=wrap;html=1;" vertex="1" parent="1">
          <mxGeometry x="-519.5" y="739" width="63" height="40" as="geometry" />
        </mxCell>
        <mxCell id="ba2iB4hTEKFOSkWBmRZo-54" value="&lt;font style=&quot;font-size: 10px;&quot;&gt;11&lt;/font&gt;" style="text;html=1;strokeColor=none;fillColor=none;align=center;verticalAlign=middle;whiteSpace=wrap;rounded=0;" vertex="1" parent="1">
          <mxGeometry x="-583" y="394" width="60" height="30" as="geometry" />
        </mxCell>
        <mxCell id="ba2iB4hTEKFOSkWBmRZo-55" value="&lt;font style=&quot;font-size: 10px;&quot;&gt;12&lt;/font&gt;" style="text;html=1;strokeColor=none;fillColor=none;align=center;verticalAlign=middle;whiteSpace=wrap;rounded=0;" vertex="1" parent="1">
          <mxGeometry x="-583" y="414" width="60" height="30" as="geometry" />
        </mxCell>
        <mxCell id="ba2iB4hTEKFOSkWBmRZo-56" value="&lt;font style=&quot;font-size: 10px;&quot;&gt;13&lt;/font&gt;" style="text;html=1;strokeColor=none;fillColor=none;align=center;verticalAlign=middle;whiteSpace=wrap;rounded=0;" vertex="1" parent="1">
          <mxGeometry x="-583" y="464" width="60" height="30" as="geometry" />
        </mxCell>
        <mxCell id="ba2iB4hTEKFOSkWBmRZo-57" value="&lt;font style=&quot;font-size: 10px;&quot;&gt;14&lt;/font&gt;" style="text;html=1;strokeColor=none;fillColor=none;align=center;verticalAlign=middle;whiteSpace=wrap;rounded=0;" vertex="1" parent="1">
          <mxGeometry x="-583" y="634" width="60" height="30" as="geometry" />
        </mxCell>
        <mxCell id="ba2iB4hTEKFOSkWBmRZo-60" value="" style="shape=image;verticalLabelPosition=bottom;labelBackgroundColor=default;verticalAlign=top;aspect=fixed;imageAspect=0;image=data:image/png,iVBORw0KGgoAAAANSUhEUgAABRQAAACOCAYAAABAI4RqAAAAAXNSR0IArs4c6QAAAARnQU1BAACxjwv8YQUAAAAJcEhZcwAADsMAAA7DAcdvqGQAAP+lSURBVHhe7P11vB3l2T2Mr/GZ7Udy4smJG0kILqVQWloKlNIWd4fSUgeKuxYobfESvHjtAYoFdwsh7m7Hz9bxmd+6NzzP+/vn6c77yTcv9MssmkbO3jO3XNe61rpn5h5pc7kaI0GCBAkSJEiQIEGCBAkSJEiQIEGCBAm2APLnvydIkCBBggQJEiRIkCBBggQJEiRIkCBBQyQLigkSJEiQIEGCBAkSJEiQIEGCBAkSJNhiJAuKCRIkSJAgQYIECRIkSJAgQYIECRIk2GIkC4oJEiRIkCBBggQJEiRIkCBBggQJEiTYYiQLigkSJEiQIEGCBAkSJEiQIEGCBAkSJNhiJAuKCRIkSJAgQYIECRIkSJAgQYIECRIk2GIkC4oJEiRIkCBBggQJEiRIkCBBggQJEiTYYmzxgqIvp2DLEawghBrJsKFB8VMw9RiS70MJJXhGCoHrwow9GFoKcexCC4GaGgCRi7RchWynEBr8qwQYPn8YBoglDZGswAxk/ooQqBYkHk+HxOOGiGIfjhQg0DykeE7x7zUNkKIAtlGDIrEbco2dSUGTi/y3CKbHz5gylECDr0qQAhMmFJ6Xn2VzArappOvQ4wiuynNKIXwlhCwH6DM95LwQgSIhZDvkmA1OkCBBggQJEiRIkCBBggQJEiRIkCDBli8orpr5HYyfshPyE8Zi4IzxGDV5AgZM+gauXmdDNbN46aLRGDHqJ/hYy6BPUVGtVhFrCux0gAHlFGK1CZ1uGl7Bge8rMGsVlJoMwMjCiarwJRd+2kQt8GHLYnGyikD8WdWhG3nMPX86ho3+Hf6GImylhkzZR8BzSU4LFE+CK2Vg+oAbDsY7v5yGws6/xcc9KloUD24copKLUZHLkGNAlQzIsoph/TGqSgVp20DeScFTM5DDLHKVFFw9BVPS2BaXn3U+H4UECRIkSJAgQYIECRIkSJAgQYIECb7akDaXq/Hnf/632HTXIZix5mfYeONBkGsbEcd5qJqFUK3C8SxkzX6UvBaEmrg70EYuzsCJQ0iqAtUPEBghanEFqqIjDqowtUFwyn1QYxWmLqEih5DFnYQ+P18LEWQyKIQBOjUZKTeEn+qB77fAtFy4FQ0ZGfAyEjIdZZSMZihaCWXNQNqNoVkqgt4ynHwWqciAFxahwYEeD4Tj9APNARzbQEpSYUhafcExjsuQnBhxOsM/A7ETQtMVuCrbFYlf2ucjkSBBggQJEiRIkCBBggQJEiRIkCDBVxdbfIdiMTMAutQM1V8GQx2Mmp4GogpkJ0ZW9eC7BRiBg4JcRKGWRkXrgRNF8BQHm80NqNQCNMOEaqdh8bNxWESz3oRiyoAnK8gHeVh+Cq4RwyykIYU++qQeyJKHUI6gloYgGxsIXB9ZT4Ebs022DzefQWRKkEMJA50UojiAbLtIZXNwvRrCoApJk+Hz3BXNhpavwbfzPFYGYayhwv+C0IYcp4BCE+I4Rhh5kNQQQeRD43/i4esECRIkSJAgQYIECRIkSJAgQYIECRL8v1hQFHcVhk4F1dQAVBwPA1QXvpGGEgO+7+ONS8bg239ZhoqXw9qWGvRYxYaHf4jhk8dh8rjvYfQuR+Hu5SoQRuhPr8RdP5iCI96dhSvHTUXbpN/gKakLXuCi44HvoTC4FSPH74YhU3fGVS+EMOQIL98wErs8sACaBzhpFb5lYdP9R6OlfSrGjhqCtslTcNx7Powoh79eNBl7PtiDbGzBkyQ0uxZK9/wEw8eMR2v7LhjBz7Ze9BoiR4GmaUDHkzhwzEm4adF6GG4KlmNBTqUR6ipctlfn5xIkSJAgQYIECRIkSJAgQYIECRIkSPD/YkExE3kILaAp1OGnFNi1AJWajyidhqLpQC1ENtMKze9CW9nAsnuOwN5P74+35szGpnnvYd0fpuDX+56HF3JFpKQITqxh8+0vYNxz72DD4j/gICONhU8cgV0v+Roe3dyLBav/hbUvnIsRSgZ9UlBf2BvomVAtA0FYRunGo7HPFdvh8RUfY9Wa+eh46TxMiXuQUtnGwEUYd8PSFeQUF2898CNMvnkAHlu+FNUF67Bi8f24ef6paL/tDZQrHpRaNwIrQkFXYbCPnhbBd6pwfA+WuENRLDomSJAgQYIECRIkSJAgQYIECRIkSJBgyxcUe5UI2Sd/jMLoYRg9cRQGTtsBk066FQsVD/12iFpziGBdDVa6FRX1Bdx1w0Bc8vufYLymQFZTUL91OC7b42m8/HRGvGQZfsqGut/p+PVIDZEUwLPfwqOXL8Zxt5+P3XwHWpCHOvosnLpnDW2yBp3H6Y2K8Plf2vsE59/+Nxx3x2U40MwjsNOQW3+GX++RwSatA26mFU2hiqrjI6x9gEeukXD5s5dhJ7kbVVNCM7bH8becgml//itmaxlg/C/wz3n344SRreiy++CZLtKaBktRYQYBSrL92SAkSJAgQYIECRIkSJAgQYIECRIkSPAVxxYvKBaiAtwf3Y41SzZiw+xlKC6Zje4HTsSYfgVtWR2Kb0FpUlHzO5B+9WX8JXgXFx2YQ+voHdE2eRAGjfkerpodwYgNmJ6P2NOx/fBRKGoq1MhB+PFzuFv6Ab63n9i10EZLXIRS4/FSEVzfRFiSMNgaBN8DSh/PwrPhefjhPjb6axXIigknW0NZNZGOmqHbJXg1DbKVQnX2c7hPG4XxYyyka60IAxt+bKI8cnuMk1Zg6foQGs+TUmQYXoSMlUfKy6DsSlBDGYHkQtaTtzwnSJAgQYIECRIkSJAgQYIECRIkSCCwxQuKET/qqQ7k2ISnmVDCEvrUVqT1CMU4gBEAHkrwglbIlgMfB+ORTzeie9FK9H+6FhsWr8a6Fe/hhv1rqCgpFODy8zYCOYIepmB6MayaCpsHCiMdVTkFlee1eCRXKkNTLZSCIrQgC90L2J4y+tIppOQYmidBiSzIUj/UWIETy3AtHoft8XkUPVQgxTyXKsE3XDhKFZrE70o5BG4JkRl+1skECRIkSJAgQYIECRIkSJAgQYIECRL8W2zxgqLkdsEIxY6C3bDMXnhqMzQJ8CUbWlmCCx9RmEXOUoC2aZhgrMfybh+BIaFmelANH3bFQBSYMGITiBR+34DrG4BpIx4+FeMzn2L1ag9WAJSVCnQE6IlysOQUYv491ByocQ+87UZiz2AJNix1UXEURAUboRNBl1LwvH40aymkIg9NngptRDsmhSsxf40Cw3SRrxTQ4qrIrPoUH2MURk1sQ8V3UAsjuLqMil1ETa8ga8QIlIjnY5s9tjdBggQJEiRIkCBBggQJEiRIkCBBggRbvqCoZzW4ioIwkKHYn/2ecosoBSYy+RCWrEGLHdT8KvT2k3HxD17EFd+6Dc/VyvCVbnjBJjxx0YtYJYeoBf2QlTas10MUghDVyIMz9jCce/hiXPq1C/C8amGI1ILedTfh6VkqymGAUHdh8lw1cyCi1In45bHzcek3f4tFZgpRpQt61z146GkXbsbBOjlgz1ysUxy0tp6FS45ZgGv3uQbPRQ6KRhUd6mI8cM4dkM75IQ4od6Jp82P4/tQT8cCabgywmqA7Bqq+D5vndVQVucj6fBQSJEiQIEGCBAkSJEiQIEGCBAkSJPhqY4sXFG3fgvzA4RgxfVcM3XkXDBgxCoOn7YrLPgQqFQml2INhpqE4Jvr0Cg66qhePHXgnTpo2BSPHHYDh48bgr9tPQpsWQNN89KQ6MMgOESkGUlEGw3xg98tm46Fjn8Dp42YgNWQCRh70HqTx/WgLYkiugpohwXBraMpb2PuS+bj7+IfxnQnTMWTq1zBo33+gOlaDruaQlbKoBINQiJrh6hK2v+ZNvHPBQpw8dndMGbULRo8/BA8d9Bj+dfqOKJkmqpIP1ZbR7wVwbUD3ZWjsi6npsOEj9tm4BAkSJEiQIEGCBAkSJEiQIEGCBAkSQNpcrsaf//nfwokUpNI6+otl5E0VnqxAjX2YCFCMLbx9wSj8fsIszDpqBHozCjLVGmQzBdm2IMGBrQEZz4GvFWDKwAbbxSBdhSrJcINN6FGGIKMCgVpD7PrIaXn0RwEMfx3kaCBCncdiO3THRwlFqKoKwywgKK+Ekh2JWuTCgAW5aCPQdSi5LkglCybbYIcucqGOdVEIXQ+gI4dQ7Ydmm9A1EzXZhh7EiC0dkechjHwokei1BFk3EEURpGiLhilBggQJEiRIkCBBggQJEiRIkCBBgv+rscULipBNOHIJQyIZpbIGrylGNTSRrXTD6ngKB3z7OXz9jSdwdpOF2ABiqwdav4VqpoY40qAoeYSSC911YDoK0q0+uqoKQleCYSpQavyMVUWfZKMtHISS7MGIPcRsnZvOwiwWgfoLVQxkESL0TRRlDU2RCzWuL1lCM1rRI0XI1HphySpKsYZQ4bHjGnxNQ2uYha3XENkBothEMyrY6AdIKW2Q1W5ITow4namfM3ZCaLoCVw0hR+KX9vlAJEiQIEGCBAkSJEiQIEGCBAkSJEjw1cUWP/IsezW02SE6Iw1uIUDs+Ci8fCGG7bgbWva/FWNmPoZTW4DYCJFSu9BcNtGTSaHNb0VLxYNV6cegig5NM1A2IlQqESJJht8M6IEJqVCGJhVg2Bkg6oeh+qgqWSiRA7nsIrRiyEEbP+sD5WaUrRCWr4E/hoM03DgNpRYiU+tGxWiF5hWgyT5aYEJWmtn+AHaK5+itAoYORaqipjShkPGhWi7SbhMq+VaobEvkKbB0C5KqwfED6LF433SCBAkSJEiQIEGCBAkSJEiQIEGCBAm2+A7FSAHcQIUki8eUYxScLthWC5ygClnS4Esh2pBDb1SCGUVwpQJM+ChjAzJGO49Qrb9cRQvTMH0VSPUj9tNwQxtpRYdoRaxUocCCFtgIlRaetAfQstD9ELaiIVJrSJcMeJkYsRNDV2X0Z4vI9KT4b4DuyVA1CUHowEMAI2pBGJZ5jBBKVIBke3BbZWTKLko8jyKpMOUKSnIILZbB/8GIY/ToEUaWFPRa7K/Hr8s6Isn9bCASJEiQIEGCBAkSJEiQIEGCBAkSJPgKY8sfeU6QIEGCBAkSJEiQIEGCBAkSJEiQIMFXHlv8yHOCBAkSJEiQIEGCBAkSJEiQIEGCBAkSJAuKCRIkSJAgQYIECRIkSJAgQYIECRIk2GIkC4oJEiRIkCBBggQJEiRIkCBBggQJEiTYYiQLigkSJEiQIEGCBAkSJEiQIEGCBAkSJNhiJAuKCRIkSJAgQYIECRIkSJAgQYIECRIk2GIkC4oJEiRIkCBBggQJEiRIkCBBggQJEiTYYiQLigkSJEiQIEGCBAkSJEiQIEGCBAkSJNhibPmCoiYjCiRIkgIp9vi7hkgz+G9lKLH2+Yf+DQIVkHzEsgJPkhCb/DOPoSsqIif4/ENfXUgxf3FsYyVCiBiSHCHwQiiKgggcu20M3U8h8gOe3+NcKwhj/oo8+JxrMU++z/niXIn500JAtMqV3Hp7zZD/sJWIIx+RFPHYMryQ7dB5LlVCjedXlWTd+z8dCuPJkwOQNeoxHYt4Y+zIPuMLKcixwV+fxZUUBSSmz7gmlAIEcu3zo3x5ETMFNFmGSy5UVbaflBahUu+Xr2wBP24lQlWHInPMmCpR4MIV1C7ylb8QN+ZXlXMSRBx1nfMUcg7IA+J4URSxH/rnn/rfoak8l19CoGucZ5XzKCHwZcj8s+CyRggVtlgMIsfLi6TPjhfHiOQQWrTtx8+DA5V9VYwUFLY7YL0DechlLKqy8fmn/nOxtfPzVYcMH34UshJTr8BAIIX8N+YM+Ulw1ReNrc3fLzu+6Pz8ss//1mKb12c1rsenGsSfcRGPHcCu18Yg3vbxqfo1uJpV71/M0PEVA4qWgucUmSuN42dr66uv+Oy3Aieifo4YPxp5l/HEv/J4jfXzto5/nTVWJU/4IWOasxx/3lcorBMxNX7sUNuo8JQU550/43lDxkDM31Nx9bODfIkRKybz1ydPAjVGtMxIkIMAZZoZUQtD/szUNP4kZH8DGIxRIeqEBxJD/YVjK/NnW+srlbEYcfxktrEqEoxeTsSJF3rQdfPzTyX4quKL5pcv2p99VbDFVBk6MVSLhEHxUF/y8n3A9ljYCnCNxodRDU5ilEUQkhBJhHpZBJKLPgaTlfnPF7xbC5a0OvkGUZrRX4XhcczTWSoRl4Jh2xu+QK3ByPCcYQi/JoSlClM1kWIhVik2C5oEJfBICB5sFrdQNvmZJtSoJV2TVXorIalZkgrJRq8hlUnDLpJO/DKalQyKvvP5pxL8pyKSaMX4K2AMVQMVebWfZO5DYuy4ZPtAqVCkM/5J+pFkUMhRcDPCfDtCSi18fpQvLzQrhQpNS4HlMqBQLVGwKXGOJqQfsUcnto0h0RjVxIWdmHmqatBZsFX63KjSg1jPff6p/x2e43LcaZpDA5pOQc02V2XyshfA3AJ69gKHIjdTNzsW/1ziXGdzMWqeC0lcTGqAOBBi3odjSEiR7qoeY0NyYQZZ2Ir9+ae2HTIUHCW2v1Trg65WKWR0GOy/amTZt+Lnn/rPxdbOz1cdoWrAEAsoXpnmTKJATpOzykgzTsqB+/mnvjhsbf5+2fFF5+eXff63Ftu6Pnsh+Ua2UZHJ89SYkc8JDegpxCJEuO35HZk8tJLNWkh96wdwKSmjoAf5TBNs/r0Rtra+ptwA/Rw3BQ6Vfi+0mOZajAENrW421gfbOv5D9sWNStAtG5YeU7NwTDg/En2IKWc48xr/XYYW8NxuGYqmI9YshEYOFbbly47IrUBVdWqKFFKMw/ramppGSooQ8c+KlkefV+X8qNDZ7163yp+5UMwCagG97heMrc2fba2vAt2EblP7qm6dJyMlTe1bRUbLoLda/vxTCb6q+KL55Yv2Z18VKL+54MLLPv/zv0VsWHDLRQRGMzRFLCC5UFMWyakGl+SkkET+HbwoghRHJJsAaa0AO6LBIUnmsgq6ajbMBt//vx2yKVOcaTD0CgytBbUoRprFjSyNaiVgMdy24+OhRtUkQwp16EoK1EsUPExukYAsXkJUymIRUZEhqxFc16WwMSErGry4ypZunSkNyDihuKsCGTj2ZmTN5np7QBEQBzWeO7mK8J8MRTNI3La4qE8OkNHFmJJklUSvsKg4jCn+gIZGFlfb5Zgin2IkZUKlaHaqPn/++YG+pAh9Gxrb6jJkZdWCKS67MIdk2YImuK5+OW7bIeK5TQpGVzKhRMwjI43Y7oOSHsDxrXyWS/8GiklzAp0mq5+/02TJHsUmxWfBQrlUqd+18u8Q0WjqVOYyRUAseJ58YtM0WbHHvLbqF0z+HVS2PtY5YBQageIjq+gUylk4Uh+bzu/H27boS0qOvS/RZGQ5GGyDG0OOOKfkuIicJ5GP/5OxtfPzVYcQoarOuqgxD5yAv1cgBXmOYhVN6Xz9518ktjZ/v+z4ovPzyz7/W4ttXZ8l30WUaYIZ9sOhedRYIyWxMMIiycMg3MbXzMVCacC2inv5ZNNAViyPSllq3BJMxlTc4C7Dra2vMuNXdruhUddKRgyv6CNfMBCJ+zI4DkqD72/r+Bd3rRnpGKHHeuApnFdqGJPaniY88H34nOCAk2QqMcdLgh/GqHoRdENDzHNvW3Wz9bAknboioFdl+2OJ/saAr1VpcjKcT+ozehqNY8pOw9N0NOlplEP23ysjw5oZbWP90Qhbmz/bWl+FQUgdobH+OMhZGQReN/8tj1hx6zemCM2R4KuLL5pfvmh/9lXBFo+iEfXDMvMwXReOzwlXC3CcGoqugyahQhrAUFiA1RJULYueUj8nkgZHV1Etuch9Ke4p/2JRc2xYGYo63+C4drNYGChWexAxmfK5zOef2nZQtQxCV4cCq/53NyiBmQbVVOu/xN2Sga7DdyRYvoes5iCIqixsMaxo61d7NEuDzaJkeDILZJoE5FEkVVFybWS34Apwgi83tOomFg0KDea9Q1GuGbS/BmOuvxMyjVpYo1nxNBJ/RFPDQqL7qNT4MyWEKszMlxxiQcbSNNRinZrNZT+Ex/AQVaqIjW3/yIehW+TlGLpfpO/TEdEc9gcG9PqjeY3FYq1Woyi1kTabWOSLMKUcxWCMcrEKw2zMz0qogxqAfS9zfmXIbEua4kHOFeC5fZ9/6n9HJfYp6DXoml9/FCegmPBgI1Qp+ONtf4eyF9ZgOwEssdUD+c2wdEgUQB77EDtfrJn4P4GtnZ+vOjQ1jWpQheSQjywaucikSXMgaymUSqyVXzC2Nn+/7Pii8/PLPv9bi21dnzUjj6hahKfTB1DbBY7LOaSfkHyUKtv+DiaLGjLSQnJdDMWtoZ+62qKZjdhXP2h8h9bW1lfXLyOdakKtzFpWsxFZCo9XoqmVYdHUNsK2jn+ZJl4KNep7FZqSYQ2mN/Po00wf6YKJVMqCpPDnsoFq+BmfpBj/esBf/wEXoyK2OZY8KIqEiPEqxzJ8rwqbcayxJwqLo08vE3lufX5qAWsj5zaj0YuEX/zFgq3Nn22tr3TyoJyWYNAf9nt9jIkMOSKA7X52I1GCrza+aH75ov3ZVwVbrDRlNyBFBPBiccVGPOoBhGEO6XQavXL680/974jiEkkwh76QIiwtbtcPOcXitlYN2f8LDNvWQlcVigMfkmZBkVQ0axQQmRZIUVQ3C9sacSB2BFLr+8T4IYUORWPM4lWliHQCCejZUL/KFFsGbE/sQMK5Y0lyfBqW/wN7uIgrFTklBVdxUPZSJBcdluEiS+LpY9sS/GfDzw2o75MRBzFSFMci9/1aDEcZBIVxn7Wk+q3w4kqsQ9Ft0sCpikUhzu8oX/wjJ40QyVmUvB60Ml5llGGrLJI0ZLJUqfd1WyOu9ZE7TCiZZhiSi5Ivoy3LMXar9X1JGiHDgi5uM6l5IQxNQSoqo1uyoEk0YEz/RggVFaYcIFYttGoOapp4VIHmtGLTSDUu2KmcyfqwAW6YQaukwbNksOWMGWFit72gtxhjYb6ZAsaGGtrw2PZKoCKg8ciq//l3723t/HzV4YYh44A6J+qCLWdYKfX6UxZN4s5564sfv63N3y87vuj8/LLP/9ZiW9dnsZWOEgf1u1BU3YBuMDbtPvRLGTRlGy+obS3K1Qo1toFcmpo1KjBVqLdVD82hCn8L9gTY2vpqUk/3eCpyGQn5OEScMeG6CqpxDDNs/Mj8to5/sXgWuBFMLQuZctumzxMLbD4M9Jf4e+8GaJHNuVZRjTSOn0YfSJvulBH9BzxdFtJLhNQS4lHzEor1G0pTcQ6h7vCHrIPUbRnTrO+XaEqMUf6y7A708Tv1vQe/YGxt/mxrfVUTd/gWyRPNIaSAvpFBJPajzOg6XHrYBF9tfNH88kX7s68KpM3l6pat5nGiY5KxuBlNtjth+RQXGgUsp6OmtiEdN1j0EiStZhBFHZzcAioMrqziwfBZVMFCzeL+VYZPgSNVbTSnZZSqOqqpAAUWj7KkIiVx3KNtOz4BRY24NT2KWLQkD5KZhecpiGohmimcckEvNkckhXQr/y2GxiKkmTHswKsvgCpbcJX230H3KoisHDoo8AYaJIBKCY7Y74R/LrMeWclVrv9odJM4hlAU+6RzI6wiVD57xJ/BBVSqkFTKGzes3wUt9gcKxSKy2NRZPE5Pvpc/v2r1ZUWkipcalUCrQj5zmE9ZFk0HSjaP5tpGmtBtuw+kxZENIKErFIsIEZoNH5FTQ1VpIu+yQAf/np8rQYQ8+VwOu8n1g9FPXm9mTpdl5npAkci5+HdwI5fF2aLB9tFdcWC0DmD+AvlyN2I5DV+8derfIPCLcI0mDAwkFJnrIc0rQiEqaogoggMef1uiGpgYbPWjj22PMq2sSxJrm4Ys61oocSz55/9kbO38fNURsxYrjMtqSkOzF8CRxYbz4u6OSv3qt/QFb8mxtfn7ZccXnZ9f9vnfWmzr+ixe2uDncpAr/fyOAoPhGEZiP0KQ701QbX7+yW0Dg7NUo9+oOSraTBPFoBuBMRDNtoua5kEWb0f5N9ja+morKbR6nejjaZQwDZe/55U0AsavSs3t49/f5bmt418s/ogX8+i6jpLdww6LO1Sz8PtlpFX+We6H43qIxb+pFkKXNYStFvdnuuLxxf8PniLYGviqjchOIWsYqMiMY7mEqEp/pTWhVXFhezbnNQWbcSnuYLT8CJ5hIoceuK6GUP5in5LZ2vzZ1vpKvGTDjCL0s97kyRNlQ0YUZyF5/SjoKhzxopYEX1l80fzyRfuzrwq2OMv90OY0lKCTeAOtDZV8lgQlcbIHkJAb30EXRRl4/lrEtRYoThEDWJDDUEHVzCBKf7Fk/WWAHOhIZSI4tgHTDEjOAao6RWyUQvz/wRUymWaEjpNz5NQfR485Nxp/DUixDZXFWBA01zfajfs3QdPl+j4j9fsUIxam/wNmRRGPFrDPQ1nAnUBF2UrD0E0aogDp+D9/0/OvOkYYVbJHGo6vUsgr8FkkdIsyuGc91ZKDvqANRtNglBh/kcTCIvbspIBXFZ2i6ctvhsOggrSURTfbrkVNKFg2CtkcjEofOtSBn39q2yGgoXVCCW1KCabYPsCjqDPboDF/Iq9xMU6Rh2OJBVYpkAM20kCp6Fdi8oBev2rYCHkjRNqI0CfeYNk0AKFTRarcwTxu3aLz58wYrTSp3RSffoamrRojw4hxwhR8f9vn/yCjiC6HsZYpUFzz98hBitSmqDFoNT7/1H8utnZ+vurI0FCGrMt5N0ZRDVDxM6yPYkfxDKwvwZYtW5u/X3Z80fn5ZZ//rcW2rs8eh0gu9lM3FiCebTFkzlpaqd/5GRnbPj7DmJqaHsZke+t5YQ5Ezi6hJ2PA8BovZm5tfc14XShaLZAUCzUjTc8kwRf7coYuynHj8dvW8S+JG0Y4ox79narF7JcJr09ChnNtuCuxPKbhzrYBTglaQA8Y0RPKBlTDhHgj65cdspyGJYUIpTL0moay78PMpTC0uhFlsc2TXkA/81imr7FimbngQzwK3F+SEJlb/wTW1mJr82db6ytx0aqs2WiuhigVxJNuWY61h3SuUN9XMcFXG180v3zR/uyrgi1WQulYwRuXbo+B49qx/ZiRGDZqMkb+9i3kWAz74srnn/rfIaGKTGyhlFFhem34+wWjMXrShXha6kGu3PP5p766KEQllAIdvRaLF0XdqxfviIPv24y82KeGqbitEfKcMsQm2+n6L8/2oEsRZHctZv3zRux++VOoSikMJzEYbk/9ynQUu9AjUXi3/u7BjXoaqYBm95WrMWziQXhyuYeUtx6xnCKhbPv+J9i26PMtNMVFpDQNS+88GoMueB8VFgvdUvHPS/bHxGknYv7qGBEFT6gWoehlFiEKfXH1nuL9yw6N2VN/Q5nVXH9r2BqJedLv4b2LJ+Lo+1d+/qltBztSEOtm/dGdTbcfhvEXvIDIrTE3Q7atsWHKBL0oB2l0KBlkaHiW/fkIjDnnVbRJmxFvwSMx3X4OK289DCMvewm6209rGkDsfBr7gJtq/EhYdzQEr1wyDd//8xLolX6aNhpAftenkZPUbf/I+9O/mYGDH++H74YYaBcRGjRtXgd6WLPqL8f6D8fWzs9XHW4coCY148XzJuDYmWsYk0CLWkXO7sWmYNs/stkIW5u/X3Z80fn5ZZ//rcW2rs+BRn0HmklKRZs6s09twuJbDsGYK97D4Oqmzz+17VCVI3jBIHQ+cDhGnvcsjKqDtFqBVO1GTW/5/FP/O7a2vq59+BQM+83L9D4qCnEZbs2l++qDoxZgbsHdW9s6/sU7OaKQfYyoW7QCAtuEKYndBbtx++9/hF/8+T1s5jTr4sYDmv6UKd6YLMGvldD8f+AtwdsaIcfdVD34nMc841ySBqFSS+Mvt+yKEaMOxV+WxfW3H0uhAz3sRLMcYt3tx6H9xoWI7OrnR/nisLX5s631lacxLPxWvHzVTmg/5C6sr9lo8YvQ7B6U1ObPP5Xgq4ovml++aH/2VcH/U8kUGRGq9bvTJFF8437EYQp6lIIUzMfdP9oZJ0j3YNPKJVixeCnWLlmCe9sdLJd7IbOoie+FkBg1MeLAQDoQC0EhAj3mzzwGj4yu2ERr7KDXcvD1y9ehc8ll+L6bR4XBI8cRIkVs3CnVj5USk6/oPFxQ3+/CFavUqgbxIhBXTcHXTEgePy/z5wxU/gMs3YBLkZMuiz34DHiKAyXQoCni2KJYKPXVbzejQw1VKH4EV9dRVXxkeM4yTVYAF3mSbNUzkHdNnt+nZrIg3lKkaAEyingrkdhv8LO+arLCfosrXwFCTSLhRyzvOkLFrZ+r/iizWA9TRUbFMG2x/0kKini8RK1B5jgZYYR+fi7NNjbVHIinSUThSLkxxyaArStos8XdoGw756n+gATb7xg0hXaK49nLc+nw3vodBh39KDZIHqKohqIlQXNE+TF4PpfJLB7V8evjKd6slAnEY+gmx5TjzQTz4HDOPMiqU3+so092YasjMbDag2qYY6H1sZpt0eUWyJINK7JQtTgWkQOWY56zUn/8WYy1HXv1W5zV2IXKPqbEMx5su6dTfPE4umwiDDhG/ExEoVZwOc7rZ+K7t4/Gu4v/gjNHKFhLQVu/eizn4Zlso11i2zleMc8TpxgONvvRz/ETmyqHiNlusU9YjYShcP7r91DyHJFFOgnZVpPzaXSziDLGGWdivmKNwo7t8yV+nlPkKv31K/RiPjWKkFgrw+M5oYg3+TEvJPHGN/E4Ov8tDHgOCmyx14N4mxnbIPP8/RonT4/4P8aM+5nZCP0UYoNC3PVQ4Jx5hgaHc5QVb57j2Jni1fWyDot/s6UabMWqj53EcZb4XSHeTR62IoaRfTdiEm7g1ced5bxhfEc6zxEW2X7GY8BxlRh/PKWthYgYE+KW9DR7E/gKj1+Db33Wv1jvpSFN1WPc4zEy5HZFjhmLBseG48b/UmIfBInZz/gOxZsf+LlIDeobXVcN5oRoC3ObdoX5GMIXHfFDtBRdOHoz9r/4BaxacCemtzGnwjJkZxA8NU8OkTgXvUiLzeBZVGzd5dzxXIKr+DOx100c8zM8N5uEQOxlFJShv3wFBp3we6z0+Rmel91nTnH8mAehXCVviM2omaMxOUPkL/NQE8cJGU8ZnovxFUhVGMwplYnoi/jiZ8V4BOy3zbaIuBDjknJoMpiHIrd5OljVKiqZGtrIGTUjRo3zKBbeG30/xZ+JBXvxgiOZ889o4pBWGId6Pbd9xrPIG5G7Bcary2IsblyWyIV0NmQjnTnH/FCzjBUZFXKhYjKnowz/nuVnUsx9cgB5SOGxHY5disdxAg4cjxuFeRhyjWNuo+zrNDk5hqOIRRMa+y/GXwXHRSSJuGtaFlcXmT81xr4qMx7JwzpjSdORreZRU0voMrMoOBHbz9hg9wON8erRhDEuU+xrwLlRbfIZf8+S73s5JirnQyeH+Dx2p9lCPizVOdQir0ZVmfOt1OPQIl/YzDNJ5KGYf45bmbEeiT3AyN8pClqoBo8jxj/Fn1fYDoNtYjt5bF2QsuBk5oGIzxrjNFersl0eeizxABHbpos9lxhzrAGilliRjhoFj+K68Cyem+PocQwtyeGYkMc4ViIOVMam+GwcM3fZPsERWqSRJ/v567P91jxJ7ONEDmM7xP0BLtthkFsl8rLG2AlNl1zE/jA3Rfsa88+2nR9flWimObasFyp5zuF/NcNClnwm0WQ36p/HloZMRNIjLIXzyyoW22r9nDJzWjQ7DnkudrUk0ySLRyh9G1lyhs4xiRi7oVjFiY36o9ribjzxGIvgJTHmAflG6Az2kmOg1WuquLvf53yF5DMxjqRI9CtK/S4UyS/Bps4R861TezCj4FJTyD5jIa1DZxwJPVM/p6YwBmpoYSlyUzKKioY0Y6CH/FdifuY5LyKHBM/U441xzDNwTEz4Ds+qV5BiuwPP4jhaPCf7Lvbt0gQn6KLj5DuFY8G2sy2By/Oa5Cu2xWMdFZpCcLskuazNjDl+Pu1ojDcxXtQdZO8S+ayVdTzHdoj9tlwz5s853+4QVHNbwH+sdaLGpAOfNVRBjccUY6fTYItUkRhDoNaribjgP5icgyo5RtQbT0xqg/475DTxdtw847asC53F/hqMS4odiTWpUX4K3VOoMupyDsec895PXkjlkGWfZepMj2MnNF/k0vzz5zH5W8Ss6LXC8RY5I+ZRbCgpDh2JhRiOvc7Yr3CcRDyJ+iv4xWA8q6QPnX+XKhxD8UQG22x6nfVDhMoA9s1BF+ewwprTTOUsxk5mDbdYQxTGtO3QsHDM6rwRs4+MUZk85BkOOZm6SNw5ynOLC6YqNW0jfSfqnMk2i/ZFoUZuYg6SZ/g3fp6N5TgK/RyH4i3EvYwJAxnWckmu1POrUf1oVJ975vweEwaEyDEvxCKa4jajyDmTGLcm59zVOPmcK7EHd8z4EVyVdZ36XmpC2xuMk5K4O8qnLmTsZTzGVZqxTA1UxeCG89eIH8T8BdREPDgyjo8SjyfqlohlySVL8mca6xuDnccXsVVBF4Ygw7ona51wOI+Cn3JsTVnkGdussB0K81th/WUl4LgLXZ6BkHQVqiWLPKKRK2MRNxx3k/PgizoblepzIbMG2HWtJkN3+CUeX6LuCxhftZSYawsWPYys1ZiXjAX6FAYFNTvzTilxjkTtJ4eprMNZ1ma3G+k4jZ6Miir5RNxVZ3DuVOp4wQkiPhxD1HzWU5KkY5Y5HPQr7Lsnlan/xB7lbAt5V3CoxnkTfRN+L2QeSWxTQF1cYc0Ti6Qee9mlD8AIdz3ZPs96Qk+htFBDkzvQw3MLXZbmz9hOxmXA8RWPJgqNJnNMVI6pXGNfrbj+iLarso86vUK9VpC/GSZUyRwn8SIg1ndylkfeVgOhAQSHsNayPcIrNcqPQHY4N+wD+VL0V+SVKDwpzhlDgvVNhs0cMXwLJYvH5+yLmjekzCFPf4LfnHM3VjN2Tc6NGw1gwSrAI9egxLrDMW1Un0NyXTnDWKCoFrlZ4vwIvSrOzengz8njjFUxz36avoLjodIzSIwPhW3nwEBTvXpsRSGdmNaBipGCVqH+TPHcW5k/TV5IP1gkJ3CMLA9VNspVmpD2+9i2PMfLIheWGGPkb5KExJgNtc+0os/+1Th3FudWxDvNAeParb/gRezEleLcif53z/wOfjf6JfQ9chYGpw3yfAt9I3Mw7ieni8dXqUljxmRYrethk3wk5KfwW5rIZ3ovujyob5+HQYf/BauMiO0V3GxsNT/Wa4pLvcGxEHVP3NVrMDYCld6ZvzM66hqmwrETekf4Qpt+2aKmc8ghog0S2yJ2zw3YH428KWqHRy4RdVx40ohza4htwqjxhceUOa9iLSRkfjXqf/0tx+Qc4RXCulcz6p5G1P4aveRW6xdRZwRvU8eIdkXkKYljI4skYSIKrxwKn/XO+Rh0xJ1YzNg0SLY5thkcdzGuYYq55TJXxZOT1Bghc9OnFlLIpSF/rnuMDR7HE1xJ7hA6J0Uu9hg7giUMttdn7rg23U2adZCfKSnNGFztZHw1o5WfFWs7pUIr1FKNJaQLLfSBPWyr4ELxUheVvKGKCwNSH2dC7IdK9mH9Fn0LA6GFJBjUpa7DORe6l//V13A4rh5jxqhRj+b60MamSpzTXo4cyLXCqzqKqNGcZ9bMz+q1+RmXiCc/2FfBmbbQ9WnmNXU1M6uuYQLOldDAkogdqVLnLZF7FueiKjNWyIM2Y1noAKHPPb2f3yXxkI8EJwjuE9Mg66wFoijL4q5M1gaes2p2MhaYHw38qVhvg3hPCac7zdyuULOIXBHjovPnjfR7zPFhVxjPbDfrg5sqsd8aCmVGSb2W/Xt99t/gIT4Dy289EQNPDE6aZJEG4xZu0I3+ygr8df4QXHHy7igz+DTRMHbqG2ccjAEcqJyXhctxkDhxYhFQ1jahI8UiqVFs2mkoNM0lktAgo4weDlyWncky+EuqCEYmCydPXCUJijThWQoTfqYrnaHh4GAqOQ6giayZg0uybmWIW0EfE8dGiskVimCzeB5TQbfTTXI2URzQSQZnQMXNdcHjOEyWwIPFxK2QEvzK+vomxyUaUo2kM7oWoo/kkBIjShPa5VFY5GKsJlGFZB3DJGEZIplIXgywVJrilP2J4yppiEHKCdKjNEwmSy9VB+kVTTQcvUwGkwXVJfFx2DnGDJ6WFhTY/7JY7LRZkJivtlhsYIERyeCR3Wo6E0ss9HB8aP9gVRQsyzsMwhakSRB6wAFKx9BcBX0k4cHOAAZMhe3YTFHL4spiaOl59o3jaqbRS7FbIxGoBseOBGBz3DIsXH1qhp/lzNNcBgwM8Rk9U0BPhYaBJJTj+PSqXQxUEVQe2pigOgVE2d6MQWxXJw2kEFI2zY+TEo9vFDinvchzTjKBWKgUi7oqSqky+rMGk5wBx6IfcVxClyaPhT1QQshlGlmKsNmbRuPqv/8c42s0vOzXMKuVydDPuOyCVqZpzA9CNzZB9dto7DtQZiLH2hAEZj+Pk0Xo6ExYCmmD5EBid5UARRJpUO7iOUvI21Vka21QPFIBg9uhmRZvJbMoEnRpAzQWpxSPJ/eUWUgyJGYZZtVEilUz7bay7UI4l0k4ATpIKghzqMnd9fkxggJ6A3EdJI02zgs9FBPWRYpzWdWYjBR3oT0YOYqTtbkeRH6FQrwVG8glVlhkuy0UgwqJh3MStrKtJH8tgypNSsQktgISK+OowBgK5U2oiKvbKZY3ho4WsO8N4jvuDVHNUixwHCQKBleIPVEkmbsZxm3MWOhlbitp9o/nV/x+Cq8s5BLz3XRYHFhYGV9uE/O7xriskXBCilSSaifPFUhZ6KYwdlUEjoOMzSJKE9vkMwZIViqFiEXhW0mJu15rMHIqyinSasVFOt1MsUoT7PVgeDwQRXNjXbit57HMeBhsFuwcDYxRIckyRsVLnDxdiNsMeYgij3EphFkQUzDRAFXSDG5vMM8v5stFiQbJY19rQvD6AyjkWmiCqxwDijbHgOq1oKhRdMkt8Ptsmuw2mskUahz3qleBYoniRqHIuSmqfWih8LD9gUhlaCrJC63MoZhtiMVC9ecbCIs36TFt/geNvt8raxyDEjopiH22Q+xHo6kUecwDsTCp8++uiHEWpE0UgWmxKGltoqdiDppNLJs+soLrmEeyQ/OOJhY9xoTWz0K6ln3fgHxMM0Sx7sldSDuME7UfOsWtm1E4li6Fl4U8i1qQksnza+t/LwuuoKGJOEaU9aAWql/sob4hNzCmyYUpFjzT0lHhsVm54VAsqC7NWpX/lq5RUJARKRakSh5KMzmPsdRBISoMlJwxKfRKHBsWR7bbZHGPWPRqrkmK6xW0yLmlcReFfKCNaqbGWHI4jgoGcMxqLHQkXOYSYyzqQ1xgXaEY6W4S1ZGxES0jhxZpHmgkGAujWCBlCoeeIF1/0ZhOo9RjMd911j7WgCqNRyosIVOR0K1meWx+hvGnsz0VcnheGCEKh1wpQpl1weAYVPg9yeCAREXGf5oigHWBoiSyKKi19eyDjqoo8Ab7xThR+f1Qz3KMOjlcKpmUHMT43VQlvxYsjkOJpi9H8ccco4EAv9+If7b1/Ii7aLKsfZVyL42qV9+P0eoDhQuNF01io/6loyr/Xyxikc9oXByTgjqjU4Bb5DJytVgQFOKXta2Fn3RYDXvJJzaFS0+atZljYHK+bMHj5O4UOchx2T+L3MZ8EqZaZUwLs2cUq8x5Grewn/9OkxS30jRkWEckDPZ5Lgq9KGV8tp9Pv4QO8myZ/TH6e5AthAhKzBn+vYnGThKLrOWAQi7L4xVZJ4x6O8RL5WLQAPG4Esk+o1LImzTAJusp63lPVYPPeEtZIg7FY5Y1wOhiBHWj6GeoW6hjqR4KPEbAsWopsy4yhk1XR7NJw+bQtLKfeqSinwLeT5E/ak3sa4U1jz43Q+HM/2SaPMGBCnnRE+NIEe+xj2bM7NVyPFs3CuTNRvzn0bR61AY9Uh5dko0mcQGLJq6HJjoQF7/Y54BGu5WmQWzHUhK545GD5DTyYi+uBv2PrQKNDLVF5GKAQ3PNNlOIwFE309wyTxvkp8Z2lDmGRlVcXKOSyjWz5rOGhDQmrPOKWBAlVwc5GTlyhulxXsiTeRrVkDrBYK6gvJnmi0aXHK0HPdikFeHSfBVYuyKxAMWYi6nLqM7QM8BE1e2DMiiN/hrziYI9LbXRTBko2h2sry6Y6jRs4mJCDIYI60Sa8d+EPq+MVDPzoUbxTU1RUqghqAy6yMGKS3PM3IzznO84S44vMv61hvpOmN4eY21dL9cvrlVUNNUXjdk3KY1Y3yQawPojLqQMg0XNUuHY+xXGnuD5BvWjUX12OT/ibsV+N08jSG2ecpELydl1o1ZBs8M2CPPM+NVqbv2R0u6WHPNPKAQZJVlCk9dKXUm9UxMGu4zI5V9oSgypv+H8NeIHSWrmsVmnq33w8jW2h9nFQdukU4+QA0OOjXiZiitWhKkLLJl6Jd3PykwjWm2jjiqhUCI3ugUYegYkB+pDGl3mTMj4E4vphrioEZc/mx+Oh00/Faqcf/axRj0i8o/iBJmoCa3MiZQveKMLNdaxftYKmKwDUS9jgOdnfc5UxeKTgwrzw7Cz5GHq7JA6PEsjKuU45+ylQoNKDWWwHtSUNo59GZmij7TH47LG6Kjx3JwLjm+o0/f4PcwP1m16t2xlIOQK/Rd1SRNNZZnGSiwohC016gr6ppA1nzxAKqVppfcIg/rFfZN12LCoBaivKEZZG/LsOzlTPK7IY2Q5H2XGMIQJpW6jcUOJc29oKXjkrZjHZYSiEtP0s061Ms9F30TuKaVmDl0ZJbHQKp7j9Zi/HGtxCS/bl4YouWwl20/tG3TS17E+kN8b5UeK819hnFn0rwr9YDHohVgr77VMuDZrG+NREQsGrE8Rjy9qUdUWc5vFPiefjyOX34ifzFxPP8S5tDbCzvjUvh5ruDDbPG6D+pyh923qozYQCwe+KbaIQ4H9dam9U5xfnWPpMBbFwoVW2oRWzlGfeOyTtdomh0LwNkNJ6eNn03mkKlnkWDLkAieS+bS1+dMvFthYFxyFfF9uI3eKC0bVeu3VJX5PKZO/M+jmmFWpdz3TZN3rg2aU6IXE5cAsuslzomb2m0Amm2eNYh1mPPWznyo/I+93Bx44oQUua1Km2osWh7HCOBL6LRJLcax5DutqT6qJmj3CurQEkzrbKIYoizeWVwfAkcsMOWoOahbP18hN5JfA3mp+LNPHxyq9S6jS59usKiG9YQxFH8i6Jhb9yXXUziPYRqZUfXFNvGurT/WRCbuZU2x7qoQOHlsL21AKmUMcE7EfaprxUJbpwXmussW8DyiMmDc2+V2ldpbFNhEN+m9SvYnlMXHPnuz38k/Mn7qwzaBQDrdavxj0apFM/c+z1C8exBwnoVkZ72X6SrHwGDWVodDHamETAk2FT91RpoYuss4KfggC8VI/1jLyg26l6DeY6yL+HeoSej25WYUqFoYZx5reho08l2xl2JYUNjAGYvJnhpSikINt1kbxUi8xPxLnuxbTd5ELfcdmvogLU6wl+mB0k38t9PJ49GGsT9W0CTsSF1KoVekD0yrzPhA3uHCueS5mB6q1zcikW1AjfwqfIG4tSlPDV4U+sSQo1Bs9jA+PesNMMVmYn2IxV6VoNsmBtpJnbWZ+iHUBenjTzTIOLQzwmf9aF/TeAnyOc5ExpJWrbDePoXaDJRYax7YcUWeRhyo8fpZ5GPj0F9TeEfM4pj43a0PYLmoOnePPHLQYx25zCk4f50Qj79BnV33OP+u3St8bsQeN/Gk/9SjII4obUUcxFpgillvkYKdYJ3sa6vcKeURcVFM4xz51eVyh31DE9gURz+M01Gf/Dc7+ZxCDIQo2aw/ByeE/hOLOF54olc5hnLQZ81czkGISoUqBpVNYMKmksrjri0lGoup4+CAMnjQCAyfsgrGjjsJjy9uQo/isNVdRMIvYSBPTnFKYLGnM+u1o/OD2teRRQRRduP3InXHV7Pl44ODtMXTKJIxpPxmPdBc4ZTaJheK3Vsb75w6FOW0MBm0/DUOP+CNenHkUhlz+AgsnRW2wAP88ehecPWs+rh/9DbbhfLzpbOakVbHw7z/E2LGTkRuzA0ZudxSe7ByICgNfjXMw3/gtpGl7Yfyo6Rg/9DjctYqkyYEsL/gbThk/DcPH7IGWEdthwsFPYi3FvXghtXjpMseXhbwJKU5gWXsbp03dFbevDDBCzzG4JfRvehqHbn8RXtciNFU347ZDJ+P81z/ELQe0Y9CUcRg97HTc15VFjYXBMsQCAJNPJB1NHD0YE5zjxjnwae4kJkueBLXynv0xdNQEDNxhZ7S2jsXQK19EQSmQGPvw7JUTMfRn/4Xo0xuw24zJaDrn3c+uRnD8N/75aEyfvBsGjJiIgWMOwINrIxYXnoviU1Momilu+pmwg1kFy+zc+5eNQuuo7TG6fXdM+P6jWKtTLbNtRRKFb7OI5FN4e+ahGD15LCaP2g5j2y/B32Z3wGBdbKq1oMem0St4FFssRsFm3P/9ibjw+fn420kTMWzSNIwaeTBu26jwkBRl2ls4d/v98dSGZkzcfU9MDTdB2jQTe076Pf7aIxJiEGZdsQcOeew13LV/O6ZM3wvZGe245PkCsPIp/HDq9hjAMRk86iw8nzZYDcVLflTktM1Yfu9RmDCB8zp1XwweeyzuW0ljRKEHfRHu+FE7rnz/dfx0h32Q3+VXeFFpri8EzPnjPpiw61QMGjECw8ePRtPVC+B5HsUNBTjno/nVCzF25PZoHzMK46YcjD+sZ8GmKQko7gY0mxRwFTiRTp72seDuE5HebjzGjNsFQ9on4pdveCR/BRkSQ9e9R2PCqOHYafwExgPn9OKnoORSJJwqshrz4LDh+MXrL+LK6TMweMwFeATL8ORBo3Hyq/+FSyfuieET/ohXaIrK8QYsfOg7DeN71O4i5o7Gn1eQHJnjr5w3HEf9cQ3W/GVfDB09GUPG59B+zH1Y7wtjRVJz0ygw7zofOR+tE8Zh8LgJGD9+d7Sc98/6nTRRE4sOFuKW48fiurfX4J7DxqFt+HSMGXsyZvaaJBmxuExhUAnw7LVTMHbaBIycMgojvvNHrJeZI1UaVteDYSp45ZeDcMA9yxmLLfyOiraigo13nI7JkyehbUQzhkw8CjevJvs1izsQFuOaE0fh4td6cNsxg9E8YTSGMp7u3MhiTAHwt9+MwLhjH4bx/tXYfbsxGHL2hzRXmfqV6bUzj0TLxMFomTYE40cchb+tbkbaYNmmGpFn3YCmic0YP/GbaB6xP+5azRiKKERFZtoGC5mLGoX8iLWP4JBhEzF6RCuaOacTjrobn4j7OyXmEz8trt4Igyn2mBKLigJikbHR982URSFmU9BU4bA9SkQhL+6QKVlYef9hGDR+GCaNHoEhYw/H/f1pBORqxWlDPpXH078Zjtb2kZg2aleMOvxxLKKIEUiLBUaPedLzDxw1/RsYPnw42ieOwKhjZ2Gu3kGzV66/WT7F47155Rhy9hRkRw5kzv+Fgn84jyCuXmWwwmLck8c8Ci6LQqaXojUgT71++dcwbPsJaBo7FSMOvAeb2U9T3NVtUISzdnTk+zjmpzNupmLcdPL6tB/ij7NZiMRCnMVC7ZV4HlILlb9NdxYpIykGCugh/6VZIAMW41VPHI9h4yZi+GR+v30UJp/1NmsShS7FYq2XIv69CzBo2g6M/d2w3fhjcM+8TRThOeRdxic5TZXaKAZoIFY+guMm7YqWcdPJ6QMx8fhbsFDc7UVx1MpCG1EYeGlxJ7N48+ZG/GTHA/HUqs114V/1aXHW34tDpl2Jl2oU/M0hnrp0Jxx121zccdweGLrdvhjYPgEXvKqgZdmtOHTS9hg0agyGj7gAH5JXPJcFPVqEWw/+Om54fT5uOmIwRpE3W7Y/Ffcvo3CmGDe1CoYqCj669QTk996RnNbOXNoFQy9fSIHc15B/tvX8RNFr+OnYQ3FPn7hzOAOT46L03Yz9ZvwY79FYNOqfQLzhCRw8aSpzdhomDh2LIUf+CSvcav3OG88PoaviJW0Ufk6FfVIwQmrBR/d+E+PG7YFC+y5o2e5APLwqD80uoWLaaH77UkwavD3GT2ZN3eEM3L6aOce6HNIJdNz7I3Lh11kXJqOwXTt+O6uMqv4GfjLxUDywrg+yk6JYizGg9BQOn3wu/qWQu7NN2ECh2/uXH6N9UhvSk6dhyLijMLObtUosGNGQVGiSVJrdDuZExpFgrJmJA8eMRYYcOn7MaAzf/2Is95th5WhexR57CtlUfDdmbAXC0Mg0tRIyJKvM8z9HZuxuGDaBYzrtSNy2VoFqedgcbULnA0ewv8MwaMIkTBx7Nu5ZGKDYWqEQj9AibmugJqgFPgK3rX6B8PWrB2LAdhMwZvw4DDnpYaz2KeRpEvMp8gQNTSP+896+gPG6I0ZtNxHjxh+KO1elaYyLFNF5LLn9exi33U5s5xSO5XdxU4/COKMxYyFR1j+J3SeNbtj/bI8wSw6UNy9GKzl22BTWxQkH4a41WeRpaBrlZ0hjI7Zg6b73cAycOgz5UTMY07djI9uvKzIVjIuKIWPjLSchNa4dTYyJYdPOxk1dPfCpYW1zLW47eS+c8+YzuGjsGLROvQ6f6C1QOvrJcb2IvCbAVmlW8lj74MnUDWlMnLIbRuQPwT+7aNgUxiQdv6uzz2aOwl2H7dGYUWsoUoyBwnjJvXj+krE4/iFg4x8PwKAZ22P4uFFoP/I2LCJft2g0QdoKXHF8K87/5+u4YvxItA6/GG9Q1DfSdyUaoTlnH4xvPzQHTxw+A6NntCDfPgNnveIgWPQUDpy4P0a0D8egidfjH2EXOlIa64OEuC2H3lvJkQ3qR6P6fMgD8+F2kKPSZfg00UtvOxEjJ++FAZOnon3CDGSv/qB+8Q4pmiS6xjbqH79CX210IhP3YQjjf+YVw9A2ZQhGTR+DlsOe5dzRdNg5immapQbz14gfBg0bjFZqvLtLA1EUd9pI4iKDgw/PpR5gXI4gX2aPfxwraDLpiODQuMo9NNqrZ+Kw7XmuQbujdZft0XzSE1gqLuZ6VeQs1g4a5Vnn74CB46lzJ+2JwUc/haWOhybFQUHtQT9NmKTZaLHTSFEDKEWxoFvEw5eMQWbKQOzW9m0MPfppbGI/zQoNKHPVCzrogDQsfvBY5IaNw8TpO6J12gF4bAmNbyoLj8abpgKW6sBRM6xHTt2PydTzFnKQUjSBcgGbHjsZbaw9Q8btjMKYiRh0zlKafY6nREOre/DePQstO1O7TZyA7Ngz8FC/AdNRUHNCGvhO8hlNvbg4tuo+fGvCjhg5Yix2mNaOgUc+jDm1KvrDXprlNPWLw5pcwhAtR3P8Jn487nA8vSZHryJMuYVw4xP44Y5X4MUqYyOr4Z3LdsPhD76CvxwwHUN53NyYMfjV+zXYq2/Fj2ZMROuIncnZV2IWDbFB8xp47+FPh+2Is957D7fvNwFDZ0zDyNGn4r5NWbbXqd9p3yg/ik4JmQ+vRG7SEAwfOx47jj8Wd6ymsWasGLrBLKU6k8WF5QCuuFOR86abKjodH2HL9vj9tYdj7uW34J+FPmSUNg5hhXPVTP5ykHPUhvW5LG7ZRoH5otFsb6ibbamPc0heLew8EQOmtmHy8LPx0Lo0PLUN3aTwvjuPxPA9p2D08EkYNO4gPEG/K96GGweixhQ47r0cb3F3aWGr82eIJJZpxTEdrH78EIylpho6eWe0/+gxLBVPQZHPxF2PaU9Czx+Pw4jWARi9x7dQGPQ93NLJek8hUFB68Idjc7ju5Tdx/IA8hk46H68brXA678F+1LJfO2hvTJ86DYOOegwrTZ15aKFif4LfHbsHfvv6csw8fCSG8+cTRx2OR+coGEKfFGANAsZBjvova1Xw/iX7Yvgp98L79ArsPWk6sue/gzTr7dby40mDZ2Dg5MEYMulMPMM8JLshK+4s/uQBHDy5FXnqn/btd4D+/RuxPqchp3BMyp145MDt8fNXl+OXI8Zj/NDb8L7vIct4tFMR1pv9SEslyEYKm+78PmN2DNrHUm9NPhEPrmetS5ML7DV4+JhvNex/hb5UiYawFjNWKWI6HjwcU6ZMQuvo8eSGyVutX8SLhvxwBR48ekecP6sLd544EkNGT8fI6SfiobUhUKnhuQt2wsij7kQ89xIcOeQbaLvgQ5jU4fr6P+NbE/kz8sOM6aPRdsQj+MSuoBT0w6LpF7u4IrLQ39MBGP2Qu+/CAaPGYiL1QsuoYZh88K3YzDrjisW2/m4ohthazUDEORXXFRXmVcFMocdJI2QMC5206KkjMWzkWAwfuSvnbWcMOecT5iv5i/xK2YPejy7jHI+nJxhGf38S7lll1h/hV6UiuTUDcSNtlrpdW/NHfHd8O/Lkx0mjGTPfvRDLg2aYeZaBUDwBaFKfRIjSWYT+e/jp5KPx4EqHXBtQw7ioLrsf++xyIV7s70QxU8QrF+6Egx59Hw9/bzvWv4lonzoRP369CG/Fi/j21IH0ortgwqQ/46+sg75sMie7OO+j8avXOvDH02dg1NSdMWba9/GwWItgnsf0ukoa2PD772DSzjtiyISdWcN3xS5XfwQj8OCLixJmuaE/jcUajarB5fhvvvNYTBo1HkN22gWt40bguufzDfX7+xfy3Bc8x/kTd0CWYIYdWHT7GZzrB9DfZzbUZ/+N/78FxaC+8qhSFMRShYPMRBQLqPIA5FI74cLfjsU/DtsFx93f+9ltqaVuZNPNNFfiSq6LjUyoGf88Du8vWoe+pcux/p4h+NW3foE3LAZyD1icmKSxi6Ac1B+JsWLxyBqTgNPvi9s3KZTvPu18GDfMxsZFH+D+497ExT99BMucAHkrjVeuHocj1l+Pd5eswdIPF2Lj2V340S3v11fHywWKbYo6LzTQc8vjyDz3EtYs/hN+xKI79/7T8O1HfoR3V27EmoXvoeeOcbh055/hRZ+ieMPv8LUz38c1s97Gok1zsPa+79RvWYaWQuc7/8APX1yOzQvfQO/iJbhQug57XvMPkgBFpB6jKIhFrACnWezEXZPxYLEkiD6fxg81SFTRkStxwEMUKQxaGbz3/vh3yP55LuZ9OgcPnTgXF//yTqyrpij4LZoMBbK4XZ6ZkApYiHyZBEBRIK6ypHuw8KGfY/frv46Z8+ahe+Gn6On6CNfMPhkZkqoSpnDw+eux7LaTkdv+QrwxZx7WXDcdhbAZK+47Hl97ZW88O+9V9G7+CB137oYbd78cr1NQijsNumkmxJWHEW4BHW4vXr9yII5dcx1eXj0HnQvewLozenDE5Yuhi1te1Gr9tvy5dxyH77z2Tby4ej06lyzB3DsNnPeDu/E4iaCS6YdNM4ogi7Qj16/wig3NHzr7Z3AvXY3OT9/APcd8issumokum32uMKHkZpJJCVEqTZLJoKT2o51jkNKZ5FEZGovsB5f/GdFdnKOPP8Snv5mGB34yGmN/XcVdn76CdYvfwHW7v4hTf/UPiinxaKKGpXefjL3+6xC8svI9LF34IdY9MBLnHHQ+47Fcf2y4pRbi01vewPSn3kPnoiuwD83B2vvYr99/DTet3IAVa9bw3/+Fi1Yej/ZrX4HbokFfezv2PGU9i8NabJizEZ8+sC/S8UD4fh/NRhqlYiCenoZp9GDNfSfiO7/bA09/9Dac+Uux7uULMF1cCa4GWHD3Htj1mhn407LVeGfZRnQufAe/XXwVpp/9Fos/RZ5TQH/KwsKbP8DgF97HppWXYn+xDpodjY23v4WBz7yMjuVX4vthFmvu+Dn2fum4hvG99sNPsPKuQ8VNDBQoxfqtz2/dtQPOVW/HwvULGOfv4qL4d9jjgvnop3iKGMXr7jgWO/7OxD2LlmLlkjlYz/G4ec3PMfDqWajZG9Hs5pAqDsFDh16F6OqFWLfiTfztuPdw6al3oFdc/dW7MOu6GTht6U/w0gcLsGTxcvSe24UTblxOxhFEKe48iOjjUjRqbajIG1Hzu7D08Z9hn9e/iVc+WYWODevQdc8gXPGtO/BiL+NJjG+o4O9Hn43slRuwccVinnMzc2kmVlTyOPj3q9Fx99fh7no+Zi9mHtyyIwxxF8g938RuL+6Nd1ZsQveSpYyPXfCbb1yMZ7UIzrI78YOz5uKKZ+eic/VL6Ln/QOZhgA5FLL5ywPiZNPtjWgo+nrUYe725HJW13ehb/Bx+rtyCb5wzh1Y5pjj4bAFRGEwBsbgofomFxUbfD/urNMZtFEc0zzy3RBEcVh2s+Mvx2OeZfTB/2UqsWrYCm28dg8v3vhbPV5mOqo4nfj0WZ665BO+v2YQ3VnyADWfPx7E3LWZRUFHye0HNjFV/W4Fv/W0plm9aiI4Vb+HqrvNwwKULUMoMZuE18MYNE3HCBxT4mz5F54oOLDv7A5x8K4uLn4FeK2MUPVhvTWIeVuuP/rTUgJcvnIbjPzkHH3+yDMUFL2P+LxfhyBs/qN8ab9oUPNkUOu44E3v9cx+8MmcBVnz6KWvCYFz1w6vwYqQg75EjVAN60E3zl2XuV5BSimhJV9Ec9SEKa9jw8CnY5bLheGLeImxYNBud8+fh8lW/oLhYA9XLokThss9Za3H5sx+id907WPTHozj4beRw8YKBkOZTPHpSv8yMea8txz7/moPNy5Zh8dI3caX8Z+xz3nMwMxoqFGYajYAYd/F203RE0UMhX/MKKAcUlhQ8rlqDXq6hnKdw7/XQonn4+No/IHP5G2zX83jh4u/in2e0I31xjN/NW4XiukU4b8ajOO7CN6EZKoJaM81TL+46+Tzkr1qH/gWf4J7D5uPcy27FagrIas3E/HuOw343tOOuT97ExjXL0LnmeZy36GgMvPS9hvyzzeeHfkks3Pg2TS5rQSAex6d5VR0Ntkzea9C/IJSx9LVFOOClT7FhBblqyds4N6BpuOpV6MZAmrc8KuQsP83xFwsTjLkPbzkERz33I3zAerZ+9Wx03L8nLv76BXgqTQHc8TK+e8JG/HzWAsxevgTFG/aGRG53aHpW3XsoBdl0PLTkdXQt2ITNL/0EAy2DRkAsclFI0YQE1CJ+FKJT7kGu6CNV6YUtDOYDe2G3vx2JdxZ0Yt3SNcy38bhk70vwNuuDeBQwrdBMhD7ysXikqg3L3uxgnzZg5boFrIXv4gr9b9jnkn/QUPaiZlDoVRjX2UL9MUTFLKDK84vHiO01M3HAT2xc8vocLF/Qj76Ze7E2ZFEl83Y8dhL2eHY/vD9/Idav/ATL7xiMmw64Gh+WqjRdaRjkXTHnsVTGgHQJz108BEfOn4kPPn0P65cvR/cxK3H8DW8gDCmW2cdAcxry3/eOWI4/PruAHP8y1t93NDzZZvsLWPzA97DvrMPw+rwP0LH0Y3LrVNy00yV4hXOqsb5/9OI7OOaVxv2X0ik4a57E/j+eg0veeBM9Hy/B6ju/i8hoqc97o/zU9Ro+uPlHODb4PSrzV3Nu/opr9Zux1yWzUaSJ4sxj3V3HYre3v4t3Fi1DiXVh4+1DcMWO1+N9Ghfb6aCOjTDv6rmY+NIKlBaejz1pioIB4s4mjmnURe2ioHbXXvj6U8fhjfkdWMFxWvngRJz/tcuxMEhTG8cQm7uLfaBicVcluVqTqF/jCF0p6h0vw1Lh473rdsGJ8V3UJZ+gY/WruC64HLtc+C5j2ofrhSioBSxkHS988CmKay7DIdX+hvouFVZhG31Yfsm1qN7wEVYv3oBXLp2Cl86ajMFXrced82dj8fJ/4vodHsVPL/yQHNANT/Wx9g/7Yc+XJjasH43qsyc3QS9IzPMAm+4/Dnv8YRAeWvQqOhYuRs/cZ3H1R9/H6Es+qd/p0e9vJm82oTl2aIrasIk19IXfjsPZ667Ch5924KN5H6LrnIU44oqPWSSp23nsRvPXiB96165C158H4+I9f4r3qYvEXdGvXjINZy69G7MWrUHHko+x8uQ5OPP6OdCrNGqZNKRMKz59l5z09xWIl7+NpUufx3XhOfjWxa9DXHcOONdvnLs9TllyIV5buh7zFr+D0lnzcMyN89FHjpV8+hcpquv3HtaFDnKhrKh4+coZOH3xJXhuXRGLVr2H3h/Pw+F/mA0na9EEWtSHA/HuzOOx5wvfwRuda/EpdUrxtkk47zu/xF+rjEbmrdxEmx5U0cSu5nSVcaZDMsooi7vOmftr7jscu1w+Dk+++w7KC59nnL2Oi5cfi7Zr5sOIa/CXPYFDTi3jt8/MQe2TBdh4/06I+h2UTZc+LI2WoFDfXsR1Iix5cT0OefM9dK3pwKvznsJd0b341mWfsIMWtXIJgZlBKkqhq9IDlbUQ7KPjikepa4gqfWwXdZLdg9A0oTgqa0w/3r/yQZi3LcDKZUvx7JWT8JeTJmD0z2Vct2QuNq3/O87d/Qkc88u3UKzYaJFHI+2rePTH1yF35xIsW/gWnjz0ZVzxy8fwEb1qOogb5ofZ+SC+c/wsXPdaH9Z9shEfPnIg63Ufa1YO3RaNdyxDbNUgns6TZY1x7MFibIunW0p+FpkDr8DDJ/4Vp/90DmTbp0dlHxlDhmvTn8YN63NI90dZSvNdIUe30ydFCPr+gAN+2YnL/74c/R/14MOZU+HEjGF+bu3DP8Auz++Ed95fSM5biQ0zd8LPv3YqXhG1zQ1R8TZT6NJzEeIJsq3Nnx4/RDbgd6/aG78gh65cyNr2wTO4NHUx9rl8HizOa1Fvxfr792edOBJzNnRg3UeL0TFzR1y1zy/xUq4bneLxRmc4ddaz2PPtbpQW3IwZPGbvc2zLu/Ow9p0VWLZoFs5TrsXOl7+DbLrC2Migmed/8IxfonrdEs7dQtx72Pv4zaV3YAXzpxamGds56l6wvjZhp8ueRt+fDgP2OB8fUO+tvGpPjm3vVvPjb1fNQXnubNy868s47irmotQBx4iw9u1FOOi1NVgz9xN0f/I8bjSosc6ZhT4pT18awE7ZWH3XM5j41lz0rLoI32BbxVNEbUUNWU/c8JPBnLsPwW7vfZO19VOsFZx/7yRcuM/v8XKPDbc5g7LT2bD/TRYD3WesVW0snHkYdr5pCu6b8xE2LqTnfemyrdYvz8CmD4oR1SI8cPbZ0K9Zh83zluLO77+M6376d8xuCXD4Fcuw5uHjEez8K/xjxbNYed0ecBUX9n/14JDX3yXHkB/mPoW7o5n49qVzGHspejbW0FSmfgezbgwlJ2awblYnfvD0e1i76G2s3/guzrFuwQ9+ej/cKI1shuNBX1N/YoteN1Ls+gJWpdqDFLk9Q85ZfvvB2P061hfybXn1AnQt/DuuW/YD5C5/CVGsw+i+H6cctRY/eeY9bF73CdbdvBe1Bvm61gFLk1Bi7saMmUhpxdoXyvjhC8uwbO1ibKLmvEr7B/a59L+oT/o4XilEVXph8eIgcdel2AaEmsrQ8uKWGkQuc5VjrvfSyzYPgFIdWL9Z7L2Lb0Z88wIs5VzPuujr+K8Tt8OYc4u4d/F69vevuGbaTTjzV/9ACz1MRiyaxi145PSfAr9biN5lr+LW/d7FhRfciy6lGRF9x2L6za9fNxJ3LJ6PpXPew6ZVr+HMJQdjwIVvMzaA/IKHGvpTsU2GLbTjzJ9gx2sH4MF1C7F03ntY+eKFGG/wJw30+7f3OxbxgkXorQbkvDSC7Cp88OJHOObEszA4qzXUZ/+N/1lQlMQtk2xQSLEs9iNQFRZcRdweS36zsxhw1ANY8/FvUbphEsaMnIajnqqh2N0Js48DLtPo3Rbh+utOw3AmWeSmYO1xNi7f5VE88yoLQprH0lOUbeyYUUI2bEKJBJaNHNRMDzGLia2H2O3K23DmYLItBuDbx/wKM+Ysxaoc/aA9C48//nVcefOhmNztIZtNQ/7aRXjoUHE3UIScuJqUEjcMmygfcRouG5pGKG9Gpz4bj13o4Xc3HYcBWhcMQ0N5z6Nw4V7v4dXZVVRIKJnyrhg2osCJKUHZ/QycOt6EVuvDiBP/iONHUEhx4lyS/Bln/wDBsvVYLO4copkdIER6hgnRo9J4lqGI/ZEUsT8BhZrCsdQVWCRx35RpKBX2V8Je556Pk3I8PkX0Qaf/Bjt9uBRrM1VUySWh5JI4mfBiMoLPHnUy+B1TPMLSMxv3X9SD3806Hd/JcDxqnJe+PI649Vrs8uhLeFtmYHDOZAZJSbWRF3uEsBb1xC/j7ptVXHjpCWhPF2BXNHj7HIZf7fIknp1lompmoYtHnnQDHTx3RlqAF//6bVx/1TEYTrJztCKi71+FR4+vUly1ISBp+OE7ePx6FVdd8QvMKJVh56to+dbPcOW4B/DcCyUaLhN5iYTnVRi4Gc6DBpdFdIdf3YGjJ9cQ06QcdOpF2POd1VhIwZtmP2s0L1qW5scrIYMcxL4QRZK2THEuHjGrRS7io36M4wel0EQSaz75FJzIxD76lydiGFJQpWE47nQm2cYSllCAxfGbuO33Pi6584cY44nHmCXk9zwLv5zwdzz6toacrWFDK43AIcfhtFHidfV56OkP8Yera7j0+fNwaLkbcVBm4I/Hz676LWb85TW80k/hoQvTMA6TRncisEIYXz8TZw9cD4tFQc+W2fZqfQG1N1qCP/zuYxx9+4nY0xyIDvbTGnUCDt3bZjH4BH+5rh0XPPdrfKepiBZmelVpwXk3/RRj//YUXgxJbjpjQcQd2/ezMUOgVxwMpuko9vbB/+5p+PnYESTWfgT4ADfd4uK6q05oGN+ReETygJNxcsGGrlKcBwaiwx7GY4ePgOVRaGEKfnn9zzHmbzfi4bUa8+k13HibiQtevBM/ZAyGmgErmIhjLrkGO9/3HGZbQzjOaUTZGiZe81tcMIWxG7RgxxOuwm6LlmMNzcrQvhX42yPjcNOVp2JUSxou56626+WYeSTdAInbjWwUKuJqcQW5ahkyBakZLcft1/r4xY1HYXKK+UM+iXf8Fa7f5048/WYvNRZzi+K2/dobcMpwmnu2feeTf4t9l6zHxppdv6OqEg+g6A3qVyG1isrYfQOX/bGAm679KYZzXmOeN73XSbh+50fw7KsKTBbEdDAdTRPFI8ksJN86E6eOjpGyXcgka7XWi7K4Asg8nXDM73HKaBX9pJ6ueBh+/dMfQl79Earkzc/k32cQC4mCxMVjz2IvlEbfX8e5UzyJxjlCM8/bJxaysm/i1t/HuPCWM5DzSdzMo/ibP8X1M+7Dm+/0QbVn4+XnJ+Kma36AdnJpC82cuevVuP9oGngW+mzKh217mPLTG3HuMBZ+cct7bRiOvPRkGJ+sxTK7TC5+Ff/1wEhcd+vRGBdKjAuJPPgn3HRgCz0la0FKQ00s7nOexZ05UtGCLT2NWc/thsuvPQL5SEacHYrM3jdj5uEyarrYCzILpfQ07r0mwm9vOw7jsj48flfb8+e4YtodeGlWinzHWKACF7+LPYNIdWDZxoZSMzmGA5hbhj9d0YuLZl2MvTSTlEiRT+F10nW/ws5PPo5XrH4MRBPSxbEY225QVJpQv/lDnDqKsapnWNg2wdArkB2aYHZl5CmX4KzJRZqKAJlwIg499SBIq5dgEeNLEXdehGH9oo5eXyioMXZk5Jnv4tE3MZdkDXJ7wD87sPQc+slJ0bEn48TheRL+EEw5/igcqMs4+qyTMdHTUHKz+MlZh8NbtAAbJLqYFNsTyBhzztU4fipjKmrC9077MXZ9pwMrGBhO6nXcdksfrpr1WxzhWhS8Jmx3BH5746+x++NvNuSfbT0/rnj5lsZcMVh7hTkTjzCrJrKMSzFGjfonsyYNO+Z8/Gy4eNxV7CvXjlN+cSLcNT2YV6six/EPHBtiz7mK2cI8n40779bxk+sPwwjWz5RDc7LnEbhw98fx6jP0WpUyvdRAjJ1mwmIN8L91Ko4e2ooBlU9wyzVv4PB7bsB+fhOCVuqLQSfgnN00hAHrFznFrfZCEy+H4/dCdzi8phBSIY2m/ufw4NUT8KebD8AICh+HuV/7xuG4ds8n8fS7GgZFVn1vJY+1PfJznI9OjDz9Z/jZCMaHT+Edmzjmp9+HO78b61OsCT45IOPB6QuQVWvkkyKaqYHEBbKy5qHXz2NMe0zNBJS+cTwuGgk46nLccZGEy646CmNpSlP8lf36qfjVxCfxxPt5eKzJnWYvZKkZKdaNDvdDvPHo7rjmpm9jDOM+pAB2v3c9HvwR54SazhePqKY/bch/WmY7DJkcspY208ztj9MGp5iEr+H2GyJcesPRGGHyeK6JeJ/T8Zs9n8ILLwYI8hHG/vg2HD3Yb9j/XtYzh3VN9cdjyPBU/Wq/su/PcOaAfrSFbsP8FPsKRwf9EW+eOhxVCv2MPBY/vP4sTH3ibvytgyYjmodbb0nhohsYL6qG3lCHtecv8IdvPYo73zLQqgyE00XzfdQPcMok6iCSstjzLRIXcCPyh2ah4D9NrTgCF8/8IUZRoDsRbfr3jsYVuz6FR18V/G5BvCk4CmmIzAprORmL/YoYJ8MhtjYIkSoz14+5B6+dnOU8i0cTJ+KIG8/HTk9fhYc3ZZhHbfCq1IoHHIpfDaAupKivqZ821HfijamK2KLmxF/i1DaV451G+wkn4ge+juNO+gkGsc+t8XgcdeoBCFb3YJUuHl17EfffmMclN/+mYf1oVJ9j12HOW/CMRfjTletx9QvnYOdIg9iHrjM/GafeehEm/+NZvFGOqP+aWIv4M46tr3jUcB/hib9OxNVXHYkRLIqDU8yCPW7AY0eItSlqXbfYcP4a8YPY3ibc9ef4/Y5P49k3DRSVl/HsX1txyXUHo92lPaQWTX3jGtx+GOdamEaOR8B8nH781ThpWpnxGlEfj8QpZ54ErF6MDSzmNbyP9x/fH+f+7tuYFIsYpx4VPHpiKxtO/cT5SLvUt+ZmWDRiTYZFvfAJHntwZ1x48+H4epHannnh7/M7PPojGgOvC92VCKXUW3j46k24+rZDMLa2EQPJ9+X9TsdVO76ANz9ohlshP3niru8UqnIfPMZnrK+noKfRI09XUq/i3psyuPBvF2Jv8lYlNQpGiW3/w9n42lOP4x/ktSorWGC3YadRLaikOdd7nYaf0ttk0IZyrLLOUw+Kmwo4f4NOvRqntVIDsomt2lgcdOa3IS1biJXpHpg1mR6wj3pYg56jZmY9CWlyrCy5k/9lyAvlcoh8ILZ4yXOcHSji8eKjfoJDR4vHckvY+0cX4ORgJE48+zRMZAwq3YPwi+P2Q7BpMzZbOjbr1OCqh50uvgaHN4ltcpqxz2nnYcePl2KjeBLBe61hfji+yK2dMXoceUbtRW76Kfj5dMZZXESuVGVfxfZY4jFGFybrtNiTDEEVpkrOozbrV8rY94RLscvfb8Xdq1hfoixsqwjXoAmn9m1Un+fXNnNuqKe0Asp2BX7MOuy3wq+1YsywEkqZMvL7Hocfj3bQFP4Lf7jKxE1/PAvbib3wTNaErx+Hy3d6g7GbQkmrANlhrFN5+mYXqcqHW50/Gj2Zw3iST30ET53cRM/noZobirOvvgaTZ/4ON692ILtP0rfkccONP8IAoRsYRdIhJ+LyKU/gqVfEXcdp9ptjceD38dOhGoqWy/ZlMeakS/Djtgh6C+fFbca5Pz0Sxtx5+Ji1zhM313hF7PCbm3DWFHpUv4r9f3YNxi9djyVBFwpxKypqN3I0vgbnTacGjTPDwIGjF67Bole2ylvPj9trMjotFUce/0Ng3WL0Bhxn8viEU+nJh+pQqGlkdTiOPP/biJdtwHzxeLwRcGwd9BxEnzgsqj/hIbZx0vIaYno6T2j6eBHuvy6Diy4+DtOiZsRWCn27/xhX7XAvXvu4CXq5B5ms0bD/1b4ivFbWFPktPHT9Ohxy54XYNU2/S87FqEO2Wr+8/qIBT6pCTdUw+WJy3pAiY8DFPmdfhqmL1qKfWqnSU6IOFnv3U+NRW8isdWI/XOvMc3HaAGa7uBFHH4vv/ZhjtGI+lqe6yQ/0OCH5gXNcCUv1xe+xx/8KJ01phUS1IzvN+NmpP0J/dwxbXNykjhR7HNbfuSHWmhjPVAkc+xbyFc/hv4SHbwWufvH32ENPkz+7UdEn45QbrsCuD7+Kj9UsstSCJbRih9GMDbbX3e8X+OkwG6n0QFRtsQc9dQ91TAhqi1N/iaMn69ACsZVJqq5PfOqTDZwnoU/CrAe/lxzAaI/JYZIRwiFHi7dLuy51WzaHLPWt5vIzmsPjMCfOPBEnjNRQoLEYe8zPcCj19CFn/RjDHMYsY+Ck408G1jhYoNJ7ogwvVcXev7kWhw9XUaU3+OaFV+FrH67GMvbdUf6FOy4ehmveug37xfScVpb5MgQ/u/6PmP74M3gxJaGb3qeRP9VSHeS0+bjj6k9w9J+vx3RxF7aoeWN+jBN20Rvqd/dre+H02W/gvpKNGrUW1szBX+ccgu9+dzPUcrmhPvtv/D8LijRNYsNzsY8i3Qp/QFPGAIqYQGJD9FqaInr0ofjXpxux+c4DMPuq/TDu+iUU1/1Q3n4e/ww/xnkHFzBkl93QMnU4f30bl87Nolrrr991JztikUiGxOLoxuIZc5/EL4oVCZGnTIcVDG8ajsggAcUcKH0QQrUTS1fR6HXOwYZ4FLYbqKK3jUaqi4NFAzlx4i4kERc9Mo/fRVGs9GLisGZUSbIZBpTy+l9wv/QhfvOD7TB8zAQMGjYRk7c/AFe9W0KFRKM1H4SD9ngKZ4wZh6ueYeGViogonmpapr5CveJhEvi0r2Pw+OloO+0pkhzHg4MnGza6OUa5gOK72WZbNRgU8n59bzpxZ4wQUz0kHAo0iV/ySEI0DWNGjePER0g7RTh2TAPYiZVrJQpkjkNMs0pDK/aCLPFY5FUGhAS9asNf8B6eUGdg6DCae0WmOaGAbuUYjBiFdvVjrFzMdhliI+kmzmgGm8UmuLkcrDdfwEz3HVx96HYYOn4khk7ZAcPbj8RNC2OSmId0rQhdiWjO+pCn6QvXLMLSylAMGVXmfHDexR2kZQ8tQ3dmDPQg69WQe+c53Oa/i4u+QwMyZWe0jJyAAaO/hYtWKmil0fb6yiRn9lHs66dxbOISiUnGhHHD0FSV4cQ0B0wzx1iGD1eUkLckZEos2nEFmtijhHq8LLOQ+jQ+bJtNIRlLOr7RPhHNqsTCz3Hj2NjezmgflkaRSS42Bxa3SQeOi7iJReWtB3C/twHX7LEjRo6dhgGjdkV2/Hdx98oYVp9K0qbI9fuxfcsU1MyBMK0q/KefwV+0dowfbbKvOeZYgWRTQ23MeOxgL4GzgePRtj2O3PcRHDpiF5z/clBfzA51cdVCF9ucwNfzMO0mWO++j0eCo3DA1ykOKdpSJA6b4rvAz9fefAOP0IzuOIGxURJvlKMX52T3jxyOHe0ubOqvIKNQvFLwTB7TUt930iOJbsxakJoC7DxyGOPb5jiqkF5+Ec+4S3DBd9saxvc1r4s9UWrIMEas2COJd2OHcePQFKdgMw/FfqnOkLHYLayixDHGcy/g0f6hmDDEgctCJuLXMx3kBisYk1qPd5bWUGEeuP5GjJ48FGuqLAyyuI2bc0HTsWBNiI7Ny7DUGklSy0Etif3mbGRTLkY3TaiTmNh/M0p5FDIyuiwbg6ssmu//Aw94H+Dq/SajbcwYDGsfg8G7fRvnvV6ClWaB8pooUirYbdhUmrpafaPsfNSNzc5KrO60KOqYwxQCuTisc4yaSsF59R08GszBr/cfhuEzJtcf0xo1hcecx3yhyE8174t9p9yHM0btgStmSSyMTn0hMDBiZNwc3MxA6Cyy4oUzhmxg9Z37Y9iYEZi4/SC0H/c3FkexrxQ/z1Fl6pI5Pvud//sfNPq+q9voZPERj96JIiceq4heeR0P4V1cv8c4tE8ci7E7tmPIxANx3hwHnfFQlLs+wDp7MpSRTRTOlfpjBGXmyKiBY9l+FvBqO3SrwjnSseiJ0zGufSrG7DANw4+7BeU8Y4DnlLs7sEiagpZxFAM1hRLAYMH3MW1iO9WqS8MgHrX14VKg1Mjh+XQZ5poyZjuMuYnkBiZjf7WHwgaYNGp/drqAFo0m682X8KCxANd8ZyJah07F+IFDMHCH3XDJh/n63YNqpJAjLPI0E4BF3O+Rmd8DkWMuZmjca88+hAdy0zFx6AAK7hr0QOyFAoQThqLN6MSiuZy64V/DAbvNwjETJ+C012IaPLEvrbi66EGVMigHYoNmjklFRYuvYu3NZ6Jtyni07jYWE097mmcZiCDu4+nJPUwAsZ+rURMLbhQ9KoWzuEPcjep3cFfYpyLntakkvlOp7zE8Y9QEirQ+9DE5KLugurtju3axqTZNGhNbiWoUZ3mUwzQ5K8e6IGH3sWOhlVRKHRdVhYLDXIoVy4sYMOtZPBKzXW158m6KbfJh2R0ojd8JY70FDflnW8+PFYudKH3UaMIl8W9mM/KsH/0UaWIfv0b98zgXA50YKx87H0NGtqBlymiMOOlOZByaHZNtJC9YTQU0lwpQylXYbz6Iv7pv4/r9d8Gg8QPRPHVPDBu7P66eQ76gaYtHfAvf/tprOKO5FZfNIu87AaxMjL73Hscz+qn47u7kSHF5rsis1AZQCBURa7TZjo8gZyHmPKtM0HzcgaDEvCxF6PjoJdwZvYGzvz8eg3YcjbGMq0kTDsF5b9E4lYQ8ZY7xkK3ViIaFJog6QdSdufccyLHeE4O23xFjjv9LfR81sXeyrdLI2op44KF+Rb6KPPrIA2Uan+YR36DQewbH7DIFJ7/qI+UZ6GUdU5++FQ+ZG3HZQXuiZfR0DBz+XbSO/zquWcX4psmTK+QjsWerFVNrANry97A6nIHRozSUhDgUNdBXMGy7Kewf6ym1Ue4frzXkvwMm3YtDJ4zET14Vwnowmhgj8SvP4KF4Li7fbwqGTpqCgZPbycnfwTXzXEQUlhWbhoI6ojrz0Ib9H8C6brR8E4d+4zGcOngarn2e5kipMj5UimSzYX6mbAt7TB0Hh7kVsFb41GmDhu2KkTxGmT8L33geT3rP4sav70iuFI+eTULT1G/h52+HGO8xFmjaPGrYGYPHQ7Z7mbdiL7dWRjrnnnlj8/wb3vwnHovewqV7j8WEMaMxcYft0T5iP1zylgeTmsGVA9ZlaghyhdjgPbDF5V9yPY3DejtVv3vLG5DBHoPbYUsp+GKvX5P1YDh5TOy/zbpSEHycsrHj+HbWgxBZg7nx9hsN9Z3lN6OfxmJMWxv05izNJHUDzxtK0zF5ojCX1MDU1hL1Vag71AwKwlnP48/xR7h0vxEN60ej+izTDEgKa8Gsx/FkMAlTxw5hbU3T3Io9NZkXoydjXG0h5nbR0KVlbHR7UEqHaKb2j9ctQHe4I4YPIoNnmEX2RqT4vQkjdmD7K+hXaf4azF8jfhg8ZgoGTz4Ev/xULC72wF28AnPV3VGYEkKnMVdtarSMhqEjt4ObHooeqR+9cpbhaWHzTSdizOi9MX6Hdgw785+c0Qz6oiyMTUvxvtOO0RNo6oXlJA9uJIeMHjCe/E9NV5ZgUX/E0SAoCnWHuwbB6gVYEW6HSWMCaksZlthXk1w4ZtRocgXrWz6CPushPBFtxKXf2BlDxu2HtvHjMGzivrjibdabqB/ZNHVftYwqvy8WwmSfvoxtjTLkvb7NMF5fgpl2DjPGaeCPgP4yXFoRqXkchnpLUNuQQjRxHxy+099w2MTROPsl6irx2HhN3G0uXobQiyaVXME6JvZ9K/Ccq/9yBEYMG0evsxuGnv0s+8I4DIfBk2to9lrrd7FoIr4Ucdepjh5BPtS24oJTnjkYSUMYu2sh9kF2M82Y2s6+xkOY+wr6dNamMIux09LUVmUYKeprizFesyGJGuNy7OQKxg2dgKg1RuDTy1AH6VIn5i9j3s1+uWF+DBj1Xfxgxwdw0qCRuOz1bP3i9Eb6LlPUMUXwyGd7UsdhgDCwWe/Zf5axwLfrb3FOsU+lccfixt+o+N2vnsBipUSfRqOspJGKqw3r85ub6HeYzzp1uca49/VuaGOm4+jd/o5TtpuO655nXtpe/WmV2mvv4REswa/33hOFabtj+LjpGDbuYFz6MRtU24ihETV6wDFlkvs95Cr+2tr8ES+stNQapg0aB92QEFbJyz41xJDRmJJlDHAe1dlv4YHobZz7nUEYMn0IRozdCW257+GqxRbrfwS/0kmO68cuw3ZmDauQFyr0vSECrxnz7jsDI4aMwKSdtkfL4Y9Dpu5O2wOg2Wyz0YyxowbDoCYvYwCU3n5E/mys29xCjV3kOBvkVsasK14ykcMmXbwqIwWTPrnI/tnvvbLV/KiR3/PhAGpEDWZ/M3kyi6Gc3x7JxPo7D8GYyRNZ30Zh2OFvIF2iN+ZU+OTUIMpjF3oQy1XplWNqiRBhXy+UIEZODVF67VE8qT2HK/ebgaYJ7Rg1PI8J4w/BRYvJl34PnCiHXs9q2H8tJ/yZDuWjf+GegHVyXwUp10JReHl/6/WLXL/A56Ho5bHr8B0RMv98asZsrR9GNBeLlnYh39qEjNzHXGEORlUUxBOlzJ9snMGqR47CiOHjMGTCrhh89r9Y12XkoiHkBxt5T7yoKY0cNaF49ZDnF7Dw7oMwboftMGDEOAw85Ul+voKa7JCHOH40tWL7AUWlNytzHqnnTHGRIqjBoS69Q5qMkc0SxAthxFMAGepKZ8oMDHE+wOwNQO+4HXD49rPww7HtOIE62KRHUdjGoMbjUqAZzGlZEa+GUVHwgRV3HYz2CXtgwPbbY8xx1Cdp+zN9Qt6SbY1jE7O+sW6x/sX8e6DTwVHz6xbrXn9Xfa1HZl6KF9fGdEij6D1DlXlIryleA+imRpPvKUzS1AXRYDAUCQ/i/R5pL02OMTBy9ET2I0ao8ZixjwrHfOFGavW3nmNsN6NliFj38pEps25TK6G9CVPDDehaSB8//psN/akXsF798894yPkejjhAr78rQ3OzqMZl6utqQ/2e0vbCTke9h/dfIE+kLCz+x0t4/4TdsR9zRuwl2kif/Tf+Z0Gx/giHKF7iFjueMCaBRDEHmAVEM3SK2Sya/BQLuwP9W9dixQtnYPojV+GPa1vgxTXkKofjqfl9WPXRO+ie9zHWz18J75Pl+N0PeeyAhoP8nRG3lIr9m9gJx6RBpAs3w14aLp2Cj0KB5kdiBzpSZZTFY29sbFoky4aNmOPpqLBtceTAz3SA+gAlCouQgzFQaYJHEy4WNCzHRE31WSgZIIFMcXUo7l7wHtYvW48Shc3aeauxYvUa/OHrMsXwOJz2+GKsevU3+OjsyZg87Sq8UKN4UD7A5eN2wl5PfQ0fLl+EDXMWo+uBw2jgKAZpMjnEKHJcFJvJzs97FF5OLERHJ42BSkFD0lIG1e/GbKGhdSILkpFnIKSp900GIAW5TJNOsmiupdDGwK6/JUgsuH5+p6h4BF28hVe8Pcu3mWimA5tF2SCReWYfNns1xiyVuk8xnacwZ4TJ3hoSoVS/uzHVQ+JhUgU4Ek98ugEbFq/CprlzUF79MWYvege3H8jiFubpSFjgjBYU/TJqnRvxkXgjG02nuFPKrJkUCwbyHE9ZEavcWVg8p6L+CE8ufBMLNs7DpqUbsWnZUixeMgfX7uTRiLRSjHXBpfjiTHDuc4gsoy5CXIv9EI8ZWeKNcTGGq2lsZLH2NRIkyUPsK+WyHWFYhWINhiuJjaYlZDnvm6VuJjaTkQbfEFffadbb4hILnIGwlkUmzcFi4RT7fin1O9QOxONLPkXXsjnoWPkaNs/9BAuWL8OfvquC3rN+B43JPrpBR33/ELHfQp7CQ7xAxOHAi5emyDQJunicsJBFp1nj2I7BYXctQN+7v8b8M0Zj6PjL8Y54uYwmFupo8Cgy2F2S8EYKWEFsZRo6sWl2jdTGvIokREov5zfDz1aYbwNRUWocX5P9YWyL9jjUh47IP5KcpyFDAyLyL1WLoXpBfQP72JeRIkkFpjC138Pj81c1jO+3jxf7OV2Mv+dLKEU+44wsIfbgYsHOBh7KNXGHIIdQHUjyCKHojMeUVr/QEJJgPcZJTDfXlWujSNMxMoxRYVFOYSiJSeyvIh7/l9GckrC5JjbBdZFbuwbvV2h2xFV8kl+a+V6hEJJyLWhyKhR6XSyMBXTm8px9cVU9y3OwwOnfx8PLFtQfp1q3uhMdH35YX5S4eU/xZqwyChzBMvNQY7ulqoQiY8RSKRTNCGpPHgWKp1JVRrcewmacZMllKe84PLWkFxs+nou+2euxculHKH+8EDd9t0CRksGv/r4O5ZdPwUenjsKoCTfizdBCt0IOYrtR66vnlBY9iZ+1D8a+7xyBT1YvxZK5nVg+8wg4odjcnAzPsapzKL9S3z9RvL2rDhr7Bt/3IxZki58Xd77V0ijxW56ykRx2Ev6yfhXWLF2M1UvnYOPct9G79FPc800efsUqzHcc5A2HcZBFuaxxHihONIpd8XZ09j/05+NXUwZjt3/uhlmreYyF76B479mIaQhCjr2/eD4+iFm4Ka4UFvuiTiND0S3eeodKGsUKY5amUmLu58MmbGa7yuSStYw/cXezq2ucR+ajtRmh18HEMusvJchJNmP2MNw1ezaqq+di3cYVWD+vE8WVH+BP31GwmaKWNoliSeznRL5sTcErryJjyKwxaYhHO8TqgW7YaC7WyAnkN8ZHSIMq6oiXSZHnczjj0Y/Q//yvseL4SRg24Y/4gKJAcSIKLfIUf7fRh9b0P3HG5PHY89W98O6S2Vj77kIs/fM3EcoU/eogBORUu+aTN2LSKUUI0hwD9lkilxhmXUikWDMLNCl9FCN9ahmqS+7kEKUoBNNC/BudzEvGoEoeY13oiULytMT8simMKNJoJsRjPYGcgUQeNFM0lsxzvcocy8QoxUw+WQhrilD21DGZo/owaF4VTlptyD/ben7ExvkF6gKxD5zHeTG8bvQ0MV818eZ6s2H/MrVP8OPdx2Dnv47DqxuqqK5diM13/Zw1sYe0SL4plnkuHyWjFwbFqdtEYeeciXvXrEDHMvEo/lysXjIP65duwOXfpBE2cjjryQ+x6rWrseBUCtfpv8AT5Gqx2XSVfGOyHSxj9Iw9FN4ihtnmCsU8NUaO3ByqEvPeQT/jy6Dpt0lOrVWaH/NEPDh/CebPn4/O2W9j3YpN6Fq5Hjf+kDyea6bmUKg9Mjy/2EB+Fn7dPhn7P38s5n7yITZTZ2y4+0Qmv4oa63dK3KUlXoRB3dCpNKPKup3NBuQ4ppZnkJs3YPND52Lxz4diwE6X4hXHRRvHVA8OwMyVb2LtssXkvaexhvqn88O3ceu+5BdynTDkRjmgEaGA3tyF1/Ue+L6DFo6/Ra42Fc5veS3p3SSfR+jOrW/Ifz95isL5mRuw5rSJGL7diXiYQtRPsdZo38Y/mTObZr+I/tWb0LeUtYZ64opv95JnVuGCwVMw7aWvN+y/uMou7pI5/I6lKH5wHhactjOGTrgYHwQ0bd6LjfNTH4B+8fI2ft6jRqpSQFcyG9BeEk98lOHWafY0PClif+58FBkrffNo2hjb1+yXhSe1IF9Mo2x50CWKfJobva+Egmajl/GqaAFavRxz9ljMXLEQHy1dgI2fzsHmJRyXtctxznea6wvfYn9k8XZmSWxKHmbqd96Ced9sZdHHfne7YmN7ajaxPQzH1ai4sFgbxF51Bdbt0PXqi3MbxQt+dJN5L/bV7Gyo7yRPhsK8Haxm0VvbTJ6gjqbW9cgWNRrdICrXF0ey4ukUuwdakbmbTTPfT8eTC5Y2rB+N6rNJHaNQdLsGc8cahlJPJxTWfejiYjlrCdvRzL7oCk18Hw1NgSappHCu6B+WrMPrNJAB66lLD2EqLYibXOYe895XqJ3chvPXiB82LpyPvrVLOF9v4q49gGz/QixknmmspUHUjz6jH4WyRQ6nti5XMJgaviX9CM4ZORm7vbcXXpj/Jipz1mPDHQch9iJYVgne4jX4qLmMdD/zjWY3V7Mx1HYRp6n93T7kMy56ai41qNhbfhDnvJVeZREWkFu6ylnyNTUU66yhsJpKWWrSAH2KAqs/y3r/HdyzaC7Wr52HNaverW9VsHLdp/jjXgVUnSIKmWz97q8KcygtF6kJZPohxlSmlTG0kbHFNjH03GoFSkZDteTCyA6GEmooMk+UYDBOfmoVep79Jeb+dA8Mnvw7PC72PbVNaoQ2siJzxpaQSv8LJ076BnPvu3hn6WqsmzsPPfceQL50US13I0Vf1hNGyCkWak6VOj1HXdSDZqmP8yiu7JfZribmZx+s8kDYA9IQL5ZxRS0Na+Q5D3lqH8kcjKK7uR7zGvXYJsa5KxYVRf6zRuVDcTchJWRFXMinJ0lVURT+yaYvRaVhfrhuE375yFKsePscLD9+GoZMOQNvcXyCOOSYC0/h1y+4pngu8cblGnWEJ5nUuTT96RRrd4a5BIz72Vk4YNkV+PFd4gUf1EGueMFj0LA+t7DtJv2US3+ie3lE9ZekjMax9y/D4hcuxVs/GYqhU2/DU7oLWbzpX94fM5e+j64VS7F0wWvYMHchOlZ/gj/sm8VaehjhSWKVmrulFdLSeVudPxLnztVbWdFZO/t1KK30DyJ+FLG4Ql9PLyqLt63op+KRhWuwZNFqdK17B10bl2ANc+umPcWLV1pRk+nD0xoMJ8tjsQ7G83H2tCH4xrN74+8d76P7ozVY+eAJ8HxODXklVHV63SI5WvhYBYWgB2HLUOo6+p0qdQtVhi/umAr6ORdafRu0QpX1o0Jf1zQEg6pFVMnvW8uPGmtQL72XodDfyf2oLwXJr+OSSeOxx9sHs8Z9Sm3Rid77DkF5UKV+17rPgFAlHTUpQC91TrO4O5N6piC30RvRIzJgm3hMxzsBD65fgZUL5qBzaRF98+eguGAFfrU3tWFTzLgoN+x//caRQDxl2MI58Jlr4v0HnN8sPbdOfbmV+uX6Hfvpych6Ug0dUTfZz2LMFGAbI1CUihAvbO0vUdCKq+Eh84Lxrou5c1/FKZOHYvdXD2BtXov1c6gf7tsfvtgTvtxHfsihN2KOaCWODb29txxn7zQE33z+B/joPXIbvUsn48GiLq6JPQGZQ+LxaIf+Wtw0lTLT5IkAdlBClbo/p4o1HMZaRswp9YN4EYt4WR35P58pMGaL/LddcOo/l6Ln1Yuw6dTdMGjQJXhOdpmvOscwgK8NYP3SUZJfwG9Hj8N+zx+FObM/QueCD7Hhz9QnIF/GASzyEskTEWNDYl0O4xyKqQAFxpGqqYhEgsiDITcx1jhnm6v9GCz7yHj0qG4LRtgpZMSWbORUhXGgCT6t0nOB3GDXYNUcrM9yDA0VedYui/zPn2BgbxpKlBPTzJo6kF4iU3/KSPCpm2EtZj2l22e+xjC0CuLyhIb+VGxLZDfprPkWdVIvvKjKulFFnj445mcb6feabeH7+5+Jd555DIvKy/Ha6wtw3N4Hkct7yA0fNdRn/w1K0P+G+CPFhCRuhSx/tlornrX2xT6AFnI+CZ6idQALpM3EUkbsjYnyCmxeuQoSi/I4az0Wr6cBo5nVrSaIfcS61U7oRU5yqhkqB9cnAfap6foVYbEUUdHYEMUjudIccrCzcoVJ1IEmr/4uWxoTGkImi9y8G3ZTPsHCzVVYpVaeIwObydS7dj6TL4Vem9+lmVAo9hzGiHhrUBxUYI3cAbvE67BppQWDSVgGkzqm4ZTEA200exR9im3AG30oXpr/D/xm6mP488PLEK79EAvCw/DQX4/67BHutIwlC9ciFw3mBPaiK7QxiC304xYoZg/Hi0aGgRXLLQhpMOUqhdfaOZhLM+5VbQozlW0rwVS76xs458oFBg/FAs1/H8dYvKFJoRhTPAZQGCLDOGYPIF7z7WcL0IcPx94eC05nwL4ZMEtpDHYKiLrfwVp1MkYXxFu0xFvWKEY0khaLY9HieQbugh0p+heuLnF8Iiaahx6S9kAmQliSmbQe1D4W0tQm5DWasIHNmB6txuIVCvpVGUWSSlWTsYiCLWLA13I96GkfiknaRizbREFGwWijC6lQhhGRHTIhOjSgNRrEfpFwWehSskZiFhvKsiDyc82mgXxlHfootkos1pGVZ+GscX44VqZC4yEjtbYTcyjMcxRTMefVZwyKfWRygQwvE0ArlUlKbVhOElRIi7pURpfD7zGZaizE1vDJ2DVeiE83B+hPsQjwU5rRzAJgU+CSPFUWYArjIsc+Lw2sXx0tTqHBUWdj8UoSRt5mkf7ssRGtayOW2hQDg9P1K/KWwbjNnI0Xl/wDV+74FK6/dx1Nm46qYpI0NMji6urwNuxmLcbyzQWUyZoa5yNmUXJosvKjpmKquhwL1lNgckwyjP2NLKbqmmWYo03ChCHMQj0PS1zJYA4JMRMw9yrMGx38xVgTj8LL4grP4N0wNF6KT7sZNw3i+6l1z+Da3Z/GfX/c8FnR4LzMXrOBhYnfU1U0czz8WbPwpD0KA0aRcEdPxLToYyzuCmlcxQb8PjmB5Ll8NZbEw5Bp59jRFOUCm0JQPHLAnC/yfCSwnKSgQsNVHdXO+JuD7o4uqCENOGNao8lZPvcdCnzmsNzMzjoYXPNIzOQGzqU8YVfMkFbj0xW1+qJAxgtRZlyZus2fphCQQ8oSjZqu0LSSUwrMbRZSneNeZXwVTBchCRs07gbz1glSkEcPwFjjY6xd5dcfV9RYhPsMAyWThNtP7mEMisX9jaN+hheXf4A/jX8Qlz20DOMrNKLhRg5XE3ypC7XN/VhlnYE7/3woBjMWcyxMa1YvpqGImPuMf/GLEIuJ//3rv9Ho+y21fjRVUiiSv2RLwgCK3XjQPthRXYgli716ETYpBGWtDaHfwliqIRw7GmPV9VixIs2xc0D/jyrjYs3iTynMWDQkH9Xe+VhXPgyP/vNEjKuRJeIsli9eydAjP6arkEeNx84KhdBaDX001lmXvBalsXTZWsgUcapPgR8XKOQoGDhueXEX9s5NmGwvxTIax7Baqse2H+awcfU8dr6XIqwJpYnbYbt4DtZ2tqBEcSYEvU6zU7+aSrZS/X70U1y7NHgtrlp/OUyQyiLLfmnlIrITJ2PP6COsWOKjKz8QIYtyjYYqt2Y91ngGZrTpUKMU+FVUR5yOpzb+CzdOnImLHl1JLo3IQyzMeY1t4dkWVLHUPxKP/+10DPcN1pkcOtasoXHMoRqJxxtqFEasUwrFgOcyj6T6Wzp7GB/1xzbJyV7ve3ij1EvuFG/jNmhUOyDnMuSdCHmHpqTajMA066a+K03hQx5M18TjdeRizl1oBfW7+JSwo84DtngsjIYxyNQQV5jX5KydpLlYszbHNrMm8rwlCmljxXKscEY35J9tPT9WmfwgHtFgnZPTMcX9AGiLP8RcClNNPPrZoH/l/vnkqWPxyHNnYUytjFLRwepVcwEKbZ2CR7MY16HYOJ5jwZzT8pOwQ24B1s+L6ApbGd0UxEGOdZZCmybKZFwGNEnWiDPw+Mance2Mt3DPneuhDtoe+6irsGoVTUwPjbWIHdafCvlLvFCjhTxBr8JzkQfYn9SqPrxn6wgY9/K4CdjRfxurlpkYxjkWiyNCBEesL5luBppTYW0Qb8LroDDsQ9OiLiwwDsbMJ47CUMZnLzN6dcfH9Tf0e6yzXmBRu1KwxSqG1EI0cW76Sj4GkvfzcSsC8oLcfgaeXf4afj/yKVz1RAc2DJmG6cEcbFqRgtic3aK+SRVthKxjNVeDYlDnlJnrqQprL2v4oBnYXluDdWvVurmwKxSUagFLN4o3c5fIu9QSw3ZryH+eeLxt5H54YfULuHK7dzDzns3who3A/mUFc9YojO2BcMIKaiHn02Kl8ZugrViED9Sj8OBff9yw/83VJtb3NDKmh83DDsPjy1/C5dP/yvjdCLljbeP89FZjRVc/TWCVHGWimSZG/8c83JoejhGjZdQmtGNvvwvvbqbGMjrQm83TRNNwhq0oKzRx1INIufW72QOOa4p1JaS47udxLHGhIsgAk7bHHrV30LFYRpt4DMgqoEb9F+jdGF3aRANFghWmXOqFlWL9lUPGOo04jxG5Que5aKaOfXPdHKTEm0c5TpHImTf+gfvlEWgbValf6Iioe4Z7gxhD5PPYgTFiu4b6LsxQ58hpdNAM5zh3MvWOqbKiUjNliwb7NIAmD+gWC/RRhkLfQHXkGOzuvIsFm4oN60ej+izR8LqGhoiaekawABv6qKesTfUnHMRbQ/0VvZgXjsCkoeRvyosKdXwpo9IWSbDH74ZJxry6HsqVOCWyBceVsGbFR6ybHHvmUqP5a8QPvs722j3Iu0PRz3bbgyZiR2UD1i5x6gu7GY2GmXm8bNmr0MnTrk+TuNzDovhQav6fYBoNe6caY8lGchLNaeQCuXFjsaO9AMs4Lz069a85DBv0AehYNgc2NUF3QE2a9RFXVbaRZlChPm0ZTx6fjd5en/6mTM7ppXmzsGbNx+Re5m2FB54+A5PSXZi/hpEnFkYE/3o0fPzVHzPWUyp64h4YfVVkaLBr1FMui3uB35cdH6lRYzBVmo9P6GtodXj8GOkMa/0ymuZ4PIZuV0E25rjLAWqjD8fri57GTePuwMx7Pf4b+V/oTfYjMLIoLl2Kkr0fHr3/NAy2xMWXGlYvWcI2cew5TuKlAEaqB93UL60SjbDagcFhFr30PjF1pKtm4Xe8g3kkM128PID1Q+e/F8jpiuzQM8XoZa5Yrk91GtKIm+gyLAxy6O98tidVg87a2UffqGl9bNvm+k0h+ZrPmu/Bt6j1WnZvmB9lHsdVmuGM+gWeXfkUrpnwIv70wBxGtLhbjfWavOeUyXEhY1xsTKYZ8KmpxYsibNepX/gvSDrMvmm46Y4DMO/mJ/C8LS7WVchbTY3r8zDyKTW0ZXaijzolyzqtcWxCcUFxzPH1BesbdngMD9y9BurAPKYG72HTenI69cJgDEGUqbC+irnOYiD5284WkalSRDgxpDHZrc6fSNyw4/dgLjW/Kq4c9LtorUmIP3gB96oDsOMI+oTx47CTPAcrV0ScHwndbI8QMr5YCKHuFi+ezHk229nBNnjQtSq01bOx0T0Zf/nHT7B9WUYH+9G1/FNyAvNCr0C8cVm8rdkXj9hr1JYqvUtpNSTmREQfL7b5iakn8tRJduDU78xUxNM2Ber8SkT/mUNh6PSt5kd2gNyXIXeT08QNCKl+2B2LMK9CbfzwydjJYX1SO/HJkqVo7qZe4XEq1FsZowsWPdRANKOjWq0/8VIxe9Hhpet3m9WG70T9XMLaZeRXatjeTD+1UBndzNV26iGvz67r+0b9V6g19DzHeVgaezib0bUpB1sxOCY2dU641frFZh71iKf+9BrGRAX4Tgc0cTOJ0olUMIB5QKbOVREoPiQR8/Qg1WoAuXcduoJT8Nh9p2IQ+UHcaLCKY8SApQ4w4Ql+sLrRVM0jT81d3fwJ1gbH4JkHvgsz7dbfLrxoyXuMN+Z/upl+ijHF3CEFsF3kZnrcICqKyzuM0QpKg9sxVZmHRauoZ8idkmnV7/JzNizBqspkjBypIU2t6le6YY48E48teRDnf+NvuPPuFYiVKkV3gXWsRDXTh/zKCB+nD8H9fzkOQ8XLkuh9Vm/+GDnqE59Fyo9MSGqRPoIDqpv0t73knTYUqUkFN7nUnMGGeVhAHV0r048Wcuh2DWoyCR51yArmhESvFHF+ZT+FqqJAT4mnB+kHrRQcy8FY5m+22If1FvlGKtX5cH3B5jwIt56Dv52BUWnmXGcvbMeqr7el2NZgzWJsDKZixECPsU3+b+BPDdZ9feiu2C5YjFVd+frCM2eTNG7W39LdSL+n9S7Ee30NP5r7MV74+Hm89d7BOGAv1i6pDe7mlQ312X/jfxYUxb5GMcVnJDPY+HdfLMhFeVihTfF/Bw665CWU6o/ZmLA58Z13X4/Haidg/32Gwh51Cs49dBEu+ua5+ICFrD9WOHDr8Lurn8AatZ8H81BmIopV/xRJPUiFNB42hY9Os5PhpFSRJum44pbgbA66G0Lsq5hiOaiSnKVR++LbMxbimp8/jSX5MsokldysS3DYY8LDh7Tlft206ZKLmGYmZkgZso7q8JPw2x98iku/dRGeN1nMQlY9bTP+dOEfsIaFRHnlUvziA7GmmeMEswAGOtonDq1fsXHluVixQUdWp1FadC9+dc3H7H8f9DgPjcXSj2wmo4JO8ThoPA4jdn8NV93+MmBLjM1X8ZtjH4RGAe1YJFYGiiuKGj8rblUtMadqJM3hNEY2C7jGMXUo1DUKCZeGFS7bKUiD8yAeFZfHnITTj1iLC3b/DV5kIIYUP/3KQjx81p9RvPwoHCiJV/OTOAxO53sbKJJYHDkqlTHfrM/LZQeeg2dJADoLYdZbg99f8RiWGAHMKk05CRB2c30OgpEn4aIjPsIlFz9CUuAciCSYdTZOfJxtornMuPzcMI7poa/jyn0vwf+PvfeOtqwqs0fnzunEmyrnQBVFTioggorYGFFQEJCgoqCoJJEclKBoq21oUVQQjKiYMCEgOSkICAhVBUUVVLjxxJ3Dm9+BX4/R742+9ze65P11ljKq6t5z9l7rC/Obc+8V7iTpUHINif04rjv3RqxPVPaLpIdktU4S2irXEMdy0ioFN6+nEiA7LFBde4REOoBtyKy+EaxY9RTOu+5+6AFBwHkIF7z3p5S04kX2l9dXC/qSNpcZjnpoIvBK8FncqgQNu03S75Eoa1O0M5NPpVhd+R6c8a6/4dKDr8JDFFVVn4CLZ/D982/C8/R1xlhxYsYiC0VX63AMdY79aJxzxFO4guO6u0N/mOxfshbfOP27SC84Fm9h4gV/+hROu2sUGhOyrbKwsV8rd1gAxU8ZvxHCUhM5gV5bdBY++a51OOfQU/FQLqQxRbTpGvzgzkG489+CTx7xd3zmwKvw58LAlEICqTXxH4xJ/ezjcSA9J6dPtRTGAItCnJCgkcjrjJeCBC1OKR5YrGkUpAtPxOXv/CcuPeCCGeNbo/8D5vhOi1czZ8YJFIyVn5yIT91CQk7A6caP4pxPfB8Lrjga/5Y4GK4fizNP/CsuPvBy3ErfhSRbTrQFV19wEdzTjsabBQdIbLbKGyaF3qId4XVpzxyDcqJc2ibxPQpnHvkEzjvlF9iUdBERKONbz8X7f1n09uOSTXDlyHp54ysPwkpGDH3Oifjg2+/GVW/7LP7IfoUFiRWJ0Ncu/BE2dWJMlUSEsWhHOn1eRrmToeEwPgnPZcbwJIVgakdQ730RzwfkQ8yifOHp+PSRj+D0Qy7G3wMNL5JkDDfp28u+h7VOF87vP4Zz7n5plqrG+NzEe+y2YDbajvhglqQ0cXEQWRHx74/hxTGbWJkjW/91fOLyZ5DqCcka7c0x6DL7UwQCi4oqpwt25S0SicwM35cHgHpKQs3vFMz/SS9FbckHcdZb78UFb78IfyS5U03mlPE0vn7hv+NF+teZ93GcfNRd+OwZ38Em4mgqL3PuvADH/5zIQR/ahQ0vYJE3t+GFZ5hrBH79uW/hA1c+iNgiXpLUxEvfjU8f8SjO/vTV2OyXadNJmHdfhPf9lESH+Gx4TaZ+g991e6IgjA2UZ52A04+7B5d+7BpsMFJmRhv676/Ae24mUaXmlpcnxuyP4GNHP4IrX3sebiMhLTIPXeuf+NZlP8da/l4jqXF5f1l2FVok9Ixzi35FzlilEMoWHcM8eQxnv+VTeIhiVmFsF8VWfPvsKzB17sfwWopn49aLcfYtIQs6hV3Ioms42GnuQuZGBjtlPPQOFmG8YBvN8QyeXMu64JgI1/0nTrn8Pgpig/WthZS2ixm3eosEwaNAzpZg2Zr7ce3XnkUnJH4ZD+C8o28DqmOYFNKQVVmo5TCtJoUThajM7M3inoCyitJLL8NI1tOSwr9l/DxjW/Yvo50CvcTamNPnJhTmQBKoxP0ErRXH4RPvXY9z33A6HpQ3l8wp1V/PuP8+kvOOnhF/Xmn/5M4QdlrzKM794aMwfZKk5A6c+ZHboJDwdih4ZxqfRtHmkrQ8u9ZF6rUQNH6NU774OHGAWEABTzaFCmu2ynsXFO/Wwg/gvLc/iHPeej5+p+vEsCqxYCv+86JrsYX5Fd7/SZxxF8kS62vO+ppnKtbssBzxqnfi+Pewn4deibuYx5kcwLD1enzv9jr942LxLmtx6dfu5D1Yg9VHcM7R1zOQFNZgYtfqw/DJd2zFRe88G7cLzpL8l8On8c2Lb8JTjJvcCFhViVEy44HEcpK4rMYU289OUHiz5m28Fmd+5mG0kvylWa3q73Hh7KPwla3EeZJtOc1QV19afqjffjFOuVVm7DBXY5n1mGPlsgEMzT0Gn3jfOpx/0MX4C2M+5+fHvHX40gU/w4SyCVlAYeh4mAwNWPIgefmbcdFb7sO5Z1+PDRH94DSgE2OPvoH5wN9rNnnFrCNmxL9P3ct+FeRB8gJVTbBy8SK4i4/GB4+7BRcdeB6xuEkiX6KvHsV3WesfZ79jiiTHeJQ+LdEeMWobv4sPffbv6KgUO7yGQhskUZ31PkfLbiD/0xW48NYyY4riu0xyHQ32loKpCQn+DPkJs4ToBx/AObdR0jDfJrQ/4aNn/wT7fewMHMTc8xZ8AB9+2y24/KAv4882xabM3PUmcfW5X8WLzEuHfYkicgN7Nsw8png06Pagt2QopO9TZwzB/HfjE+9uEHPO6tWeKB5jNX4RXz/vZ1hL0V0qRtn3KfpxEfyAgoPiq1aw/jGpYtZqLXKIHQVKN5yFD91L4c2xw/0VLjz+T9jrjOPwBplxBvJD4kGLcavLbBXieGXJsTPyO3ngr7C/kvM576NWWJvIjcK0QG6rMJl7Ke0g27+kGvmpMYW5c4/Hxw97GJf821Uz14+Z6jPFtcZ7lMj/zjryrzj74JNxRzqXvFb6tR7fPf8ziD79IbyGIjrhuFLMRpX42NCqsBccSm71CC4/7Rt4smajzTGaf7gYx/+aOOqzluuVGf03Ez441AldYwxfuuQavJhRJC46nHn0GC4996f4Z8YayP+cP1+Oo382i1jBOixPPVmvbfVhPLs5w5TMwtv4bZxx6Ub+nFJPVsvMey9OPuEfOO+T38ULhY6M43HvPB9H/ZgATTwbYN3uUmC5us9a2mbMEy+XHY1TjtiAi07/Hh7jdTR5WXbPOXj/dRrFK4WpppK3Hc66/hd84dAL8PtIli1bxO91+MqFP0M71HszEQd43TbrWcpcShTiEPEtIGfTKBO7K07FecS4C19/Cp5IFf6+i3byIn5+9ufQPP8TOChijt11KU7/swjewd5MvBwjWLyQ/Sl5zFsXiT9FzVDAd+RQhCk8ME5Mi8lRtl6HE658ljyINZQUUWOOh8TeEd7/eXlJGeyAxXv+HV/62h1oENMK80Gc8f5fkX/5jOUh5lTeO5W6Qx4eM24TizlCatii5hukzugwnnRmQcT8UoXrEjdyme3H+LRDOXRvoLfVSJNaZnZQQhhOIltz/Iz5UfnzxfjkPQ3UwgQdObSCNWfx/H2QjH4X71j2HnzzeeoZl3xf9jVNSyjIteRQFov8O6Yoa5my5z3jxCLnee3l+Pm7fopLvngnsXk5ZE/lmerz/loLc1INY+oQY5HcIJsE/nwKcZU2677IUMvQojZasHQ5ssWn4vTDN+P8f/skHqLQmyIva2rjuO7sG9EgrsTmJKpd1jbyoJw1Jl34ye3Onw5tqpKH4icn4+TbOzDlQbV6O8457rfY8YJPYg/GQU6+ftYhz+P8t12K38oLQshS0q245oJr8axQSnIbk3XeJX6X1QY1EkUqdVyEf+CxUf5ZlGE9+wN87PNPi3IlJlXhyktVkzWfeiUhj84Yi8KPZVKQQs0QMlZSyF77DBLNYwwSG6nF84cex1qPfFZWHC5+33bjY1zKqaUmyGm2YJCadIr1vSgcWNoL2PpsB7k+CnXtTTjnSw9gknE9EtdQpz83GMx7TSHfyqjTrN4saYs8wqNsUpMSBhe+Ee85/kl85qAL8Xtbwaz2ALXbk/jRxd/HP2m/lLgh51HMNH5DJro0WUd2OIm87C6c98bzcTd/5+bEoU03bjd/2SoTTZhjJvu80ZqkhqrASanXqb9VbZT9Y14QqxRZmfbwc9jYTXsnmwu3y5RH8dTWpPcw0N7wU5x8ydMwTDnFuMV4IAbITD7aMSUvrlArFNkLuL05BDkQMv3nNTjtKxsQlBU4zSbKMmaH/Y0ZEzmxqBinbplH7A56L+/dJR/DJ4+UbVZOw0OZvNBKGBtP47ozv4r00nfjDeTb3p/Pw7kPGeybj5IufL3A8pUreg8JtZC4RS2h0uaTjswaHMVT25q0uQ/r+W/gg1etQ5AHjAFqMCVjXaDWFx7H/Kw1XoPle9yPS6/5FfkYY9B5BJ8+5joktIlqpogj1m55iExtThWAeh5SU1NnESNVYnDCehnQ32bKgfN6JXLbLrltl3zLozaVVUSTjO+STt+kjAnyyPai03HeEX/F+a+/HLczfuUAvUx5BN897UpEjO19yd7Lt5wxoz4FuVRrxZtx+jG03UFn4T7WBTnDwtjwRVzzJ21G/h4Xcgr3Ghzxnnvx5y/fg3vedzj2Y577HIoZpzPzs5cbS8bLjYIqJznIaQiZhotCpobzA7LxcHkVVv7kPOwyb3fsuMNiLF++M3b98lLcsOmT2E+dYOEZxRsueAA3nfxnHL5sKZbNWobK7vviwfqhWC6PBTVCi9ntnYI2ZBUcgEvSHfaWWmaxwsRSWdzkLTiLS8eDTnBTCRpBi05nknp03Ek/+gMuVc7EoQt3wZolazD/N4figUtehzxmQJcoKIsRdIIuxUutN8NSXt3Fno+dv3wfvn/MDTh22ULMWbwH5uzwZty17AQsMjuwZu+AJ04qYdGKZZi1+GDc9I5f4LP7F6jNPxlfvhQ4/+A94M19NeZ+xseV1x/LhGDRbbuIjVHEBECZ6lkhqKrqcpx//R9w1E8/jVmrZmNg9V9w6J2fxU7pKAOaJq6MUYbQviYTqaXDZjLKjIMWeVLKwllm0axQ4I/RFgO27G/ooBsXqCcsJryPStsccN4DeOayzfjg4tWYs2gRVrDI/uhdP8Odh69AZspmqhOI9z8OV+71PZywek+UL/sDdCbs3lf9DTceehs+sMsSzGExG1z1dvx8yduxM4XmFhJrNZF9ZCxMmEMEvjL2Ov9uXBafj9ev3pmiYg7m33konvzU7nBCFgz2t8TidMhV47j2HT/GYTvNxZLd9sPQkvfgZ0sXYEcmyooO+0+0VXMHZseAJsss0jFS0QZFP+PJegF2FxgwWAyDHEPFXJz5y2tw9I8/jqFd5mB49o1484Ofxe4s8FM6Y5F+bTptJi/7yj5oTrN3IniDACjTmh3GchxvhWXORdKZBc+qYZCEaa8vrsP33noTjli+J6p77Iw5O+6HH+y6O0kpgYXFsYsnea0AMpvZV9osIFM49MKn8NfPbMJbd1qBuSt2xorVx+Cmg76BO9+/IxNlAs5OC/HM+w7G3FWLscfid+DaA2/A5w5SUCqpBNcCcZdAJqd1E2B3v+JPuO6wG3HEXstQ3m05Fhx6O4wFFDSJioOufBiPnf4QPrJmCVbP3pHX2wu/fuNN+P3xNcJUo3di2bCIA5Jn2QcEBIDtje/Vy3bGzW/6Nb54oE/CNYfAF2P/s76FXb+5NxYsX441Kw7DDQffgCfet5IAFaJpp3jTWWtx/5kbcOSrlmP+4qWo7nYEfnbgX3DtybsjIy2UE6xciq4B2Z8lLpN4UnSYVQQUaaNODc3Mwr5fuBVnlb6EV++6I5Ywdpf8fkf8/bw9CTgUXBThciKgLLuvECj9xKR/Ojj8Sy18/22/wOFL52DObntjeMe34/fLVzC+HNS3gHHKokyiOhzJ8wgWAm2MgG5RaKo90egccAou2u16nLN0B+x2/v3oalvxxnPuw83H/hpH7LASaxbui3m7vR13VQ6G6xRQVrwOt350DXZePguzVx6CP7/5Rvz7oQ50knuFgDmU0SctFqUVJ+Caj7Zx0f6Mp12XYfEZc/Dlq98EK4yIYUKIZeN+EnQrJ0Fw4cvssDl1mOOTM34/9Cq9KeiGz+rA2B7exoijbfb72ih++M4b8KFVyzGyYl+sWvYu3LrqUCwUsa4+j3d97q84N7kUBy6fixVL98Tw71+L317wajgkKJsdFuslJ+Hb5/s469DdsWDHV2H4zCF8+/q3sOB5LCYqPJKv3a54CF/Ir8Ihu63CwLK9Mf93r8ODFyxCEQfosggqKmMulYNKYljE5WZWx6uvvA8X5d/Afru8CeVl+2HJXa/HA6fsAzPgpV3idhTgDZ/fiO8f9QMct3xHLNh5MZYseRd+uOOuWBmNwDHiHuHJZB/aRIdfUuBngyh0G5P0rxxwtf/l63HrBQ0ct3g2lqxYiYWr34Qb3von3POBHZBNtqCtmIMXP/oaLFi1EIM77Y0b3vY7fOkQHZFBkkFSkZI0kDuis+osfPtjNr54yE4YWjwfcz4LfP+ao5A3ib+qQZIobyoLDPK+EYlHqFdx5G+uxz43vRuL9+B3lt6MY397GQ7w55BUUkTSRT7JFOTAlzTFkEZssvlP1s1JEgeH+Z/qFH+dMd6gIY+6CTgxCU+FtvSIXV2MpDbzcAtGPAuNbnO78eeV9k+S74Djf/Z1nMg6OMTPDu71M7z+DydiX4kPxZtxfPnKE/D1c7fg/NcuxZ6DB2DlKW189WvHkJDIxvcGIuL4JrcLPx/GmCxF4b13/9yT+PUR1+KEHeZgwcp5WLrHQfjzoj0xgALagn3xz4+sxM4LBrEL8+IXb/k2rn5Vg8TIwPvOfxw3HH0tjpxbxvwddsLOB90GddY4Rew8nHLTNTj+xjOxcMkKfu+32P/Bs7AHRsl73N7y7DdRUPzgHd/F23aajaEV+2Nwz4Nw7dLXYqkI0GQAY2FBgcb8rrqwFh6Kiy7fgDMOPQizdzkQcz6i4JLvfBDw6iSqASY3bsZD9RXYdY5Ce1gYC1LoZglbZOnmLkux4eQDUdtxPhaueD9uOuQOXLdPCVNuhEMuexg/POHnOH7ZEsxauBB7Ln477ln4GszXZvPaJIBhDtORPflehJFWsfgr62fM35nwb+O7d8DIzjtgeNlr8fu3PIzPvJnCLK/gdRc+iWs//Dt8bNEbUF65CAt3fB/+MLwvVjDW3CUfxtdON3DJW2dj9u77YO6ZOr71nx/pnVzYbrfgZT4c0+/t91XxVVg7jeChExdjzfIB7Lvw9bju4O/im29wES37wIz5OUHyfdDpX8CaL+6EXWftjlV7nowfH/wV/PHDg72ZzRoJ/Vu/+iJ++P4bcdLIEixbuhgDi3bB3csPx6JoHjktMaW+AKXWJuKmxnzpMNZ0lB2WUvLyesfGELnZm750H3703l/h6B1XYPG8V2Hu6lfjt0voJ2qmpllj7XFQtFlj0IThVdGIxokJxBsrQmL7vS1u5nz289j328uxdNlizJr7UXz3A/+On354NXMuh16kkI3uZc/o3Bgmd1bxHPnwTPxOJweUWZSJVoEuDw0p4LsaOZVuUOg1WTLKrMc1uMFwbwZON61jKsnwmq9vwPfeduOM9WOm+iwzOkUcW9k4XnfJ/bj/rC6OWrMDBpfvitk7H46fvfaXuO+j5AjxKCzbxWyfnE+tohbKJgwFXnfB73BF+nm8ac4Q7bIf5tx9IO74xHIKFAt2pszov5nwQfYh3G3FIfj1/AOxijZSPRv7nfcTfDG8BPvtvBNWrVqKVX95B+745AJkspy7UBHPOxyf/+QgPvfaNdhl5WrMPrONL3/r3SglMbZkbYpl4ICz/4SvmF/F63aag1U77oTZv3sN7jnnVeQfFFaJyzgy0NRqcIj7RtaBrpbx3ku+h891L8CbVq/GYuLpnD++GX+7YhW1jobBnNoKHbz1C3/H9e/8FY7fhXG2eA1W7vQa/GbRXphH/KbcxwaKwVl2B6WwC0thbImoo95QHGJsJ8Helz6Bey7p4J1L9sXQmtdj+S5vx3X7/wG3nmhhuIjQWrACY6ftgnkc9+qlO+OXh/4M/3FwQfGt9SaP2OU6RWWM4cEz8eVPb8U1e++KJctt7HZmGV/53lEU8QGsPMIE8WEWhXs7suBpjLNsLo65/us4/Jb3YLd5e2HpSuLs7y7CUsMmB39pqZ1J8T3izOtt2eO0Kmi41HjYhi75ncI8zmmHEmtmpigo6Ac9lso1vT6aKT+mlu2OZ47aB/VdFmH+ilfhV2+4Gd/fK2LobmKeGdDJu6vqFKxE9nPM4Vp1BOMN1n3+XPaLjYE2dWbV9Jg3Nvb6wCewmztCWz2NEnF0pvosL28nyQAMgkmJOqVDTGju8nrcedyBKO//Zszd5d9w8yE/w3f3deGaGV571QP48Tt/h3cRjxfPYc2dwf/bmz9zSwn0iQCv+tTXsPS7r8fQstUYXPNBXH/Yd/HIkUMz4t8KjTqc95iwUrQz+jSbBYwTR1efiS+c7+Hruy/CzmvWYM3HLVz1nTeBhoUWNzFeaaPkj2M4l6W/suxzCqliYDLtkrOb8EzW0c6LCLIac7uNmPFd3f8DuHTn7+CMkb0xctUfUFPy7cfHVooKdU9HX0ytO4KqvBSe9RZccfkUPnHIfhjZ4WDM+1SKr5OToCQTPeLebPx5QcL4l+1vSMs16lE1RZQ0oDshwiKBjyGcctrP8d0jr8P7d9odA7sMY/mK9+FHi96KxcKfKp3ewZIzjV8mo6rsE2+FAy/fil++65c4etc5GFq0FAve9sPt5i9zlDL5Gbmx1YUbllHleLq2To5HOzF2q3EERx7O7XkqzlrzM3xktz1RPu9xVOYei6+fVsVn99sdu6xag4ELM3zxhkOQTGW0O7mdIpMWBtDWF8HXI8SrTsfXz07wtf1nYad5e2LlaSmu+Oq/EfMc+raKJnMpk0NWcxUGc3HYYF2RE55nqC83vvXXuOHYVTCoh1sLd8CDJ+2GuSt3I195I+553S/w9b230X4aNIN6jVpwTG1g7sgp+PolOT63/6uxUDjcpXV8/fNvIp2dgwl7Avxw77mCHYxhstLFuG3iJNr3QzdeiHkj5Jvz/ogDH7oY+6ch+2f39G6TumQ4r6NIA0TkYLoVULvUCVRG72FpOQlh2sR4mbFul5krs4l5rPdxCSPEGYU6LxlPMKC9ALNF7k6fve38J/HwJ15kzu1MLrgn5nBMf3zzY7jxfStQMI98xvxM+rQoNzASWDj408/jx++6CUeu3AsLV1VQP/RvqC8nN5+Jv7NpnoP9jj4L4aM5Tj9lCUr0p6VsgzP/IzPys//TlK3tbm9dniRLQgdrvLiq5T2nKxk7rWskQFuhBnMQe1M9ESpLD+Vh16g1Los2CLgD6BBsbJkVxwBhDaAIIXmmMVwaetzoUuB5mG80MRbpMBwKoJzFRKUgowgrKIZkY2sBxiSTGX8ByL2h1O2e0fhXlLJRJvhsJGUfSTtHyU1xzxmvwbmLf4vbTp6DnCRNNl6W/cM09i1QOmhZMQb5dzu2EJd5nfEY4VCMeuCy703oTOAS+5JSDJnsS5txoAYaTBqyy39bFFI5A8NhOdSKNrYx4UoKhYU5B5PtMcwphtFO6Sw7ROLHvWW5XYufjlUWVb+3Z4fa0hDKBsAEN4egGchy8oxknYBiywyKoNQ78lyW/C0gERglKbFYTNVYR8F7h0oJGgGxcGmfpkfADEleWWm7Fr1AEV6OqG7pBZVEl33zUEM7HiNQjVCcx9B8kkt520Qb5CUWp4D91XhDil5PTWCxuG91FKgsuCYBLiuasImepSLHCzKOiomE93LkLTFJXdIhkXImmWBVkpOMooHXLlhg6iSf4z7KJoGDIK7QlxwFpmifgAAtm0ALyCtVB7m+DUq7BL1UIIleIhQOLx5T7SY6xYFKAsXbWbRVbvB+HIMiM3/smEBs9WZhlElOmiF/T4Jf5/1F5C1BFy9msncNS7KnkRCRNDPZMq3e24NGJWBUMsZAtcDopINBvcPkL3rLB2RBRi5TQtMWE2uAZGct9HQFzKiLTp0x1WI/tISCgYKZoGiC/jByhHKqFMl3bNUIkOTeOguHbEBboe0Y83K4TFNnvNLOcrBRIktBii485kTIa1oyw0YZgt6O4FNMukYJHfpGZTHOaB8t8JCS2crOo9sT35BlCyqLV5gR6GI8cPEafH7+zfjR+5fBk1fRmcxGiFGWWYA2CR9/ZDDetngRhmgTWf6Sxux7EvVO3JU5tzLrsZuzP723zS7jTUWHGFJj/sjudbKvp8YYkcmWsjeKwb/LBriBL7N3DPrFoC1UFmVeL5dT45qoRbxyThHC4in7ZdWJBU2lIFawi5mFWU6G8dhk/EUY9xIKAxbKsAlXp91YtF1+ztFsjFPw0Zy0l0kSZNEmFBAUR4b01W3R9i7/riG3yr3ci9ifOSSUPq8hb/9C3tuj1WWZvkpbpxSTZtJFwlzKO6Xecg+b+UK5ReFhIWPsyYOsmi9vpTI4CjHTmI2O30VRGWAsFdN+X2MedZU2BotBNNUtqBjE22grJk0bc2KKbmsSHfpDITZUKC5Cj9nVbSMsl1Bh7ua0dRpOQWfBkkNUdMZZQxkjbpagkEjkJD8pSYdhsSj6E/RVicKJaprEqIgpVGjjLgVvqcJCmHqoFA36tk5bMQ7bcl/ia8aaQNKshMQdp41ZySDFHeOP8RDSyRKHbfqk2qIPZf8c5pY1TsyqTsDq1mjXF+Amc9G0ZQbcIH1KQk+BnbFGdA0HVcZJIbPVjDKKbkScm8CsXMOkUmGOsI+Mn9TwkMvSNqtCgU+7kbznFEY1YuxmXse1DJIS5pEWkRTSL/xT4k/2nMrSrcSeIbgkEUEUsw7V0Iq7GOR1O6nDnJRZS5NISwOMD+K8XaJtOoyNMgkvc57jsdsUq+UmfNmIteLCIQlStnD8dcYyCbGXV9GVwyjoo8waEC1Ou7eg6hW4BUkhc14e6HVpv7I/iBaxqlqqyPav24U/mVt9Rf0T0/4aawuRhuKM5YfJ5aGMjrxQ7JSRe8zJacbnywDTMmx3krVI9rSjnyUeZZkg4zjm1QaIhTGJmmBpShwR8j5EvCH1Zo3ViRuTLApVuE6A4ckyNrCMlWkH2RNLMyluiCsasTYzYhR+AqVcxoRG/4Yu0Z21iOTLIg61k22oaoMkexnrXJlGDzhukm0KvZQEsYMKSXLGa6oU1hSl5DIFP8cqSQJOMcr8Hic+z+kMYKw+QV9UoaYp/WwgMSmgjAHaYTOyx76MhT9/HZ6/9NCevecLlkUctzWHY2/TXjqangqN41d4lZadYZB1NclzYmAAp1aGGk1BbbvYRpI6FBEjyAlqxNmEyBGy9g1lNjalYxRL7rT5axH3psM/S29RIAzC9BlL7KNS5j1aGWqOYKlGYtTGQFIlbrASEUva5HsmxYSlaCA/hk3cBH2q6iDnY27Iiz76Q+KU8gEG8ytlvZVZFm3yDrtrQ3HGyUXIOVnj4HrT5ic4/i45kUNyaYUJtlgN+oEColOHLbMzdJnN32VPXQxJzhPEO+yLLEfyWS+q6WYWEOZxtY6IoThg+dBkJjjtV2UdlT0RO7RZ5MpM3xgu7dB1B4jRtFVBrsMYGaDP/HyIec3+8N4pxaZuuey/vFSXg4jKuPtsDVevfAa/+NDSHj9ySho5r4rBXLbGocAMDRRejm5SY40Mew8iMtpStuCejt9p5GierxEneZ1sCGmFPLnZJO/NKaA5JrX78sso2bLIow8KdOThJ/FE9u+C0pi2fnRzf9r6bJOXd0sxrCniToW2kRnlOgVx0pFHq/xEBZVoG2mljYi1RVbiSHxlsc+YkU0U5KEkMZ010o7HMck81Bl7OnFUzafIGavT+k+jDafDh4zXVxwDPv3maLKfZQfDKmsFPxMkLdZAYlcoS+LIwfIKRX0Gg7XF1GQNKTGANul6DAwKPNdTWFNYW5iDbfI5jxwg531k+bqcdNxmvbQL6hzibxROwrKH2Acbts/xq1WMM0aHyE/1dBtxeRbMziRC9kUT7p/XIAcTyAb5i8j9J4znKe7ZX+ZEifpA9l8XfEkY97wD0tSklqAdLMEgRmGqYzbDr0GskhOV1TbrviMqjLVTcVmnEuJ6imr0kq3MTE6ebZFbDaI6NkH8d3hfFc9r5HqslVmXYxjklzPGIjlDd5L+GqjA4RjlME2bnHCKvpEDBWKduox+qyTsPwn6ELVgQL2Tgrwjosh2qZXIrxu0kx6OwiwPc5wR6uTXOvEzNIjf9IPGmJRxyYJ42RVBXgrLljXT6SNN+NI0+WFb9D/Hq5Drs6fwGUsOaxbIrRPyA8nPCcGOjNHCGLSiF1iz5sKdzNGwyD8N5kRGnsH+lg3Rp200spy4xXynlpPVa9PVZ5djFNyVfZh1w+d4CrTI20u01VbZt9LS4ekhxpiTslXHUJW52JT9/MjXXMHc1rT+9xmH25M/VtFivRkgRrH+E+9C6n2NNcCtjWJbt4whAvZ0+CczEUVPWUmzt4UZEay3QslpN6DxO5Tk1OQewklq1UqN2p+1plPtYXOj5DIHGLN6Co/6DcYW4jFrJGNQ8L1szYYlk07KLvQmY4K5h6o8TFXoSRNbWe9q9Pn24GOiThKPB6iHGSPMNaNcIO2Qc1JzTjE3LfL9jFiRpbJ0vkKd32asmIzHmDyc3Er25i6IF3RGi3gPh7WN9k8aKv1KbMyb1LgWxhKb/mPtov3znGMnztiOAyNUpx1/Qvw1w4J4QfxM29SpKVr0qegieVFVStzt4i9d5lOdHCEl95qoMg97s46Zq+QgdS1gHDI/mYe6QqwjV9SpSYp8nH72yDNZVlgrx+TlQlcOVQ1RZa5P0D9mwZpPbSh7jsvy7RJzLiR/j6MXoZsKCntub/VCyti1RIMaFSQsDi7HIntH+uxTyeLnuqxB09QXVVZ3knPKMu8koXYhR9oi+3wXBnUx6zC5U56yH2YXbscmdyfmMl71qEBCm1qRi83GJswTTUYbod3ESFSGT55SsBbL6qIm71khnrXDzZhlj5DjyIQ3h+Mlr2deh9QoKsmvHCpjG4Pkex2WVfbXI48hrsnqS4vYkbcZYzVJWnlBwXrKfrRtBfYkc7BWorZkXsvBMVXyAZakQebXFONLln9nCWNeMzGrTVxhjHnU7y8Kg6K/ptOnks8l5ndKGyvE5klyM8Ex2V/RoGaS6QbT8feOF/Z8G955GkZ+uAi3fOeTWBG/SFycwzpOPGXcTcfPUvJKadqZ5553sfwlY+DTR9CFRNCBYHD1ZiyqIlZlffgkE6DKwq7BSacYuAy03luflGBiwlEtGn4jP1/rFbOMBLAlG/C2UpTtNodu0CwMCia+Fsn+LBQDLNghv29mJJQEUTm2W2aWFBUVBYWG0SLpZPDGNFhusFe6A52B4NR0tH5/Bva/cim+86NjsYiOjSkiyvKWgkWgRRB1CRqOUWIgMzFKBhQ53WakDJOBndK8ZYIIeTQLBEHXsAimFAIc8SBBRA58kDfSCoV5Lo6OWGj5O8oG2kZHxzfgsNBGLLg676vpLMwUl7WQBEaW4Wa0hezJQUBtej6HxoJhyMMVRkJMsUMyV/D7SpdATasJ8HgU/XFMAHBlWYesd5diVCJAsqwkBMBUg6+Q6FC42d3WSwVU9gHhZ23FY2KnJEAG7UmCVdVQbbCgGBQwBLJhgmJHHJ60ew9b7E7EBHDoVwNtJrdphiSgEQuDx+A3mWARmgQYy+N42qPwKNwlYA2fdtVdJrccKFJGmd8bY/mWZMsZ5aEsFyRJ0yXAWKAlfsos5K5qwm9OokyBZ6kULgz2WB7+8E+ZGM9bEgzpF17bSKTkEST4Q8v1EU6VMOKyryRJMh0+JlEsU0TLfjUFSa/N/+TUcCnWAtBg8sjpkbK3T9xMEJSGSfgJ5OIvWcKnT2IsUDCP8TpKP3Q7MgvQIegwXkjGK/xekhHEVSKNvJEtSgRT+obCqkrBnjCKZQG1JTnC+PFth3FHyk2RpTFW5BS52GaStxhfvQfudYTCiDg+nX2uhD6JAgsRYxDWIAsPwT6hMGIKOPzNaJpRuJCgEbAKAqZsCyBLMeRh6/bEd8SYlCUesq+iyeL06G1fw33lw3D6HosYA/QiC4jsqzdOkd9bQRwwrulzxySIZgVjPUZJLSgiFbT4p82RxTF97aa0SBVtc4qkSvaGYHEvxvm7IQoUF3nYhDY0C3ZEf9LfEeNDHjQTVYgx0lcCcjHF+JIxUJaQpFiSLxQFNglOkzZzTR3VgP6kD5vMFY0+Cpy2ZCs/SxEus6kZ3rbsWcg/W9EYbTvMnPApNG3M9kmgDOYGfZOYJImxkDaS11KAlMJ2kKDqMa4ChUKFNkoyjeSujYSEYYAEKrBZeGISJBZ4lyxNldO/SGwmZEkCC5VOshUzv2R/GYWkPmU/C7F1SMJllfj7JjoE3um+zzCAwcLX5tg9EppW9CwLzCLUKDinFJIdirO59HnOeAxMg3hA0sfKQKrMmJiioMxR1mtQYo4jYb4wN+W9UUcjwSWuyosSxRuFQ8JmED/lxLoS8SskJkhhSFmoLZIwneTDJAGN6HfXJ1mkp3Szyc8Z9LiI9jYLFX1Bf7VYwOvsW0o7axQXHZuEgFiZk/zzWxRYzA09QptYbzJmMlMD6xYmKyQFTdYFec+i1Ok7EgDGUsEaUxIhy5yUFwixS5IT0iaW1Xuo5TB39YAFnqJOlz2W0EKVuFM4vK6cilmtoBy2aUsWXlUOVOowrilUCo8xOsp8nYUB3qfJqBMoFuvNY/2ReaWmQowj0S4oBAuSMcEoeesfE1sN4p3mcpxUPwVxXMRVW2FdYE4pDeJ4TZbs066B9LtC0uHTTxQOJGax7KdEH8cU1iEJgksx2yE+ubIsgrksAl6WmmRevF344+eCpK+cf1RVXqzpvE+G2fz7i8y5XNvMmueQuBIL/OnHx+zucYsG600plS1KWhghgQ4pAnOLxJnQHLMuydInm9eXgx5MirTRMoU9e2vTpxbJjE5ynTccagj6lWJNHs4EuZxCSURlzTGJLzEFiJyIqE54jA3iBMk2XU2cFKFLUUSsL4UkxhTUYL3WSEa7rAc6RZtsUB2R8A8pA5ikLeskg1EhG/jL6g3Ci95ALnuW8Zsq610cy0tHEkRVXuL5cMMRcomNHO98bPzjfyJ+9Qfx9qUk/bx2THLbe+lIYWFTKE/ZeW95jMxI11nnk6JGUij70bASkPz6TQ0Jc1qW6w6p2ygw6B8h/DrjTEg/tdQEa96QzT7mJM3T5K8sS5kO/+SFQqulY5g4ND5ELKBYsNyQ36M4FOxXZMNz1p7M79VpmVEQkvjGxJ5azi955IL0d8S+6opM56MgplgYM1i/6JuEYis0qCqZtyWdGGaEzNkKeSQY8ya6yrZp87PFGikHxLXJGTWCvezPVaYAJ6rTXxQkrFEVU5ajldFgTLVZ8yQfTPbDYu6C+ZSQFKthh9grL+gychCLIoc4kim8J6sya0TZp3/UJnntLOKOSBmN2CgPRlmrmIsZa69NPpHYxE+ZPUC+RXlD8T7F2lXB+nt/gDsGPoxDdwNcjl1PW/yPokvVenv/dpmb8rzVDaZQ94h55Fo2MV9JZfP//5nfBbS9Li+FxJ/C1Zn7ocOaLg+7ogbjhrlPYUijIAvZH9YjqY2UZPw5LakY09aPkoiNaepzRNuBtbxMnHBof1/ELMffIF4Lr7Rpc69aJ0+WF4KCLrKErkvhRXDpPWw2GWMd2lC4MzmCKKlO0HsxGdaGoITRtP4zbMbaNPggy2tj4rTheBy3nKXKbknecqxyYr/GvEjII1NfXnxSvPOzHutvGjIuyR1N4lLI3oB4lU0RS8mTSqDuyWX2E/3iVDFMX7WIH7Y+QZ3DEM8qzE2F+ECOIC9HmMtzHHKW3CMj0hjjHDfTOWMdU0zRSTp1hWgD1hniDVkzVGJuoNehENvrrDtNh4IwoO0pDFXiVcy6r9B/ZrvAlENvRR4mmc+VLvkm+Z9Pf1jMv1T2ilanUCZn82OpD6yp7FvoMt5oc9mL3NLJN8knu7TnMPXEFqcDx6V9xqmtGNfyYtEZrBMjWUOJjXIgQm4zbwLaR2GGpCXGPvWFLRyFuc5aFzI3Rdi68mKIcZCQh5TE5/xpTn4hhzGQOlDsM4t7DxAS1Jn0McW6zd912XczYr5LrZlGH9nE8OnyI5c6wj8j8usgb2OeM4Jx5lVBDDJV5he5YcoYADHa4f0dn/iLNnkQ40HxyRMY8cQQnVplPOr0dI7MsqtSB8eSby658DT1WfgU5QbqMpuG+RHI/n2MraJcw7DMMGX9CDVZXdRCBQOIug3iT5k+pg867d5Mn+n8L9tEbE/+6PRLxPqhi65nHCKhHaSekyvqrBVtxt90+CfvUHJ1kvk0Bx7rboufJ+zCtKi3mB8e+U/QoHKr89o+ay5dqYbyEpScqVcjBHGJtfSr1DeF9UPnd2T1XUIcKojvmR+yplbIE2gb8gp5yEGajGFiEjuxXfgoe/3J2QQZa79JHxbU+yIXEvpIZWxl1lZ4aY0knBjJgK3FHjaRcw0I12OfDeKn4FhO39oG4z6SzWyo7cnzA+KQxnHKS9JECZGVybNC8iPG2SDjLWZsVRhb041fTzzwEtSoxDfqvqZT7p07Ido7DqmlE9a47eAvZXIsjTHWcTJY1ALyptsmiMlS50yzyWF8GF3mEeuwLXuR5hMcU7U3sSlS2uTGJVRlhj05scpYkJV2VUMWxVNb5qOoJOTqNLAcyJTKC5dqlXnCe/pd8oWIeEffEU+LWGWdUYjjtDNjl24kB8mQ2uzTNPVF570GfRvbMnk5QMQnfuSJYE+TmE1+RdunEnTkJzZxPmBMOjKJiRiVUG+VyCPKjAHZ7sKPQgwVI3hRDgukHVt6k/HnwLZTFB1y/jrzrk2+xIFaxH+nTB3LvJPXYhTCyPh3jfGWEVs9crmYcchMYD0hntOOJvV9Sr2usj7Esk0F+2KTN+uSKzITk/VBZ/LIfqFREqDDMbKcodImm2Gf7Ii4ZNcxRdyLyDUGmLNlxut0+lTTyYmpIwfaGiYZHyO8l5mE5JrMF3K7gnVnOv6ud120vafwlfPOg//qi/Gx/aqMPbJc2niKOQRtev3ECk0b8GP/54Gi1HytV5oZuAx9VjgiAp3GzuS5gSoDvGiNswCVCIomOiEDw+6iQ+NkFK9OpMIhOEsCTPLyesyCF/iIhuloBrkeN0n4qyRXNosgCyKDuUvi6chMPEaVSZBKTP5O3kQwEVUaUiOJYOywEGb440WvwwFHXorPffOb+I8vfQXfvvlgfHXDGXgzk0OVPVPiek8cxwMxwZZg7tLJDNTC2kSCRfJMYiHLo3MGSJTPphPRm/2ieD4L1yiTe4ifdTCWbCWwVhlMCspdiwFNq8gLXpWBygQJIko5FiidhswodHUKm6xJp7UVdClIa/xeN2YBJEhP0vABE3aIyagQFORNYlcXUcebB10oLNaaQWHEoMtI8EIWM5227lAMDVL4CSm080hm5lKE0SvFNtqY4MkkIR8gqKfwIpJcFhJxbypH2hcxAZ9CwcsY4DFUgqrsEaIR6FhaCTIlRDZFMoFBjurv0Ae9U0r5mS4LZU4bGkadwTCJwTRDZA0RXAhg/E/RSmiJeGDiKgQNg4JIZbB1KGpMn0HOwJe3Rx0RdgQFh4I7Yh9DBrpGxZgTBLp+ROHBIkyy2iVoUCoj4Dipe1EJCiQsoBqDseuxmNFJmqNxnIy3ZIx2onDUFN6TwEdCEzApPXYnNAm0vF9OwBCQH6DY2hKXIVuGZCTzJpXxKIuIHHbRZGKOkIhljJmAwlNItezjaXWloBHiKLh0x2AxHKNN5QAEii9e2yq2sJCVEFc45gaFTUXIJos4ATuhDeQtVRKN8zsevyOELkC17aBZasCm0FNjmS2Q9WZnqLbCeCAJob2S3lsR3pfpNkVbVe0KfSi+p82jCXgtgr09ASPcvviu077jBCOqbcZYiI33fhsP1T+Gw3eRBCtRiMuD7Jji0kOXota0a8zPJu1Mu8UsvvYQGgQlmSVm0Z9bkzoqtGsnIWGhGKqQPMhbisChr2mndinCCD/nezXELY7b4rhJ4FryZpSicEoOnqGfvKBBwB9h7DQIshUOiX4g9OUkChpFp5XZaLPyRyJ2iAMmhY9mkMixgA1kHWjEmQZ9KFs1iHiwU2KUPQ+EJJLdDgbzl04ltNjPQXOAMaxgG1mKF7j0+SiSAcZCU0hvlXnEeOydXEaTMDfTMESLmEAURtkmvkW0rQjjpMViS2Inmxs7JN2qTXzQGCcRyayINnkJMsIYIOnJN/M6MlOUBWSa78NuocGxe/SZzrzRLNqBONBhURmRvfGIxWPMxSoFqhB6k4Sw91gpkXnhtKzVJQKQvDB2bV6vxe9rucPCOwkvrlJoFZik4O3w5/V2h3lcZ9GLiMcqBRDxl8LYYVHVZNYvtiBTqmgyxgtZhkByBOKfl/HfFQcNX+qDLJN4kUJLtkwweA/WAxZWhh2xkdjvk0yy2LbKOb/PuCS2d8IyNrmyF0iBeplGpq3aLWKTWTDTZD8SeZFC6KnT/zIjgOLCrI0z70hFiLUp49sisbBJPPxSmXHPWFVa5EbEab3MuGcd0BiHzG8vGCV2zSLRlUONSrQRr5VRUFokt8TmgjFdSgcwwTrUJG7qZMx2YJAkEP9J7rrML5kZLjNOXPYlZczKsnqV8d+IfcwtjaAIGN/ENXm445IYGsxbma0ue6yUuhUYJiuhUu/tv6LYxICQuEZ88XLBY5m5brL+UZKR0MoD9+3BH3n4+Ur6Z4B96xQbKKzkhPomx0B8VcpoC37KSgbqr+nG5zJXCwoyjX3Uef2SU2J9dJCV5JATinaS8nyAOENMT1sDcEqMQ/oO4XjvYUKL9VCIS424mblab89Kq0wSP8W+kAiOEltqumwSzdrHftusYWXmTy3SIFuIGOYoBTKxj/xkwpc3zS/CJZmU/ZAD1hLFbaHZW9bSJS5r2Ey8KhOz5YWE7APmERsVisLMYD0sxsgJBtCgeLWtCRYZEWuD/Lk8NJHtL14SCrN2fAPetrTGbKKfuhQbpWpvH6JC7dC2HbDq9F4OlYta76VsidjUYo1QWU9VT2be0Q+0acJ6GjMfhfzLPrqpPM0gj9KFpDM1u6nUcwrE6fI3Zz2fBv8MXkiVFxqmfL7BGiR1lr8LpnovQFqMQbtERCWHseXBDSnHMO3T4F8crY5GEpFnuC9xQ/EN7dF2uxiirX1yHI98LmNfUqcCt90kB1F7M2vswsMLGmslxzRdfs5SGj0uwUrLGkD76qyhgRyGESMmj6mTj+QUbh3aUWZxuMoUxUNMfFXIN8kNYpMxoMCkfwzWty7zQbbaMchzC4rFEiE4pe0aho4SMWaCwq9M3HbajEGZYUJfyAmVHnlYLDkqsc74Yrkj6sr+ay4miMHP3vol3D90BD6y9wJ00lGMs6aR7jP2qP/JNyyV4pL2c8uDGGuPER8Yz4zVCmvHdPzOZU3JKXDlIAnZlMhlDcnYF5mblpPPTbLWDuYD8BlatkYBylhNbQpVxpnMnFKYH9PVj0nG2HT12c23sSYNUbTYjHN5MU1+EG1jfWZHvQqaFnOJ+qBLH5dlNQ3z1mT+q+QqwvLMYhIm+Ycsc5uUVTcUkDo5TkteqjZatJHwt//Zfxa54XT4UErGYdE+KXMgZd3IaMdRVfopp6ny5xxflf41KLRCbMVwNoIxk/6nPzJFDhGRGY8K84AxyfH49EebCt9gLRWM7dBaTZe8k/2uMIba9JEr+yYaZXIiClr6tqoTN7oKhhg73UAwmblRtOhLm/nLeKatDOJupo4ytinUKxTtzQrHzfqgl7CVcV8hL5YD+LTebMNxZIw/wzJpP+I8SfIg+bHgx5Q2TFvKXl7k3BTOWkF5R35WyIOCtErEYYzyGnk2ylySPRnJMygcc16nkW+FptahkY9o5FcK47vDP1WV3KlbZh6zxtCOCvVknrDuuMxVXotqundwYo3Ct0VfOczhAdpsVDCX/EQmCPgp/U18N4kloiRzck1ZreS6CjmcQn1kopnEvcOJGtpU70E4E5HxWEyrj1z6Z7r8MHi9ps4aoJLLsr5lU/z8oDygJDwzBmRCxDB/rhTk0VJ56DcOnL+fZE21YcoFGQvCyzyJS+boIHmDnE4vv7OC6euzzFodZC2NwlaPm055Fn1JLtxh/BLfRPwbXfL5lHa0VJQEd+yYnN+Ba9Z6LzCn87+Vbl/+qD7Hxro4QFtkrDEx8yBTM9rNpOYOMMD4nQ7/bHkoTd8lWhuTMtOOmGVHMSZi5hVrQZNY48okFOooxWYsUSfnxH+L107pz4D557LGmPS1GpBv8/Mx7S2vHlTGrpzN4FIXycFFKeuOPNw0fMY3eVmXeVQlL9wefKwwBkP6NPPraNsd/txDxBptWeS1vNYE9X9CPiUz+HIBdeK9Qns2eO8K8ztTeC2GU8CaL9teaIxbhRpPngOUXIea1kdTLVBWA9ZMWe0oDwapUcl9ZL90n/acbvyCHx0QD3hdjflrkTeZvL/PfuTU1Ibe3C7+UlBgdpnXBm0iMSwnr8fMXZc4JfVV6zBf6tTt5LpMRsaKBZ1YxXTprfbQOLYipK6rMS4Nji2vokU+In2EzT4Q+0rtNrxSvbfCoWtMMS7I2dkXFk9ikUF7MpZZY0BMCMh+VHJ2m79TiGvytGS6+qKm1E28RlY1YLFvoU+9ZU2iKwcAN+RFC+tnRSZoSK0nr7InobTkRO4YEf8bpYllxnKsVagTXH6XHJL+kGXrFmtU7ojdKuS6rHfZLPqYHEe0KP3XlrCk7WTWR1k4SolDSul94q/CaIPoloS1XeKYOK5k8gRMtsHwWdvJdxmnUS57ZhIRmddlYqRMuvJ57TL5ueRXucN4dRkjbYd9p/7QnsOQNgca890ndmTk29PqU3SBJEBO3DGpH7t+8NIep+wnPYtB+nk6/v6Xy5bjzSf+ALe99rvYcOYqjpn9o4a2LYO5GPUwfDp+5shDf7b/WvIsTRapMtx6S+bk7YxM78zp7JwJrstbk3KKdpsAa7EYciBSaLPOVjiVIYwrIbQu05QOkRkBpjxk0mej7TNXGKDyxkVn+QtJVBlRkOWRZsBiw8EGIqh5L10e1tFYkgCZFDSCs04nJ/ZojyBbJNGO7vdA3puqIaiy2FBk6PTwlN7AEImlNWXiBdfvPc3OjJD9JLAxqBmeJN7yBmEAdZf3bzYREICmGOKO2qBx6PAWacOcIUR+AzZJCdUsu8pAYzDLW/kw3wDTqdEWtR4J6LD4yeytKgFmmxei1OBnWeiZs7C0JgUvf18dht/aRnLl9t5C5RS8QkElsVUS/ZSFLrNk9poNi6TUJwkqWFxkubgeMflIduSNZsDA83wGJAvLkKFiG2yU+Z2C5DhlUcxVJgp9WgbtJU/BbRa+XsCzn/xsnYAedplwtgsn24bnKZQHLIIVE9BiMHRYBLSoQZ9TsDNhx9l/LRnGQDGBUQp0UitUohybvM2Yo8xnoLJPLQtRmUFO0NOYPHpKoCVRj+hL2Q/TyrOezyIWL3cyxrbhNiyfQMxkkD2MKiyuoyx8QzlJHv2uM0gza5i/a0OmCSsUtUqHNqDdTIKv2KIgoIcUo0VA25r8uczIE65DQGT4wqbt4tSAboxRHFUpsIRRxIQvxh/91CY50ShiHMZrQ8i0O4kBCqqpikfSR6IdUpjTXhMUrWUCtyZ9YrzFjKDAS/lZEgtnimLBxSABKpIHzbxfk4SmarBvJBOyxEuK1ObSBOY2KHLZdVfivBTA6VDgk1C5piT8EEMhgi/L3khIhgiYMYl+zhwKKfiyWh0lWT5NAhNmwXbFt5VXULSYu8MUYj5BloWg0IToE2gIOjILsMMiNhAFaA8MkUj4FEiTmFUMM/9JxORtdTGFwmM8M78XUpRuyWV2A4mONsJiIQVflvQw11kYZBPckP1F2mQhzmDSx/IAJndJShhNtsxyZlw38xGSdgIWldCwVsXGMoUvAZ00iNhC4CKZ5bBIvqZgkZyR2TCuCeAkjgXjoWWTENCfGvMwwjiqnTpaZsrPj3HMcyjgddTYl44VI5clKT5z0BqDyoLihQMcU6O3YbPSMdFgbgwwW/KC8Oy3YZZJ9jgmnzYlJyCIphTVLJpRlQUqI4Hq9vYCkT+7aaW3LNigHxMStYBUwSMJC/McdRbwRiEg/D9/Pyf+NNjHoXQQCcnHBP9nBwPQSyYxs8sxlBC3WPgqJLPM74CY6OTz0VHkAXMDc6MRrLdaGCGhsIM6CaMs3eA1WfxlewJ5L2pqxA76qcG8sCZ0NBkLbjyBEjGpTRvK8nwtYwwybgrGVEasGSR+jw4MoEKCZscVvEh/ehWiTNRBy5GYIhEQwslcb5BI6RQ11GksH8QDxry8NDCVOgkNiScJd+gzhtiviHHpU2yViQVFlBDjVBZ/5gpFTkLCOpDUMFEipia0UfjS7FSdhAY1g6RuG7FwEM6Ij1ZHsIH5FTNHdZEwJEq0eS4ntbHAhxTEnknSSbyODOJ23GKMFxTALir0U04xpJO8BCG/621DEhFjKLbELqY2iG1uAyNJg+S+ytpUhylLyRiDXeKfw/jXdSEcDWIX+0GyDgojjfgsbxyjXN5s0+AxcYz5IrN/HLvCnKAwY32xiLVRUZAgEDP4+e3Bn1iE5Cvon5T1vmDtLlFYTTrjpAJDrGVjUBokvqW5JPmNaccXcGxl5kCLNU2z0l49CSnYEn0LxSWFaOiwtnaRMv7JbllDMpT8MibqHPkka2OpSyIkb7QHKN4YlB5JbkYsiZgP9LssrVJ4jcyR7QtIrhokseZAbwmUJlyGQlGEtaYOYzYxaoz/KRTXalVDOkHcovAqaG9ngJjC+l9njS+8Dmt8hEqH+aaPILIDxMQgj/lhEgvHybZlb2iqVYqvAqMecV1mElB4FeyHkMYJ5vqsUkyRlLGv8qDH6832lBPgVdpLs5rwm4wll3FNn5rEfo/33kZcrrKGx4zh1GD9IjlOiEci2E3ita2RT4joIdLYaYrAnD5/rZS8bBr8a7Lml0VwsB7J9ipqyvETlxPimexrWmg+xQdjQGV/XY8Eeoo1boSENKSIbJN38HfE+ZgcwjEW4UWzhaG27FG2kPEbIklZ45wJJoXM3aLvZa9bi7hK/hKJUOL1p8vPBu2qlJkf7J9sUJISb11iH52BrMVaWo0R046l2hxy1AkM5sRRYrm8SZeVNCGvF5Nwy3fkcBxfDqnTJykiKcVz8iTmEGkC3LqCcTl8g7Zxy+PYTL+VKdTIp8l35cREA1Vyh7CQPeBclOTFKLldLdEwJg+aDY9YTaIf+STis+n3kOlvMHYtdnUUrbbVOym0yhrcrOUUyzVUKJybJAzT8buA93KYp7E2DoO+1WV5k8cYakbIybdkA/wJ1sM6Y0PG1yIAOQ5xq0OBWmKtmaF+lMmvp6vPJscxwHh/ItuKBc5s+q3R48Ux4ygLDNSVrZDDMHLdQR60KNgZC/SUKrPfqblUXkuUhk2fehy7Ly+RKVY8v8lYrPQE+HT+Cxg/0+FDbLWZbwFvVENEO3hqiFHWNVmgN9LpolkhFpBKmo4PlTVGzzh2h3nAPHPTMpr8Dist/dkknpP/UODKA2eZxdQpBhmDk6jKzHfaoMPP1cipzGI289PhOCcZIx3yLWIi+W7DoJwk9juMq65s8dOQwyIoJUoVGO2AuZqQpzF+5dRYt0CH/NpOWatkqxdiuFeuIgqZO6yHUlMC1jZVNuwnbssS18Rm3ngNGKwFCeucRX5W0E4KxaZP/K1QaFpWnb3q9rZMqpht5hEFJHMncFMStbwnvAvhjrL3LmuscLiMekpiIJEHePRdU2GmdsifdGI+9UNODuCxJtrULAX1VpPX04sR8j3mKeug4I9HewSWyRho0g/AEJGhTRYqYhyanPIaok48ich/cuJFTgM7IlTpp+n0kc/xTJcfSib43KQ+JOeMPd4zIs+XmVlT5BTDvRcHCX0rL61lFVVO3aAxaXLmvZKzf8RksxgiJydHDxgX5iD77zJWxK/EZdpiuvqcE8vSYCsxZYRjIYcRzUyhLRMWY/Lq3j7NdeJcO0NLl31FZ/dmVQ+RIwYcjanLxI3/2f8ptdr25E+nmkOdUvlvcl3GmxWPwymqPa3q0zaGaPlp8K/38IsxoDNXZPWBYrTQ4RgHWHvG5EFUM2Q/ytQK7Dc1nB5uZH2UrSZmo8L8b9nyootmJjcjICFVEtRJesZpIxqR/qYtifU0D3WUzvFSP9O+w+SB4zWfutiZ1v8z4aMuM5iVUdbb2XDGE7QqE6gmc/FCyUe9rWJQD7CVvG+AsZfnHTTJoz13PutOm/yE2EHuIacWp7JlifSVOtOyqVJkNmamMWeowTIXiSNbA0QYDk08RT4+y9agtqjlWN+mG3/voZY1Qk5GTNjmoTV/HFZIe9KHml9DyHtvD39penIAUs4cI+/TyQsV4mCTMU/NnJSIDdQmY0qL+cNxtehn5qJPrAiIN3PJe/28SZwjbjAeWi7xkPEzkDDCvLloB1tgseZ4rGVhl9prkLWUWrPBeJnPOpAxXnLWiYS1SWUcvUSTaQfio8o/MsaeTEWdrr4Y6gSxlxhNn2vkHro1i99t8mu8rmeTS6o9fWpLDJKbm+RSuRdgKlbh8P6WMc6esBaR55eNKfpvBC2OV3Spx36N5gUGbBNTWbP3FKyp11DVu+SNjJ1WTp0rzwhkRqPC+FJ6K+J0edjpaBxzAoP8OAlItjgOx5FtuDhu5pYsr5cZlUXYxmSZnIYcUF6xKdSvNWLNmE/uQO0bDLA2MLZkJmROpyhFB0qrDZtcq6N5sKjLp9OnskGC0ZVZmaJ9ZAm8T00n+cMxkRtJ/6fj701tGzmQBrJVcpUWNY7MuayglUwS7+SlD3n1dPqJf0r7rxmKxFMOgoNRGLj8sry9kafn8vRVZ9GV/QALCgSXRFYrKEL5d1+ehhM8mmkLsyMSpxLFB+likTCxbA8+C3eJQlCWMqdkFaHOYGJQFwYLLKtNRBGUq1UWfwY5hXVOoG9TCKux05tR5DmysChBlwaW/f0qSYxRElgnJynNZe8TCjoWpA77PFBUMMkCJ0ekV+ncnKQ4Yf9k82Q7bqDNauwRaDSHCddJCVgMbo7NoVEc3kUvKL7lLQ2JoEKwkD3j5IGnTL3oGhQILBwqgZ6Mmc6h0xQLvePDmVRiN1kuqrJf8rYtL7OQByzYdK4uYkwvwWBgFrlDGzAQuiwU7CcqFZZtkfoi2nwSDQZFp0wSPgVD3moQRHPa02ERcEKSe4aN7jF4BPh530jeXmjylkT2+aBYlLf0zFZT3rSQ6JoMxC6LXYXOVRjIqSpvwzUmepk2pxgNWIBME8Rc+lQ2lBaAdhiIBDiKMIPgFxtV9k4KJMkLE6hM0JbZgnJSXFoL4WUdcRFBQh4NZyw67IcQyZyUkj7zCRgys0CIqir7Q1JQpCGLGscUGiSIMruPwT5JkaGxaAZ5gwSXhDYRUktZa1gULSmTSUGNfpN9+wyKLFlK4zsUpoytRPZa4PW6/LvG8dmMu4AEWU5uFdEv/g2oohMSUTkiXuO4ZO+6AYO1gWCr2LQ5E0Xso7M4O0y6lMIhUTbSrg79S4BlbGRMZpY+3lMWecjSaxVbmTdd9lumZMNvMSQ1+pagyxyq8l5KrPRiTd68mgQZOWFO9xibTNOCSW+XGDddkgQWnCnGYlZYFMgqQU+WI9Dm9LXB3Kmo5e2Kb3nblpf4+6mIZJzfJwmVZViO7I0YkfoTwOVtUUiBZjKX5XAFjbFVIsSM0/eybNqyKQRJIGTrgVFfTtJtYLBUR4PFVmWM6Cw8NsX9JP8tRbzMgpfKUlnaUom2EewIyrSJCJqMgKrzOlWfGEIBbrkVhAL+GcGyGCVmlBCx2FuR7I9oUVQnLGYUjzpxhZzRIBHUSOoLFiO5Xkogr+hlgqtO0ci40soETxJTjq/RI2EJTJmabtM2Ugzo8w4LkyJCKiZx5bir8hCGMWcTu2Q/ug7jTN72BFLIBfv4+W5BckCyoLsd2tViHMlb3hIFq07iFfQeqsSMByFxOjFCzzb3BIrKeJju+zJDTElIJBJZXkRs4bgSFjh5iOJyHE3io1K24YWTJOW0IW1q8345r5Ga8iaNZJfXTjxWa8NAO8qIzfKejEWehVEn1upBGSF9njoqSS7vq8gbbxOjJN8q/67HFgtjhDZ/J2QBGnOI2NehgDZZpGU+hKoUKGwWetlnp7uVRGY2xXXKmAowJLWBsQ+DQRvnvUMMLJIsOV0+tWLGa0QyTRIsY2PeaCxQKftpkAxa8vYu9BkLlID0t8z0iljki8hGiYVTliVSBUEnmVZ4n7xOG47LVg70jVKmj19625uTaAXEnSoLrSwxJIqzwMoDEsYrLxExHgzaVGO86CTvk8RYOUFdNl9oMg4NkvTZ7Puk1ejFkEcvESZRqC6xg6JHYloedpOUFzIbgfeV2bQGiY5KRq7ZDsaVKdTaVaglkoeoAsvsUPCRiNOHRc6cVRhfzI9AI0km65At6Q2Kju3CHxK9V9I/3Zwihdg9ZfokWrIvEzEiGkRpsErcJZrOMD4l82lDGQMrmknB1Gj3JojY/J5P36RV9iusU2TRhobD/G7CZ67X+btEa/AeBGuF4oukMWUNcDnOkLW/wvol+7rG7DChFx2OQaXNCpJMET3lrjw4Yv2mTfUSbck62CoEby2Esr9gN4DBz1vyBpaxsY1iXOplxnztsm61WUNt5kBGAa3wGhXepCEzkCmgXZpRIY/RLdqXAk/2rZB9Y+XQDVmq5mdtzGcMbSZh1IMMscts5TUCm3/2XtK06QbW6/IAWvSfbCbeYv2FSW5ALPY4ZjWlnSkKWTkZ9wHjUfiTzC6ggGM9TRUyCHlzTw40Xf5WSXqnwz+LPk1pm4ik1Qh1kl4SWto5FdIu+74WHBvGmE0lRj/vzXuWM4NcZBIlg2JeZq9Q3BXZEPGZeENubZL3JMwFg6S9xy3jqd7yIC90evuiyaqPgkJb9oeTF0LT5acsxDWyKeKejrZZRz2RFRsx2jnrgDygSYGRbJh40CDmG8RIxg3JfJX9ZIVBTJ9XQfJtVtgP4QVK78FPKYyJNwYKcgOHdblFwlJJTfpdri+zIegHYqccftNwZF/eAIHF3O6Se5rb0CUuSF2PKNxMYnCZfW6Qa2SaLPdj3LGfchCFzK5wGRuRY6AeM4aYs1ZAu8rsM8aHS3E1Hb/TGQTyEqAgzuSyPI5iVW2Ta5NfZxR/Ie1jidglf0gYF+LrOGR9rFCAMfZaKTnXNPVDNqafrj7H5GmysmLAstGUk++ZPx3Gq0HO45DzjWt1eBSZcuCAcABWVMQy84pcQlY+uMTzorefMOuYPFQXHpZRsNEfbfaT1Wd6/1VlycH/jA/UrhRBQ8z5LcgjCyLFZVmc7Ds9xnonB6YVVkb7SZUYpEAlLjFnmEy95WKmTTuLhjE9clzWDGLsVl1ihlqAwrMiLJgQZZJTVSgYZTFoQpzoSozYCWssRTaFmEm76DavTa5MS2A0aWCYnCQwWZtC8hLCGAk9fy8pzu+Rswkblf0OtYocN5VBI9+YlL0bgxyydZLYUrcp7mR/82K4J64LiuyuV4LDHJatjlLioWy9AMajTbxvMp5N2ULBbqHoCtzLAw3yBPrYlj28E8ap3UTKGLTKw+SZAWsN44+YzrLC61Ln8PNV0yCzi5gvBCHmiZ6PkWMBLdZp2b86t9qoRcwbtYuKrBLjZ+WFHokFrexSmItoHyAXYdyyDshenD4/K7OBZIm+xlxPey/mqBOn0Ucl2mS6/LDJH7oyk8anvmAvPH46cYnFAe3B+J6k1qinA7STzrG1mD/MHcahQ4xu2aUentnEdTlxfrJSxhB5BlksbeH29KlG/TVdfbb4vUaJNca3UZZ9qYk3Re4iSMktmItkIMwX1mnGkprVUaU2yR15AcOabdj8HHXPNP7nlbcrf7KA/NWVCTvkMKwFikVfsbZE5QliGrk3a+V0+KfQ/zLbzJHJLayzeYfYwTyUU+AL6g3X5vXkZSHrEZlTb/svlfxB53VlgoXMiqskrFv8js5YTG1qUca8zNhWaePEZl5HJmaRa2Suj47vYYScvMP7+VFO302vf2fCRzksyNNHkHSot6qMQWp8WQ6N2EdiBqzVFWjpJBo57W8Mk48Ta1qbMSB6inVOzhWIyc01cknZlz2JGR20sSCdIUtDWdtZrHsvM2Xrg4B1fYC50wh0lOingHpsuvEXBWtFRjXAsh0Td4ZTcgH+XZZNax45VZecajv4S0oMFsx2WB+6ElOMV73M2s98iLpTvdWhKsckJyTL7LfQkAdE5K7MS9lzWLZEyUplalzGocF4oz5sZuQHHMOwxAHzIe/V8hBOl1q/zpyhbmRZRGjKdB7qxozjlVV55PVyMFpKu8mMadlKK5qhvogmsDg+sidywBxmzAxnXDblIXfowiFf6L20T8kJDXLKbpPRoqImS7yF1+hDMJsTUKiPUpnPR/xV5CUr48fXaswZmbE4yf6SizrEVXkbkhODfGpip0rtTB4cqqjQn5PlLqxQtrRIe7zS1OVlS0TuRYSzawTHNuOd2ElnZoZH7ioPcYeQkUs5xB15YCITfOTQSJl1XnLE9uR4xMpySl1OPJTDBdWyR/RjfwJmUKkyrT4lhcIgNdGE32Z9IK7ksl9it3davsphBMSd6fi7lrGWUm9Osr7K6hTZ6rDEmLSlzvJ+8jxqOn5WsL5L+68HiooAIIMtZ/qztxTrLBZMgEIePDCZZM8B32SvQw6eQkGWcARMvjJTSpZu+gxawycRYXEzXNn7gAWC30sohGTisewNqAcFBkiiGxSICQdUlaLMTrP8MdH4PQKzzN5RTRITFiw/J4FUagQzmWmnIqQoGSTRiWhgXQ5sYbGWKbGSpLaIfpLNmKAuBG8iaaNEIaGwvxI04Gdk9p0RjkKlkVOOz9NaSPwKAd5BW+3QsbKPiWyMmxEbWAS0yZ5AzXWSRoJXl84z+G95aBYzEXUWJnnbHLEQlRI6hqLMUMcIrHQAyaTBoMgoeHOdiUjnUnb2npybLPZyenY7H6XdBxm4MXKKQFnBMULntu1hEg0CkDZBH1B8sbgYFEyyyWke0BclgjkBWmdyt2WZZ2JSuHUpwBUmL8WUwrEwSSfY7yoJV8Eg7JJ8WQTDPCMIsQ8af25QcLM8oHCZqAygLn8u03FjjqMcywNBJgqTOpGHSIyXyKagiCk4VLEpST7ZkcwOlcNjEgJDJA/V4pTxQTDk3w0WgoFCHuYxAHuzVgMKIZZWh3YMOR76UzEHIPs+uhoVCK9dovjwPcIPC0FI8qETnOUBaSkts6DRhiy+zTKFtczo65Cok+eYMmONoK/ThllrDPEgqQwJl+z1mZDYCLBl9LGSyswS/p1jYcoy2XwCHKU5iYjM2jFkea3SRJnFqkVn6IxZi8QrYbGyKEIiioBql+Rd9sUwGQ8kBRW9SrEsQrfAMInmBIuSmEEjWBQKC6C8SaR/5RRGk/1XHQo3An2ziDBAv4a+5EblpVl3AqC0XcA8kH2wFFI5o8ZYpOCTt+/bE99dPaRo4O/ZuZRCSpYnxOxfqz2JEbuKkAAHKdAJ2SezWk2JcMxzPxnrxY3BHJQ9pyA+Yx9Nl8xYcxE3CV7lgl8ledIZg0IEGA9g3AccU11x0FB82q5OIkICR7vKjEFZJiZLNi3HZV6xwNJHqSOzJjg+/g/MKZsFTZa+RrxWj1dSxE/SDhWZ/sU4UihgE/bBY/zIRt4JY1f2gk3ZX4t52iKRsEImFXGr4xFX/EnGEkkqhWjM+HOIWYJjYUmIqMSiyGUT4yTEljwUZLwUGn1BP0ckZ7L3j1bYFIOyVKcO32fc1unDoAQ7J9j3lomRThkkjCRtOcnFRMVDlbEYGu1pv6/R3jnjWmMeBirtwPFpZE6KRbJLm7m5ThIrM8YpCihOpCjTETBiFmQaR97kG8zxNu2U00aubJBNKM+UbSRfJPQRCVuV+EHRKTPOylIdiNuR2I/xRsbJwsiCw8uasokviWCJPkjZ5xoLa8SfBbLEloIsovg3FHkjPUw3EYfIGmTLiQ7x0pIXMyyKtkI72ySrVB9tVrucMUjkxBDtP0ahZxJD1ViFHF4lsxZkuXzGPCo8EXbEe2scdZJSzY0wxnw0aP8ebrFY+sQsKyz4HY9xSKFJAalQ1JmMi4J2UGhDhT4s+F9FyE64jdE21HsYr8e8L/E4Yb76ZgKP5JXh2SO8Ut6UVObGyvJglVaVa+YkBfJgkaSHpKFRdzHYbMF3WNU0ykyfmCYzjFmI5VS3hHnpZgPM0ykSARNl1sNYxFLKPvEaKvFHDvyyc5If2rBMvJOXPjTHduGPvOx7Jf3j6RX6R7gBSZO88JMXV8y7FsGUnmH+KdOOL6O41MkldJmNT+IZVNgH5nZIEUGdSlKiU0ARB7yMecRYJpGziefdYoq3lAVd8nAeSCusJbSTydyMKRpi2oXB28NFwiyxgMRcCGeLEMH8nySB8ygmTGJtQizQeJGMIlj2ksuIwWo+xDRSWDuJP9k4bEteRDEu6A/px4BBvtGRZbI2OiTLHvmGzt85YZsEm1JP0yiEEhQq/UMM0CskjW15Mcdc1/mddAzDsmSFooEd5zhI0igcQo4XxFCZOaQKxjL+k5g5KoVIRBTzvUwS1yRWq7IEijXZIgsm/SSGSL2V5Z8e++NRLMhDm+nzd4pidTr8MxifNvvEyKGgYo5RZMksBYdEO5QXTowBzSYpl4eNDkmrPDymGDa1MvsjD0YpLIlLDv/XjULUNTmciHmsVBmXLdZteRBfRpn3btIHrszmSIitFL9O3OG46tPmZ2Y3SO5HesuWMoomvyozZuWgIcanJfucUjjbGcUMMVLsQT8azANZsiZnjsndZcMMnVxTZgXW5IWFKuep0v+MU3kpMZG2MEzfhswz2XNMlZk6GESDsW3LrCa7SdwdZrwQt4mXkTFETkKuRZ7bJF+x8lnECuYD7VXjz3wh5swfWSrkUsTJyhGD9+3yeioNr1o1FH6HQoSxkMqM2v+Z3+UG+9imMPMmOC7GSkY+YUzSlyyNFHMyg1D2q26xNMo+XbKn4/xoLus385LCy6O/pqsfzRnqs2zs3s7GyC/k0Dz2hbgmj51FzEZKQKHK/OJ3CorEjH6V/a2Z7RTMjFjiRJt9HmQetIMWa5kBN+qiXZZ99wqKrBrxg3aZxn/s6bT4QLWNCeqFWeRKCXM+pz2E88msWZ1GkokOKXHJoWCMaPuQHMZg/fMsFyFzWShGXmeUkI/JHnwmMV0eADTUJn1fhU9RWJRqjFOTNmXNoc9KKWOEXIzErmcvnXy7SCbpG5V2djhun/WXfyfXSkTwy4OH3qz5CCPkKT5jjmKH/aB9TfKvKYpI5kmX8SUzzGTvYNmTW04pln3abGJEZAXkOdQGRZXWbZAryLYwXo+fDBIXm/SxnHYqMZQxP0nbyEHpE4KsQz+JgC3YF5/xRbfAKHNMAWPQZT9JGHoPq+hLiRmddUVekBbk75Sg5GbkeA6HEJDTFIxRxjcJKDrElBLxM2Z+yNY3kw7rXtzozWxWyD9DW1YZsI6y/zIjiQWAVnTR27+d/Fz+njLJp9NHGuN3uvxo83916pkoo3ZlOoGaRuuM0fbEYvbNY1zEdgumT5wgT+qUtsGWU0v4d5O4Kzwvzzk4BoJsgdBlza8TZ1RHXrQxeuQh+TT1OWUu2cTgjBy6N6FGMIKfM9m/jiovxJvwfItcgMHMmLNbMdq8p6OwFvKeDvsxnf8pq7Yrf2x50UruJJMX0rK86ODPGRcd6lIrZezRV9PiH//T3QRxmzYjxpTJlUPieNPYjNlykBtrbFU0hWgfcgCT2iFnHUicDnGafuXPZN9M2YooKZErcwyzfPbZlVnxvVfBPe6V2inaSUxeU0Gb/Ff2/C3RtnIY7Pbgo0N90qBd9BKv1WkSwzT45DBGodIHsn0B9U2N8Un/+F2d+aUg8IiV1PKir+RAGo2xFHGA8tKwt+UG7Vrwz5i8SOE987zJ+jpIbhZTxzHPul1yBJuYz5rK+J1u/Io8QGb80dsMSYt6TPbVdKiA5EUcfcXxbg9/kReG8kKB/yBeVak3BOOZ33pAnkHs4rh01mKf8c4gJc4bvP4U66PDnJeHnvIQinEgLwTZHzmgZJDXC6idEznAilmssk50yjl5XYygUye0kYQRB+X5DUUZuQ3QJgbLw3iP3EanzQVCCnl5yZo/XX2RczbkgDoiFvHcJh+gPQLmukctmwZosd4aqLHm0IJRC155kPVLTt4nPxJNwL5HdXZAXj7z/jVZjk08Dmn3UkTfEst9vUWOM4s5N8X7kd/Iw+nC4/1YE5mvEw75pBNgCfGvTT/YKnOdtkvIlV3evUU+4QbC62TWuJw1IA8+bepaEhjpX0rfxQNMEJmM0O3xCJJF5rBLP8g+myWOIybmMP9Y3+RlLNki+TG1UdSeVp+qgl/U4oosaabdZdyydZyM1SV+WIzd6fi7bJfUYp9d4dg18raQHiU3ie0KY0yWwJen5WcFebC0/7bkeXuabAy/QR/CvLiNlm6SmIQIKBzq2ji2FfNoCN512ibLMGsUBJvhy8EuHQJuxcUEC+4O3SYaojr67RVr8mYMDELbbFI42whJTl01YKJRuErRFbX2CjZNJ6HwhxiYHQQlC0MTMSbrGsosckE6QsI/ffzI7IApgsiAnFzoWFBkWpE8PSfIxs4sFseZ4m/6llCUq4kct5+zwJI+Uvg5CYkHgc+k6JO9Mi0SioQ2lDfXlEcspE2CpMxIFCAT0CHABgWxtUbRLac6CcjI7JLk5bv8zy1n9ZITTI1OggarRTm05IcIahTxJBFyOle/vXKN/PGllyYswB6JuixCzeRhTiE7pbJAUyhvTyPtpDgaIcnj9YwKqpNdFmcWMNfF7MkWi4Sw5P99E+Eopz02lCFidQNuJ8VobQh2FDDPKbJIeLankSqRCMS9t/whC36uuiTerd7MSpvFV06GlRmUQsQLrYKBZAIxSZDvGr2H4uYM+Z2nEYlUhXlOksDi2JXin9ehMK9Uc4qki7luUUTKQ0dFJ6kjmWwPsdDKTGgW/5z41m/91m/91m/91m/91m/91m/91m//svYve6BIyQ05EELVRpDI8llNps0DbVuHEVCNazMI1rygkDbhyJtffjZJZJ87OeJ9FEG2GKa6fQ+E+m36JvsxyNItWTLT7USwywUSmd5MH8g+YShe2QdWMgeVt+yd6iRvHBJYgDUOhHOh6G3+9qUn4P9Tk30zWnoHrj+IxN0GJZkFW5eNzrOX3jDKrLntaLbMQjSL3gzVMPNgmFFvuYqObajy391EgSzPju0cSgxEuZz25CKTPV3CCHERwe3NRCggb7lTPYNWcNQ0ua5pyDB9GsrhMrpThx3I6ZoR/HIGr+tB8VtASZaE9h+YvJJNlpM3NcZl4UJ2TcoiA4XJuOvNHo57M5a3q/FiucwijWX2hAtZClnWiIkZ8a+YA1sLX/7g/67JsSeW0mQcMq+NEvQW8dobg53InlApejPxt6OZzK8gzCBbLyi51psxI5s1W4qKZpr3ZuBlUQzbo62iilQLqIaKMB4lzs9Brkw/PpMdlNMr5U1lrr/AeJ/Vi3nHUnqz3dtlDXOaJYwaWzGQVNHWHZQ5Mts20cw6zDP75Sv1W7/1W7/1W7/1W7/1W7/1W7/127+i/cueEslG2Zk+Alv2EIAJORFzSjPhdlswzJnFnJwiZGY5v6OjSC1UlAiKESLRFkMmZvfbK9tMLURnKsNkGEHzTGihTOm3UDg2bFni8Qo3Q1d7DxNLMX1u5L0N/XPZDNtsMTZkF8DpW6QBJVni4gYw8hpUI0Y3leXFsrJs+5+ZK8oE47LbW1Yo21xpgSzDjWFjFl6QhxyuLIvpIGomsLMChTGAPJWJ0LJ5fYRSyeSXXMSajSiXHY/4T83oLZX7v2m6VevtpSDT2OW0VGeygF5EQDlHLPs99Nsr2mRTfdmXtEgD2LaDsjxoT2TfPVmqu/0Pc5NCpvWbCB299/DNYuzKKbyBNgvD1ksb3m5PK+IOusTjtCihnKZQXdnvpo7ECVHSZ86vmVoWtKBaskxBls0RT0yZoc4aELeYI7Lcw+qdfN+OiSf8vWIQY4ImbNmuIp8Z3+UEvqwr+8mFiOIS5KAA2XtENnyWpaW1RgTf8DGkz8aWUhsD4L+VBGPMRyXazoe9/dZv/dZv/dZv/dZv/dZv/dZv/fb/af+yB4qyiaRsOJtSvKVpiDDLezPOfLcGUGzO1LJC1oMHvb1N5bCAtmoh6WbQkknEvccv/fZKtsmsAnswwYDmopw3oRYh4vYoPM3GhFZ6+VOvXOvGBTzZ0NmzYUcp/Dzr7U+kJxWkkH39pm95qiAyM9ih7PvSQJyZsA3+XPYMjGdeUjxT8/U6Esvj9WQPghgoBqB7Cowowzy1jShuw3YcVNwKunkKI1bh6VPIOilahofQb/ROgdIMBZYte67lyNivWDb5UGaeHtbN5LSlorc3h6IOcaxyKlSKIvVglWRviX57JZtvjWEkHYBrVzHZ8XsnM6qVUYy0Vf5ODo/avqYbDlJ5iRJmvf2fQksOmyjgKJNo+Ns5fZBNsazeLGQvDyEnnRepPNyehBYk6PwLJrfGVrU327aUd9HOC9h5GS0rwDAc5HmMajzGcQGePJBNW+jIHmPqAPuhY1Kd2X6djopZ5UHmtQ6VmKSpOcIgQJZvYt2I0SnVeZ+cNaOFkbiClqnDUjwMOAlk689+67d+67d+67d+67d+67d+67d++9e2f906VnlQklgIDTk52IZT5GhS6LmRgsQtv/yh/7nlqo40p7B+ea872cxZ5fdSw4Wubf8Ms36bvlVkWXFQQyNqIZRNhnMPust/U7QP/f+wfWVVV9CRDUk7CXzHgKobKKUW2obs4/h/EaZGBjM00FUTuHKSW5Ghpcdw5HRNe/sf+ASxBS8zeweCyCnWtuPDDkL4RQsvGtXeRrFd30WWjSG3DCiysbmZwXOHYYVt2N4gLCWDmnRR9DapTaApKsdp09Yzx7duO+gwn5yODSVroZK1eydl+rmFKDFf/lS/vVItT+q92aFIGqhaJpx0HLpfxbhdQN3O/QelFXGBRJGDdxg7aoWx0mYsBcj1Iai8x/a2rEh7Jzd2LRW9c0zcjCljQ07e97b/eSVjMkfhmOjAhZwHO1V0MBjJptkZLP4u1mtImZuqV0IjK0GLfHgcl8LPerJHwAzN9nT44RTSgp0vNKSpDsOaQjVfjIi5PpJsk+IBlbaTTZi7clhHomCbwfzK+k8U+63f+q3f+q3f+q3f+q3f+q3f/tXtX/ZA0VUVNLOod5pTrmRQii4c1UFAYTmVzfxEKs/lzKEKVEdDpugwO2OIDTmqXR409R+YvOIt1pHhRdRLFSTykMosoOsmjDxHK3zl969U0zF4hYeOnvYOgXHo90LLkcYRFH3mBwLyICZN2sg1p7dEushH4XQiBCWjd/jD9raK3UISxHCVEoykgwllG5DWkbgOBvMQA8UUSso4Qn2Y9nOR899xPIRxOc1D1fB814ChK73DYeQkTdkzUddUKIr8feYpYnY3wpBWYNKL0YHZO/hF19q8JhAV9Zc/1W+vVKvlMRKNfsoNtMMWInVW74QyBTlKGn28nc3U5STDAV43Q5AXqPgtaMTCoNvsnai2vU3LCqhGu3dqeszL6ZkOP1J7M13VcPtnuMqMQchBWswBRSvDkK0raB+3MHpbGeSZgqxocmxpL581YkuWtSGPEjPZjHKmlvnImEuGKScCgvGfIeGXnSxFzJxs6yMIUwuS6nrE2mP7iGwFQ3K6pNp/oNhv/dZv/dZv/dZv/dZv/dZv/favbv+yB4p+5KPqVKDkE5gMTYrgITz3zXdizcWPYKAYe/lT/3PTKDqjrIuiS3GuxYhKs1EECtZefxReffYvXv5Uv71SravasPUyxhTAbmW467MLsXD+SbjdpSj//+FAg0Cdj9+etxTvv2ECI/EUOphAO3axwLXRzmZ+YFP4E8jLw6ilE2hBQYA5uPPzr8W7vvQUKmrj5U/971ua+GhXTWxJIlSNEgJ9CUIzRJEH+P47V+HYO6sIHRdqCAyD8WuOMO4TlNK1+Mbxa/DDe9gvOf5f16BZLjJNRZ4kSMMEhjnzPoqFYuKRb34UKxYvxVn38Pqbr8e5/xlB1cdRT8Zf/lS/vVKt7WW444w1WLjsKtzr1JFbKTpZiAHdgNEefflT//uWFgqKAnDiDLbTQdeZh7ij4sEvH4Cj/v3+lz/1v2+FoSGIB3H7Ratx6Nc3wI23walU4LLvWWn7H0jXUsZyKYSnDUPR1+HLh+2Lk+4xegcSlY0IhS57ROb40RHzsGTVSixfNRfLPn0/AmWAfZt5hqKa1qDrw4i6LnMokM0RYOmz8NvfnIwVy5bg1Nu7KG/4Dk7/1jOwigCVUGZgdpm3AQbzLS9fpd/6rd/6rd/6rd/6rd/6rd/6rd/+Ve1f9kBR0y1kYQuwh6BrFHN46eFJM+wi0WdecqoVsljOReiWkFBca2EIw1VQT6awjSK1317ZVlU6SGIF1XACedXGARdsxNPPfA1vyjRsk80IX+Gm5zFsRUUnTRAVBgxTlk520YxkZt/LH5qmqaU6zOYYOuYATMWCqbZgdjoIy1WOa/uXjFqaCqeboWqY6KYdVKMEt106C4sW7YEzntIZ8xZq3QC+DXSyBpw0wJ8uXYM5C9+ESx5UsTEehOrVkKY5mj6QayZs2ScvV6EUMz9QSYx1+PMLB+COZ5/F+25ZjMWv+wsG3jqIJq9r8Fr99so2hz5745eexHNPnIE3IEaRhCgVNTSzJtql+S9/6n/fUsaBqyiIdBVJpEONfWgVC8XWrUhq/wL8yzXA6MKIAqDsIlDK0Jshssow8qD58of+922bVodN/Ljl3CUYWvBa/OcTDcwO097+iCkKxvhmfPvoV+G8Bb/E48/cjyfW3oMLnzkZ+5x1BwJ15kNZNKODAFuh2eNQokpvC4AgfxwbHliNh9b+DUf8aTlmHfIXLHjnSvjZbIw7Ff6pEcsG0Qr7M3j7rd/6rd/6rd/6rd/6rd/6rd/+1e2/Higq/JscJBEbASJNpTh0oBhA19JgJQUs/iNS0t6+b3aeo6NHiFWXwrqAkVrQii5yiuE0U2HpBhS/g44sTrMyVGJ+jrKS30Y5Nfk9C13TR5zlMOAi5XU7/FxEUV2i3lVVFbmnQm/J0rac14jhGzGsQucVcli8RmKyn0YTpURDVlAss886P9p1VH4/5sA0hEUGS91M+e/yZyHyJEZmWIgLV64CWw4eyd3e0upCnYJa8AKaLFdNoGUK/8toGPZdVZAoFgxdhxnnCGNZylegqWXQU6XX30Tjd9inXMtR5EZvrLInmq44UGMLas7BmG5P2JtF2rOlGhe9/pTygH86SOVkZaWAyj5M0T65HJ5Am8qfSsbvIqQvMt7LoP0TqHJSKn0ge6112T/NbPfsbPF/obUVuZMAvgmd48sL9iNLkBYyG5G2oslSfi91IphpBo2+j8qV3sOtnOPNKd9dtYuIfS9JDNBXiWYhVe1e/13aKON35Gd2IsulMzi53bsHzc7P8Xu8T4d+oRdm9D+UiPaSg33k4ZoGNVGQmhYy/txkvM34/ShG6paR5yFtFfb2OQz5fTX3odAH4nOdn1WUKfpM4pm+l8feBSNFLRgH/BnjFmGGWPpsZAjpK8VkbNCfIcdmyexb2tyBh+T203DctR/G97Zdg5PCHFrS7i2JlVgpZwNI7jkfh3//rbh29Hp8MI5RY76k8RR8q4yK0mIfATkrxrRa0KJS72CJmHErtlL491xT0I1c2BxzrNOj8Xwc97kPYH6h4KAL1uKFZ27A6XMrqOo+mhy/+NPzE/ZX9q2jpdgnuYbNkFZyyWW75y/IITWahqgImBv0E2Mpo62yPAZdKW6gPy3UuwamnJw2Yw9oc/mM5AB0ejor+BmT/mCcy0nVOnOloK2DDF2bOZIYzMOQ+WQjoN0lRxV2sFAmAX5OciJU+TP6O2a8KRyzkScIdZuXN3s+rNBHscLfhLyuwn7QJ7IXnmZO9GxkFMyPyEBFc+BrHY7RZVwKdjAWZEar6jCGO4xv3o95rCiMV9rJoh8dNBHQ/wJ/Vr6FdnL5Z5NY5zCOaCL622FcqDlxhv2X68kDYDXmmOWkqSjrjTF1E9i0jULckhjq0haxmhEnYl4fzKA270D70J9KznsTywr6VM7hcXnNrpxSQn9kCnOUdvbtNgyOSbXYVzOH3QBagzVYUdjLW499ytWEuCPHjDPv9Q59w8/LEnv+R3BiHObMm4Kfy2B3NLRdi3bJ6QsfblJB6PJODY7dURjnHBqvbct2AQRPm/dOGBMSM3rCazNOFGKkEfJexAI5QEX2xA0N2otdtxKHGCwHCymMuxTxn8/BR35wJH6w/nt4k6YjZ2yXZfuKkDXjmbvwy8ffjW99bhfUiJXldAUO/9zZWHLzr/FIOMQco23pH5fgYQYuOqUpYiTjjmMN6FOVdouUEv0kWyEUUIjD9Xgh3vXvx2BBOoLXXrENGx//Hk4f6ULlmOO8AYt9yFLGoS2wS9uzNvFfvTiJibmRSd+lLro6cZpjlRcqBf0cq3rPj20nhdNhTgpu91u/9Vu/9Vu/9Vu/9Vu/9Vu/9dt/a//1QFE2vIop8nX+KQK8dw5GSnUdBAgcD1P5FIJvfhjDu+2O2pwdseOKY/HjjfyMOYXYnUIRD+H+S3bBnJXDWLFoGeaceDs2apMUzCrGlQYMRYO75Wrsu6SGZSt3xLIVe2LlMdfiOXk4lVmoRDVAaeGWK3bF/GWrsHDBCBYc83VsxjD7oGAgriFIfYpKH6MUqV7kwPAdtO/9DObtsDNmL1uAeUtPwXVPx1DDWu/Ez3U/PgHDq9+FhTsMY8nSD+L7ozqvRZGvR0g2fR5vXbwSC3ddiFXzlmPeu+/CPyjYlWIUhWUjyjn2quxdtgUyw+aW8xfhNdf9CV85bhcs3nsZr7sSl99hYGzsO3j7oh2wYP5eWLT4StzqqxyyHChCG2oZnr3hMIzsNAdzVxyM2cvfgG+u5dVUBxpHdsPxe+LU2x7FF498I/u+GPN3Pw7f2jgF+FsxOxygS3I8980jMW/ZGsxePRez99wf9Qvv6j0wHQqrCLKn8K3DhvCpB57AZcuW0mZfwO0U5kGhwQiXwpgyYA3kmIwUbL3hLZi98z5YsmIfLNtxERZ+6k7YigO7XUfXsZCaCToN2s6qQguBWy58Dd724wa8dBTdVhsdGPjTpUswf9EszFm1DJX3/gK/+fmRWPWp2zFB8Z/q9+Dkle/Ad14sIaKZS1EbLz5/DY5fciruV9IZ/T9T297va+okY2Irnr76QxgSO67aGyt32BELzrtVHivSZx6SeAvw8CXYYemractl2H3lu3H149SPsPMAAPTwSURBVE1kXpffryCxc1TDADENZB94CTau+zwOatgYtTRoehmxk6PG+Ir4e0d+v/ZzOKhp8vc6cvpSVeWBuAGN8atpSu9n8sguZ94ZG36Bw5fvitXLVmDWUsbLu/6IbnkLJpwu3GAtvnPM/vjULf/ED9+7KwZ2eQ3mrD4M31z/PKIoQk0ZQJOx+4+fnYRZI/Ox8+pVmLPXMsy95DY05YFf0YLWiWDdfSHjaCmWzluDFTuegK9umGS8J6gwVyp5DRPsz8+uWozaZb9Fo15Aj2Mk6jY8cf2/YdH7fohn1DEgKVAyDWwrMQdD5uvFO+Ft37gRXzuKObbnzlg2fzk+dZeB+jM/wYGLyliy+0KUdv8YfhO3oFjzkTF/tbVX4r0rFzNvd8CKNTth1lFfxxMmsSccx+8uZb8/8yimbAu+2UE6lODx7xyHoSO/i2eLBrrFbGy54SgMrtkbK1bvBXfxMiw9/+9I7QhTShN60sLXjlmDS/74N5y56/6YP/sM/MI1kSglYpyGKU1Fq3CY0QNY+53jsWCHd2Hu0rmo73AAlp17J+DqCNFG1wiRa5tgaxwzY6MouvjD2fPw9mtbqKT8jKOgiAzcfEWN31+IYfptt3d/Aw9851gMnn83RgoXw9p6fIrX/85zOr9f8L4Ggsmv4ZBdz8dNWhtzGE/6k9fibauIPyuIX0t2xcgx38P6jsxQ1BEPpahNNdBmfHsa85h+UhMNI3nai1Ul4r+3fBOHrlyA+SsWYvbS3TCL31/XZjwmOqJZGapTE2jmFsciB2axz2mC2FYRRxoUmLAR4OEfvB8rli5DbaedsHL1Tqhd+CB8g/fXLbRUBenfP45Fq3bDvF3WoLLHMfjG88+haypo0eZ22oaXmLBArHjdZ/D8pitwgDxwTzxESQKt20ajXEJr61P4m1qDo9uwA5dYP0Wb74Qd/L9j3Ubmi96Wp5gYl5cSzhhqzTLsdd/BMStHsOvSvbFwp/lYcuQ1eMSwkGkRfObylSeuxgV/7OJ77x+cET/nL16MZXuvxvKzb0GSuTAqFrFvHXDXJ7HT8j0xtGQBlu57OL7/9HgPu6uRhWqQQS07CMKJl1Gk3/qt3/qt3/qt3/qt3/qt3/qt3/5P+68HiiJ4YzlNOZcHivyxXkBRCgpOfkgP8cKPT8aq2w7EX/96P9a1nsG6b+yACw48CX+OPORJCb//zGIc9uR5uHvtGNY++xCeOflRfOiydSjJUjsK+EnNwz9+txXvv6+J9Wv/hhce/RUuTa7AXuffhq7mw846uO2yNTjq0Y/gb089i3+u3YinTm3iPV94BKqRIdUjCsQSEtQw2wE6uQ5z/Hq858TH8Nk77sa2tZvx9I92RFVO0DW24JnvfwiH/fStePDRR7HliXVY+43d8ek3XIYH1Rw1JcToHaN41Z0bsfG5Z7DhmT/gyvx8HHz+75BzPCWZUWjVkE9NwU8rcCjO5yopnrvohzA+vx6jf1+LX522J354wh5Yc5qFzz3/ELZt/j3OX/0dfOQz98LXp9Cycmz83jHY/8Z34L71a7Fh3eN44dtrcPHhn8PNCcdjaWgVXdx09FnAV+5H45+P4Lp3Polzz7wH650SsjzBpu8egwO/Mh8/euqvePGfz2DTfT/D59Ydi4XnPoxQHcNQXkKo6Hj+S7/Hstvok3WX4yD6zQtjZGqE3FGQRTk61x+OPS5ahG8/Q9+tvR1Tf7sLFzx3IoYufuilgxqiEG3adqicQIsV2i+E3o0xngSAyfGXEtz2uR1x6iPn4rENG/HcExvw1BlP45TL/oou7zPYmQWtMFCijXx5eOi2kao1inKZ8VNGwNiayf8zte39vmWoeOGbH8U7/uNVuP7x+7Hpkb/i+XW/wxUbP4LaWf9ArE4g2/JbvOvodTjrz7fhudHNePjbB8B0Z0Nv1xBHUe+QFdWmPdWEPh7snTJbSbqomwqiIEESvfR7OWnaV+uw7QYqcYCaIQdSyPxK5hXzCzJrEBl/xu8wPwpVxaO3PI1Dbn8ET69/FO2n1+FSnIY9P/0QcuaiLAfXgiZ+/OGz4V/2ALIn/omrj3ocF1z0J2yrDGAimMLT1x+JA66q44axzVh7/9MYfeIxXH736Vh83p1MYBX5tmtw6Ef/gfN/8wTGNjyMdd9+H5xsXm9277ieYdJowYuYb/ufCjzzIjb4AYZhwcx83PHHF3HCh47BLmGNffUQxDEGwk2ISpXeYT5PfeFmaJdvw8NPPoonLtoD15wyF8OfzPGT9VMIn7oZFy+6E5+44DkkYQuF6eLxeyZw6G3rseWpp/D0Y7/BldkX8Ppz7kHhenj3Ae+A/jTzpZWjHFaQN57BQ7ffgxOOPw47uoPY9J//hr0uXIHfPLkO6zfciq3P34zPPv1hzPv0XSgXJcZuUybf4dZvfA97//LvmHzuShzfTuFE3ZdmQqYBbNpj7Ib34LVfmI1r1jMfnnkMm9bdigueeiNmn3Ur4oqBUOdY47lIixpSu0nssaFXyrBzH2NphsRIccf5O+AT916NO7aux9qNT2PzR6dwxGceBqIqZFfLVtLi32kv2cLBVjCYWj17aa06kFaxNfew7rZ1ePefHsTEhicx+bc/4HLzUrzxs3eh0IGkEyEtzUNZ78Bn7OS8p62X0GKOlRhfhjOMR2+N8MYH7sLkhifQ+Ovv+f3P4ODL+H1iedL0kZVHUNXaUCMVsdJgfltQvC0YAn+vxlj/0yPwlk/vTWx4AaMb/4hHHrsZl2w8EQs/fTeKIET92ZvwuuOexcW/XYvn/voYWt86AJ4+AiOIMBTp7NcAoBFrOM5Rrcrw3gyv20FZZlMbQ8iqBnuuQFm6CK8KJqESS1syEzarI4y7CEsP48FnFXRThaYZwCwYaGUOEtpr3f2bsP+vX8ST6+7H1qfuxXnZf+Cdpz2GPA7hsFQZ+QCuPflstK7YNCN+Prv+BTz9yK9x3gvnYdbFt0LfZiIbewBHfHgDTvvd45hcuw1Pf/5QZMZspOzvJO2f0T4+c8OVqfr91m/91m/91m/91m/91m/91m/99t/afz1QlOccupojz+UUTQ154SPWXJi6BXPbfbjuohjnX3kCluU6ZstBEm84E+fv8kfc8nAdVvIA/vKjXXDa196DHaIAqhmhvvd5uO4wF52ogbpjYSAew9IPXI7D5jdQ4vVdYzcc/5GDgQ3P4Umvjq3G33DTD/bCZV89BUMUi4rloHLgGfjeESlUP0WYaogqKQayGN2gCdduI2rp6Cq7Y2RBGShUOLt/AkfuMIA0eRbfuLTA2d84HIPYAMeoIn37YfjsXjfix3cPYDSMMP+9X8LZSxXkgaw7XY73nvFOZJsmsVFLIStD1cCngLdRqbi8doLNqYvkhPfj5PkTMJIS9vjE2XhvsQ1HnfIh7JFVKJ+X48OnnoDu82uxIQfc8HH84Fwb53z9GCxUdTjZGLR9j8YXdvwq7rqVY+lMwcnL2OfiL+KUhSYdEGDfT52D3R9+As8nDtrqLfjqZW2c+4ev4FWWhsJqwaivxAcvuxB73/Ab/MYeRih9t1O0/+14HL8khKZG6JgvLZOO1TY6XgQl+SMu+6yGC++/Cm9R6qiqg2hS+B/3lQux600349ddDs8s03wBlEBHnHThKzHymoElkYZOYqOI/477v70ap131PgwoESxFQ323T+MHb7VhamX4docmkhOLNahqB3abfs8K+K48LOPP4nxG/8/Utvf77fB+/Ps3bJz66/PwWtp6yKvBKhbiLZ//BPb/1W/wYFJHwdhqlXbADnNr8Npt4MBTccziCLYyhVI5g5bpaNO3HCj924If1pEO5dCaLZQrOdTM4O9lubgKO2qhE1R6vzdaHf4s79lHkYeJmSz/TfkTWVJv0QEhdj/hMnxS4oD2HTNrjKWjkDz5HIKshm2e+NPB6k9/ER9fpuAFrYu3HXs2Xnvf03im0YXmPoZfnFfgs7/6Jt7UDTGkaYgxC++//oPY8ee/wl/ktGBVZq6uxMp5LpqmA/u1r8eJC3KOjePTSxhiTA9mg0j2ew3e/4/f4ecvqGikNlpb7sDND78Ve7++hZbDWMjp39xBaDHPUp+xoKD73iNx0tIEXqkK++gP4ajMwpEfPx6OpWBzeyFOPff9SJ96AOvZLz2bwOpjvoDjZ8co5RYqzN8jT38n0n9O4DlfQeuAt+Goh36H27oxdD3A1Na78as7T8IBh9CHuBU//GIZV/7hTLxa6aKblpnri3Dsv38Ee/zoD/iTHjKPCuihCfuYC/DepUCiAy9qOkKTHijpqOcpgvRBfPbiCXzpli9gr6BA7AyhHs/B6Z+7GgfcdBvu6tioxVNQdB2GLIP1PWi6j6QVIc5K0Acz1Lr34o6fMCf+42gsIFbM7gBT+30K179fheV1YehbGU8dGJWE0aogibvYbBMXtBhV/UUU5RJzRseSj34GJy0ooRul6Hqz8Z4PnIBo0zZsIGaYoYGsaIEIyOtZKCXy4I3+1hQ08iaU7gRWnPhxfHKE+RZn6JRm4wh+P9m4ld83YUU20jyS+bcwZAk0HOhlHXlzCElgwy0ewzfPGMCpDx6LtxD1o2AQVXs1TrzqbBx8w99wG2NUlt/PSldj3k6EybqK1r6n4oNzYmSKi7bRxUDhoss7WIwJ15lAFpeQ1RnHxKLIjzFF7Kz7AZw578J7dv013nvBA9CjMgJjEned90H8rqhggH1ztBocfxxtfQyObjJHHMw+/lP42MIUZc3DeDGMsz5yOJJNjzDfk96BR0E2hddddCU+Oo9OngE/qzIzMluEky4/Bwf87Cb8gXiqcnyTqsy2Z95qHVRe9xEcufJFJG5B2+uoxA5qgYvA5vX7rd/6rd/6rd/6rd/6rd/6rd/67b+1/3qgKH+19Yx6XEVBAY7Mh1/YyDMN2VO/wfXq/fjsO1+F+opVKK1cjTkrl+DyJyiVgy3wn38WG9KdsF+JotuwKTCHACPFjkvXwCwvQKc7iVytwFNbGP/ehzFrhx0wsHwYiz92L29roT4xidKG57E53w1z54RwnAbypIMkNLF8/p5QSxTDaQtK3EJAcV5SqugUGtQdDsF797kRH1++GufepVGkjiGWM37/eiN+7N6O8/dbgKV7vAG1nZZg8YIDcdl9/I4Sw6K0HnRj/P2bh2H5gn2weM1qLHv/jah0p9Aqy95mCUy7C8Uso9nY0FsC7Zkxdlu4CEksAlMODtmKVNsZu8wfxZTSghGMIbJMDjtFUSjAQ7fhW96TuOQAivEVSzG4+76Yv9OxOPOvNeReG8PmbIRpglXL5iEIM7QtF/bWNmrKw3hyawfle+7BD9S9sXyujxptZ7QMCnEdLdp/DZ7GxhcCBCWDun0Ee9KW8sChm5io0m6um1OQ66htrcG865/4ub0Gq+sGzHYXk3kHw5iFYvES7Dz5N2yYKqFtj/b2OsuQIHU9aCrHGzYxDgcuhXbxwiO431qBNQvK8KCjoI/1koNlq16NuNiGQElQZdw0jBxFWEIqBz4443Aj2atMQSJ7mM3g/5na9n5fu/Ne3KBWscfizUj1KppZhE4SYGDOPliabcATz6vQF70Pb9/lP3H0Dstx1l/q0NUQlcLElKqg2fKh2x14HIyVMyc0C5bsJ+gn8GmzJm2rOy04qQ2btshoQ0svXv69A0VRGHs6lEJm/jI+2GTvTZM/U4tJZMy3v11zApasWImly3fBsuN+wRzSMJoD82X/OLeLPZbPQ6g5qKQmNP4uVJ7ExjFe97ZbcI07D3MXp0gNF12rQNSdgDb8KuxVPIen/pFAmfNaHLf7HThuzd64+HeyV8EQurqGKDQYh2OYUHw0NBuGuQ9e/5aHcOv9LVSVENt+dyP+esQbcURiMUbkYTv7rjGPurLXp4FY24x9Fu0uWw+i2g6haF32b3/GhgpFTeEZBrJgGyL2V/YlDYs6NCXAph++F87OszC4Zg4WH/176Mo2xq2FQl2DQ49/Cr+4eRusjoXxe+7Afce8HkfGJnDzL/GteCcs2LWOkLFacjWUAwfOwldhH+U5PLneYnzP6i3v3bnKoFMDdFRGMfsApdZ7iB8RN+z7/oTfqLtizlwddkmB0hzFRi/C5Nwydja3YMMz7Hti9E7w7pg6PCuFK0toNRMZ+5kVXQSb/oG7Kwuwxwr2Iemi4TD3TQdLlq7kfRRoURWON4CJaIo4oSAzB1HyYxRBjK4yAoOYaNHnuhLh7995L+btticW7LQPVp/8S5itrQjSAFrV6M2oTDCArCs4VO7ZtBrZxEhZEl5FJcqx/lunYf6uexFf+P1TboLW3oqQ19Yq8v0uMbEMOAwk2nBzN4JRI0oSw/y//Qi/MWdhn/kVxMkoMaREjE1hjKxExXkQ6xqsB3Nej1fv9XN8dM4SfPxmH6o+CTctIyjHL+WRjKms0Fayp6nJ2LfQCQM0lRLKvK1HLEyTiHar4JjffA1H/foELN+phpUrdsRPXnc93l3sieEVQMDPWHEZkTIMO6edifcDgYtNN70P1eWzsXTPVZh/0k3IEh164iKOQ9RVDwtmD8LUx2fEzzDowmde5EtLGEzXYduLQwiW7IN37HITPjR/Mc7/U4pcV2iDYdov5JjAvLexlb6utPsPFPut3/qt3/qt3/qt3/qt3/qt3/7f7b8eKGbUm5rMnpL5NLpM0eMPC/4/V5EGbQrO4/DjR/+M5sZnsG3jC2j9o4mN/1yLqw4cQTb+V9whu/Q7s3idKQq2BvLUxgsIgHaMkkPxGT+EU5fMwT53HYq7n3gEW5/Zgo3ffA9FrobC7cB85jncl2+CTkFatHS4pQLlQgR8KB9BpukYiUfg6iGes3xZvAitWIrjrn0Q63//QTxxwiIsXvlV3JfkFLQK1ORo/Pj5UWx57CGs++s6TD77HJ5a/zi+tg9HaD2Iw1YuxqF3vwcPrXsSz/79b9h09VEI7HLvAAIvydDRHegtOexiEIo8QIrlgZ4F0ys4JBVDoQEznYNAqUMxhmBZg5AzUBL208xdFJ11UIrD8JvnHmUfNqH5yCN47ql/YMv6R3He6wbgpx0oDv8rMhimPMCowhkcwqTSQJSUYCkU4xl/jxB+wD8HSvC7k3DkIY5eQEsaMNptWG6IVuwgatoY0FTYWQkbwg2oU+xbFZkh9AIQbUFYSpBSMJeNGJ0sRZIkvL/H7+QY2VZFGEYMAIrqUIeahtD0Gu0hh5vk6L64BY8UNeSuj1beQBzFMIMGOsU47GQApaIOn/HixSVE1iRyWcJeDHNsHegpENr5jP6fqW3v9+sqnRN6aGMBrHQUKmO9amiw9CZjtoDipYgZex/5yVq07rsUzx21HAuWXoFf6qNQLBO2o8NgXihZBD0z6G8LadKGolQgh5zYtgmD9meyQMssOPxOkraYUBUkuhwlpDCdMv4X9WYDyyEnkmTyqCILn8XZq/fCm24+GLdsmMSzzz6KzVcf3HsoX9a66CZTcKIBqFGD15ajeQLojLGUuRCnXV67w3iwe4dPNPUGAjNFqT6I1GhxTBo8pYqqPQfvvu5ebPzdSVh/1gEYWXk27tEnYBpO7wG74jBnmFcpc+cd7zgZf/v+L/GY9jB+f89T+MAb3ohM5XjCJmqqgoYaQvVi+t5lyNQYN63eATxhmjMWLLTtNryuA4exHfN/ikHbKQqMUg6zuBUfXLQcB/7pKPzlqUcw+dgWjH3/3UgVD2oYwFQdvGbfg/DIr/6EJ0obcOev/oKjD94dLXnoOkg8cCMkjTFoisk84bU5VkQFGpmCIcVA2Zpg3I71DmhyCuZuMcDPJjBiH8O5jZg2ynKjN3VRMaaQq1X+zMOIqjEeBrE1HUNudjFqZtCcAqV4FE1GzajRoC9k70sDTjAXyfopPObX2a82Jt259Eshi3URhTbqFnPGBPuUoBTOwRAcGOyjqXN8/JdqdBGz35ZxL86Ysxxvu/1YPPrIQ3j20Uex4T/fgtiYh2E3R9vP6GsPluzJaSzGKK9v51W0k+fob+Ky9Td8eKdVOPA3++DRhx/Cc4/x+994KzJjLoa8HK0gQcT4s7WEMbSFeKlitmdhLMho5xzOpIeGUcJUWkZS9uDECqw4JeZuRVXwv2swSlfizF/+A8/edhVGP/QazF1yFX6ix6gRA8pRihpBT+2EyJyIfSwxRnPaaaA32zdLZW4lA9ZlrDohwuAQfPG+O/DoCxPY9I/n8JVdX8TTmIdd5irI6Jd0ICWGMN45Ts18ACev2QWv+fFbcPfT45h65Dk8dM0BjOMYRaqgUwI2M3kCpwo182bET1u3MOi7vZcyhmsSFzcyfnfGSTc+gMa9F+LZU3fCyLIzcVu729tr0hZMYE1T6136izHWb/3Wb/3Wb/3Wb/3Wb/3Wb/3Wb/+tiWzsNdkvMUvlAUeBRB58aBbKiHsPlJQlb8R+2ib8fYuHSGaiTCZoqjESL4BGoW6MrMLe+d/w0NYu5LjZqWQEupNhYtsLiHUfHQp9bdsjWGudie9/6xgskJNcDR8vPPcgkMt+fyNoLF+EV5c2Y8OojkgOLB0bQFtr4ekXHwDiOnK9golkEkkxgHose/0Z6No+ArNAseM5+PnGP+DSPa7Hld+ZwsIFe2G3hPdbKzOoXAw7GpSwDC8NEXkTsJ5Zh4Z6JK699kR4xjbkVQd/37YOSdqFRfGv6RxzLJ9V4bkGkqwFzwoo9LtohzrmGxm2yunKSgi9ZMDuULj6MfvbhNUMoJYDJCtfg12TJ/H3TRHCks9rGtDDGI6aoS6nK2u0XzqAVm0EdncCRh7BD2XZchW1fBLpnKWYZW7G1ucpxssF0o4FVy8hW/c8Xsx3x7I5OQpzFrLIgKMlsLw2EkvvLX20rWW9hy1TUQB76e7Yz2zg2fVy0rKJLEmhyYzPZ9fjKftVmOdtQrtK+9gyq7GOklFQzMvMuAmUuxrjoALMWoR984fw3HoVpj6I3NOQqhU8ueE+mMYwiqCBWPUR6iHqtHdRyKE2GfStG3F/nqLSndn/M7Xt/X5rTg2vMUex8YXNqGgDsDMb4/Dhr9+AdeoSrKy25XkqbUmbeofh6snf4zN7/gLf+PYY/ab2TukN28wO2+DYVUTtbfCqtd7+kEY37j1oDNoGf08bM6vC9ii8yjAiJYfZkVN+ld5BQbIUFKqCRJ4qFhrvGfNaa/G0cgR+eONR2CF7HqWswENbtjIGeb3Upl+HENkB9LhK+xeo5HVE/ExmM1F0C1i6FKvMp7H5nw3MUir0Rwq7tRXas//Ek9pumLusiTS0YCgR1NUfxbefuBVX7HQNrrpuHG1MoppUYTCnGnGKQV6zvdfrcdJTd+L+vzyAn93/dux7YICcOaSlDprKJOJSDn2qAjcJUDCemR3IaaNuSUfMXKe1aBcfNZlNJjOcDcY98y+Zov2efQSN2gdx/XffhRV6Fb7VwrOPP0UHm5g0VfYxhvVvb8MJT9yFe/54H35779txyMEOMvplcGApVncfxabxYZTjHCpjYNLJOc6NeM5YhNKKDGlOPIhMGK6OoCt7a4a0P+1tJdgqYwibUJYN4jXWc3h0XR1GmKKcmMSsGMULa7Eh3ROr59sY0qpI2i7M3EA5H4Zmebxes7dPYzvl2JbOxauLx7F5bYgBujRVGPO814bxZxFNZhiChqoqpzd3EcdP93CxYP6OjT+BBztdJMYA9PVP4gn3eHzt+v0xv1xFYaR4bsML0PIORv0MJd7T4lVj3i8mDpcYL7nSgekxB0E7P3UvtgbH4Lo/fBDzKxUoDODnNmxirAUY6xT8fglmQSzi9z1lWe9Eba2Zom7MkWfVwPIR7IvNeGpzDK8JRNpmNCotmJu34SFrDVbPIRbLqf9hjnTpIfjx5h/igr1+ie/csB5pQWwNE3RoH0YPOomBrDMBt+QgJQaVtABZYSJkfsg+oG67DFewtDKEut+Wg/vx9B9/iscPezdexzGacQshY0jGKbOR1Y3r8UzwBnzrd+/GioIJZamYfGYc4XgNpqmjFHmYl5q9U+8V2mUm/OxqHTlPCMU2+jicjz2WzWdNiGhzHeODH8SNj/4WV776N/jGtRMcT5l93woEKiqjHrrS2X7rt37rt37rt37rt37rt37rt377b+2/Hijquo4sN6EqOaI0okA24KQdqEWCbOWbcep778OVrz8XdyYV6LKtIAX5N0+/Gk+XyjAWfwifPGIjrvroj7FVcWAqCeI/fwLH/HSc16jD6VYpLANe+wlseN6Erbgonr8ax175NH+vokgD6Dsch/MOeRDnfuw/8ZxRQmr4yB++Ah++XumJxY7WhmtbyBP+qfH3/N/AH87FxXezn40cWRDB0XOsWLEEW3Z4Gz517FO4+C3n4hdaC4ibaFiP48uX/xrPZbMQ6zE68d8x+izgyIyhx67FJRfdCzufjyRvUdAWFL1DaNoRgpACW7HQiQqEyjCccohm1sJg1mEPZMlogNRjb9wCqV6H5eSYbFZRLDoBnzzxcVyw/5fxSMfEmJpAsSZw1QVX43EK7Tpq8KIurMkWMs/r7VXmZSmiPIZjDGNy5Xtx+eEP45w3XIrbwgKZNoVIX4evXXwRJs55J94sSzvl8BN5SICst+Q0lb3K1BSKEkD25su9BPmSE/HRdzyEyw46DbdQiAMuknAtvnrm14DTD8Vr6othFBG0YAC51kRIO3eiDPViFkqlFGFnDO6qt+Ltu67DRWd/G+v4OyfWEP7lbHzsl7PQTZ5C4dqwMB9rdn0an/6Ph2AXKfT0Znz8uF8DAxbUpDOj/2dq2/t9c9VJOOmdj+L8g76E39JmHdpIHhB///x/h3bOiTigUkJy91U49Y8TyI0cjtlCx86w0+BSOIoCvfBAQ4PRiIjfLUoD6LQaKBdd2IxXXSnRhzIP0UYs9q8Mwm9PopzJ7yu97wHyQDGHqvNCqkY/adCKHHmwDZP2X7F+kwM9mY30mR/gM5f9kzmmQgnaUK0pWJ0AzYEyutiCDkbR9RrQYwdOksGa/XFc9tZ/4qx/+wxuCXTGTw1T7P+1p10N+1NH4ODCgH/HRTjr7wbsdhelhH3RbOw0dyk006YteA/GYy2RE9k7sLR9sN+H78Z1X38Aa9/xTrxFU5gHBRxXh+EvgNdyezOItzoh8kJBlflUuF06Kekt4y7SHDpt106ZE6aBOCmjVe7wXm1krot25xlsXq+jpXpQx67GqZ9/phcjI5GBKbXG+Hsj3nzUA/j51bfi3g+9AW+OTWjKOFqrPoLLjnoUlzKWf1VU4U7JITGP4JsXfxr5OR/Eu4KUue5CUx3EcpJvqc24HEDgRqh0PLjEstQcRnPR6TjjnQ/ji2/6MP5STKLhaKiHDXznY5civ/h92NON4SdTqOhTmHIq6NJHGl1quTWOaRsqnorWyjfijTv9A5+96Of4h7oN1SiEedcl+MANE4gG6tjGe7WTYSx99UP49LWN3kO+OPwNLvvQL14+6GcSbX0WTDyMFzbORbOToLLxepz7mTuRqU2UVImjkHjEfFMZ74qPUmYhZrx3lQJ5rMK0bPZ9PdY/naHpp6hsuh7nfeYufnYKnsY4RUh8eOn7Yd5FVpKJmRnK0VZ0aZOUGHXaOx/Cl17/cdxYkmXhc1Fq+/jGJ/4d3umn4UDGqXHHp3D+7TnSfBi6XyXutbBsYDG6RhmaFyMx5HTtMkrEFcOuYaI7BZd5VfBnXQTsBz+Xa71Z5iltUA54rUJD46+fxeu/2MWlJxzImCkRY2UfVBW6KbN4GU8dG3blWbzIfI+Y+3jiWnzkPx5ENMLfxbyGMoop3kElVidaMSN+2szAcfUZXP2pa5Cdfzb2704gfeh8/D/s/Qe0ZVWVNgw/e6+d90k3Vc6RCmQwC6gYWxQDZkSUVswZRZKAillfbdvQCiqIWVtbBQFREDErGYpUBUUVVXXTCTvH/1kb/n6/Mf63sfy6x/i7v289jOLee87ee6015zPnGXOeudb8wOWUzdiA8piAxs+71WvGkO34Bp656RRc+CCf52uwkl7jQxQUFBQUFBQUFBQUFBT+N/49oYgiRyVSBnOCQTia7c+JxqDW0JpqwCedeyu++OIf4qVbV2PN8kVYsfk4/HzD07FV5nK0HEd94Dp8VHsnnrB+KZZsPhQLr/4H3Pj6RyFuyXPXAtRr3okvvC3Euc/sYMHmLVj9Dhuf/PLTmq2J8jw6I0/wuPOvw8edz+DopSux+NBDsfTHj8GfTns8KgaUXQaKkBVeJgP8rIDFYH963dPxuzevwPKNB2DFlufjp0/5BT57VIqUQexzzrgWFz/v+3jLxsegu2EzVm85HtdMLMRqoSFY9xZ85V0ZTjt+Css3bMSiM1N86svPhclxAs2Hl/eRW0C7GsCpFyLUOR4D5ol6hCiokViy/iiFbeSckw2/qqEnIV+zGDjrDPwBy8xx7Nn34xsv+QKef+BmbFi/CuvXHowrVp6EBXaAHHKMHkoKIGVQLLts73FjLI08REYIO+jgiR+4BVd84C6csnYrNq9ZjaWbn4+rn/VDXH7yClRGjDibgC7yZku2WQroRo1UNpKQDVIQwc5k5jfCkz94J649fRdesWU11q5fh2WbnoTLn/FTfOvUQ9FJ5+BUBloymcgVRNoExkuL8yswp8lt5zWMbCne/K3LcVb5KTxxyxJMrFuBJX98Cm547SZU5kIUdQpLX45XXvxVvOqHL8X4gauw4oDr8fSr34Sj5+dRGBN/U/+B3qa8TY6qoSoobz3FWBZyPVyDrJj9G/fnlLs899EQbpPUGwkTopBbbfl6GsLka88+71e47uzteM0B67Bky6HYuu5p+NdjfowfnjyFXJ7htmEN7n31IVhxYAdrFp2MXzz9Z/jAMykJ6rgwdQiusypTeHoLVR7BKEbw0gOxvd2HPOkutUroaQFhOhCjCobdQigK6MUcFtcPYm/e4jxaEOk0fMo2rIHQsWAvfwO+86ZJnPX05Vhw0Cqse7OG0y95alN9KZODBuUQWy0sGBTkNu1RX4BW5cNNExQZrdXbhaM+fhuuPP0enLhlJdatWYxlW5+OH/zDD3DliRuldUPbsBL3vWQdJo48AssOOASXP/UafPooKe95tHMBToc855CaBaMu8IxXnAXt5ginveEgWKS5rXFdaYa0KxvOFLjPTJstpJ1cVqIZGPLvXuRC5BVsvUJZtBAbJnqFg9AKgJTy0HPky9+Kb7yjj3c/p4tNazdh9altfOyrzyWP5Omnojlzz8nm8ITXvRHGDREueMkz6YPipqK0Tx4879zbcfkZt+Jkcnn8sI1Ys/L5+NHTrsX3T1qP3O3Qjxmwyj3QtRQZbdeI++RIQb+xFxF5XQgD3XKAp33oTnzn7L04cfMTsWrNGkwefCwuO+4b+OmLp8h/QT6OkT8JxrQSVlE2W3azMIFH+0JdYpAtxJt/+FucUb8bR288Bt2DNmHF5S/EFe/ZiJJ+yjF92MVKvP77F+Kll74cW5Y/FksP/gVe/OM3YRMCLEi6qFcdi7PO8/DhJ6/Dxs2bsfhd+/C+i0+CXk0gNwZN1SPsEWK9pFwt/qxQewYWDfagNsjJ5a/GOeckOO/JB2PTug0Yf2+MD371NKltTOXkI316Qv5o5HZbWkU8Ql1Z2KPTZxVd+pAWDr3gTvz2tN14x/I1WHDwKiw+7ED8/Jhf419PXop5n09auAbbT9mAVWtXYekBR+F7z/wxPvlUDR36vzjLscCkz5GNcCjjoT6D0htDqdNWigx5qcONBHJzD9rifnz6eQdgfMsWbNhwKFa/JsVFd30Nb1suP2f69F97G/+TaD3+P4a7/mS85z0m3v+kQ7By0yYsO32IL33mH6nfByH4mSS3Odd2BovcM6rh3/Sfkxs24EB+Rnzvqd/Aj149ASEm4CxfgpveuAFrlx6GI1Ycge8e92N88dEWanLZoK3XMjmdArkz3diQgoKCgoKCgoKCgoKCwv+Gtmck0xp/G5oud+0xeExT+K1xzMvD+Bn4OUYXWX4f9HoJXHsfgmgCheegrDP0SgZ+DMzSumoSZ620xSA2wz7PQy8AhJcAGQNjDBBrHXQz2bCCgaXZhpm5GPJaQ/cYDI9QVQ8F8qVmMJg2oWd9vp4iyXWk9mRTPRYlI/i+jzydgVNPwpTnvmEWhjWBOhoiMDowGKPX4QCeKdDPDLiW7P7JceoYuwwXllWhHTrIq6xpMGFVHSR62DSsyWXSTm7fZsCcp3J7nY3SZKDP4N3RDZiUR1YUyOT2Zq6qWydNNVpUd6Bx/rsNHYsYoJZWwOBebhHuoPYd6EMG0HaOvODfRiGPhGPAG3G5czCysebss8Dgal1gPJxHTWUkThdOTtmWsiJoEecrt3f+x5AJoyArMOYI6jJHwMDdiR/ArLcMdhbD0hy45jyF6EO3coScfymLltJek9yLqcvCDLCI+tACBwP+fu0HDscHVlyOa09ayWsTJJWHiXweCcYQaiHnKDAWy7lSb1X6iPrvaFxvPol5i4qUZxvOh7AdPlOn7CjfzMoe8X4UDmxthEJMoagCTGgBMs5naLehVxqCNMeEzuv0SQRlhJYuG3S0eZsHP9H4sAHqzIJmthCQZxb1GPd0dDiPwhaoypoyMilHeVYg+eLbpFwOTyY/4xQjZwHnshel7SIjP+xEsoHoRBAjWaHqY4FHeY76XJ6UpYcgyeFzvWQb9ZciE7Lv8xg820AWzjT8kg1uEpmUxBCT4TifLau/yHkhzw+U26nHqIuK9jKA79lI5LZPYxypRu7xPgMtyn4nbWESRkD7lWclajO0meUw5qchumOUl8EZDNEuZQGlwbVaKK98F1ZcsgU///bxOKiaQkSZtuBT0vPolF3qZoRY0PaDPgKrg8mios5zdFwTYRAgJ6/trIQbZ9Sn1nQWzzhn+UVFu6J/MKdpvR36hwo9epKRPPeU9heZGWzarX7Vu7Ho86tx1bdfh8MreY6qlNIMqmQhDLePMuvSRiizfATbsLnWClWq0UdJ3yO/eKCdy13lsmt9bdE+taYhkSvdCLlQ1y4Wag/iXkzCETqq2qa/MbBClAiCEXKrBa8cIjddVNS7VRXQpA1oNp+ZQOYVI/6UVZ2illWeJYSt4arzV+ILU1fg305ajbhdwdjF61bo0HmvX7URgHZPrk7QF+ScT5qZ5D7XV7aaMzCnhcAURaZXc/QZJYa083ZBn2fJKtE5FFzrOPkccr6llWBxtRfT2lKUcmu8Q39BjhTdEmafvqpNWSbyfNEW9lkmJkb3ouuvxW76Ac8aosrlQHJePXLMwigP0CNPR5RHl1Y1p81izGpjGLqw7Yw8AfZaNlZmEXVhoS5os5qAaVuISh2tbB4FZWFXMWqnhYHmwm22a1MnRU1uzDXni0Z5hbim1r0AZmrBp0+3OOYj6UcTdnMeqCWbvNBFjId9rrdGQh+e2i2M1dTZI/jPnOvwCjKIJB+nqxxx3XJzfsXPqcqu6EfbnNMIa0sPccW/6T9i10c3oH+3ItDEFBQUFBQUFBQUFBQUFP4v2O+EYsYgsTDHocUFTBGiXdYwGKCFbXme3gQMvh+ULgPDuKmcklsf+wwCZbODuSSCb1qYZWDnmzbscIDUlefStfksBsmxDsvsYtbM0CkrVJUOu55jULmYgZ08f1B2Tu4gL0fQ5JmJDAXtykQdR7BbLgZlhhYDej2oUFg5dLuLOQaqjI1hjwYQDJSz9kLOuWBwCZhFgHlTdt6V53tZcLIEod9BK93FMWzU3S6yUQZX+Axi+2ibJuYLH2PmACUD6ZT315hCrVMWUi4MbKPKgxOVcP0YrahigO7hQc2EkzBgZ/AutwBGZYIxN+N82uhXDOoNBsPpNCxtCpHGeTOoLzgnN5lDJpNEgmG9aTAo1mFoVFYSoOp4SEYM3rUQGYNmWIuQcX2GzPg+AnRNdqrWsGcYwmegrOmcRxojtx04vD8w29DCGONyO2doIfQK9KiLEYN9T6MsxQhJWmDkTmE8DhFecw7WvLbG1+88C8cKDfNl2TTFiOsWOhhBnjpm6G3MVNNYVsnKTfsR9V9oMVJ7DAsLDQOZgKaeZUazJbe+y2RLlT3i/bbtItLlOZF7YcNDIfOrbou6HWGv0LFQNlEpTPS1Cm3JgXgWJp9Rlz6GfN8SCaLMaXhryqSalaAVziOwW2jVFoalTJ5b0GSWShgY5jKpZNAwCvi6zLzyWm0CvqMhGQ6bxg+ObBwy5LidGnaRNFWQNBsYjgO5XR6Ur80fNfkX8TWTeobFf9E8ZdfFuAgwzfd0fzFtQjaWECjnXQh/hIgrhWU3CU4n0lG6JddP+XDucRhgknYgqwVnaX8V7SErsiZR6aQV+pRr15in3bYearjklWjRrnNrMeUcQTO24+MvfC5+8axf4LuvWth0ZzY4VpUP0YOOUG6lbRIwCUSb84x2I6gmYcoKWdpu5qVojcgtzYbl8r6IHGqOD8gpMxMD14Alu5bUAW2gQEj5UqRNJXS7qsmZG/G5k5+H659xLb510hJyB5y3BZO+IDNs5HreVHjKM/xcp0fZZrJeDgllkdYGNHLBH9GWNcrKadGHGCgSyknQF4ic+u2ADILLNYgObXkkCdGCFe9BIKuP6Usc2seI95d8NsVKW5dzk9uYC7R1DznHG9drDDXaBFx0yxSDX1+Aja8r8bltH8IJuYlpU0fHT1DN0Dc5MtFFG6/4TJLA7lCG4STlEaPi+rRC0MeFcGTWzqYdZT4sp6S/zZqu+6GRw6s0xPQ5ddFFSxQo9QQJrzPrIe25RM/0sbuYx3gxgdwnDwPykL5LJlVryjwLjcaupqhjWQ3q6EPOp4cZrqdF/lqFTGDTvopZJJZBP2lgQBtzZBI6nSOPOrDSAXLKuSanDMop4DWdcgYx/YhbUIb0xRH5FTqjJqkfG1xjYmJEWcgK8x79acVxPF8gGpK3rQxVXJI33UfUT2qOYEf0Q8YYKrnVWfDzQCd3aY7t2uQ8ZNfx/9h/CsgqYvI+AX29rBROMEqq5rxYi59bmTXCOO1/nr5HfgmU07/6RYja60D0W8idR/7CRkFBQUFBQUFBQUFB4f9teOQs1P8FXc9GJ4pg+gUsK0dhtzBsT8KqbCRDMPBO0GMA1iqHqA2fgauGHgO2O4sCrXZX7opGzx4y9J5moNpFalQo8wH/dZB1eiirOSxhMJ3VIwa5VbNNFgxYx6wM+5oKv4fOeZRdkctUbj0FLLeD/iiGIXQG1gJJu8dAsYckLdGxE3SjaWi2jnZ3igF3goABfZqMMOdMwhYpNKOEqQ94Xwe13HaHpbC4Lq2ax5jLdcktmgxI67TiunIGyl3sqh/kWqawwAbieBYax65zHd1quun8O5MYiLU2Sticr+Dadf4sGIzHmKgjrmUMe7QUlinXsQe6uRCJx/ctE5YTop0mKLsL4GiLuEYDdjZEoMtEVICcco8yA45Xcm41CtkwRWMwL8TDWvqPkWczGOYZDFeDmceIqJfC7MEe7UMpE8J1DM3yMZKythIsrXTs5fN9Lea9EX72riOw9uDDsWndWixctQlr3gB898HX4VlVm8rX0PZttPgMP5/BwGIQDz7HiNCyehjJ8wX/hv6NscVoBXswL4ym87ShM6ivIpSUeZb1/+b9WUpRVAHq0kFR5dC6bXjhALOag6W+hmJuH1LKfSqfg56PULWnkGYdzJY15ykQZxocc4BOFqOjDRHVBYSxGLElUJFbGudlWnZToVsVOVryPE/ZwLbdbhJWmmyQUlsgfdEzW0hEjvliVuaGgGyWYw4gtBqm66KQlW6yo7FMgmsauSIwFgwodxokx9L9Dkzybdr2qOtFKMOdsJIMQS6Q+kMkaFNfNIgBeUGbK8nTmjpy+yOMyBePfBqWJmbtHnzTJX81eHpEwhZNcwqTcxrUGnlLzj3c4EJgAecI/OCCzViy4qn4yJbP48cnulhcBJynAZAvcvs8rRkFlZGaNqYo41b/AUT2EmTtGm4paEezcAMB0Zkin1uYzip4lOtMnsCxXFQcc1HQB5w+bMdAv3pojvIMPl3fje9+cBEeu+UV+PiG7+CiF001xw/4vMflM+LKgVfP0A/ltHfy2OliFAa4v7IQp7JhCa/zLdiDHUg6S9Hx6Veoz7oYwZJJU8tpKgJLysZrCYxoNnkwgkZWRZSqY9IOae8VuVckEX2N4KzIbZm75ftBHmDM6yKxpjGif7j07AMxsfZgrNpyDCYPPgSrXpPi0ls/geeUA4wMjln1kY8MJI5PbtIH8mltz0WHtl6kFipZ0Yy7UdQ2MjOD7nZR09aH1H3u5xiST7IhdUr/gSokf1rwm6po+ghyiMRDbOqUq9Xwcw/5OEG+B5y/TFq6Vpvvy+7fHrkRQO8a8EWCB40WXK6pxhKOIdClDykyjt/yUNIvhha5QDLKzt6TZh9eNITvuPQDJXp1CNOTVcMJsryEZVAPHE82nMrp81PNhubSzug/5swplEECg769iyFtK+DcPGRagf6gREY5YKjB6Oh/Uz8oe7Da5BflZJg1ZmQ1skxS1m1kZfY3/aehtxDYGv15B6FJ3QbAYpvz52eFRflO5Cn6tMWCj7T0sGk0UxoLkAYF5Rc+5EQVFBQUFBQUFBQUFBQU/h37XaGoZzWDTAaLToJRxiDL7aEo4+bsQ1lpl8CHrw0RMujUxQQD9H1YUI81lR5hXqO2HRiygrHew4ByApYbowgq9Ow2djHocxy+L88nbDvoZimDwBp+OsAcg/Bx00Yik2G2hbySyRwHoezgqpkQDCTrumwqa8p6BKPWoBUpPM1AzqBd82wMs5zBdQ1TY7DJgHxQyu6tQKsKGIhnjGkNiDhDtzuJuWCWc7SbrXchA/dKG0eLQWdilWgz4OzLakgGsXHCscbAOcvtey0GoPMY6OMQdoUkzWFoORzGy1HGNecjxLx/IZ81m/O9nkxS5sgKgV5aY9RN4cQuA/SIayyardVC7n8sK+i1CVM+k7KWFUJGMKR8GWjL8xfjFG2/Qkr5yoTrI6G2DLhlLjePw2fAXqOPRCyCU/Ypjy7Ho6StCZQpxwED6GqSz52F39Zh6m1o/RHCTgk7JQdsA1XCgLsWlFEfE9RzUAzgml0UyTSK9hTcOMTAzGEJmWijrmvrEfWvay5lKFBaUbMet7Sb4F4mdK0qQiLP9nuE+9uGrGIcoDB65FuOrl6iqilnU6COBrB7bQxSA62CtKE+Er/XJOFaIkBadWALE4nkieRYHKGUVVkx5eXocDQHRVHJnbuQ+cGc/HIcG2GcgFfBMDg36i4kVx3yTOd1ETns2rKzsov5coAx00Ek7YDK08oCdp1Bo+XJij7N9pumEWGyB5axEIJyS5MMJW3HMBdRDlHT2MIuuSYrRZGPNZWOwt4HI7H4i9dwXiaQgqIPzbUwSlzIRh4uaAt8vzRqFCFtwuijV7tNFahITRgTBoqhiciOyXPaYTWGgVs356g2Fcgl1+u34Efz5EcL+wqN7yXUBQ3EypqqYK3D53NuQiZnTb3pMK7TZkyPa64e2iruaDFG5LOgfgy5C9qZQ5AXMEQbeliQi+RTq0JBO/QoTz9NofsOUtqFhb2IZULXmEBa7iEfZVXugD85f0F5ynrBSjbOkYnAgpz1EKQjrp/rEFaz5TWmrVu5gdRpwZTJ1GqIWPcxTruSZ8UWQnIuRr92uE4HIuP9hke/F5HDgOxUP2ZU2EPf1yYPK10mSDuI4/ub4wespIvQzWBWHM+f499tGJWJivN0jYIcIDcMed5pC2mxD47eoYDpv+gkRvP0o1aCPDTh9mTnlIDPD7m+hegnMdpWSE4YiKMebSFE5tOu+DyDupinI5NJcM3rYUCed7UuUvotK9EwpFx6rks5x/TNAnGecjw+o+bcOa+B9NOUTa/xgx3qeogOZRrr0leUDSc0rreSX1xwHhVtrVvMYk6fQlt+wUEfJSrqif5fbsov6Du19gRsyj1KciSUxUKbfo4csOnvKoe8k7lRaxodeyl1LTs0m8jqIf1R9oj6cenfH9RGtN+AXsJrqn6L0MYi2tcMLc+hf3kk/5nHOiq6Ip+v9eu0Scwm5Lfl8LMrHnF+XLc84qAwMSAHe+R6SkPWggjxWNFUyCooKCgoKCgoKCgoKCj8b4h3ve+M9z/8+yMiY3BVOXLrcQtFUcK39Kb5R1XLwF02itCRZQKl68GuCySlz9fmoWsdBugpMq3N4JpBqTMGR2OwWNhoGSX6DDTHfXlmoYnEKuBlNnIGrzmDWdubgosEVanBsksUFccr5HlkOQPQHKXsvmtYDMQZSIoSRllDyPPmOGbE3zM+T3Z8FUaGvHAZhOecW83F5DAZBFtVDlkWlpUmun4H86M52L4PS1YQlQXkuYKlPL/PZGDKwLnPQHMCLcRCVpOZEDIJaMlEaYDS6HKe89C4DtcqGTWXqBjs1gWf2epxfDAYF0j0BGZYI2aAP2HZqBnky0ofm4GvTCTJe3SD69MqWHqb6wyBVCaP6qb6rXApVz7e5/uyti2fLWB4fI6sWHsE6ByjzDJUpqwQsoE6Q2y48LSQYxZN8iuWjUScBLY13pzp17LbHDjFaJhB93oMzmX1JXWgc05FC3CHaGtcZ8wAvuVjlAZwWmMo0z7n7cLmRDXOXScfakM2MvmP9S+og9KmnmSDEK7NkedkVg75NURNHUKXW27/4/uLUvKE89WpY+Ghom5LI4bJZ8iER1rIc+o8wIhgCqlzwNRHfN9EblDEcqupMBGmcVN12jJNpFmIjttCkkRwbAeZTHLJbCFXl8YxPMeBQx4022Ipn5r6C4uYHDSaBIhJfcvkoyUEBgXtp9aa6luTMrP5mjzrLy05LjkszzyU1bFpOQtRe6jl0QHGFNcRUX5cA58Tcr1VzHmLGp5nYjhMoFPuZpjQdoBIVp3x3pxz8E2HHJEJ+H18TcqOY1UZ2u4Y5049w6QsyUPKRRMPVeM5LVnpZ3GMPtpGB6PcQt3ahS71KxNGzVT1krZjUQ411yNgkDdaljRnI6a0L/CnaeqUjYmYduxQjklRQ9NlxRvvJefjSp5X2YY8g7Jl+1xrSs61YBQBOmKMXJD2ZKNfkdftiPPpoKC9yFPvShGSHy2OEaPmhGRCqkiyRubyn0wiCotjZdS9PMuUus/przzLaPyH7gryKYMhD9rjaw55l7o5bZm6EbQtmWg1BDLqSZ4DWwutScbLxkXy3EKndKF5BbSiwCx50qattAoTtTuHcWQwyZUqp7xri35yQK4UtJcO5VUglnunydOW2UHAn80hpdSF6dqwKU86H5ChmJdnHJJvpAl6tM853QddLwpyTx4/QDJQpiF/cD0m512TG0mIliY7tc/THzm8Zgjf9jhcTF2T0xxKVkkWGV/n2jLybz4bYMzrgA4XusU1pwmpyOeTJwXnI6sga512zmv/v7IsyWEyldyiL6H/0fMQoe4156xatIeqomemvqkk9GzqptJoRxW5ZjcJRkF5OuRHHo04f/p1+XoyIC/dR9RPFmjoyNx5ewz5KG+qXTu8ZkDdy88XveSzH8F/6j51GefNXGT9tOA4kUyw0hfooN59nb7Kph8p0fHpI1Paa067aNHWSxuW/NxQUFBQUFBQUFBQUFBQ+Hfsd0KxlJ0vc8FAv4LNoLGOC5QMKltGDxmDXD0LYbk+jDhCKCpMMPhNGHzHTo480BkoG7xuDp6hI0tk4kduMrTRbvmYHzA41XIszDVEWswgU+YlGJ5ns4xLPYaEMrkUQ3Y9NU0HdR7DZLCpMWBO85IBOgNR2dCFAaeZ9JDKEj43hctAOCp4rawoM9CcJaaVNSKjDZOBelTLtWQwhYuoHMDVe03VWJBOw9G7qAqOa3OddQm/ZtBveQicWegB72fgGTPw9TmPksFmraUo5NbNIkOUFHDsFsooAroM8qO55ozIMu9D2OPNVr0xyjDi+krNh+3byCt5xl6JKQb405EOQzZiMOKm6qvk+1msgTE3A20Nmhnz+ozxdgcUKCyur2AA/0iQDT4izUSLopGn4NVSXqYJkYxQuuPQk7RJ+JRaB2UxDb8UGFoWzJTysW2IKsceFFjoMcCO2og8uR2Zz+D8M0tHTJ10THkWWtJseZfZELfQG73KqjRLbmd/BP1D8LoyRUa5eSl1QJlT0LBr8kCL4FEXj3S/3E7cJCMS8qKYQ2776NTyPMa8qaazOVfdq8gPyplzMjhHu/YRIEMtk10aueCQJ8LmmnIMk5Kcoa5kNZNMOnN9htR1VTWJE4skTVI+KyugCXleXYq215KZSRgyuY4SSS2bXpDLtB0NFlxTkHfUp5SF1Kumk89mk6Sr5fmY5LOWO8hFBF8fwzRfc2k3HiLI8w4dQ+M11JHs+DuaR8cmR/MhUqsDwbnL5JRMjBhZCS2rqIeCcvdQkN+CvDFbDsdNm2SLSV7H5L9HezI5Tb4CDGnfnRxW24I1G6FyMtj5AqR2Tf62qOMROrwur0OMZHKNvBeyzUjlc34ppvwe7WgIkTl8X6ZtaHMysaknfHQNJ5MNkwKM8Y2SfsEsHAwoQyEoS14tq8Fqj/ZeGXCTHKk3gghy6pz6s2lXnKdPuWqhrEimR5HnOlI/hS87Kkt/k9MHCFJjHyp/AXVeIebzNepNJlQpHeon5xOoK/oIahZVFtO3VdALC7bB58qkL6+Q5wNqMqkt6LdkRTb9T8LnOW5E/+BR3rR12nfI8WGElKVPHwQknoNW6iCk7drSPgVnXM3Rl3jUv0YekUNmCE+MQTaMsts6kkg2QCIn8gyjSqDbFghHIW2cMpDNRKhH2QxKfrlRyOYw5IzNuVWUf0ZZGXqFrtPCKA74XPoZMSD/ADsTiKUrJG/qtEZi6+hS9/OagDBtmLTLqqC+KLecGnA4VkqfrqFN7nDqXKcnz6wNQz6T8qJvN+h3dFt2Uqfu5RcynEtFm5F+JJSJT96YVRF1LDCXJSQAee/oGNI/OpWJms+xUkE/S9/hkTcR/W7Xo00/sn7aZtMCrGmu5ZLvZUGbkJXkJu3GapGT8suI/9h/VvL5Ln2oHNNIUA5MyHN9s4i6l0dbkCeW9VBSswgDfpZJ+6UM3DbsVFbD05AVFBQUFBQUFBQUFBQU/h373+W5NJvGH7JxgGYwiEeH/wQMI0IZy46jDFCTALqXN9v/hsYcJvQWZjNZgeNBT0fQRIth6FDuoUTSKuHFjDfjFHVHJq4sxAaD21ye+cUgPW83VXJNUsJh8MlgMZNbOxl2OvVD53dVTo+BZQ6vHKHW2wwwGfBaDvJYg6VHkEfxyzO2SnOIopDlLbJS7qHlaoWs7JHNQGRih3ExV2PlLnJdJhM4h4TBcKfGiDFzJ2cwzgBenmsnA+u6kNtUK5Ry72Ykk1OdZlvz0BqDpcnGCzFMBu5pxudb3aZpRGTIKkSZkIqbs/MSBsyyO6zGYL/gvbpM+vC/PKrh2UKmoyC3RGZVyXsY/FLmUWLDlsnWchalLps7yPYjslFDBlt2dngEyCSZrPgpBxnKlsM1aQgYI9tJSZnIqkPKhXOqGFzLilCDf+eMqG3XQi4FJKVpUoSjAAbXHus9OOU8UjFBHexlkN9DFiZNUi8WNTqxgYx6LKkXZEGz7fSR9F/UMvFrULseslomagV1nKMWFeUnm5jISrpHuL/Um8QqqN+cv9tcU9JUibYo94TyLPiWBaEXSHOZlBEcU7bYkQKtqfMMcZMYllqgHhwD3ajArCvPWSPnODLvot4dhLHcym1AyCQD9SzTcR7tYr6Wm7ZjuLICsirg6NTfiP+6UVNhJrc61zWfYTSbhvl7DZe8qKTdGJPQZAlqbTa8B59veSZSrrGsh+RTB3FJboiMmiB3+WyZ3EzIXEdQZ4ncEkwdc02ywislH3SzRV2mvEKexRcgK33Oaw4L6imuNaKcLGgtriU0yQ95Fl6OoE4pjhY0fwg7GkdmhHATt+kqbZk6glLAN+NmvMIgF+qJ5jxLi3ZoyIYwlGuKHOMyIZRlTVMMPa7JXwuJ2afMTehFDbOW5/Vpjbzruk+52RQlxzarpiLR9OdRR1Mg5flsKRd6AspaJkNlY5eCNqVR/rJ7cFOFSB3I4w7kmZQy0SbtWjbXkLqV1ZMZ/7OMLlyabMj5W8Us+b+sOVsylsknzrtTzGCuasMzNfoUuUVbVtk+ZFeZ/OKBfqzK6Ptq2T1b6kBW09koMslN+ow0hXBdxNU8ucEryFOjHtDIvKZBTm5GVOYY59Ynx23qTW6Jpm2Y8lxN2rAlE9JzSPIW3DZtgT5XS2dRGS3qK0RXH0ciBk1ne69wyUXZGob6LyrKI4DnjSOOYxQObVUmjumXZIVwLULKhXwtS+Syu1Nz/ADnosvN4i65n1InLvmSoeYaMnLPo54ywfU0ZanSD8kGQtR9OcCcNoGcMu7w95hzk1w1csm/FINcbrGnL6HP0GTiLxvQ/3I86bkpO1vzkHItsllOxDnrlQfZubmkHh5ZP+Qx7bY26DMzl58J07Qn+gH6FXp26kEmt/9j/9mi7cgvuibp02b4eSLPkKzoI3gn1142n2+lrUGkshELP4syaacCrYScJKeKh3mgoKCgoKCgoKCgoKCg8BD2O6GooKCgoKCgoKCgoKCgoKCgoKCgoKD2cSkoKCgoKCgoKCgoKCgoKCgoKCjsN1RCUUFBQUFBQUFBQUFBQUFBQUFBQWG/oRKKCgoKCgoKCgoKCgoKCgoKCgoKCvsNlVBUUFBQUFBQUFBQUFBQUFBQUFBQ2G+ohKKCgoKCgoKCgoKCgoKCgoKCgoLCfkMlFBUUFBQUFBQUFBQUFBQUFBQUFBT2GyqhqKCgoKCgoKCgoKCgoKCgoKCgoLDf2O+EYmabwGgI39KR8u8izWCaJULNBkwBq/CQFgLC4Ju6i6geoBAm7LSPyPFQaAXcyoBuWqhqPqHSkJY6bPCnSFDX/KlrEJYBLc9ROgKoS+hFBflQXZSIeK0mPGQIYNV8O3cxb2twShM53/fTErFwUekC3QyIjRC68dDYhmEg53+llmAsCpG5FlK+XuUeH8SfHEbTOH+9hlbzZt1BWg2hORnf81CLjNfnsGsdZmUi1gw4moNMcA25htLiHOoEeqVDcJ66bqE2cxR1xfW6yKuSz7JQcG3QSnh1DoNLLPMKBccy+Def/NA89IL366gKF0luoKScTc1s5CXvSSiXQlBWlJfG9VWZjhoPrV1wTfL5lWlSSoLXp4j5npxVTm3rnHNV5pQRJc+/zVo095a6nGcOrbKaeci1yGfn+Yg68vi7jqgsm2thcJ6Usa5zbpqFks/QOLYcIykz1JyXY1B+1GXfrPgq/2l8va75G/VL3UmZy+sy8kAIG3qewbA8Pl2DWYSUJ/VSUg7ydd3kOjhemXJpfN/QYCVct56SA9SvmSHTs4Zvesn7tAo215PXJKPhkl8Gx6eM8pp8ogyoI03TSEG55pTP56hct8brTa6LSkFd5Q2XK76X83ebM4sKzp332XxInA+bOZnkPbWOmIrz+V5dhxyzRiFZUHsQtInMod6oVzuzyF3O0UhQklO5XfL9tNE1JYrMyNEuLBqXgcSqOCc+hTwjuzg+7SzzEOkR9c57jRguXxdlTG46KGkXZUGZSglKHpIfcu1yzRrtoyZ/SnLDTKRMalhlQrkZnG/KO8ibgvZNVDp5yX9yTLKE90h9GfCMorHvyqb9UdaSVyb5mFMfiUeZ2TZlUmCSNh5T54moGz8hdd0qyFM+L5b38JluAqQG7ZX8LvkarYQcol8gd0wS3C3JVdpzltEOybXSSik7AZvXVgU14UkuaZTpQ3LXS5d2GHLtlDd5RlohSihwylPKQ9TkD/Wv0YbL5ie5TTkLyleurRLkZ0mZSJ+kcSzTQShopwVtkPo3uQafMq1p9xnnk5FDhTbkXOkbaF1Szzr5QylgxPGthDMhZ0Mthk5HVRUlWjn/dvl7Qr7Rt5FFGHGiUi8cFk5uI7TnG5sU5HDMeXUF9Unu1eS7lJ+waCdpwN9s3uNQa/RnfEe+Z4D+pqyaOer0x5KBBeddch0V/06KuLFJ+V5CfVj0T/K+Ug9hlOQc+SZtUtpOyHGgUZ4m7T4PEVhOwxmNPozLRFA7iPi3WZIXpfSBFRxyOaF9Sz0WJPuIcirI04bxvM6s5mBX9AnkT2lE9GfkLfXV4r+c/jal7w3IsTbXm3POFrmZ0Z4K+tWCJJJjSF/aGCX9gvRVHscjLchxylHqnmtJyBs5Xp8y7VEAelYjpw6kPdV1zPnKJdJn0D7aMWXGz7GS61RQUFBQUFBQUFBQUFD4+yDe9b4z3v/w74+IumDwbY8jzgawHQe9soU5PcE4A+A0jiA8/aFESZFBy2y4DoPS1IDW68Ac7IRggDgoDIQmr8tjGK5Ah4FcNMzh2h3oRcLZFEhi3uvGqIYFQs9n0Gwh4vWMVPkME4bO4L+QyRoZ3FYw+b5WyeRKjlnhwdZ1BpVhkxzMGNijFpgsdERFAHAORtXD3rYJbxjCZfRuORrSWoNpMwSPGMAbGXRrDFVUc50MZrMUVZXxvi5MBrMRg9KKUXWnHaMYZgxoa9RcqkhNBuUpAj2Fm1uoOA8911H7OYwm0crQOpmDZ44jEry3anFNgGdZSBAhNd0mQVNpNmP7BLqWQnc9+HqGPCs4xxptz0SSl/Aph4rzKkDhyySbzcCY6zQ5ZpnJZCXvrbg2rquUc7UoHa1AESdwKGM5txbvzjQDSVU1iUOP8i0ZeJsM4qMygi3aMHMq3m8hKxMG8CYmOO/M7KGMBhAMyEvOobYNmAVlxHssvaQ8fK5DciBDHBZYYNnIChtyti3HhVZElJ/PgL5sEmOmkJyJUbpjvD5o5pcLh9cx+Ldkgq/GMBcodIu6NvheyPFsBE6CNjpIOGe3KKnvFjmTwx+vEaYyWcbrc46a1rDsimPk0CjL0uez81DOBh1hIq0oy1ommrlYcisreZ1BWRqcd1bxJQOe3UJCfvZMnzyqKBQNdqeFYUo5VRo5GXN86sDQQFZjVA7h8FqyG3wE8rJoEjJ8GnlWoswpT87Lt12OQR5XHu+XaxAYkT9ObZFQMoVYIiDfGm1xDJn0bZMthZwjxqn7gPKYgKioh3oeuklO0S5M2lVB7hdpANGh7nXaYZY0OrNaGm244BgaX3ch8gw1bTGXPKYtmfy7ELRHXl/CQZvcDuoEo4JrNgxyuuBSeC15aDo+SnJY8Pc6iiEmyCfKXFTkfN5FzygxtGWCSCbbeB/XUXPmukc9FiZlM+RfgrLifMl5m3wf0JeY8j9njvZOf0MbcijEjLar6ZyMTAZH5JctkFBWY+RUQvts15RRnpMP9C1ypC5fzwT8UoPUtlHSPmnvMqka8zrLk0ZrcHRB36ahol+qyX1do83TV1TSznxBbljIK4F52pxMhBpmSs7yOpDDNPzIyDHGOelahMS14BUtqi4il/l834aZJHRB9D+mTCb6WE6+7o6mUdhtuOSjTx+ZS3uRSXP5BYJVNolNC0OEmgeX/Jgjd3zyKKBODHeCPKF/4JzllyM17U1mbUcihWeYtHPyJZEJw1bjF8yMIiMPHWMcAa83whx8C3oY81rO2+mRJwPyx0Nd1ejIJDrvqUuDvpTaoo0Y9BuianNeBu04Qo9yqzmOTESGHLuypjHMDCxILS5ZR5qkHL+mFsgLPmvo9aGLpYi5Tpvcl34vsrp87rDxS5pL15nk6NAewkCn3mkzieBE5BdHFhzOU34HIVOgAXm+wBrHkLqvUvp7R28Sp+1SatIit1PkbR8TeoFAfnFC/5pn/BThZ0+h+byGMjOHmHdrxPQ1XdelTe8hpzkJBQUFBQUFBQUFBQUFhf3GficUrSaZwABR15AwSpQ1MYJBqF3ESA0b/D/cskBZ+fAZJM6aDIxl7db8HGpnGSIGnqsqhyFhDItBdZa1+W8A3efPMoBmMcqVCQ0tZaDMANA2GRiHDHRztFxbpmIYGMskiaxyYiCsC5RCpmgyBr+MKEWPY5dNNVRl8l9awW934Tl9zOQ6xsw2djPy9N0MZsRQl8EreH0uEyQMjmVlIDwGpXkHIgkYoINzyaF5XUwwqK8ZBBcM0K3ShCYTJUGF4YQJJ2Jgreucm6xoqxm4TiA3A9QcS9Z4ycqnkjeXtd5cl+kmWmnBa2KYtYP5qs9AvYuqlklQE2ZZwvQdzAV8rsbAuqjgcJ2mXVFeOdcoUDDY14RNaVALHFMG3iaD7rigGEwZdlfQZJLNlgkmHfloFppMsLVayEKuhc+vYlnFSHlwPI3yT4RF2WrQLZvPMjj/uKnwqqIIQtOgUfcxxxQBx/JdmKaM+muuMITJNTUVi6YNLR7CcWUCTCbinGb+ok5hawIzcQbwPUsPm4KolMG/YXuUbQyRhnBsWS1mU1YVn2dTswJRRc3LAjiuNpNztTvI6nmE5RiGIsRyKi6MUjjkoLA1RCnn3SSJZNLIeSgBnafIbFC+XHdUcJ4+hODMuUZbkEvUg27r0KgfmXTSuZ5CypJrcimPeBRAOAbZnDbVaJqeo04K8r2FyiNfZeLF8JEHfJ8ScZw2hiG5LUzOpIBH29Gow5Q6ETIpTW5avKYi9yxLgysEElNm5mXtGccmNWvOWSa6LN1FohfUUY1WnWBQTTRy0gqBEe2im0fItXmkusN7bWpDVqrFcGRykfI3iz2ckwFZYFyXOu8fUiY9rjnmegz0aCv9lL9VHm2Ai3Yc2lxE25Jrl8mhnM8ApmjP0HzKhX7ArjHUyCPKo8s3S+pYJnZE2MJAJv5pyx3qJZfVpYLvkzsVbVqQ31kWUy70C3xffskgq/OiiO/VAdctaL81Qo2aryaRcz5d6rGi7HNyMCkyyk0mommDWU1JOQiyEKVBXiUxtHYbdsJ1Ji5GxRyMkn7DLpBZvF9W3/IZlkw20heEAX2LTDBKr0LfVHDMgmMbFZ8q+UEWlWXF9yl7EpB0pt3RsshHv5ZzpGzLhNfRLmViXsrJKhCRF0WtodUxkEa8njxriw6KLKOsM8xWKVrCp2wNZDFtk77EMmTF3wzt3YCVGCgo+8iXv5cIXQcrKZ+RY9MPUAdV2FQZx7QFw/P5d0o71Dk3Wd1JvuVco2dhmPWbSs2UvsvXOqiKIX0PeePpcAMXqUN10j9oyRC25ZIjtB/qKqtq6oZ+yKStVHGT/PacDhJyLLJ9vpfASgcch0NLW6xGaGcL4dIfhE6FiPq15Rcc0nqbKnaHvqDTfEHg6wEivc3nVfBCKsrrITNCZGmPdqhR/pwwHYMtnObLCVHzM4ZcH0nZ0n/IRLNrdjGdj2gLJlKNa6L8LepvYPMTiH62Rz+nF9Mo4hHmjYWYoo+3aDeGJvmWICll4rSFNuVm5l1kBX0HbaqWXygoKCgoKCgoKCgoKCgo7Df0h3/+TdRDG7mTImEg6tgeQnuAHuPbGQbJbuaiI7c5l10G0CUiBnVOHjVbYtEbQ63ncPn+PXrCIN1Fnprw5HZCGcS7u5pkncbgUyYlnVIw6EsZN6fQu7JKrsYwiZHL5GStM3hsI7dTPpP3hw4D8gKmzgA72wPHMVA5fFgcouO2EAwi7Eom4DGYHOQFlslqpiiF3Nbsi30Mdn0G8z5imbBgoOlnLQbdexB4JSatEqawUE1HGNUCgcvANQgwZ0SQW+4838JEAAir3STaZJlNmXEuQlZQtpstdYbV5esykG7BLhJosvos0xE0VXI2YkNgTOjw+MwpBsV2PUJhxJiLIljuBOXjwbTldtYaee1gVJjoGRXajt5U+o2ZcsufJ1NYsMHgWiZ9bQ0jGMhkoojxubBimL7JILtCXEVwONcqG0GTW4FlVRjvr2QikHMRnAOiELK6sZbbRUUHjO1h8X86dW7rMQq711RtZtRJISg/cqOoLWS5TGMK1O0eZsNRk9BLjAwDbdAkCUJhYsJ34RYZcpk0oj7bXR1ZKJOhEzA4B2gmkrQkB1LkmgWRx3Bl5VhdI5LbMWWGNcvIKx8r7HksQoTdpYmqPY5Rfj9CytbnumC04UuecAwtJ0dkIiahLCklw9BJ+gIa12hxPFk5mGIedVKhTOS2TsqwSSwWKMoIaTmA7XJsjdwlD6Dtg9wuWknBODnKwEXNe5DMoWVRDlYLcVRgzLOgWSkfLys+Tc7Nh8N5pxxniu+5tZRviDTPMV0EMAoDqZ1R1oAdls0W/4xzqA3aCg0kFi04lEnb0ShbmQYLYSTT5L+G1JmCW8mqXQNdLUChZxhW5Azll1Q2Ocf7KVO9rJtt9J4pyDP+Tvss+bpMeJnlHEyZ5ZVITDg1+UG5JzU5a+vYW/sIoxm4RigpjSnRa5KQUd6GXcrKzRZvG2FFqyYLZjHvzXNu5FxOfvptuLIqUyZ1uMCisNAn7zXKxLIiTLh1k4QWcyOkrk07oE2SxW4pKxwNFLRng7ISXBtiytgoISsbPa69dCiTogddJrHJQSES+gNaRMtFZXGN5JMWywrkivKhv+HcNVkBSI6YFudAScrrBXXqk+OyupnUpR+g7MkdwzRRpuRRIisA6cfIllBuuyW3SkE+mx2uJ4HvjKGsKtgy+d4W5AW9GfnRKiuMOKZn0RbgN8ce2PQVAX1JmzoTZU6uj+AUi8gH2o8lK00N+LH0eTKpHWEvaYp8wPnz/txEyrl5lLMxnOP9NmpHYInR5Toj1JqDoKSvpJxlyrXdoS/gGj36KSPiWOTjvDWgvh2kxT76IMoq4u9lTN7Tv9M6Ynl8QzlEQT6bIqauBH0C7aeah2/KLz+msLtL+dIc5dEQhpuiXwawuFZ5vENJ31fRxrNWh2NJv0ld0W4z2o9LjuphhaHDMaNZ+hSHepihzikn+r+a9vkgZTzIBfnPtZLDth03X8wEXElGHlny2fRpHUHuycQn/e4S6jgnv7LchTUah+atxLgxQEA7qOm79XqIpBDwrRHlH2FOZJw7P7tKjX7sYd4rKCgoKCgoKCgoKCgo7Df2O6F4578+Ays3HoYDVh6OpVNLcPDKR2Nyw4vw1b0CuTODn565Gc+5cBvawocINQarJgPkHH1dZ8BdIMYMpr/xPCw4eDMWHfIu/MTOcN05j8eGFefhWsdEq5ZbkCMkpo0JBs+VY2M+ASrRgeZ3UMoyqVpvkl4DWU7ImXuarOYZR11lMP3FiDMNN/2v47Dyg79BlO6F5xpYXM0yKO7AYjAblnNYoOnQWgWS4SSKuI+fn7MOz/3sA/CLFCOLQTqD2KpqISt8BqMD/OpjazF56IfxY5PzMxyMpwVKBsFWOQsRl3A0G63BQ+dDyvPLZsucY83D0lxojFnjqockm0bhdiHP0bOKAKKabpI/WsJgWWtjVCUIOHdLVi3ZHdjCgMfXDFQo43kMC3nGoAafc4943yCOmwqyYQ44VQmj5Jr4bENu8w5j+OUQhuM1lTlRNERouNBF3WxzFFoIhzoRdQTb6uDBRJ5I2YITlLDbaVMpVJsBZDVaPg8kjo/5sqT85db2AKZHneiykpCBe85nW5OwqqKpdDOSAHOFAcduYYyBfFHKhFjJ69tw8hHXmDUVcnwRLVlhGvtNRWRO3ffRlhszm63res11afxXZ5zXg7zc4e8RHvzq8dj6jqsQcfzhUEdYtNDSRrCQAt1xtByuX1b/UVepiFH15bZU8tP20eX6kcqzGX3qJSUnq+ZcPFktqNlduKaAK/OFlHsSDskZHZ7H+0veZ8gkrAdP2NSRyWtkCjLCvJlhkvcJ8lToNulJ+ZEfHbdEkjvoxxkiyt6lTGUiyqWkZWJWVlwl1GmoV/AMysYBiiiBsORZcBF5VCHmPBfILfBUgtyauqDYjb2wsTfmGswa93/5JVh53h1oUe8d6s6RFX9JH3lpoGua8BBCnk3puT3MU/5SB/JszpbuIRvKqkarSZzOU6eGtCeu3aBcrWAOpmnQFofIsgIe9TPiPYlM4FK+ee1i2AFt6X4UlUysDnDpJ5dj6QHvwWW03flpAyntRyvJC47vRzYc8lHIcwnl0QR6hnYhK9d8eDTpINLI7xmY0Qi6N4UortASFWVCPaBsqsoMZxxZ5MCnfOS2d6MOkFAneynrNieup0NUBddLexs40odUSAf0Q7RTmTDy3Zy2Ku2Dy5RzzPZR5xrtcpacIF/I2TIQqBLqwCOP7aA5/1Or5VZ52iJ9gjzjVIvk9l4bvzprM57+pR3kZIo87ZMXlE+ZoYo5F5+c7s9Qt+2GU0aRo7BTzNT0QaAfTHX00wgT5hiCsRr19edjyQEn4aK7QsT0bc3ZqIMQZqJRj5JbGhbQl5mG/LIjgV2OyF9eG7kwPK6TfsAIBhjlCa/hPJycc7VgJ3yf3C/DBCOxD4OwDzHuUR8yseuTkzWtbQombSPS+rDlOZiFjkn6PNIMBR1KQp8kNPKliJuK46Z6kTZ82UfXYuuCI7Fw1Qqsfdk3cGMYoCPnkZW0ZzqK8KHEai23cfN30dmJH3/0SCw5+zaY9T7ss12YmgPNmEBrRJsoe0jpY0Sb84tNriNC16CvtAJk0rcZHVSuTv3Rn4hZGGNdiNkIgUz4Uj/yC4+9VrdJShvlAFFbVrPm8NIRhuTAXy48DmPn34ScPC7po4tovjmrtEufPW/JIypowAoKCgoKCgoKCgoKCgp/F/Y7oWhmPeTHn4Xtd/wJg5334+b77sYtd38dL1vYZaAsGLwxqLflWWxziFwNU3K7bdJlQGgzIE/Quv+bePf7DJz2sz/jgW2fwzPqAk8+68+4585zcXRkY2D5yNFDluxGZi5D6vAZ0YDBPYP8OGAgKLf/xtDMAo4Ya86TKzCENpJVeCXSoMC4NkTHbqOsDUSm3yTt5kwNo5IBOJ/nFzLQ9NEP5dbJPoPpHgSDyqrdQuwZsOOkqT5zGNTr1RCi6OE559yLe296J/5BVk0lBYQ7Bl3kiIolSOyCzx0i6EbIyz4cqwev0hG2PFhlhDrtY0xzEXV6COM55PYkQj2Dly+EJ89661qYrzL4mERse9hbt4EghCgN6HUCr34AuWGj7XjI8xJjnolIVjXJZIAjt/wxYJfbLoWJEefqU0iWZmPCtpAFEcayITx3HGllIxXgcyYxLzg/dBHWFYxMR6udYwGD8NxzkMQGHpANZGrAzip0xmJY8yEcz6YsAsTWYtTxDDTdQJGnqLw2uglfl+fxlVlzFuWichYm5xHI7e2Jhpa7CNqgD2gGWnIXrtmCaVGX6RiCIIUut1ebAyzBPhQp12LayAQvzCIMXcpFtOEi4+0lZeAi8OS8TXgteUahbDojMJuVqIYtjLKA3OMzghkIrYJtP7R92EqAIblR828/IWGMNmzqYV734es29Ih8oRzlFmhZtdb2PVRFgUxWt+ktJJndNOCZSeQ2dZ08yDBB1k9EFfbV89DG9GZ7LBnDcSMUvF7XE3SMSZRuzusDrosyyeXZkxVq6kt3yNtayrymvi2MezWqsoOEug87KcR8ioJjy6pEeW5dZIw1Cc/FguszYupikkYZYl/2ULI4cRyMbAeF4SMc0h7zGD1yeDQ7C82uURcmcr2GKQquMYU8+NOOgc7kYtoL56e71NMIpT2O0gqwW6fuaLfITYi0xni5AHOlbBBCnofkUrWUsuPbWRcnvGsHRrediWeT08V4inZGBWvT5KSANgWk6aiRrWx+I6s8ZSMeLeGc+CDHXAC53VwmfePRDO1XR6DlyOOFsMl5Iy/Qp4zHOL+qbGFeVpcWMnkfw/NN2kuAdMLiMygDI4ddTfF3QU8C9KJ59DkVef5jISgb2iIMrrlJes1SPyZMn/5AfingF6i1AFbVRhzn0BPasMtx5HEFGu2AfsV2eDPXEvE+105RyjMYqUO5RT+3h5jQPJRZBttaAdcKoQ84jNWBZc1jvKAvK0r6HQ8+7WmPOYJ70+fwgk8swe9v+wZeu9ZF26BciknoPnXp2rQreciDi1098qUiv+i30LbQMqfIX1lN2EWJmHPxOA7lJDPTQYYqlefSxvDrfXyX/sBdjLzbgTOKkVG+iyibICEXMw11IFDQzuMw4jp82n2OahRy7T0y3KLMepisIywoOJ7m4+6vvhQvv+E0/Ob+WzDa8UucW5+OJ577J3KevHNN6iVovgCQyeoyGGGca4l/9kmclH8G9571qObLnUlZgZ7vbc5OTKiplDyW9qCNdOh5Di9sQ9PmaTc59eIgG9A+44x+2UeVLaKvD+BbLWTWDCx+jsjK9k6UNUc2lI6sJp1umuIY9gK06fsPeuWVuHLVR/CSi+9GnNsoppbSR3UxJ/r0121Mt2T7IAUFBQUFBQUFBQUFBYW/B/udUByYEXSxFr7RxowdwY8rdPSQwW3SbJGUfXBdTUOcFjCqIWbLEo6VYkG6E3ZtII9sVL2tOGyqBS2vIc8cBAP2qlwEx8iR1AlaDN41bwJBPYITy4SDj7mq4JgOQ9sODNlpltf4SYBQbmPsuViY3dpsKa38GCO53dCX21srBtwtlJUOLeL9NgNd3jdndJG4giF6DwPLQyBy5HkKJ4maNaYmA8vIhTUcQWsZlE6JWU1vKo2cNEDQSzBK+wi4Rtn4VG5BLOdNtPIxpAYD6LSEZ+6C3ZfnqjGw7ZoI5FlgDHZFu400qWG05ZbEEjOyKifndWkLRZ3B5Py8bAY9V4NuGOjrPTygLWjOPsxHCVwrxz4G2G2Z/DE8BtuUQznAoDmbMUBmu9C1DCkD/xvrMfimTJLJ7ZUPVQ6Bv8/lfUC0MCG38nodyn6AQibTTBujSm557GCBM4sq9pFzHkEtkOp8bhIjzCostg0kDNStuoIvKK9ipqnccq0YieUilZ2ZzYnmTLkh9eCJGvbeWcQ9A7FMBgxB2TLwL20kdgh/MkVVzEFoi7Cn7mGSz4mFA9mgRDay8JI5BO44sjzCfLUQpWsjkx1wnBSx3DKf1ggyHV2PGtVryD4bnYJ69VdQdbzWmUcr2wObyy/EFELKIiDnmgYnldU0oqnKFKYdYCDPmfPHEcgGMFXNOfAecsOiXmu5lVLEWCIiJJnU5Rj0Qna3bUM2R9YH5I3bbiov51y/2VpsjXKYbg4roN34NeKM8+ksJr+G5CJ5oz2ITkLzaxd8LcWe0oATzCCU54UW401S8wGuJ9B9TFacSxY3W8trq4PZeco23cWBNf5dYMRr60pDZXK8nNz1W+jTjvoVJ9daiE69D15NnWtyGzMfxpdFlmMS2zHHecrt8VHBOY6PI9JFo/8x2nPmOKjsqqlmQ0gD0Rc0SaeKf4/MElHVJw+C5pzKWdqOP83huKbaztEqOrSRDJieh2csQWbpmKAs+yn53+uhnd+PnZBndfLBxQS5k8HuOI19ywR1JwvgOLThuot21cEebR/twseUNUJa9fjMDFoaY3eHdhTJsx0n0SsfgBYYvC4i3UPsk18M+JxHJpuyJMgpj9iSSxmH7lrIIlmJPGq26MboI+fzbeoLdZsy34ewimAbJW2jg2n6o3naSVI5tKcM8sxQ+Uy5/XZgyd8t9I240UtV5UhLBx2NzxQW0nQCuUzUyq3N8QPks0WbCnDrrsPxqX99Oxaa5Lw1QLZXJkQ5jhfAJbFGyOgDaV/DcQw46xWtDmbCieZLiIx2V+UOvLDAPsdqzhFs05bGyQ+ZFO+bOh7Ux2lwJeiy4GT0jfSiPsee1fsoWuP0LQ+gawzpXxaSq21ojsAN7gp09Qy5bLRF30XlkFs6dpIHS/I/4fxPXodXvfW1WCEqzMU9vOSjZ+HIH3wDF26P4XDu8kuNZqs7fbKc+zC9DZf+y3Z86HXHNrJM0wGGlg3D7JLT5JWvww8qDCi/dppj1NObz4FprYfMn0Igq29dYIJ+oU+/5Zcxunz2vCjQLruYl1WLLQuRY6ITDxGJMT7Tx3Q9oC2njX1q1SyOeNW5WH/2Z/Fbwc+cWJ5zOWy27MvO9C36bQUFBQUFBQUFBQUFBYW/D/udUOzKyhVtDlEGTEYVA9WoOdcPTVfYFirBgJQBJTQBx/JgFA6D5hSRbeDab7wei5//Ufwp/BpecvgyrDvrl01DiqvfdyCOv+TPqGodE/W9+Pxxm/HWa+bwjZeswIp16zC14Xh8f2+NIGJwmgpYukxDWujUMxCGi34KfP1jx2Hlhsdgy+qtWPLCS3FTzMCZY6KaB8w+uk4bd3/uBKzfsBhrN2zCqjVPxaX3zMNlDOnUBQyjD03zYeQ659yFaM9h0GrBGMrt1DmuPHsrTvzne2El4/CLaXztJUfjfb//Cy56fhfLNj4OGw54MT6zcwBNNiUxBHYxiP/1eZuxaOMTsWDVIdj4go/hd199Fdac9mMsCTTMV9vxtdcsxMcuvxJnrzgMa484Fb9stsomuOeS0zC2bi2WLx3H6oOfhm/d7zDI5lpdHf1rPoH1B6zHAevWYNGBL8H37nWa7cm6peEvF74RK9cvw1L+W7dlLR5z1pXN+X9zfg95NI+OHsEpLNTteSyKQkRX8lkrlmP9lsVYvvkkfOZegck8RkU23PPll2Hr+s1YuHEdVq98NS7ZIzNJRtMNtp7vw6pld1iXgXwLvz/zSPzDV3fiTxe9DcvXb8T69Usx+YLPYW/BMN3ejrycxxdPeTzee9UvcdrmdZg89B24zLObs9Zu/dazsXHyCCw56GAsWrUWq8/9I3U8LzcvUw/z1K+GX57+RGxesxiLNx2KzS/+AvYkfept2GzlrIur8bZDnokvD3KIoYZYi9Hf9X28bPn7cDV5l9kJ9LyF33795VzLEThg5UJsWLMJ774sa/Qe2hbu/trLsWLjCkyt24oDDno6fv2nndAst9kGbZhcgyGbDAXQRYyRleDur7waS9cch8UbxrDgwBV45y/n0I5vwjsOfC0uuh0Yq2bQKoYod3wbjz/qbPwkHqCbTCDb/j2csGUlVq5Yh1WbH4ONL/4gbjK6kJ11RX4LvvSaI3HW9dvw7Zc9FetWj2HL8lfis9vvwFg5DZnLS0sX13zoMVi5dhnG167CYad+Dzu0cRihDl3L0RvNwipK7PjCy7Bk04HYuGyCet2M1WdegbasnKw68PRZJLWNypAdlQXMKsKOGy6lXWzFsvVbseLAV+CibRXa2nZ41MHOf34Vlh64BYtXL8bU2ufjS7MztH951p+OLC/R1vsoDdlzusRPzjkIz/9Khv64hwDTuPAFW/Gq62/HRc95PMaP3Iqpjc/BJeTYKNbJRXk+YIBfnX8kNh1wOBZvXo4Nx38B133+FCw+43pMBQYM63Z8/NXr8earL8PrNq/BxtXvxc1CIIsr/OErL8OGA5dj+fJDsWLVS/DNvSEWR7ThPEf9669g8UEbsGD5YZjYeAK+Md1Da2YEbe/X8ZyD1mHDsnVYecAabD7+3dhW1ygdt6meHs8CFHUHpe7Dy/dAmBqu/sHbsGbTaixZuAgbtr4Sv9g9pKvT0HYMmCJtKhhz6i+mr5Hb8dt5hxzhGv0IF714I976yz346CsejRUHLMTata/Ep7fLM2UnKPubcdrWk3HhHhObHkMZaEPod12IJ274EK5ckKPQTFz3jq14wVd+hG+f8FisX72B9r4c51+lI7znIpxAO9qy3seKgz+OP1Yj2eccVpbBpz+95V/eh96G5VizfBV5/XxcvMNCTzYocW7B51+0Dif/4Uq8ed1mrNr4UVyXyHNJe7jtmy+l7zgUK9esxoLFLRxx/i8htAJ2nSDXYwjMYCDGyGsH+YN/xXT8j3jS42tYFbmtTcJavxwHptfi1gd9FHmIIf1gLw6R8TNgTDbpuur7eO/WN+GUhXFTiRrrC8g9A3u+8BysWTWBcfqNFQcejvdfk6JumRhigBsueTGOWLYVa9Z2sfKQV+Dr2x9AzrVqeoDPnbIcr/3dD/Ge9ZTNmjNwPf2mNTKw6+snYPygA7B69VosW3o0Np/ze3hVDrsk37EYg/pReNd59+K8i3+DTl7Do46H7qzsOwWNuldQUFBQUFBQUFBQUFD4+7DfCcWy8oDCg+xaKnsrl2kLuhbByVuo9QhuXTZn2xlJgUjL4NUFRrYFR5vAwS/7J+z9t3fjCOfVuOimG7Htg4+HqcltkQw46zZyETXVhTAd/ODVr0D+yZ3Yce99+Obzb8fZb/kW7nVKWNYQo0zAZuAcessxVu/FNWctw6nb3olr7rwOMzf/FdvftBOv/V+3oS5kgsFlAOrhxotegEdf/TRcd/td2L3tRmz/4ha857kfwZWaB2+UQbcmEVUhZBlbVUW8tw0/LTDryQqYDqwyxMCoMPCGnKsMPof4zimfQPGp+7D9zitx4SvuxHnv+C62w4LG4PbWMzbgFdvejivvvBUz99yIna9/EC/6+K2oDYG5dobW0EZa2rjtwquw9OrfY++2/4Vjihq3X/pqHH3ZYbjutvuxd9csHvjnR+P9R70J/2qNwbjn83jZqb/H6VfvwF/uuQ8PfO4pSMUAcdnF3V96IY798Cp89657cOtdd3FOv8V7bnstJj9wPaY4H2AcQbONuICdrER/12fx7LduwwWX38rr92LfhUfAKUzM2x3c9YXjcOxVz8AP7/4zBrc+gFu+NonzjvkMrqJ+jbjC7FSKbmXBiubhysq8MsJvPnEcPpKejtFNt+H+u6/A+8vz8bhzroU+XIzKmoOGWdz5uWtx0L/di5m/fhz/AK79Gy/F8e/ciE/tkDLaie13/QwfvPVFmHz/rWhT9oXXxtXv2owX3f8WXH3Xg9h92y3YfuoDeNVHfofYb6MbpnCNFGk9hSw0oPkZNEugFyUY2Dp1GqMqPez70nF45nmPwcX3XI8b778Jc1d+AIdXwK5Whl1fPg6P+cWz8edtHP+OO7DvEwfiVc//BH6TVwispNl27svu24aDrCox/5lTcdhnD8BX77gWD965E3uvOBsbCgeBH0EvgJz8KUsfBi3K1iv4WQibch1YER68+m4870c7cd9923D/tu/htOq7ePp7f4bMHSERC2AmI3zjxLch/fiNuPvu7fjUq36DD7z3WtxVmwi1WVx77pE48ZbT8edbHsD2+/6Ke1+2Ayd+6gYUeo6xQp4TN4abLjoJT/rERlx0+zbs2LEDe2++FKff9V6Mnf8LzgWYNSbRkdtuddnJOEK640c48ZXX4Oxf34y5W7bjwS8+jTLL+MyF+OPXnoTHXX8MfvGn7dh1107KaiPOfMo/4fI6of2XGC8tjEpB+xewahdCzMCS3ZjjDIYdIjYL/OxV5yP85C/xwLZd+M7xN+G8t1+EHZ5Hn5Dg52ctxol3fAy/vP1m7L75Hmx/63a8/JO3AtkQcx15fIJL2QE3f/H3OOTHd+C2vWfjML2LO776XDz36qfgZzfegT33341bL16HTx7+cXynBYjdX8dRb/wFzr3qLty3/S/of+l4pGmAkWthx8/ux7E/3Y5999+Gnbf9HKfjRzj2vddRtzkG1QLU9Fdy23KvjrHXncJNlzwXL/z+E/G7P+/EHXN7MfvZpXjj0z6C36JGKb9RkWebuiVEJWAUcptyioj20KPfcen/RsLHv/3ja1B//G7sJFcufdGvccH7Po+75dmdHas5m9KXlcWagbiwUdsD2FoAM+2iENPo8P5ff+prCD59E26nHf72PVvwjVM3Yvk7C3zi9jsxfeuf8b7NX8Rzz/4LYtfhPGz86ZJTccwV6/GrW8nnXduw73MbcO7T3oufFIs43Rq5E2Lmgqux7trt2H37B/B4EWL24pfgsedsxPdv+TP23HUndt71e5x2z2vRO+sG+m2pX3n+rdxSPyI3qPMdf8UfDl+Dg3SNj5ygnYSogpVY9yjAi0fITRcu2pilP+9U9NOgT9n3Bxy2YhE0swsxCrjmPnZfchyOOP8YfGXHNKbv/Cvu/NXJ2Ej/aVCO8//yFhz90+Nw1d23Y98t+7D9oqV451O/hKsq2mO+j7pahns+ej02XH0N7tr5fjwls7Hz0pfh0eevwddu3IWA8t5+z7dw+rbXYers39BPRnRUEVqyKdTSdbjlnhECW/CzKoI3lEcSlPDIewUFBQUFBQUFBQUFBYW/D/udUIw9AfdHL8GyLcvR2/hYLDl0CZa8+vv4K+TZWjqD6BqtiiGkN4Eid/nkBKlMUGQhTKODQiZl6iF6/gTsnAGu3YKmRQiiEYPrFtzSRcZg88j3/RNOWaZB7gZ9xhtOw4Ibb8JuBvxym6jRqpvGJXNBhUi7Edd8/en4yDlvwCFRG3taDqynnIEvP4XBurUall3DCX6Nz5/dxQc/9WpMmT3EQoP9xLfj/Qd9E1f8fIiaa4rLOfSMHvIkgM+AeAATwjSaxhElg/yy7sGwBDqp15xVl1YRDnr3h3DqUhea18Mxr3olnnjHTjwQB8g6f8V3L348zvnU67HZ0FFFQ+DJH8FFx08DyRi6vJdRMYyEcnnOa/GW5TbsBwWD2j/iC+fn+NRHX43VHHNObnY86qX48KN/hKt+oVO+PSTp4Th4kkKRlXOPeSneuLiFUevnuPjTHXzostfjiCLHhNVCz1yKd5//Ljzum3/Ej2uTQX7BFfWpQdmdOoRm26jLJdiyxofQOhg+4fU4dVPC9f0GX/2ggfPPfwdWUHYRZ9E55q0469Af4CfX2JSBDiOy8YBsgmN2IPt4hPJMued9DheeegBKz8QwX4dXf+FsHPSDf8FX7m03W7cHxiJET38bXrMmQ8BnTLs/xmc+MoPz//gFPIU0SWeGEGIZ/vHjH8HGH16Ny0SJNP81Lv/+Wnz4gpdhRTpA0W7Becp78I0XL6ccHcy3XCTUV8fKUZrU14B8SmZR1LITuftQd97gSnzhI3fiuO9+AEfVAmPpQqQLj8OrnqVh2ewN+Mp5Ns7+yAsxUXvw5ZbXZ70Wpx/6bVx9XYAV5TgqWV2rCdT9FBPiDnz8Mz/BKR/7EI7uyurIEmLqRTj16QKOPA9QJ1dkKaHooiQXd5sDVPVaFK7cZOph/KQz8MaNUdMwJtNW4Q1veDK0W3dgd2XAjGPEXM/jz/wyXrqihkudPPeVr8Uhv7sP9/H3xdY2/OBrq/GBjz0brU6AbmxCP/6j+JdnczxjXPZChmj9FN/8cIGP/duZONrRkBWUR3YATv3cqTj0az/ET2gzsslH2u7CDkiFEWc1uRh5vRkLF6ecN197zMl4yzpeo12Bb1+wAe848yQcSfuUTWXKY07Ep7b+Cy7/jdNUJKbUa5v24MvOu2KAvFyI2jawQI8wyCu4SYQjzvgg/nFJVzb4xtGvfyNWb38Q98zsRTf/E6741rPxvk+9GKuLOdiejezJZ+Gb/0COugugxxVM2npcc33PfhlOOaBGN8j/Jj/lYaqt0dOwdamAQf1nh78IbznApfx1rHzjWXjvyhpzWgmtWIyXv/0YmLffjx0kcZs+KnR1TNZW043Z136HSz7s4LQPncJxSvLGxcwxL8MHD/k6vncd1+p7KG3qsi/gYwaR7CCsL2jOdLRopwHa8KtpbDrzI3jLogL6fI2j3vxuPOEPs7ibtigbOJXVDAryot8uIMpZ+Bl5nVn0hxq62RTiZAfEs9+GtyzN4XoDHP6Kt+I4+qoXn/IKrDVKhN4CvPXNJwG77scN1IdX/xsuPa/AZz99KhbVfTgj2t1TTscHDv4BfvYbef6oDyfqYO6Fb8FrVsw0FcJm/ldc8AET517xMTx+nL6rELCttXjbh96Awy+5FpdYGlohfR5l4xRtrpnCIXIjbJoJzZEbk6WPlj2BnH//vr8PnlGhSuf5GTCFIq1hjwrcf/8t2LxoK6pshi6wDVR/xKfP24YXXPgGHGPtJS/bsBe/Gyc9MeYzf4vPXxBxXidgTbuPwBcQB74Rnz74Uvz0txrXLZCPRtBPeDfetEo2nKGPHfsrzvngCOf//MN4jlfRP9Ev2Evxpg+9E5u/82d+PtG+yIJB+SDGV2zAEffuxH1RBr1eiElPx4P0LyMhDUBBQUFBQUFBQUFBQUHh78F+JxTd0QDx8V9D/87t2Ln9Juy7eTduv+iV2KpZaBkaRN7HSOsgS4fN9kuZuDIZyGbyXMM8gmU4TTOO+SBiUJ7BHgxgaMvQajuoyhiZ0CAPwduyaF3TjdNhoB1rHpYad+LeHfI8wBHK3EFcaQzZC8QP3IOb3Um0DtIw2+bzY9lEpcaaAzciTGTxY4q91/8El9k34eyjtmD9uq04ePUKTB3+RHzkugCxXWFet+Al45jOZ2HYsiFGDMakzbluQSm7yQoYVZ8BqYvKFJgzGJpay3DEqhXQsgH0fgDHWI5k+Bfcsa8DbP8L7rMWYMGSEWLGqMJuoRAl1m94MicUNVsMda1EqU9iw6KVKP0ZlMsqFFdehu96N+KtT1mAZQcfidUbDsaBa5+Pc38fcDIMftc/Fs964kU4+YC1OP0XBhzPRWDMw/75dbh4OIE1a3poUZNZv8QgCjBz6ApsKX6FXTsiGIYhUw7o5vy/biBb+1I8act3cPy6pTj9Msb3Zomaw+i//xYusf6Idx67ABtXPhqLNx6O1UuehrP+8iD8VIejxTASHZPaHGK55VhWW/G/gzcfAVMLMVPW8ISDTmcZNog5lG0gTVxMDqbxuPUFQn8XxpMCUz//M74bHYZNk5RPOQ+9YzXNMaKVC3FEvQv33ZdDv/t+3GQdi60rZQMaASvciUQrsGDZEqAI4FK4eWslRqGOqXQOZicn3xZCs0ZIaj6z5D03XYnPF8fj1YfLJJLdNCSRHXCD3Ed843X4pnUTznv8KqzduAILNi7HyhWPwfl3jCOOa0z7FSLHBwyZ8Gpj9vIL8ePkHTjq2ZRnOETtdDm+CS0J0CpyxGUKEUco3QRWqw/eDpt6cMMWZu05LKtd/OFrL8BBmw/H8vUHYNnrfkDuTyI3XAyFDjGy0DvYhFnOQatTxJYLYd2H++8IMbfjBtzZWoYtq3uo0gyB8FDEFVYduFp2tICJLoqfXoMv2W2sXOvTDmTFZouMtWFMbsahxh7sva+CbcyiF8mzGEfYu1hH4EziuUdeijccdAjecrUGUzfJ8zlY19yEr9RX4tPP2ozOxnVYv3oxlm55Gt5xc8X10Fa1Cpo3i3l7FlGaoGNO8KHkdDJAn2vq0s7LfAIr1yyE7wdI6xkUWhdL+3/AfH8hsgd+gdvLFVi5MkfL1jEQNWWnY8Ghx0Av5jC0Asxp0+RzF5sXb6aMPUS85m/xU/D3Zz/2UpywfjlO/42Lju0jl4069N3QYhe3fPFErNq8Gcs2rcLKt12OEBPIc9mBuYI/7CKg/QgnRnH1b3BxfB0+cew6TG5ZgbH1q7HhyBfi7BsM2CS1M0iRZ8vgL0wxLRsMRbIhyxxSYaDOPXKaazBNbNp4IGQndWPSRlV5GBW34Y55mbiyYLgmUqvC5Ig+0hyjH5qBY43BqnLMYgSrvQoHb1gIIyugZzV20W/62cHYcADvd+umOlDy1Ok/2DQmmvv1dbhQuwZvf+J6bD3waIwftAmHLDsaZ94YIaNv1umrLNPDY5YupMFrsLUc9e9+ju92FmLjChvxUHaWT+AFOYzlXTxK/B7Du1zERoR+7dCehjAwD7NeDyN10M4FOiLGvJjBLGWoVSa2LlqG/oA8oD0XtL+c/qlu78H9Nx2Bwzf1kTlt1EMu5E9X49LimTj+CfQV1SKMzEHT2KZV8b3fXodvWNfg9Bc9GuPLNmPD0sXYcMjj8bbbYvRlp/isDUuPsWbFYvTlma9WAfuyy3FdeQgWHRigjAN0wz5C2ni+ZS0Oqm/HnXfZGKNNjFc69m7YiE1/2I4dJm01izDHD4qFbVc66oc+5BQUFBQUFBQUFBQUFBT2G/udUCy98aYL6QwDP5Gm0JAyNK7QswWyNIdluPBsA7GWNEmslMG8FusMmE25BxR5yaA2bjVNKOxRSzaPRarNoShEs5U412qY/RiVqzeVXTYv6CUR8rRkUGtgUu+hldQylYi0Cyy8Yzv+mAwwxrmYDHg79iIGpgyvBR/MgLGQXYXtaYzqJ+DL992Cu275I+665ybsvflu3LHjHvyvZ7QYIGuoDQuTVsqVGEjyAq5cl2EyWK1Rc62632q2MssKSyczkJV7kDI41s0Wiq6FWswi933YxRyqO2/GnzCFMa3L4LzEKK9QMliVVZou5z9bzcJOTAbg03y+gTDtMQguGeCPKMOX45vbZjB9w82477brsPfObZzvXnz6WJcyWI1/vORG3PSL07Dj5IOwcPm5uBoOUHmo3R6qQnbAFQg5H7c1DpE4XPdKtFwPcSyTvTr6ho6AWtMCG+f+61144Dcfx61vnMKGNWfgCgbmUdoGslPxuQd24K4Hb8QDdzMY3/0H9PfN4uxjZzEn2+5Q//PmGDwRYUIL0c4Y1IcpWnmGsYJyozwrm+NlFuU0A8+PMVePIdaXwEpWINN81MUIPsqmI2+Rc/11geHoofMsLT1vGpRYO7fjhnwa0yKkVlqwqkm4cle6J7vy6qiteYgyhuG4yIo29tUOxsIKw1rAj10+THaE5rNEC6MqQuVH0MQ0HL+HbkJd9uVqTsDXdu/B7bvuxPS2Hbj/3mn0b7oBH38SUOd9dIIhOWmhkF3F2/KMxoAcMeE4XNtgH6rEhea0MDQ6EM5SUtzHKMqhk4NOmSNzZOVihanyzzhx5TI85acvxC9u+iWm774N9198MvJqBjX5PaGTe02Toy7vGYNFjuU17aTYC428Sm+/B3+kngdphYVmDie2qXdpSwYM/0GUxgBCtsjNek0zk4J6ScUIZVlgZMmEdkz+xM08hzqFuCBFN+7B9Q/H2764C3f94J2499RVWLDpA7iqNmH3qQfthfjUPfdgdtsuzO7Yg9133Iyd2+7GJ4/juoSHPJukThxoLm1GdmLnc0tZlFxTN1x72h6hVY0hTSgxMc43UsyaU3iwTjDaFeH3dkYZZ8gL2muUwCZPezO0H+pvkSkbdkhOU+72Hpj6iHrw/yY/Y/sAnPjtbbjvV2/FjS8fg3Pw6bjSqKj3+/D2dZvx2GuehOvuvRc7b9mDXR97Bu3mPizIZImshtE4x6B1tMpx2GWI2nsFPr/7Xtxz1y7su2kHBtfz91tux+eeWiChb2pT9tGAPM3ps2za3KwFs9KR6rO06zG0cw0medb36CX5s0oDmLLZzpC+qY5ouRXCJMTeOsPISeBW9AVFgJFZ089q1G0B4cnko0ud6fBFD2KujYy0MGTTGPrVnk8bciaR2Sa68rxa8z348r234I67ryeX5Zcwt2L6llvxlaNkgg8IymmE5I/ABNKKfKZ9mDMWNEuHY+3BtGZjtmPSzz0aD3LcUqf/9jkD3lfTjuxkCdx4L4pb7sWN9MJ1sYA6rNHt3ID7r9cwNtAx1qGvM0L6HNqmPI5AW47la3+FP9xlQKe9dgyaZF5CFxbiDmWZkBpct4RODvUG9AnBa/C1W/+AB3bvxvCGu7Dtnn3Yd8N9+Nyx9LvSN/CzxeO/RWUHKRcW6uS2psEdGhAGBeR20KM8EQfIZUMdfv4MxuT5n/SL23fgtgM3YpUw6Mv4mURZ16Mh3FSeE6ugoKCgoKCgoKCgoKDw92C/E4ppIRBnGTo1AzCnhwEDzm7dwmy0m0Gy7H4qt57uRMagLmewZokKvp7D0HKMeK9ZdWB0arQHIQPKigFzD7FWAWXBYJgBuOw+y0CzLFP0ollEetWc/aeXi+G5KWR30NBn4FozymVAnSxbiSe6CW7bNeIiliBmgJ5UIXbdto1Rt8kAuES14TE4TE+x55Yalm8iMWQX2RhWJau9QlQZ79X3YCibsVQjdO0uZrSC4b4Ht5hDlAYMndt8fgphZnAym4F2CI1Sq/MCRaozmC2aqp/YHweWH4THhTfgtrtttJwYY3qJItEwt+teBtkpfDdHzQBXVm+mGGABA3c/sjFY8ygcVd+NO3c7iIohTKdL2WQye4BhPcurcjj6JFrrT8aFO3+MM7b+Cz759fvgbhnH4elfcO+eEDVMdJI9CBigm3dtx43uIqxdtgfC1qgLuT3WwtAy4ZoewiCDufQf8KM7fofzDvsJ/ulLu6EdsABbrD8jvLtAN7XhDGvKcAz90TQsvQeuHLpj8bUQ0xXnb49jr7YcN+/ehbwUKHQPIy+DuOwyfB1bcehkC0Y5D7vFQD+tyYMMetWHtvJgrHdvw1/uN1C2LHQiH4ZHee65Db+oN+LQ9ROoN6zF0flfcc/9DkZ+3CScq9YYbtx2N3L5e27w3z6kWgCt3aauZjHr9jFx32782XSbbbPOqs04wrkJd94nk5jkV9lGPjNC4PqYOGA1NuFWPMC12jOy4syBI5Nx+QiZZWFRNoGYa5VJ5Do2kE6tw2HiTmy/36POC/S4Vq014nukr5bAG9xPztQY59g7EcHZMYu/liUyMYfRzjuw23sbvvejUzBJmaFycS/lDm0CmSm48A66+QBtcqkdkVgFOaMnTefrzJhGd90mHKndgz9OS2NdiFpW8hI7+veimpaJ5BzV6uU4MpvGjt0VOrQ3yVPDKuHt+BVuzw7H8k1oOq27sY9wnvIoY8pEoPYi+FvfiG/v/C4uOORCXPC1PZg+ZAke5W3D9M5ZjKIYRSSgZ5PQNQd5WGIiHmFkhnAKG6KkzfsOSofyEBHicoSI+kGdwso0rr+EU3JN5FM3m4dlVGhPLMaj89swu3sCIdfS4vrzYhq3z9JurTaSeRcm1z9bj5CgK5sUN5XJf4ufOu3XMmbhL3sTvr/7Vrz/8J/hC1+chnvXdbgfL8ePLnoploR5c5be3nt38qELMTueQXYkp7FxTIEZs0Z/3SocHslzBiNM0l4KeT5iO4BNm5RnuLZo05GYhcf3PNpcUWoQ5FRVD/iaDU0z+Uz6pzjAJP2jQT9hjFPWUcmxR3xfNnMBxvUpTHkW3Jz33HsP7qAerSqFmwr0k4x2XENz6Gsoo1om0iYLZEG/8Z1tZJgvHQo6QUk5l+uW4pDsKtyzg36H/JQd1zM+q/Y97Ckj2q1BjtFm6MMGxl6kXgsL1mzEkcY9uO1O+kFtCTpVgknaOO67EXuMjVi7xEQQO3CrSeS03dSbw+xxz8RLvZux796K8qJnNFwM7tiDW52XYvNLyIVRAUeeriB8vjeETf+t0e7ufWB302G7LgfIly3EY6t7MXdLyvcHtBkbu51ZDGwT8WEbcTj24oHtNqxQYGjL83mHCNvUz7ALd8JCniYIsn0YWEO07Bj+qi04WL8Fd+2rEWgWIsplAH4mbZ/BXbShzSssiMTjRxR93h3b8eetY9igU+eBRp9G2zcXInP42aOgoKCgoKCgoKCgoKDwd2G/E4pT5Sw0Bs6BNoYwnWbwyUAWsyjNJYBnMjAMGIguQ9vqwIn6SGWloOgjqhiUggE1g99kPoKmT2LeHciiJUzGOmqvh6weQWglLNeBUQoGoRZqxnyVVcEzEoRRjb1tF04VYFgNGAh6MNafhBNfeBk+8OaLsZP3G1aK9h8uwAu/fz+QxwgZjOoTL8dbT7gWpz/nTPyOAeRYXEFU0/jKOZ/FrqyGKxgQa+Noyb2jRYG6zrgmuaG6RmpOYLLjoTW4nc9ajJRzLX2ZJDXhDRjUGjoWpDnaeY/31TDCDN66J+OZj96GM877NH4fFxi4Y3B/9To8/9IIRiuAXS9CAAb4oQWG3wjzeVStEONLX4HXvvxn+MzBH8B14wsRZZQVtuGS03+Eu+RW8Ws/j3N+GEOUOcYLDeBz169bBSx/Hk59wSzOOvZ0XCVKaLIba3UPvnbGGZh62+twWCH4nD5ivWqacYwPGMT/5nS8/bcJRgy8C0eHxmvWrN+AYunrccHxN+DdR70VP0kGVLiPWtyGr5z7Xdwlz7csx5By7FYNLHE4v3CIKdmh9rvPxhv+2EVVzsMPfotXv/1aPPms1+EJNjBdLYOe70VpUacxx+yaiNa+Au9+wX348LPfib/u24mRfGB1Fy5+6xfQescL8KgyRr7yxXjVy+7AB957IfZNWygMA/PXvQtvvCSHbtQkrYAlHoPHr/8NTv9fV8CwXZjiZrzx5M+i0GQDBhezK56P055zAz74VMo0oRxkYmr4HXz9V7vQX/4mvO8lN+G8p5yJX4zZMO0IRXYHvnzexdglmwlZ85AdfFtmjp47D2/1u/G+E3bj3Ce8C5fZspmQj8F9/4yvXEu+mhux+OjbccZFv8Z8NsKSbBvedOrXIMvJfCxGpU8jrn6Nv9yko5fFGO35Z7z33NsAYwArt7HPGWLa7GLANRbebtSUlRPnGBl9lLmBcOUpOO342/Glt30df872obD3Ib/2Y3jxl+aBMQu6OQl9+Svw1pdfj3OeejZ+XHZpf0OE+jzv+Rbis07EU+oW9Ux7bc/D9G0Ia4Tod6/Gyb/k66GA2e8ipt09buUydBa8Cq9/8nZ88Oi3408dgYi81cU2fOX07+NeI6a997B61kRfOKhECmePoC1TI/l4sz193PLhRm3EZorY11GR723yr/A8WJmD7IDn4oWbb8E73vlP2F3SCegxius/gpO+LMvVSsRaCqN2muRsnvHvnoDtUj9/g5/1Lz+C034+DqMCWuE8RJxh+ao2HvRdaNafcctoCloVYf6Bi/C2T95NMvSBkca1hfAKC0bmoTAz2Mv+EWee/CeccezZ+PleA1mbcyxuw4Xv/TQeqPfI3CP9j8yaArPmCHmRojLmmmrZeEi7rnc1cvA7EyhGBnLHQDoa8ibZAblHm1uFTQdtw5lf/ClKjh9FV+KsU79LXdso6I1bXLvX0iBM+gfOayzxoXf2YRDGaHs+EvrVjB5KHseA0oBXl6hWPgsfevk2nH/02bhOJudH8/RtIf7l3ZdiJufaygWY8x2MRSUWZJ3mHM3+muPxjufehPOfdxp+Xo5gaibC+D586U1vAt7zRjyWul2i68gxg1Q2Jkp92MmReMFz78O73nspHsgM7Ku24Ttv/xTSs16I5w33om7H0MwF9Kcl9qUV4iTCsc85AX+8axs6dokB7VZf+U6844Qb8c7nX4Cf1m3M1JNYcfc38bmf5+jaz8NbT70cZxz1Ifxam4NoU8jBbnz/fZ/H7U4JMapQ2vR7ug1dm8AgX4DBhlfgnOfejvc/7p34FT8rbKlPPcG3z/oowve9G08ryHmuJUsLTN9/Dzat3YBQ49ymL8Az178W39tOGsj29goKCgoKCgoKCgoKCgp/F/Y7kgoY4JZffTnWbFmJpZufgLH1GzB10CF40y9T6MU+7Em6WGjnDJJHEHqAUnMQaBrKQmsq7IKOQJe/BUaBVjyB2A+aLY6taC/0ykeeegxoGWDL4LxtQU/GkcQhSlM2TakxmdgMsLsMrmdhJmnTzfd5592AC/TP44iNj8XE6sPR++nx+O25TwajehTmPJx6DI8/5x5896U/xPMPWovlWw7EhvXPwSXrjsJKp4eKc9TKAoUxBsNsI+B/E5VArvcxSFwMghCZvwILi2m0DB9pnCFxLKRlCstuIe3UDFRrOJDnmtmI9R5e8/1/xbujc/Gcw47GipUdTF7zDPz2nMNRpDmqXCYjTOiGhUgIBv0CaZpyPBtPOXeI89/8BbxkVQfrNjwLy9ceh+9veBQO5PXD5Qn+9M5DMbn2cExtfQqufsrXccETcuTxOI7/7B9w7Wl349Wb1mDB6gMxvvFYfO9p1+AHr18ATZuElXXQjtrIKTOtLRAsOAg3vekgbDn4EBw49ST84NkX4zPHDjmKi6ecfzsuOeUXeOWhj8bk0g6mDnwyfrzmadiiVwzUgTBLmqqhIMrR0nVUpo5Vb/8uDv3MSize8nisPfjF+P7zPoNvv2gBvFQ05y4mlg07j1D6HpxIbh83ccxH/4Cr3rYNxz/q0Vi2dj0Wr3sGvvmcq3H56zdA5/XGwMKzPnoZPl58FkcdvhrLDtiIQ3/8TPzqrCWo5gVEIz8Pr/jRhXjFD07DotVrsWjTr/CCK76AJ5GLYarD1ls45mPX4wcv/xe8fNNmLD94FZY/4Y9I1o4jMweU93341vN+iJcv24SFaw7FkkOfhp+ueT4WCh3aSG6r1hDwObuSHrQ6w9HnXouvv/RLOOWAzRhftxxbnnw90o0a4vk2/vHbn8FJ33k9tmzegBVbLsVRl78dm/wCe8Q+2MvOw8fP8PHZ567Agq0HY83bfVxwyfOaMzXlmaJjAW1AbiEWOQZmD2Upt3bLijILbjUBR09w1Psvwfn1h/DMg7Zg6YoDsfLaY/Hr8w4GkgqxPOOzFeKZH7wLv3/TLTjxsI3oPepRWLX+cFz63Etw5euXQ4RhU9VpyUq/OIEl/1tyJAavXYsDNmzEwq1PwtXH/RhnHc0xKduD/vnX+Myrfo0XrtmK1WtXYvLAo3GxPLOwbWA+fxCil0OYspK3j3S8aM7Ls2kbY5y7Niox6roYFQ9iQdChrZSYMTLM1gN6mwhOuggv+7df44P+WThq02OxcMMmLLn80bjygkfDLhJMWAnSYQhNNhPSHYymU5iZbCz0yPw0N03h1lNWoXvQCqze+GL84AXfwheOddAaezs+fIaNM49YhPWHHYjD3ljhQ//0DPi1iVpLoDsJTGGg4ty65Qi1kePgs7bheyd9Cy96zFKs27yW8jkBP1t1DJa1lyHUNdSipn+jrDBGy/dovw6K2ELlVUitLqyhwCjbh8zNOG8LQqxvkoVCdpPP2zj+G1/Ca//1DViwycfyx/4BT7vqvTioHVCXNdetNWc/almIycJBUuZI8g66sskTbafHR8it7J5JH6QJ9EUMXazEujO34ysn/Suev34ltq49ApMbjsR3DngCFsnK7HIvOrmGgWxMZLvot1OkSRtP+Of7ccU77sYpGw7B5AFbsO7QJ+OKF/4Ol5y8iP5No872Iqw76OUjcpUrdcZw1NlX4uItZ+LIrcux6dCX4byNn8BlJxyM0K/oSz0E1HPCebU6lCn9q/OoZ+BFP7oIn7gtg895u0aCR3/wBnz+uV/GiVu20EeuxYJjrkRrLbk/1cax77kf33jh1/GCAw7FwlUHYN3W43HJqsdiq9AwV8mq4Bn0dBfDLIdX0W+VNh77scvwh/PuxombHoc1yw9Cb+PR+NHRP8ePXjXBT54JytxG7f4aH/vYSrz35IWozYxaWYy8yjCHWdqa9/CnnIKCgoKCgoKCgoKCgsL+QtszCh8qt/kbyHQGxlUKp2TAazooixHacmuf7aGK8ubcOiQBA882ZgyBdsQ4zrfQyfqIGU3r8KEbGRIj5msTGIgRUFfwGGhnebepLEmsDJ2kh7l6Fr4+0TR+6KbjvCxnANiHrjEgTuaRdmUgX8AY9ptz5swiRGVZzXmEVmnB9JzmjDK5jbFuZaiGBWBNYSh2o80A2eW4cgt3hSFgLoSWD1AbcgOcwFgYI5yo4A88zLdLlKkFr06aRENRezDTBC2jg35ZIHZT9KoCjEv5vmxeICDqgkGzh11liJZweL3A1WetxEcOvBw/esladLUAAV+PINtmlBB60nSlNSmboDDRwTwi2ZU3H2OwLK91YelVk/yIKx0Vf4fewXKKb8bnHKoYbd4f2TGswkZCPUwlHvbwelunjuopzFrTsKspFMVutMoeMr9EHkfIsBBtU24pnUfJ52qiiyLX4HHujmhz7CG8tMV19mFmNdeoI+bcW1mBrOzgJx/aiC+s+yauef5GcqLCyLQp05y/Z5iIxzCydmGs4E/KWlafmYK6kFvEozZcz6DeQ9RcS0ppSLnJ7eCysU5t6U2VpuB8vLJCoQ8oKRuQVZjwUFOmuhtDT6kfwWdXLnplgtkqgul3URUZIup+UWJiVsQwNQduPoQgNwcczeY9Vco1GBV1ydHLNrmSN9ubS5P6EGNcd4qCXAU5OShNmGjByGKkltds5a8CCs4ewHHHkfbJYXcGIp5C0pIVdnLrqkGdkYPkb9GKyRGB1KGsqwHGo0UIjSFCq8aEViOhSMzaRiAbDtG2BvVccxaol3Kt5RyC7hTXnMMmz9vocW0RqqqCY7SQFRyPlBh5QC9KMUc9TnLtJfUVt1soogg9XcOI4jMiH4UXwg91BLTR2iox0mIszHhdxXnwQd3MRGBV6FA3Kdmom9RN5KB2ExSJBXQppxkXRY8WSO55aZt6i5HZ9AVZhQnqb+jVtEP6ioiy4e86+VQK2dHaQOSWfESFmTLHmCxB47ihm+Hq92zGZ9f+BD86ZV2z1dynPgNjjFKPUJQ6csrykfiZ5R36Eg1G0ceMa6FHm8joCyw9aCqIq9pCyvX5IkJYUq60dz/PaN8JedWCLatB3SH0mrYojyoocui0vawo0C1dzLsFFs4BexdlsIIKlajRjikrX/qRAf1bG15WYkj768U+ZjslfeYIC/uUo7a42XIeiwEqI6HPWEiuUm8W7VXrozekD7Ut5ORGatToyi8vuE46VlT0ZXpYICfvdOpEp91oCfWLWRgc0+E6QnlmoR/AihdgSBtt2fPkJ/VPP2TQr9iFQX+lYVEnxsyQPKJvNTiubNUeU46ywz40Wm4dkJM6/Z2AVtPiMhdlq0Ye0ufbOVpRgow2VFGGvaqFPdhNNk4gtFO0+vIMUDpC+gGLtrXX0rA60jBrU+9Xnok1v3oa/vrxJ8FO5GcIfaTjYyYN0HV9jMp5ju/AGdqoO5wTbaCbPUgf0ONcXaQioH+gX+BnCI2Mtkj9hz0EDj027SqmXRmlQR3KynRywPK5frJXNpUxKKM8x00Xn4TzonPxk1PWY74STcVkQJ9SiWl+xlhN5aeCgoKCgoKCgoKCgoLC/mO/E4oKj4zC9JAUIyzKDQwsilSUGBYWll13Jtonarj6zvdgIa8Z1wVEIfsjF4AuE61UQlY2ybT/1nAM6PMDlP4kJ8zgvgjw2/dtwrmbrscVr+hwLapTqsIjQJPHDZiYNkZYWE2gzjREfh8iFvB++QmMvfdeXHHV17G6F6ClxUDtoKpd3iPP30xR0FYU/ufil2dsxUutr2Dm7MOQlQZaZomE3i/RHJhlDo0+5T+DvNTgy7Mj0wgGfVWQlGgZNrz8blzxw4/ixFuegT9/8IVYn+3DHH3wLByMyQ7rvD4z3YefoqCgoKCgoKCgoKCgoLC/UAnF/yK0kwC7bBfXn7Meb7lkDFEZwjcEBng2LrnnXByme2hrAm7TYaRArpeohWBIrUEvatnX5b81qmKEyluIbjSLOctDnbv47Yc34lO97+Kyt65AXlgPX6mg8P8LO7OQurI6rsRVp43hhO8sQad2MJRHHOAE/Ox3/4wNSwARjNCW5w7m8vxFs9lurlUZatlIQ+F/LEwEGAkfpq4jql2MZyNEhQlbpChdH1qWPXzl/z1U5JWlmUjiUZNQrEQHyAQ6IgHiHdhhHIAxM0KZ9GG0lkAO1xYV8ixAaVgQsimYgoKCgoKCgoKCgoKCwn5DJRT/i1BUBizHgstA9T6tj0kvgYgWoa4ZMDfb6QqYpSxclLWJdXOmmtxCLAtz9LJG/d88oVhbVtPsobSn0NIjZPmAaxao/THkhQm3ih6+UkHh/wAjRxz48Fo1rCJDkfrI/RqJHqBT1RjQfgx5Lp6mo6Q9FLoBYVvQaC1amdNixMMPUvifiGHlYbUzi/uiGr4hjxboQaQ5hEHflw3pC/9z5xgWcou94aCq6F+1DJrTRpYJVFGJ8baFTjGHPVWJwp/kazXMnP7YqRGTi0Ij18gwBQUFBQUFBQUFBQUFhf2H2kf4XwSDQbKV9jHUEnQrQIRdTIeD5mzBsmTgLLtI86dMJla6xgseEr08C++/fXkiIdcgG9foZYyyiqHpCxC3bLhBDkv/z1UXKfw/Hzn/65oGQj3BnCW7RQN2MYBdtlANWvx9iLGWA9O0IfjP8S0UZdTwriwefojC/1iMiSG2x+OYcMfRzYcYyQY++giFacGVLf3/k9CFj6Iw6FZbTffrXJ7naxYQbo1BmmLnKCDnJqClGpxsiLYVIiW/JFqaSlYrKCgoKCgoKCgoKCj8vVAJxf8iRHqNaS1AlTuYKnoMXBOsHtPg6jq0skKplSgEfwqt6Y4MmVQkBDQG1v8DqmNygczJ4VcmorpAzCC8U1iIXQErCR++SEHh/4xWPomi3gctb2My1RE4CUQ+QpFEKCZqWGYXYVyhHyWNnURpH1Wdwnd8GLo64+5/OuQW9p7IMIwyRPYYWvSVlilQxiES0Xr4qv/70Az6VhQoqxqm6EAU9LtZCN/K4Rj0rxNLoWl8LU7hWrJ1VEbPa8ExfaRV+vBTFBQUFBQUFBQUFBQUFPYXasvzfxGMPIHT8jGbV2hnFTLHwSgJMFVZyEwLhR4325o1TXaF5c9adr/lP3mGIl8vH3rMf1tUuoBZya7KGrSm27SGPC9hoIbLYD7lawoK/xFEGUJzPMRZjtLqwa9k5WGCFmkTxBVK26dtaBAm7UHkGAXzaMnXKhNFLqAZ+cNPUvifCFP3oIkMQRZDCAFBP2kYFpIshen5qPP/XJVzXkcwTZPPMWBoHIt+KS+G5JLsYk8vpRcwhJxDhVoUSOISjtVtupsXWh92rZpKKSgoKCgoKCgoKCgo/D1QWaD/Klgu9oYx3DRD6fgo6yHGbBsxbOiW7Gcqhc3/M4CVFYtawX8ylas9VL343x02pxiIGFrkItf7qHILvqEzSAei/L//lm2F/z+j7iEuQ3SEi15SIktj5JqGUM9QdV1YmrSNFHkWochKtJ0ercVClJBzknwK/7ORzOCBsIbr2HBq+kjDQ0W1loaLuvjPVzjb8GAKjb40QZJHdLM1LMuhf3JgWh468rxaZEjKHHmhwbakj+a00hCOoZKJCgoKCgoKCgoKCgoKfy9UQvG/CHntwjcNWEaJfp7CqE3ksmmJEyJk5CyKGoIBtFFrMPm6qQsGuwxyhWjOVfzvDq0IUJkTXN8IQoxB1AHy0oCej6A5/sNXKSj8n5GaJoyyjQTzyEUGm/ZCQ0Bu+BDDAihDWKKGRY9UZyWqVDSVZbbnIofakvo/HRn1uMwrEEcG6sJAKb+D0GOYFn1k9Z/vEG8UHtIATfWj6RnkTIGkSBCVCQpN+uS66eZsCgtuoUFUCa+Zh+cBdqIS1goKCgoKCgoKCgoKCn8v1JZnBQUFBQUFBQUFBQUFBQUFBQUFhf2GqlBUUFBQUFBQUFBQUFBQUFBQUFBQ2G+ohKKCgoKCgoKCgoKCgoKCgoKCgoLCfkMlFBUUFBQUFBQUFBQUFBQUFBQUFBT2GyqhqKCgoKCgoKCgoKCgoKCgoKCgoLDfUAlFBQUFBQUFBQUFBQUFBQUFBQUFhf2GSigqKCgoKCgoKCgoKCgoKCgoKCgo7DdUQlFBQUFBQUFBQUFBQUFBQUFBQUFhv/HvCcUSWvNT00z+r+I7MX8X0GqPP3NERonSsGCWBlK+niCDq2soNR12HcGuchS8tjAqaHoAp3CQmjnsPICoBezC4GAaClNDXQ2Q1zoMAYzMGl4Vo9A8GGUJvdIxMBJUtgc/LZF5ISdXoRQeSvmcTEDXXBgIgDxE7rkct+K8Auh1iZFmwMs9CN1FakXwSqd5P61NtDIHocs5IG3m3YaH0Ig5HxNCjBChhs3X9FzHkPMcz3POKWtkY5U2jJr3GRH4Nse3OF7Fedd8nzLielJbR2WaHK9AHXhIhYG2VkJUCWVI+XJ+Kdeucy1W6SHnf5agDOW6MxuWVSDg2uyM45g2El7vloJzLWCiQlRyrJrjmpR/mSPlGjNHp1y5toJrMYNmnjV10S14B+ee11RlZcHiGnPd4x8pCo5fGAX/pp5yA3XuNnN0czT6AfVhPDxfvRgBvJ4TQqXnqJyaM/FQZVwH55qKIfXvwTSHqCrqiXqmoOBx/MSk/Gub11JOVg6fEs55r5PVmDMyrt1AlEuZGpQB9S8EsoYf5Buvb8UR5ZU142Si4rghbOE2nNGTDKbkQZYhlpQlByU/Kof6TSq4msWxKtRcc6YXja78QsqMOhAZ9STgUuYG1wjO0yKf+cRGTwavqaiXgvITek15CTjg3LIAmlk08hvlJQwzpGzD/0977x13WVmd/X9336c/dQoDU4ApzAwgTaxBCbFFJRZQsKIGFU21YSPE2Ev0Z8xrRUXBhr03UFHERKV3GGAYmGFmnnb67vt33ce8ed/Pr4T377gveOZ5zjm7rHuta639ue5zFxxxt9AVcren4yN8+TyzA9FWrXVTVvR5KvtT2euLL458YhUPiG11ylJ+Vq6V8kWRBfKdJ24tkIjztqdrKt5iCKUVTvxe5g8SFYpfw4RnRCORPZ4YoGaUtqO4qiVlgiX7LNmZFvqtnDa8n1ZcndwiMefLviwZMwpCccMi8hVi+TDMlFbuH+yliMXV4SQ3LRHJy+RTt0aRZgzNgaoJcfKH2FvO4oQzpg2J2jilaxr+575iIl5Yqgep7LHKiKZ4NFb+mdjEVkyiQlC6ep2pEeJnWtSIxLtpvYzl+YAaVlinmybUZWjp1VnyV6iJd062MPGdrc8GoWKsHC2U/6kn/zmqWbqPrTw2tUvVjJGaZfxSqjaZ2NaHmdou3posdlYmXDWfRban64YTf8T+QLwc0B7WxbVQvO4r2uKHctvw1cn+w34TM8VezFZbc52rdqsu2Pl4koOpt4IfWWJZnUh+7evcmslh8awUJ01NrKvNqWI1UoyG1phCeeopfk6WEfjip/wxtlQf5RUTHy9W3a2b900LAmXYWHd3cVMlhfySlvpRzRqJ4y3FKlLbC+V65iv+hXI1V0vkq9RWRVM8vUTHK/aW8jHxE9kgfqt2mmdB5ske+c/VPyM/Z6x8cxyPQDYPnUz57aNqIY6pbqntQ8XXCRX/Ur5W3th2b8LPvuLmi0d2Id6IM7baWnqKu2xV4k3sN/kel2NxxaWvnJD7xHvVN3ExTyPZpNrfVMGKHeW1arzcYdkj1dFykiu26mMRJDSVB0uB7u8opqrN5vHmG9+o1uaqEXZkrqU6oLppyX9j8dU2lUN1xHyeq9Y7qr8Pxe8KFSpUqFChQoUKFSpU+GOD89o3vflC84dkmIST6V/UTylVbElUSvpOOjysAS0p5TSOJPUCwppEVNyXcAvo6XPf8RnZEl1FqPMlnCXmfNPZFjbIUn0mMRh7pjMskuiT7C3ncX2XaCyR67foJ7aE5Qg/jCTQGzSHIaUdEenc3GtLRNo00gI/X2BfsyedPIUdx7jBHPbYdDj5Ep8t7Ca0UkuCfiDxZ8u2AfWsIVHu6ZhI1xpKwGdS/A6eDo6jlLoVY5tOkriFI5HsStBG9QEzccJBOmq7rhe4ZLIvcxq4sUe9yCcdIZYdSOjLXRLDtcwhHPd074DAdSkD3cParzbMkbihRDXMSIAPWh55kkvPFmqrfBFbjD2dE8Ykw1j+LnDqDWojyGqJri/7Ja492ZXXTcfkGFt+aThS0IxwRqbHcMxI4taR0LVtR22w2KdQhKbTxjGdoZY8MmA+P8CSPctUOmJc1ph1YJhJJDeXiWhMOsYyNyHOGxNxb8notlNnlOd4QUai+7aGY/q1IaG3WkJ6mcCeIikyoiSk1TR+NB0Y8lmZY+UliemRUYwz+bxMQ92lR7/hUci2VlyjWcvIRhkdZ0SsFjlZovNbuncN17Ul7G3ycUEz1/2ZEZ/GtP0Gni47dFaoe1MQiR+5uNgZU19o4U1lHNDRTTvRfevU1faRYjBym4TioI2j9zPKmks+CMj8glj3LOlTTwpGpSfn58y5PoNc/KImy1LyoKb7ZzTU3prhhThnOkjyootXinzyU1Kr049zmrpHUCvpjQfMWi21ZUn+ksNHyotmiOuIkwx1VJ0il28UQzcTb1gSb9aRiRueYmPycRyUdGTvso4JWzMESZds0GLKsVlpWPR0fio/1cXZWpoSipdJy6cYpDQbOZn800xjerbpWGmqJYqr+Bu0xsaJ4rEnO+TXYorlWh9v7IrUAa7pXFYOZPF++UrXqTUpx/cqz1q0xwHWsJT/ffqF/i6nsZRnpjPadH4ftHqTDsKw+EO+5O5YuSfeyeZhHjKTyl1uRE3xCW1xvjAdooW43sHy1V4n5aDi5YovXdPPOIpZo/tGwYI4m7MqmZl0fGV+yFD3aCnniuGI/tTMpDY1MsUzG5OJt57qxSDt0U5KGnVLdczW6y540xOOZaphJsZDneNZ8l/SoHT7yjNPvvcITW0oGgyDg6pDtmqXeDAs9DtUtTMdiH3l35jOaIa8GSm3xVUnxklMTfHFCePPTHFTzRHvrYZqTuSa7mvl1oi2fGg4YP7LvBFFP6fWKJQfHfljQe2xiGshuXJjrBq4yp+efKlhR4pRKyXq1qgr18ZTAzrdWVJdo6d4BcVQ1rXEReWU6lOQqWZZfaxQtaKvnApV4fOIFeWqJz53s5LQH5Lp2uZLo9Xio6PP9K6uoPqr+l4kqhcd0xYbz4kIoyYHlLvzeYf97gHWWq7qacE+r6BWhliR/CHfpUkNx3yhgc5N+7h6RozCgKGeC062Ip/NqT4X5KFslm+swGY6Seip/tQT2Vy4qulNxubLkpqeMapfdk/Pp2nzJcxA8YhpWfOk8rdfLNL3xA89Ixq26pr4M7YtWj1xxerqeaCnmJ5D/bxH0JhXXixSqFaYTkXzpUquZ595rhR6zmVxqeebuF+s+i/5ndnm2VmhQoUKFSpUqFChQoUKfzz4TxVkWaYTUT8TmE5Fm3LSsWi6HyIufMbJbDv+ZP7+8h69oURhfXYyeqPzy3/gkE1Hcfgzv8xeZz/u7g9z9s4trD7qRVx23UHsRkph+bQlRj0pVa90GFkSrf1l3LZHPxvQcELKlgTxoEO0NML5t7ey5fBNHLrjmXz+vjH+uGTJjxk2V0naNgkHZuTSDKFEf16u0Moz2ZJL60mipzFjidGhhF/TWcXIS6jlMakEc5a75D0zaq5D6i4yPngRj955FGs3nMW/LAywjMh1HoTFJoOgje/KE66uk2USlQlWZpHK1sivy0OWlGci/2RYSUTXu5X3/OUONm07glVbjmXTkVOs2fwI1u7YxGt+lZJJjB70JU4lgs2AlmHdYSqV1C9TCfyYfpEQuHO0TAfccCwBP8ArOuTBEknuU0rYlistRnaTzFqEvk1uOhWbsvG+S3j6zvUctvlsPnZnSuwsMJeF5EU86fCMdP2aO8VKOEfNkSAuA9pJzJ5cojyQD+/9Ns886gTmj3ocl1wP6y2XQW2Rjl1jxfHBWWFFx897AUnDkug2oxohtUPiLCaUf7NayKAnYe71TA8rgU4L5SM3q5FEI9x0SL3hyU++4gW1eEy/XKA7buF7Lj0zSkzHlrl4UgyZd6CbLeLFDl5d8ZXT7LbhaU7SM22UDaYzyYzuqg/IQh//YM54tmAU26xORrLDwq6Zbso6rgy202W1vYNd5DTMSMbUwZ63KHLZEPdpllMQmFGFLpnfZNFK9F5ARkGU61jTIa5syAszcrdGUY6w7ASnDBWTA4ReG8+MNHXED92jGJmRa9PkppNmOKN2eeK5x7L4NE7rjIsZymIgvpqRqIqD7xMEcyyYDuSoYGj6ivMhtUS+8qBlOohXTAd0iOjJghtRv/nLnLPtSI5cfzYX784Ytdr08xWivkjW9OkvxrgN06E6pZg0xRkLy+3q/im9UYklLmdZgZ92WCwy7MT0RBc4pgM0FsejLk1vlTgZ4KS5/l5NNJLvzGiylnxSrMi9XcXZ0LZHw5XtZhRxay2zunbhKV5uQ17zSLMxRTrNhFLK0SAuGMt/US6+y7/dxBZP+rjJMr1uR3XioHzbZpU45QQh3VjtGtjUrRapZ5MqngOrYLU4EGdykGpWQ+e3A1c2DJU7ZtSZ8nVkasEUWdNiGGeqa/JpMCMCx8pd82VGV/dZpK5a4XpNRvUHsVQ/SmtMqFiVtu4rnwZWE6ewKZZdiro4MVQ8VMtq+MwlLuPpmKJnvigw3cl1EsdhrGvkywMS/S5z+bOTMO5F2KbDLaorJi1EBHJUBxCnxcEwDCfcMSMj02xa/O4QjlVHxeHpYJ6VQT4ZvZc2XfqqxfWwK/67+IuqrVMjfZazepTrfqoPgermOKB2/9d4zHE7WXXsq/jk3VNEdflFfo/Fb8/vMJ168mtCOJrCl887Eazo/EHmT0Yq+vaYsfzrtlzcJR+v35SPptjr7WG21hRXDzJXruFAoafFOGNd1p6MGLRs+S9UztTNlxi3i+8BU+E0g/s+y5M2H8L2w8/ja/c2KVVD/fwPI6bdwowt1r1dFbdEsQ+nFCMzWlzx8gOWY9UbeSzrqEYOfPFlhqnavO67oHpf6nnToKHc7IgbkWJgOiNr4mnYkDucOVFZ56vWr85nGEeq6+JIoIpuvhjwLeWLctdWm6yRR6OmPC2zh+R3hQoVKlSoUKFChQoVKvyx4f8xrOJ/Tt0ybzuT36UZz2SNWO1ZpBJ9ieVKWJdY8Uiizow6zMgsbzJSKC8Lyjggt+ZIA4es3SHtH2RVPNRVFiT06szENQk4Cfegjj9YoREn5N4yzpJHpy7h++BlPOHcz9M/69Pc/sBFnNeRYAsywsQnv/UjPGPrkWw587PscWIOmHmfVkC3EVHzh+SZhKgtEWhLoNcC/KQgLRwJ4ljyXm3xfBx37aQjtJTgloqFus6RuA8kgr2ijS0xHa6OyEcFTnZQ15D4ZUUC33wW6fyBxOgAN5SYNB08toPndXTuLEHUJilnKKNlxm5HIlaqXML/q+ds4W0/2M/8SD5xlykbObVozDDt4szIpkGTQII+SuRXq0YaOuR+Q2Je980KWgwZdFzqtZxVw0KiehqrPcRKh/iRw0A2l4Wuk7cwqjks19MvhwR2iGdblAOPsdrvjGzsuKTX8kmaBXOlmcq5CsYS22OJc8VwHKQMsz6HdFex210gcLtkRYMZXdeM8rIGEuyKeeKBa6YV5z3Z2qZdjCbTUn17SCfvKhYFscR8p7+CHdQIJdD70RLeOMIybVIQEneOrG5GfrpEeq/eki9xscWnlXhA0zHThm2yzEzPrhMMF8U9+XA2JfUXQG1JHDNaKtAxSxStADexCC0zmnEVjrgadxMiO56MzqqJf55ikjot4jEE5QGK4YLa0cNLdax8NYpdkqxrCILvm/eySSeDH+Y0M5eGNcXQzxiHEZ5SpIjFE2qTDocsH5P3VnC9krFCkSpD1HKS3CJvunqV0FdMpt18MspQYRb9IlpJg8xbz2KueI9dndHH8btMeT1xuS2ehbLBk289ph3xvEiIowHc+zlOe/IH+Pe/+AT77vokz93Qpi87ZvN5goYv4x6k7c6zrDY42YhlcbqRiQ9qZxq0CJy2mbVMGPSVwzapcsGXf8t0TKy2NkPlowUrRZ94qkmj2ycpQupOn4bs7mdjRtNN6NXEgf20XN0ff5JP9oqOTRL5F/nLdOibjp5DCe0Ue2TpmqbTXDmtGEfNBrZ3gFXi/NCtiRslQX3MTD5LM7WJYvlJ8XAdn2F7Rhy2GVp9tc2jNvKJ3JF43iUIPKWbq1wdENVNJ5ZyJlH8FJyhydnYUns9vJqv32bKcsywVtLI2zTNFF87YaySEKdzqhcNavK9GfWbKWZF28eLZW/p02yNFCO1o1ESFTNmMKvi1ySNTOxr8m8iPrqqn2PlbkZd7aunOk75YA9Lne9QpG35W35WHNNGqpxWLTH5lare6sd8m5HLPjPieySuJsofM9IvURtK5eiqxMUpDhCpxjqqu5YZEd7KJnWrKR+aUaC+68vXAVZdUSm6WMkQNxrKZ12G4kRki6RuSrO/rFpqaqb8X4sYmFHKdfF3SnW1NJ3jnjjs0g5K5e+y6rFFZAYGj/fTUMyyXqJcak9GkrbEKc8xI6JVO0oRXO8NMrVLdTKwD1F9zlnOFuXXjmKr+p0vsN+MnGybJTPExVFNNaFOuaJcUv7WXJeeeBbbAbFyiFw1ILNpezbhcpvYk8+V77Fypyb7HX3eC2PCVHHIaoztJdVsM1W7rhqTqFbvx+uLc5lqj+Mxqzyc13OCtEOi54+Z+h2HHqM8nSyHYKvmOGr/Q/G7QoUKFSpUqFChQoUKFf7Y8P/Rofg/OxX/J8yoRQnVcU8izJKyb+H6ZtKXLRErgWnluK4RZKZjpo63/fl885pbWLzufTx9Y0LYOERitClh12bQGLDPsWklbepm1FYwK9E2RVzUqDd8FuMRew8cwj/fehO73vdnhHFbwtWsHSfxH7is/PLnXDecZtwwnUIxTdnlNwIKswBcWSNwd+vYnHjs014ZMHRXaIU+K2aESWxW5rJI04Ru8wCJvYrmhr/mZ9fsYf/1n+BFR5hp0Tou90kHrUl3auyuMnqe6WKGhsR0IG+ZdR7N2o/d4WAyWjGz64wkxm1JzTBbxm4NOfYfL2fhtvu4+47P84JRg9IZ8enfXiNRbNPJJOL7Q8qG7PWmGQ7MiL59tCSeo7bFcinxaxWUeZfmZAr2HEnaxhn3ieW7AfXJmpA9iXUrb7BQq1GTL1yJ7jyTyM3NOngrdPLxZIrx2I2YtkJCq8eg7uGE8lB/wPKwpAhrNHoRtU1/xTduvYXd136Hl25vsdAsJeqHrDaiu1/SdBSBXsxK4JDOzEi0z9GIhoyCReYC3cOMVjSLp5k1JuNZFhy1Oe5iq439uhmZt8iyEfMS5MH0NEt5RORPMSebaqlFVC7TtObZ27sPx3EZ2b64Fen4AEu+K5kiDxPSPMROXfxRgZvME+RtvLpPOfaIGjP49sFJJ2suLsRhTpo0mfFapLUpBuGM4snEN6k1IrfMdNTVMlqsUDztmhk9J+40GpMRUbU8oyxGjMcx1Bokkav7r5CoHTUnxx6ZabM5edOMTrLJaqtY8UodaqZNJvj9g7i2YuaOZGuGN8px4ozpfMD8YFGn6LrJIivNjljcJ4pW2BI0ZfMB7KAjH4j7UcLA8CEtGCUpY0W/Gwc0Qt2nDFhj/Rkfuvcn7H/HKbTMWn3+mLn4AIthhNN9gLQMGdUKZpfW4NcLWmbtTQXLZMLqOGF5bDN0IgrlRuku0GYZP66Re3X8ok7fSXhA8bVrLVpRn+WG6WAbg2I1sFOSQNwf57RtazKSNA+WibOcB70m0/JL4ag+tFQTdIqZaN7yU+WYfFL6inONdi3DUkmpDUeMymkG8lVT8RmYIbxWU/VmhZ7yz3MbLIkLceEyPexhuSmB7jMwI/5qFmU5w9B0covnqa7ba9XIXPFoOGak+44C2a/rjTyzrl+i/NLnSZdWESinPeXvCkuFifdg0iE+k6UsW+JBkdOPYxIvpj3K6Km6xM4KB6MRfb9FoPon+lJ4bXqJeOTW6bYcaj1xpBwQqH15nlIq/nK52rpoVltQLE2VMqNSS3L5lKIlv4lHDR3kpfSCGpHaNjPq0RFXa/5Ib9/PMFRb5aN20GZJtTizIqaGBUXuiXv2ZBkAM8U3yRxdUu0aJ3od07dWsbjhXH6wZ4m77/o6L9pos0ptrSc5kRlRHMwgl4kHCfVC11G88rxP8GBK6DxA7HVJ3Xgydb7vym5xLVZbvOmAqWSK0vNUU2Ma4qdoQeTMKPYB5Uj+9euUTU/njgmKjn7kT9X72vYz+MY9+7j17q/xyq3iu2xPFY9+LcdSvWg5vmJh0Q9VL0vjwyXqffHGrtFsBawM+jgtW7ml51C4X8+kOj3Z5qomBMlItcrSsyVWxW9NpsS7nvjj+sRRTl01s11bJB4ssaRnUDfwVe9S1Y4mdqa6Jn6adXjLTqTrtEUx1ZmH4HeFChUqVKhQoUKFChUq/LHhf+tQ/MOfZZnr3z90KlqTbjW9J/HbDk1vmllbr6SbjCUazeYfZgF9fS4RRm2WetZhcMdnOeXhU8we/Va+cJvEfPp93rjzSLYfspl3/Wwv33jePFObT6Sx5She/8OAheaQdp4zGA358YVHc8KL/44/3XoEO+bWs/Htv8MZmNFiKVe/5hCOfu+1NAKb5Mp/4LRNmzn1c7dMRkeFvsM3z9/BmsPP4NDtJ3Pow4/ir37Txs+nGcURq+68hKds38zqzbOsPWk7Oze8nIsPLpPs+jh/cegW5k/8Ky7ZK7EsgZ7sfz9P3baekzZv4cgjjmDmiL/gf9zzIP1dn+BJ205i1bbn8pXb+zSdOs0ipS8R3XEL7NJlKWxTLiRkgUN/uCwpewqnnWumhTbgxgVu2PslHnHsRo44+tW879aCuKnzdn+XFxz7GN3ntVy3OGBKojqVeP35Pz2Odes3M7dzhjXHbOXCq6ep9fdSBjnOuMvFZ27j8J3HsOXIJm/5voS8swZXMXJ8CWI/YFhO8YsLD+ewbQ+ncexq1qotb/+pizdq4+QZszMu6ahL7Ftk+y7h9JO2ccjRz+aTu4bMRb/ktYduYm77IbzxdyM+9oyjWXXMo9i8bQdv+NYKDbqTUX/u8AAfec7xHLZ9O5se9TwuuuIyHn/Metl1Hp9YCnEXvs3fbzpB193Je6/4MW/cehSzp7+fuxqzWHnEd9+0hY1H7OTwrY9nfssaPvXrKXL50rEWsBd+yiPWm5ieyubNHQ494sV8dq8rUX8z7ztzJxs2r2P99qM4ZG4rsyc+nU/fOMZJDiHzr+KNm47ksCM28oarfsRfHz3Nxif9KwdGiu09X+Dok05mxxGP4LCHTTM7fxqX7p6edN707ZJfXTjPEeuO55BNm9i4dTuv+f4crJrDWtxHEJZE3hS1hi+Of4vTH7aNbUe/iO9fs8yIfRR3vIfnb97G2k0v4/tZQVjfz3lbj2PD4Sfyd1fv4qNnbWDdI3Ywu2EnL/xNS+04hJFdp23VxKA2ZjRpr7iC8487mXXTq3jjLxb5xHOfwOpjj+XQY4/n7T+vU5QNlruf4qnrHqHYnMUF2SYeVqwm2f0lHr1jK4dsvpBvuKtwiit57XFP4YitJ/OGn4350XsPZXbTdjYf9Rf86wEzsvFiHrXpOE562DFsPuICvtow6zNOY2V15dqI375lA1t27mDtIRs4Zuc63vSdLitZQl77GX+3aSdrtnX426t/z4Ubj+XwZ17KvbZD3pjj2687nC1q82M2rKaz5jDWvPVarFGPMCyYTgP2RUv4VmvSsWjFBQ8kQ+77zDPYuPkEtmzZwqGH7+CUS/dN1qNrqNxc/k754rB1zB4rjijeb/3lGDfvUONqztt5NGt27OCCy6/mxZvnOewl32SX+YIjjbjudUfq+C1sO3wnW4/cypbXf5Gs7GI2E6nnLdL8AXxnnrQesy9W/QnWcvs3zxXHTmTtlhOVcw/j6Z+/keV8ibDd4eo3Hc/qrQ9n/dajWXf8iRzzjmsmU3GtbEyQfpcLjuxwwta1/P2VdX736lnWHXcMq7e8gA/tblHc+mlOO/5k5o9awyEb/5lfeg6dwqZeJPJ5wtWvW8uqzdvZuG0DGzbpvDf9hLl0SOk4HBAPhuOQUAwps2ls66e8fsPJdNYqL6+5k08+8zTl1mNk7wm867sj8jhQ7fkO569fzyFHbOLC317Pq7YeytbnvJMD932VZ2/ayPrDz+STe2Ny+wb+dvN6DttwGi+6sssP3rSVrcrP9pHncel9Hu17v86zTj5c+fdsNm56K1eVs4SFNRmdZza6ufKvj2XthsfTOnI9a47cwnt/KOpYY1WGL/OGbYdy6JYTOP/Kn/Hiw2c54s+/wpI1RddfVo3tM+d7RNd8kmduXMfmw57B5+41I91v5k3y+wbV9b//+V7e9epDWTd/BNsPXc97fgVefU7Pm4zUuYF3PfVwNhxzItObz+TDv/0mf7rh0cxvPJ3P3+ozlV3OBYefxIaN63n5b3/LW7cexuFnfZyb9EiL8wFXvu1UtWcT0+LGhpN3csGvbMZpH68/ILjvo5z8sFM4+TDVrGMarJ55mp4LDl2r95D8rlChQoUKFSpUqFChQoU/NvyvDsXSrN9lgWVGB2X/8aZem5/SZm8W4Gd9vvqSHRyz43AO23gIm7cdy/S5X6NwdZk0Zj+9ya6l8z0P2+yKWYemY6bulozbGZe84Mm88fIZaPXwC4dLX/s6ro5rjL27+NLzt/C33xxCZnbDbWBLTBefOJuNZ3+ee62Awm+ABO0wjyimWpNpvX7pTTYu+dFf7+BvL+1Sq0XE6S7KQca3X7yTN141ptz3GR739PdwtWM2gNlGoM8GowFWYjZiGDEImtTHC5BEWLsu42lP/DK/L/vsrUnEt+QLZ0hSn8fzUrlFvnDbxDrHttzJTqJmkxlb53qpR9PzcP2EMHKYbUyxEP+UKy8x0xBdvMNbbCz/sFmMPygwY+PG0UG9jtg/zkl9l6W1CXk65roLt/OqS9U2p4Md+7p2wifPOYK/unmaZraHT59xCm+9PiVnUf6a4cv//GmuWzFTnHNGkY0jn/78HcdxxrcGeOOB2lBQ1EoueVmb1/2bznFDki7U3Sl8W3Ht9Rj0WniBR67Q59k0/YlInuUz527SvXy1V+eVQz5/3j/zlUaH0N3Lt85+Am/8tT5zlokGV3HBee/i1lLnDXbr3GmzrweOFRMOCz75qtdwUeEqZquZUnsvv+AIzv6Wi6sbZqlhWcg/v/x4Xv3TMc6dn+aZD/877ggcat4iY2tKTC0Z2iNKxya0m2pPczL6ywsTrPx2Lnzqm/he3XQqDonV1qZ4fPFLX8M3ZAfumOD+z3DGaRdwz9hmLJ5SzBK2QtImNLIx15z/Jzzvm7PixAEys/OufPT587by5m/vJ+8cQjIqcULZIH8G2RK12CwB4NFzQnzZ0qRNz6rr3ptIWnX2DxeJ3WmccsQlr3oeF1wX4kVKCN/hiy95Jz/LFicjBveOH2CmHDMwU1wTsw9xhjUzJd+exLuvlc/FedIlPvny8/m3sks7M6Mv76OhY81IrXTUm4ziNBsZNaIGDWs/oRMzNLtnq12//x9/ztlfUUyykL5zB+967Us4/dEf5qaZg/QzcTv9Nn/1hmuZynI82f/tC3fwzMvMTrwOjcYsyULE197wSD74q1B54qg9e8WDOb7/klfzVWsJaktE2f38y9Nn+PuvzVEUA5bD9bjBgPCyc1j1tC9wh2JmdvKeLluTTW4KM+rZhd+87eE89kP3TnbvTT21WznkM6Uccvj864/i1Z9XbJR3ZGYUr8tnXvoY/uq6rmzrMt3X+06dS15yDr+qiccrB8S1vVz03E2y30yRb1E4HkOzzt03/4lDXvRF7kxV42oOSRGoraXyMmGd8vVHf3sUp/3Db+gonkWxItNk36DBlLvCv55xJC+9SLzLl2k5+zFzysdffiUbzvoa96pems1Txvk6lq1Zbvjos3jxN2vkZlC3cxtv/5szeOJTL+L66AFd06xL+Ume9ze/ZsUNZNcdfPHZJ3LuV5SvZlgfZmq+eP6FF7L2RV9nl8KeDYf4DZflchV5aEZ2r6HhiOO65+dedCr/dP2QLFqWb/p8+m8u4CfNAFscyxqGa10+dc4LMKF3xXWzzEChNniT3eMD8mhMPrVG+T9iz0dfzvO/WpCYTVg6v+Etr3oyj33ShVyj40ZWotz7Ieecfxld16yfWucHb1vLud9WHVMedeQrWzX44+ft4HVXzjMVtBnKtw1rwOfOfSk/tA9TjVROmhGPsakKMywlBdl8SCm+hcq1Utdp54uqVSPSIOPrrziD9/xCcZopGHpLfOxl7+LHxZDc289XzngGH/+tT2GrgBU38qEXvYfb9PgJ7XlGwYgD7Q0UcUmYJXzr3OfxuVJ8i2bxVHt+8c6dnHNJX88bm9o4JVZUPvvSQ3nXL1Tf93yJv3jCP3Gvcm3FWiZlo/I6xLXNSMc9D8nvChUqVKhQoUKFChUqVPhjw/+mhP7nnyVmMxbL+o/XpfltEzgZtgS6pc/Nov9m597YrMdWmCmHZuQPeM6IJDQL50vML1vYaY2hWUdQoh2J+fzsT3LH8u9Y/sHrOC5OyVYu5cOX3I19+2/56m/nGeYeL/7Mjey542r2fP3vOaFpEd38cf7llyNOedu1XPP6k2VLjrX59fx47/f4xvPnKO/+DP/6gxHj+vH83fevZd89Ay59nk9f4vLiH1xF4/bbuC6eJsyfy/uv/wV337mLAws/4S/XSnhLXDeDPkO3RT/0aN67mxuj+5iNz+Mzd97P7n+7jQdu/QF/PVeHda/g23fewMEbP8eL1hf0nD7LfpOZrMPI9RjbGcNyCb+Y4cYLn0B7yxo2HPsmLnIfxOoczQXnnjpZ6yuMp4jky3HLbPYiUZ07k7XJIKDebVM+8HXe/NWIUbyG1/ziNu659z4ufaHOswIu/eJv6P7+Hbz1JvnbdnnORw9y75038qM3bSKecxhGMTO1Fvmed/GhSyS4kz/hgp/ezMq1B/nqn0+TWWv55I/ugZpLaRbPk9heynNGMxbNcEy6sDTZwdsmwbFDgjTBeubn2LvrDvZ95C/EiWlK51r23zJg5crP89f/7sCUzdn/ejP379rF9a89eTKKzrPCyc7AtpnC6wzV3hD7+PO49tab2fWFZ7Ppng/zga+tVSiP4W+v+ncW7r6Gi89yJfIHfOXKaxkd6PNbs15b+gI+dte17Ln9RpZu/SKvWu3hxsfyV1++hptv/XcO3PYr7r7ju7zAXsbOL+PyH7VxnM5kCuLAasCjXsi3b7mVlS+/lsN238Lvzfp21rO47Lp7uP/2X3DTXd/jRVPLFPu+yZu/qJPiw3nbFfdxcNeVfOmZ4mywwqU/uYUwWRFP7MlUcaeUDS2XoTXS5z6e3SCN/ckmJY69QH0Y4/UL5uo2q0YHFdcQTv9H9u+6gds+8TScOFbs7uau+wMGRcxat4PZ+2QqUT74A5LIo8wKBud+hoO37mXPx09R7NUW6zpu3zsN45hgtJ7cLenli2SB7m9ZDOv6CQekSUv+NjvPJrLN4+4j38Z9N93N9W8+DDIde9NvWXnn19h97QNcerZuXI/JbruVO5W70R2f4hNfq1FLTuRNP/01e268motfuYZkecj/0OtIvEiDo03fLt0dr+PHd93Fg5e+ik17f8TPr51Te0rOvORW9t/8A+790QdZWyvw730fH/uuTeovYbbacPyGriI/Km/f982cYmGF4y/4Nw5cs4d9ez7A6ckYZ9clfPYbK8qpjbzulwdYuO4AX3nWrMrQEpd+8ypce4oDs2Z9RMVgx/l894bfcP/X38QR9/6Ay25VvXJcnvvPN7Fnz63s/f7LOS4awr+9l0/9LGbZ6bGqmGIpGEzWrrTu/xIXfH8g36TsfPPl7L/7Tu64+z08pe2R3PNNvve7AeNGnWdcfC+77ryLgz9/O9uKDH77Ef7lKmWK6tyoYdbKPMjtR76C3Xfv43uv3wxFSuu660n/6VL233qQjzw7pOHO4+65nV0mw+75Fd+7xXxBMuZZH7+Z/TeJdz99ASfW1zD69eu4+FcD5lRLFqxcv7sE2YiRs8x9ntkEaQ7O+Dy773yAB644j1Pldyf7Ph/9112qjuJHmpM2D4GTXsXl9xxk38UvY1M5ZhSq5hVqa5jiyZZ8qY+bZVy/9bn0brmDX775KPKe8uGBe7HP/znX3n4rX3j5g7RGOdmuBe4W5+1dn+O9XwqJvVP4hx9fwz033caHnuuoxLe49GffIh63aevvgVOSPerv+bFyd98XXsJa02HstVmxlD9mTU8zdV3Plsg2a6n64vCYhq92mXUin/UBFu4QH/7lecrXabzyLnbvks+vvIjX/bbJQmOZV3x8iT33/I5vv34OP3eJkoPMhC70ryNrqta19HzaeiE/v30XD3zneWzb83k+/KkekXcqb/vB77jvvgU+9xyf9tjjMz/9Btmeu/kNOsd5Pp/fda94cIXi/SNe0lkmuO+qh+R3hQoVKlSoUKFChQoVKvyx4X8pIctsIGJ2SnWwLNNRKHE2eT+dvNeOzYiOnGddfCt33HofS3fdzr23XcviJ5+JbQWM7IjArDk4tlk0U6E7f3jPjK7LzO65/sN570tOohbZHFh3Aqc/uonphTQ7n979i+/we6uH+7DXcPYpAWaSn3vY8Zy9wwxdi7jhrj6lW5IWEsBlA8fNGA3naXg17rjiS/yaNv7oVt7+hKNZu/UInnfxUA2bTMbGPnIzxxlx63yLVx61lfU7nsVHb1qh9O3JYv35sAOe2STFZ7x1mofbsywGH+OcI45i4zHP4ON7S2Kz3p1TyJaMFf0O8oBGAq0ilnAeS9DqI12v1fcY1uQl36KR5Vh5gr3jnfz6pot54WE5tlcnDffpWjZZUqPQdetO+IeRacOSUafH3Zf/itsSn3jqOj7w+E1s2rCd512SkFgrkxGfe67fT93Sscecz9+dsoAtH2454zU8P1uarDnYH/nc/u+/5pbIdP7ewj886Xhmt0/x7G8v4VgFM1FfcRnQzAKyIqeOQx7XJxtP2H4dd+Sx2B4SZiFp+QAvPvV0zD7f8dYTOTaJqJnNY5oN7rrrOjp+gLvldbzuURG54rLuiadyTC6fu67a1WGcWIz8RHcoeOnLzqMWdqnbJXde+X1+b3Yz4Dbe86ePZ04xe/GXMsaBjy031+e38Ai7Ib5dxEuOOYoNR7yMj92bURQ+UR6x+9NPY8vmHUzvfCzbNz6Lz9lmob2YfqqouyPxd6zrpDz95edzRLkslg+INu7khCwltb/Hc446nEOPejVfuW+Z3Jrmjl9+m1uKgrJxM299/GEcuunhnPOVWSjExHiFpGwxjAosd7XaFmDFCb5dx859EnEo8xRPy8dSLEulzcCP6Oe5/N2e9Mc/+88eh5uE1I7YxA6/YCRbzfbcwThmXCtwEpuel9FKlXeOSTmbs055InvDHrVDjuKEXHnpNeXPsfLIpaynRBxgJpvB8fs4ZplHnWNyz6spp5IRmW+mhyac/fjjxAub2dOezMOsAf7wBF54ynpikfaUU18wGTVpdl0uyoD7fvJLfiM+J8VNvP/xZprvVl70aQevoRt4ZvMSs25ql8Iacc5rX8g2cTxWvO/+2U/5N1nknPhqznlUG1v8bq05kVdvVs1QvK/Zc4BYfJ8yfdj5Cp7T5oaf/YDrRwX+I9/ERS9oM3L6NNOn8Zcvmef2y3/E74K1MLyFC0/bzpodm3jhZYu0dA30f5p2mTUjHVWj/vy1Z7KtMCyOufVX3+X6yIKj38BLnz6m1XNwDn0ap58sn5YJNz/Qoz2KlUsxtUw89zx2XfFTbklLnBMu5J9eukZp7tJOn8orz1rHrl//mutV2zjmdbz2ERZZOMVg3TbOOUbxUD7edsfdNDop/qDH2LJ5zmlPUr2LOOa0P+dktbWfb+Jpf7ZNzrV5ypPPYqXsK8/iyXqX3Suu4MrxAZxHvpdXP8ZmZOVkG87gjJ1mPVaPu27bzVA1z3Sym41qSsWnIV/XZd+w3MD5rzyZRqQ4H/l0Tjl2lixYVJ2dIchqpLWE2mCRs17yatY7D6g2mU14LMJ0QGfo4yr3+6HqVmhqus+zH/9Ecl37iCcpf51p7N6xPP1Jm/Edl9NOeBa65ORLAsi46RdXcZPa5nA5b1ZtWXXU8fz1pap54k2elbiotgYjat02L3vxq9ke9IlUwz1d10pVA83Uc9d8YaHaYa5TKicLU6sOIS9UG1nm9Kc8iVjPA/vIrTwyMZt+mXyZZ9ed18ozIzj2Ap7zGFPdYeefncM28dz020exRSdTjHQ/N015znlncbhT0/1T7rvi61zjrdFJV/IPTzme+SPneNnFPXotJZz4k248ghMKXaf8Li/YtInVW17BJfcvk7oz3HLVtx+S35YpXIpc35afzZ9mUxdxYuRYel6YNypUqFChQoUKFSpUqFDhvxf+f4ZWGKlmRJD5/QeMgunJlOhGskToB1jjPi0pwhUJrlIi2jKCeDSmrmMb3pBkdJAwd+g02gQs4Q1igsKZ7JLZ9tdRjnVrXa/ZS4kaCZnO8Qp/0umwXLqMZuYnHVK6mv5bJE7NLp8zZFlOYDYqkGpL0jFts1HHeEwS/jmX3HUtB276Hcv37ee+u+7m/vc/lnTVmXzz1h/ylmMaFGakmbWLfzj9OM64aA+YjoRAIjJewXUyrDUv44c3fI93nrRW2tnBSW/ibY/eyF988V6C2KewMuqB2ZjBmuxqnWYZDbkpsX2iokfH68hRD7DjTT/jd/ctsPvOW9n7tZez0W9Q86ZJzNTHZIqw7DAwnXP2HL3gAEO3N9lcxh/Lv/EYqy6/j0/ni7/bzQN7b2HX3bdy7233ce87/oygVTLKWtgR9Bo1igUbe+UubszmJx3BgbtAOTI7vuaUzhP59C23seeeZQ7edhe33Hw9N/zzo8mSgHFopljq+LDLtMRyWixSeA6eYlIf1EjMNGl/Dt+TjyzTabaAl7ukQVe2JUynHl0k9rOY/swh2P6y4hFQ1+skLskLxUjNmIrWEyYOWZngl/KB2e01aSuuK2Lfk7joup8zvO0Odt96HQd238F9b9yBs/W5XHrH1/jnR9rkwwGFfS1veuIGnvTFe7BufA2PfPeduLHDljd8nbvv/wIv7bnkucd8Y0y332LUmsYSf2fiBxTvVRy0dM81Z/PjO37OhSfuFaWa2L1reeOf7uCMS36j9sqcZp1y6Vl8fff93Lb7Nq656Tcs3HUDd3/4T0QFa7JpRWB2FpcfIjP1WjwsWMYVO1cNlyhN5/lCn3Fg1tQsaQ+bLNUVh+IgLXk4NePyZKPZEdoeL9Aqxri1Dv20jh04tPIWPbuhPFOeiA9N5VlL+eI0piYb8HRGJbVaTFmkWGaTj7xNEQ8YpR1xUrnhF1iKaVm28ELD3yblwKfUe6N8SL1o4nlmV9ya8tWlZTo7shXKekIaDWnI/mHLdAyvkPun8OWbbmXX/Xex566buPWmXSy94RQitd1MtK8xz0HTuZ9O09G9y1y5/xD5OxW4HLTreKnyJjbLAwwJVV+SoMPemse0cqfnLMtu02U0pBzuxwueymdv+gl77tjD7ffczS333sgdb/rzySjaotckMiN+7SZZYDMU11ojs8alElJtFQkVkwWF2mdUiHuqT4VZ0qE2Rd9qiKdd2m5GHiuR5JM8swk9l1Lt2a/PPHHGHqdkqaV8TBm7FmF/wLxTo2s2n1L0h02b7ngtVnsNvhkVGvcwVOqWocKjSlgTzxYT5f5INQY64mxdObCkWpGnbV13XrxVvqsU+jVftWM3K3mhmDTo2sVkZ+9waiyuRQz8jK5qku80xTmL1bQno1K9eKga1hcnGorvCgNnSKz2jlV3bcdVTVk3+SLGjE4d+036zRxb9GmMld/my6MgZdbR8YYX40DX7ikvRzi9xcnO0HZ7NWOZn+TxZCTgTJ7pPrIxeSYX33QP9+69iftvu5F9d97J7neeStpeSxZnjGe6k+nBReziqc5l2YJipXjpCTGOa4pXjUhxk4lMmdGT5RJxKO4WyhY9K3zl0Ehc88WPUjXFVX0aTYmrvllyQDVUn2eq/4FqUVN+tZMZ5Y7scmzq+YjMreGoHFvDmNlEz5ixCKI42PbZfOWW67jjnn0s3f0gu264kaW3nfKQ9eGh+P1Qz4cKFSpUqFChQoUKFSpU+O+G/58ORQMpocl6ivrRYZF+ORJKZudT4lTCLdSPN+lM9CS2zXpYvm9Tmh05da7ZddMqLJYHY5wyJ63dzqd/dD8tCef4li/y7eslTOPVrH/EdrbO7qQsJDB/90Hed1XGFC2Km77KZ+/qU0t6HLNxEzOpVK25l58z/N1u7pIQz6xZNhyxg6JjjPsu77roARzPIo/63H7Rp/hVP6VoBDTLOc77yrUs7hrw0TMjXWeFX+++gVFWxzU7RNcOYay3662Qg/X1nHvRFezdvYuLnmMT+A7/dsc+xkGJn1oEXYlTM901M1NU66Rmx1h50XIbPCChHrQ2S3gvSxQPJP4fJCnkk4GErBzou4dIJB+gbv2Wq366j778ued73+fm5gxlZHYndlm7czVFNsJyfsrHL9sHQ/mpP82Dn/s8P4mHzM6uIwx0vXt+ydU3NKjVcq6+/CfcYvXIos5kp9lNG7fgpKFs/A4f+ux1uLK7FtXp6hpX+BLF9gCv5xGkNZYTyeHCxTfb7dr2ZOquTYqbKc5qWJQrmslIcT4U105xYneyY+r85mPlc5/2NVfwvZvH1AYOu35zGb+pJbgtn65bkDqQN/cQ1VLissWqwYHJmm0bd25HDsXPvs3Hv5JysLQlvDNu++Sl/HAmJ+/3SO2jeeFnb+PgTQtc9oJAtjW44e6buPvaJbLMxXrJJ7n6nMMY3Hwdu6b0eSlajj3xQ21LhpOdkRP/EAZBjxkdHym2g6LOqz99D/df/wu+dE6CHbT4zZ0x67edSDtaUXyu4h0fvw0ni5gKbO787Kf4vvxoFUNG+RLx0GWWOcJiFb7pjCmv5ss/vY6BP8cDP/82N3bm5bMpiqhJ309pF8vy0TRxrnwIzCg6s2OveOTMTXabjRjiWslk3crE6SkHzKhXB7cIGVsB40K5UkSE+qzrxYzTVQTinZn+Tu0uvnvVgxS5zfWXX8o1ihlFQBmPGfSXmU8Vk4auE9Zppy35RlEddSndMWXgknTHzDVXk42Hcm2dYTTFkWuOlJ/nIPwpF172AP5CnVrb5f7PfoYf1EOCchUN3SeVf+cZk7oLjLy9rFt30kPmb2J6/IK9xKZzNzzAhkN3mgGV1H/1QS75qdlBuUsYXculX1xmy47HUspPafg9PnFxycisPar/bv/MZ/m90yWOW6QN8TNYy5SuX6gNTT9h7aY5xUm5eesFfP6X03jRHHfu/iKX/65NLC5v33SI+IzyweyY3piMYl2nXGlYMc2b3sAHf6zYiOvz3s/56EX3csiOzSKw6tdVsvGXBXEt4MCuH/Kdf19QLZxn6/q1WLb4vqw8TzOc0J+MRmuqHibL/Unuzqye4mA2pkNONxwxzvepJTNsPnyaWimf/OIDfPbKnNlhjLt0DT+7XnVVPDhp3eGyeYlo6RAZbKawh9TclNE4Fu9u5os/uZcyWyRfuJJv/NpV/c3ZsHEtHa8tm5V4nnySuPKhXhKYFRqp6UVpWwwsm6LMCLMCJ8/pGzt0hBeovtlmu2fV8mAGN/cmsdbNCVRXh2nJus1zqu4Jhf0DPnTxvTijkvpont0f+wy/ThuUywvk5psE1aLutHyj+mHH4oE3q9pS6Ceb5ECgeMXpEkmSTzrB2w2f3jBRvpi1RAvVHNNZN2JpqBwJO8ReydGzj0NOJL/+U1y5e6w8sbnnxl/zC9VDzx2QrRTKfz13QousNyQbpWqHrqPjth2znSDO8Adf4N2fVryjRdXZkoXLvsQPVHseqj48FL8f6vlQoUKFChUqVKhQoUKFCv/d8P+QOublf7w16UjUT2ljIUHrSMimMZnbmoxUjOy6BJjHKstMCXUhrROXMYnnkDptMsx6dhJzzYZEZJ0gs7j+w09lbkOLbX/+EW4MJHZ3vIxXHy/hfepzefuJEqO61mWv2MihWzaz7un/yN3RNtKT3sK5f6r7hR7bVh8mgSbR6P2QF21dz2kX76V43Jt528aCxsDmrnc+idmtJzJ/5Dae8t47SKbrlN/9e2aPOZ61m+eZPX49L/ys6Zh0OO9xTyU1U3ydJYniEaHrcvCKN7N143rmTngEh2zaxjnfkyg1U/Ce8Ajy3f/CadtPYn7nK/jSvZbOqxNOOq5W8KwBU5Yv8bwgkboiwT9LUbMnI/qwXIJancKxKTeezF/u3MpSYz9Xf/CxHLFxLY/+fpNTH5Scb7iMPBg/+jw+cNxanH7Bz999LGt37uCwRx3GI/7pGvxmSufPzuHMXHHoXslbnjTNumMfw+n/dPWkE6GoJ9TUNvsxz+P841pQj7jl3S9izZYjmdmxjRPfcy9pv6RMJfgbIb5n0SkT5osRZeypTSUj20xT3s+s4+MUpiPQpV5v0zYjhCyP2DfT35fgtJM4Y7BMb+YOPvDEo1l97HYe+5bb1V65d5hz6HgOO1lhHNnkZXNi20Ktw3AsU09+Ge97/CxJNuJX7ziVjYrlIZsfxRPedjdeOg+/fwuHbz2KQ485kvmNWznjK4pZ0ucVj3sWjultcQekl7yK2SMewZZnXMjPR4tYTkFd7XHtNeR2TBmaXagHtKwptWlEdPkbOWb7o1i7/TGsP/Y4zvxajrvgcO5THk108lM4f2dd3H2Q333wFNZvfTRrjzmMR15wn3zToChs4toMXj3DjWHlsEdx2iOVB/Lj9R98hmJ0GCd+N+KY2GzgMCIJVlij3Dk49PH9WNmTE2cL1EufWP6PcMjCcjLNuJnqHLXHjixqVkjCiIGVmgFlNG0bM9u+ELcICjrRCis7n84Tj8rk5Ae4+h+fzfadm/jTH3b4k9SXPRZJLSFszNCtlYzTIclCSn96jNURHcy0fbs03UH4DdnSS3DNWDvdbErHu487j/dt1yEjlxsuOIk1D1curFvHU965oBwfkmYlme3qpysrp/GcOfJBm9ZTn/GQ+es4XULnUOXMiDRvwtPezNu3yAetJb5w7jYO23QMMye+mK8kKfZJZ3LhthnIfH771qPYcsxxrFu/lSe987Y/dIg2u7T7Y9m5RN+szODNEmUJwWlv5Z3bTQ9ah8++dD3Nx27j5Ef+D9UaOfHxr+PvTzDNT8mDBjW3IC8swtNez19vGzEua1z28s10zK7jx7yO71o9oj99FR86bo3MyLj4rIexbsdGjjr9Q1xbnyLf+WLOP2UafywfNi0a3hSp4kkWkbrLkxHHgXJpabyftjVPEcsub/VkyrrLEgef/ELOO3qIrxp18cu2URff5x//bn6jz9j5Rl78hJKgDJkKe5MOKYVNvz1mG5ni0Of3H3gSRx3xRA579Ee4JVAeH/8mXvVnIYvjMXOFcn8wTRwuYqeL5M1lcamPbTZmUf6YjbNqjkPkmSnPSq20pVLh0yuGRGa0nzg78FX75P/QfIGUm47tmHCmgfXYv+Efj1Fsco8bPvgoNqjWzpy0ipM+dD2heB14Cc3EV9tHZi8kUvEqVa2JRspZ12yW48oXsmGotrkOll/Ss5QzKylt1WAzTX/UaeCXbWbEeePbbKDcLsXbU0/mzKnVZKqzbz3lEWw6ZivHvf5y+VU2u/tpOB3xVPmlZwG1kLY9T+ZlDJyQ7sOfyz8+Vu1QiK5/v+rGkY+gveNQTn79vXQ73YesDw/F74d6PlSoUKFChQoVKlSoUKHCfzf8rw5Fy2zEYunH+Y83zKgVva3XFj6Z/rUlAKUyKf0aVjYizFYYuxKvXhtborBuFySJyygdSijmOJHpPDCdLBGx0+cl51/AscwR2QcYWWfxue+fzbpGS9fdzF9++Ra+8yxnsklALYp0Z4n1s97MdRe/hENpEhUZxZM+yHefrvvZY5xByKyzn7HE70u/+e+84fhlYi+nbvmUpcT0GY/hlKFN6WzFTWIKv4Xbk/kza3j+Z27mbY//g/hN1bbcSSkk/lelkXTymFoeyuYV4l7OEz/X59LHJhNf/FcYdmNqLdksAV+U48lUySKty2uxXBbhFIv03I2c8cEXsyOtYcez1I5/P1e998kc7MivVpdVw0Ii+CjO/NwlvPvRi+A39b7abTa5fcZzeErikHAEF/70Qk5pmw4dhyzaxL989B85vJ7K5uFkg47pxnG88tJP8dZ1PVK9X6ay36xD9pwncrq7QmGmbXqyy8oZqs2pp/bWPNnZx8vGBFaLbpmQ5zYdZ0Q26tEvPd1vBG7AyGkwE5/Ep6/4vzixf7dsWmQ6eiUf+9FrOJHDCL0lYls86TRxEsU37dIZWwTOEmG9RWJ3ePZnv8C7j5ddZqCZ1yFqLBCd/Xgeb0bxDX3F1ybx1hI0RdFyxLmfOsgbHneQVa96K+841sPy9L6zmX+44mJe6Ju14yz6o75Yu8IU3mRUVyo74+gB5AKahUU3s/FNZ10RyB8z/OWnfsv5pxaEje2c9Z3v8s6T5vDiGVrRCnmWEjzraTzKhTmdVy5l2OK0NY4Vo7W8+v1/w/HJFGnmw9a38O/veR5WQzGgTlk02J+PWK0YJWP5ulaTXfU/TH0009kdVzbKljBXvixOPstaPoV873lqW3GY7LCVWykD0wmonBCBlTdNPHueF37kHB5tuXQsGB11Pj//v04lihOCmnItVqYODk46HC3PpVEzG2YUirPpPDJDRm1qiXK96E9GkJoRkkpSFnsj7M48Z33zO7x7S4zfWIszEmd8l+wZj+CpRZ2xl5K7CTVrnrr8ncuvth8yGm98yPzN7BlRcJm8FpCmIeOexXlfv5PPnG5ya4qyoXiOC7YddjiNYj2v+O5XuPDhZk3M1eJvn7qZRnrGszk1b5rlC0mmO6YiTb7waFqLhPb0ZLTgC79wL1981ohOntFZ7pMEPuPTP8KeT76Y9fVk4l9/eJAFM/JUuTJw5jjvGw/yiTNFxFZdPOmwsuLwmEOPIo+nefHXrufiZ/RxfdUI0T/OXIKnXsQ9l76AVdle6h2bOPcZ9sx6nMrZwOy23aQlH5sNUkwtKBXDlVBGx4p1uhpX+b+meBiv/+KtfP6Zyq8goVTtcuQjzriI5W+cydbSpVev01WMa0OzRqNCkYzwxrO4dY8z3/SXrMvMVu1jxtlT+PCXXsrhZcqcp3PMxivucDL6OrU8mt21xG4DS3ZiRhsrz/tyu60catqe8m9MHozxa1Oipmq9OOKqrV7p0BNnnFqm3FfNPWB2uz6S53zxS7z9+L3kqq+TpRVNPj3ryTyWgwRli+W81P1SZssZ4jiY8ME3zwkdZzuZuJUwLi3GZsSzYjajHErDpuqITxC7su/gZE3JUV+81/9mkdokmibztvD+H57LY0PZq/YxOJNLf/IO1RxHPjgUyxT4JKJTnxUvMuXwQeLEJlAkwvrDeP4nv8cbHtFWbY7ImgeZyWXTS07izGT+IevDQ/G7QoUKFSpUqFChQoUKFf7YYD3YN3MRpfWMuCvNCoimK9EIJvOHp38KynIocdmgm/dpNFfjDZeJnDplGEg430c69hgFaylrEm5FThGneGmGW5PYjq7k1Se8kcvG93DWp5f5wKmWRKNZFyyjDKZIkgFOoGtLjLbHqwibBUv5gwT2FG2zwUJQsiCBaha4d5DYkzg0o9SyZht7mNCUMo7bZqRhQDKWWJUgzDtj3EFBTeK/26hPNnHI7YB61JY4LXDNpggS93NFjaw9Yl8xxZzE/zDycOouflfCvR6q3X2dK+GYD8gk4j2zdl2RMgxlQx5QunXMTqVmw4d6kjJomw0y5iU4C3qdfNKp4A5qPNheZiZxiXyX2lCtaC5R5E38rElsr0jw6tp5TUK8O7mvrb9NP08c6nr5mFqySv6VVi4XadozBOmYJbukcHO8wqGVyvZwinBgMXIGBFL5sV/i1Zbwui3sQHFIcoZej3o5RS0IJzv3lm7BqNHGMmulxXVq8m/ph0RlRCOqEQZDlq3GZMOJ1closj6bVcwrDn0KSzJdQj9MQrn0IPe7d3DJS57NR37QoP8nb+FXX34+hxXxZK1Le+QTW7KrnFP8hoxtnxm1OSrMdMaUvho369hqU0RajlnlryGKCxbsRVanENV9orRG00xtHNtiZykOLbNQO1Q+HmG5baJaSS22SOQ4Ox3i2x5jp0bddoisAisbUjObq8iCwOrqPja+4zPITYehy4rbnXS85eEacjMKVtzz/WWKosWCW1IPfOr9A+KOD80m/WRM5o+Z79dI5LMVZUrLdMhH+/DdabLcXGvMKO9MOvCKWkpdLM8HqxUjh6FZC07v1EOPeCwOmPUpvYxVRchdxf3YtcNYL78MygexanXsKCJzVykWKe3Uoi+bci8W31Jsq4PrxowyT6bZ5HFCWriTjvxW0SSLVhh1plg16ul6KQ96DVpuiJX3yIMAJxW5giWc5ZDlukMnsWkFBf2ox3BqnrDXpS12DBhPRpHt80dqU4s13YL9DZtGzeNAuvhf5q/ZamnAEmuzKbpTI8peQuC3aWQBK+nKpEM7LTOa4lWZyndJlwdbs6yNfXqegmQ2enKWZFuDg8o9O+gRmnSkhVmf06zhOmDEXGuaUddRPcgJvBV6qmGr0jZdT7xQu3z5vSgCXc4jyRzKfIGW02Jkh/LZgFqRKdfN+yOa8WoOWmaKrtlWqIsbT2G+b3H8hUmnca4alihePqoBrvJa8auPH6TvzWAN6vhNMzK1P/GFpxoa6ZipJGHRadMarog/Os9TjU182ZvQTRXbsM0oXqJmqxZnyg3XouM1VVN63DL9Iz41+0Y+qhr23A/fzb88E9xRQq48G4vbRbBCTW3xR2PZkDKj8/bo8+nQnUyVnvdMXRjQlz+aTsRgqPpTHypOUBd/FuXPhjuDmxyEqYZ8ovrWW6FlF/Jtm45y52Arx1fbgsIiFf8nX0KoPnmtHt2oLhvcST3KlaPj1OUQ+e+AfFZT7chGBYSzqqkp0+6QJLcZ16fojXPFSPEMHBbFQzffSFsJNegMJptDxWqLVaomyi9Nv86SOJ+ZDaGK2/jCOc/n/J8t4z36DVz9lVcz7ywS9Dr4obhe6BlgtVlWzrYdcdZ86VBEqvEeA7Oxkup+S3Vyn/mSIMj/y/qwz1cO/Bf8rtnuf/l8cMTtChUqVKhQoUKFChUqVPjvhP8coVhO1tEyf5i3JJT+E2YLAIkjfV5rdIhjiUunQZAu0hwfYMGao6ytxQlSvLEEYE8/9CmbNQk/V8IykBB7gIaEnaNzGj2HsVnjSqLY7P45I7EZZyt0Qo/AzRlLwbnuKmwJuWViekXObFHiOQVNMxIkn5aod+msWMRpQjk1LTG+zCg6QKFjEgnkWndGotxhqWEx0D3Xjuclcmu0TEdpfw+pvcJ8S8JdYrArUbnaiEgJ/flygUZqRK5PKcFsdiINSwnQlgS96azySuKOp/ck9l1PwnuEV5q1vGBRbWoPV5FKUGaORL5ss/o5veaYmcTWHWryZax7+4TDNViZ2sYBMjOyMPJJJH6bYZ3assXYNaOHRlhmKqK8P5Rw72SLtHVu6Y3pJiVTOPKpRTPOGdUCxcNsXNDHnXImUyOdmk+wNCPRb7Gi+w9tm43lzETo9vtmzTl5w8mYKVcUtyma7piB5cjujKk8JAsHHJCYJ+kxy0BtVyTLOUY6vvQz8vIuPv6sLcxv38jcUadyzPYX8a5fw6BW56XnnsX6fIl6ljMcp4wDM81zTiI9wrZC3dtmn9n51XRKRhGziueyrRhI8K8p5ukNV8gl/I/0fcblFJ1hSN2sYzgOSL2a/N7BqU8xo+vYNRGoWMJdGcu3XTy7oGW1xEB9ZjbvGQ3IskR+tIlHy7pnb7IRhOdN48QR0+Lyonw6wyq1eQ2xtXuym7ETjhhaNqUlf2QpUwPTKdCgV5tisJLq/RqHrqziYCemm+dMOUNs3asI2sRByMCvK5XmmddngbcPu6ixkjYpOj4txXwmTwgcw2EzHbJO5DVxrKE4n7LKP5JVcclC8iBpq0GU1CiDOYbyZyePGXjofrnaUmO1jvOdgbiS0rBThsspjEZmHPBkKvNSGE06o5UILIrPgzCg41nUrVT56OJFY2y7T2fJrGvXY1UZ4JcFXdOxp7jVV5bpFB0WAjPqTz40HSRDE4ch982Ls3J/NNRnD5G/Tl7SCOeJ7JLWkk/uzRMnGXsVD6+WkkQWDeXIuD8QX1Ki5jyHRuKN2VCkVAycFcKVjBVXORmusFp+SOviT9lTvNUmPNp5m7K3h7qhRNmnn06pbU2Wra54PKame0dqQz93sCJxpVTuhS3yvCAcj5iylUOqV4N4rKtNU6Y95uwRxWhMmNnyt1xrDSj7ar+ONxvp1LxYXDCjsXsUcV+cWU098mSP2uE6+EUDKzlAmrhMDy2WaNNO5LMp/VgNccpsodxlQXnptnLVthGurdysjZRn8om4NI73iWdt5hfb5KHhTUzRWiQQdZazB3V+naAp+5XHUb+nvJbNyp0lxXemlA35kJZe9yyXBdUaW1VZych0bci8KfVewYPy62r5ws0OEDcUG7NBy8qDOJ7PwFb2FDpLNcp9MMOSI8xO32ZHed+XL+viWK/JVDKg7o6ws4E44DLlRgzyro43I9dt8X5e75sR7jrebus5oudAtMgmz2HY1nPBbHrSX4ud6POOanuREeaZOITiIy7VdnHxk0/gsEeeyKYj1nPktr/gjT/bMxn9ePYrX8i6lRWmRylxS7krH9ZqLcZRzryeD65q2YLTZdqTz2Nx1ZqhWQ7En4JV9YeuDw/F74d6PlSoUKFChQoVKlSoUKHCfzf8Z4eiGevz/8YfphQiUVrYnoTiWHI7oi6BOA5nWLKmqNtSpLGZNjmejNLJXAnFskGCJXFspk7WSLIaZlsCO4Q97WVaUcnYMSPjxvQdW0KthTVoSfiPCOqxxL6EvcRvqPclQxmYtb5yS/fP8MsDBEmD2IskFKcoBwnjfIaWuZ4vEZ7USCX6QzPSL+3QMtNPWxErbp/MtnGCDaR2wkFSirxBK+5Skz0LwRTjck737WGsz6399CWik9B0MCwSBwl26TKKZa8ZMSnR60k0D+Uev0hkqz2Z6r0mkzB2ani22b26RmA2BLGlUM3IufEfRGk3WNT7dcJwCqurttRdsjCe7MabzMnG9D6Jd4fZfEW+MxN4XfpmqnHeksjNaPqKleyIJFrJQ0qJ7tzLZKNDbRCRyg/u0oBS4r2QKF+l86edOgd0rm2PqbfGHCj7NCWql3V+21qcjJhsWfK94rvCADPFveMq1nZJmnqMyoxS762iPVkbzfFz+a2Jmyfy98FJ5wbZi/nWrit4y+P7NOzVk4616RKasYtT9IjbOfV4QCw/zVtdNaFkGDRZkg9bsS+7y0mHU9qUPyTK98iXDbVlv29JpE/JdyWF2bymNiJywsmUyDJqSLuXhE0xJU5J5e+Bk9FQPIJSx/setTJSi2yyVYpDPEOUdPS7T+4E9NVmX/c0Hc+5U+Dl0/L3Eo444eRTDC1d28lZ8QY4mA7WnGLuILU0YzlYwRvW6TgeUdahDH2ljNqQutjihB2v0LcbPBjM4hYpvjjajVKWxXtb5ziZ2mWmw4sTqA3+0BNHlQdZoc9XqDenyNQ+XWyyOYvhTirn+1nOg4XuXRQsOjPEsjH2G7J3yJybKO4zLFp1nLJLIzLTQ+skTXlA+dlIm5SjVP7oUiiPG7kvTtUmI1xXnDV0xXvMSMtimWDYoq0cPNjsiWN1cdSmSFzaQcBMNIuvv1dyxTZMHzJ/C9k1NTSb7Yjn7pBOPsZVnqh1hIpHw1HeJDFO23Q8K3fjoTgwxuwNVFP7honPaLYpf6XikvIuVwyX5afQTCV/QBySP92erjk9GbFXN4PHrDFTkfxWevjK1SgrVc48pu2h6tesXK5YjoeUlkfSKulFbXLVuna5Cmsse2ouPeVH3Ux3Vh1MlY9zyR/qVek16KseDcXJ1ljVTnzzdf1WYU38ZDqX/GiZumM6bNvihkXsmCm+K8qjA/jjhs4xI2BHZGr/mmBE2LV4MLOVGw65eDK0mpPd3J1AnBzso2PP05NHzSY/ZhfkrnKo1ZyjX8r/fWTvXrzalHxdx08bhAPVNke1za1NptOj3DYRmXEt1RKHruqg2eDIrL/awGdglpWwa5ip2mP5PqjPqK4X4q7NIBzKkBxvWjUn3i2+hawSFzPVWJMTdmsFWzU0MptIJaFqYJ84a2DXZrHMNfwa/ShTng2Vr4XyyywOYNZxTRmnA2qjNomT0PfN8hTJZMp/Zqnm2Wa1TtmqPG6qlj/QfBCRd1LXY9X0Inw5F+35Le94rPw+1WbJm6elPCoV25VBSkux6Io/A081Om8Tq86YLYAsPZHsqZS+6iWlGX37X9eHh3w+PcTzoUKFChUqVKhQoUKFChX+u+E/pzxXqFChQoUKFSpUqFChQoUKFSpUqFChwkPB/o/fFSpUqFChQoUKFSpUqFChQoUKFSpUqPCQqDoUK1SoUKFChQoVKlSoUKFChQoVKlSo8H+MqkOxQoUKFSpUqFChQoUKFSpUqFChQoUK/8eoOhQrVKhQoUKFChUqVKhQoUKFChUqVKjwf4yqQ7FChQoVKlSoUKFChQoVKlSoUKFChQr/h4D/G69KOtGpZJeHAAAAAElFTkSuQmCC;" vertex="1" parent="1">
          <mxGeometry x="-825" y="10" width="824" height="90" as="geometry" />
        </mxCell>
        <mxCell id="ba2iB4hTEKFOSkWBmRZo-64" style="edgeStyle=orthogonalEdgeStyle;rounded=0;orthogonalLoop=1;jettySize=auto;html=1;exitX=1;exitY=0.5;exitDx=0;exitDy=0;" edge="1" parent="1" source="ba2iB4hTEKFOSkWBmRZo-62">
          <mxGeometry relative="1" as="geometry">
            <mxPoint x="-330" y="734" as="targetPoint" />
          </mxGeometry>
        </mxCell>
        <mxCell id="ba2iB4hTEKFOSkWBmRZo-62" value="JI 10" style="shape=step;perimeter=stepPerimeter;whiteSpace=wrap;html=1;fixedSize=1;" vertex="1" parent="1">
          <mxGeometry x="-456.5" y="775" width="73" height="20" as="geometry" />
        </mxCell>
        <mxCell id="ba2iB4hTEKFOSkWBmRZo-65" value="" style="endArrow=none;html=1;rounded=0;entryX=0.5;entryY=1;entryDx=0;entryDy=0;" edge="1" parent="1" target="ba2iB4hTEKFOSkWBmRZo-49">
          <mxGeometry width="50" height="50" relative="1" as="geometry">
            <mxPoint x="-488" y="824" as="sourcePoint" />
            <mxPoint x="-480" y="784" as="targetPoint" />
          </mxGeometry>
        </mxCell>
        <mxCell id="ba2iB4hTEKFOSkWBmRZo-66" value="res 19" style="rounded=1;whiteSpace=wrap;html=1;" vertex="1" parent="1">
          <mxGeometry x="-519.5" y="808" width="59.5" height="20" as="geometry" />
        </mxCell>
        <mxCell id="ba2iB4hTEKFOSkWBmRZo-69" style="edgeStyle=orthogonalEdgeStyle;rounded=0;orthogonalLoop=1;jettySize=auto;html=1;exitX=1;exitY=0.5;exitDx=0;exitDy=0;entryX=0.5;entryY=0;entryDx=0;entryDy=0;" edge="1" parent="1" source="ba2iB4hTEKFOSkWBmRZo-67" target="ba2iB4hTEKFOSkWBmRZo-68">
          <mxGeometry relative="1" as="geometry">
            <Array as="points">
              <mxPoint x="-429" y="855" />
            </Array>
          </mxGeometry>
        </mxCell>
        <mxCell id="ba2iB4hTEKFOSkWBmRZo-67" value="JZ" style="rhombus;whiteSpace=wrap;html=1;" vertex="1" parent="1">
          <mxGeometry x="-511" y="830" width="46" height="50" as="geometry" />
        </mxCell>
        <mxCell id="ba2iB4hTEKFOSkWBmRZo-70" style="edgeStyle=orthogonalEdgeStyle;rounded=0;orthogonalLoop=1;jettySize=auto;html=1;exitX=1;exitY=0.5;exitDx=0;exitDy=0;" edge="1" parent="1" source="ba2iB4hTEKFOSkWBmRZo-68">
          <mxGeometry relative="1" as="geometry">
            <mxPoint x="-330" y="784" as="targetPoint" />
          </mxGeometry>
        </mxCell>
        <mxCell id="ba2iB4hTEKFOSkWBmRZo-68" value="JI 10" style="shape=step;perimeter=stepPerimeter;whiteSpace=wrap;html=1;fixedSize=1;" vertex="1" parent="1">
          <mxGeometry x="-465" y="874" width="73" height="20" as="geometry" />
        </mxCell>
        <mxCell id="ba2iB4hTEKFOSkWBmRZo-84" style="edgeStyle=orthogonalEdgeStyle;rounded=0;orthogonalLoop=1;jettySize=auto;html=1;exitX=1;exitY=0.5;exitDx=0;exitDy=0;entryX=0.5;entryY=0;entryDx=0;entryDy=0;" edge="1" parent="1" source="ba2iB4hTEKFOSkWBmRZo-72" target="ba2iB4hTEKFOSkWBmRZo-75">
          <mxGeometry relative="1" as="geometry" />
        </mxCell>
        <mxCell id="ba2iB4hTEKFOSkWBmRZo-72" value="JN" style="rhombus;whiteSpace=wrap;html=1;" vertex="1" parent="1">
          <mxGeometry x="-519.5" y="908" width="63" height="40" as="geometry" />
        </mxCell>
        <mxCell id="ba2iB4hTEKFOSkWBmRZo-87" style="edgeStyle=orthogonalEdgeStyle;rounded=0;orthogonalLoop=1;jettySize=auto;html=1;exitX=1;exitY=0.5;exitDx=0;exitDy=0;" edge="1" parent="1" source="ba2iB4hTEKFOSkWBmRZo-73">
          <mxGeometry relative="1" as="geometry">
            <mxPoint x="-330" y="1080" as="targetPoint" />
          </mxGeometry>
        </mxCell>
        <mxCell id="ba2iB4hTEKFOSkWBmRZo-73" value="JI 10" style="shape=step;perimeter=stepPerimeter;whiteSpace=wrap;html=1;fixedSize=1;" vertex="1" parent="1">
          <mxGeometry x="-524.5" y="1120" width="73" height="20" as="geometry" />
        </mxCell>
        <mxCell id="ba2iB4hTEKFOSkWBmRZo-75" value="car acu" style="rounded=1;whiteSpace=wrap;html=1;" vertex="1" parent="1">
          <mxGeometry x="-444.87" y="948" width="55.75" height="20" as="geometry" />
        </mxCell>
        <mxCell id="ba2iB4hTEKFOSkWBmRZo-76" value="sum edad" style="rounded=1;whiteSpace=wrap;html=1;" vertex="1" parent="1">
          <mxGeometry x="-444.75" y="969" width="55.75" height="20" as="geometry" />
        </mxCell>
        <mxCell id="ba2iB4hTEKFOSkWBmRZo-77" value="alm acu" style="rounded=1;whiteSpace=wrap;html=1;" vertex="1" parent="1">
          <mxGeometry x="-444.75" y="989" width="55.75" height="20" as="geometry" />
        </mxCell>
        <mxCell id="ba2iB4hTEKFOSkWBmRZo-78" value="car cont" style="rounded=1;whiteSpace=wrap;html=1;" vertex="1" parent="1">
          <mxGeometry x="-444.75" y="1009" width="55.75" height="20" as="geometry" />
        </mxCell>
        <mxCell id="ba2iB4hTEKFOSkWBmRZo-79" value="sum uno" style="rounded=1;whiteSpace=wrap;html=1;" vertex="1" parent="1">
          <mxGeometry x="-444.75" y="1029" width="55.75" height="20" as="geometry" />
        </mxCell>
        <mxCell id="ba2iB4hTEKFOSkWBmRZo-80" value="alm cont" style="rounded=1;whiteSpace=wrap;html=1;" vertex="1" parent="1">
          <mxGeometry x="-444.75" y="1049" width="55.75" height="20" as="geometry" />
        </mxCell>
        <mxCell id="ba2iB4hTEKFOSkWBmRZo-85" style="edgeStyle=orthogonalEdgeStyle;rounded=0;orthogonalLoop=1;jettySize=auto;html=1;exitX=1;exitY=0.5;exitDx=0;exitDy=0;" edge="1" parent="1" source="ba2iB4hTEKFOSkWBmRZo-81">
          <mxGeometry relative="1" as="geometry">
            <mxPoint x="-330" y="880" as="targetPoint" />
          </mxGeometry>
        </mxCell>
        <mxCell id="ba2iB4hTEKFOSkWBmRZo-81" value="JI 10" style="shape=step;perimeter=stepPerimeter;whiteSpace=wrap;html=1;fixedSize=1;" vertex="1" parent="1">
          <mxGeometry x="-450" y="1073" width="73" height="20" as="geometry" />
        </mxCell>
        <mxCell id="ba2iB4hTEKFOSkWBmRZo-82" value="" style="endArrow=none;html=1;rounded=0;exitX=0.5;exitY=0;exitDx=0;exitDy=0;" edge="1" parent="1" source="ba2iB4hTEKFOSkWBmRZo-72">
          <mxGeometry width="50" height="50" relative="1" as="geometry">
            <mxPoint x="-487.75" y="908" as="sourcePoint" />
            <mxPoint x="-488" y="880" as="targetPoint" />
          </mxGeometry>
        </mxCell>
        <mxCell id="ba2iB4hTEKFOSkWBmRZo-86" value="" style="endArrow=none;html=1;rounded=0;exitX=0.5;exitY=0;exitDx=0;exitDy=0;entryX=0.5;entryY=1;entryDx=0;entryDy=0;" edge="1" parent="1" source="ba2iB4hTEKFOSkWBmRZo-73" target="ba2iB4hTEKFOSkWBmRZo-72">
          <mxGeometry width="50" height="50" relative="1" as="geometry">
            <mxPoint x="-486" y="1120" as="sourcePoint" />
            <mxPoint x="-490" y="950" as="targetPoint" />
          </mxGeometry>
        </mxCell>
        <mxCell id="ba2iB4hTEKFOSkWBmRZo-89" value="&lt;font style=&quot;font-size: 10px;&quot;&gt;15&lt;/font&gt;" style="text;html=1;strokeColor=none;fillColor=none;align=center;verticalAlign=middle;whiteSpace=wrap;rounded=0;" vertex="1" parent="1">
          <mxGeometry x="-583" y="672" width="60" height="30" as="geometry" />
        </mxCell>
        <mxCell id="ba2iB4hTEKFOSkWBmRZo-90" value="&lt;font style=&quot;font-size: 10px;&quot;&gt;16&lt;/font&gt;" style="text;html=1;strokeColor=none;fillColor=none;align=center;verticalAlign=middle;whiteSpace=wrap;rounded=0;" vertex="1" parent="1">
          <mxGeometry x="-579.5" y="744" width="60" height="30" as="geometry" />
        </mxCell>
        <mxCell id="ba2iB4hTEKFOSkWBmRZo-92" value="&lt;font style=&quot;font-size: 10px;&quot;&gt;17&lt;/font&gt;" style="text;html=1;strokeColor=none;fillColor=none;align=center;verticalAlign=middle;whiteSpace=wrap;rounded=0;" vertex="1" parent="1">
          <mxGeometry x="-579.5" y="803" width="60" height="30" as="geometry" />
        </mxCell>
        <mxCell id="ba2iB4hTEKFOSkWBmRZo-93" value="&lt;font style=&quot;font-size: 10px;&quot;&gt;18&lt;/font&gt;" style="text;html=1;strokeColor=none;fillColor=none;align=center;verticalAlign=middle;whiteSpace=wrap;rounded=0;" vertex="1" parent="1">
          <mxGeometry x="-579.5" y="841" width="60" height="30" as="geometry" />
        </mxCell>
        <mxCell id="ba2iB4hTEKFOSkWBmRZo-94" value="&lt;font style=&quot;font-size: 10px;&quot;&gt;19&lt;/font&gt;" style="text;html=1;strokeColor=none;fillColor=none;align=center;verticalAlign=middle;whiteSpace=wrap;rounded=0;" vertex="1" parent="1">
          <mxGeometry x="-576" y="913" width="60" height="30" as="geometry" />
        </mxCell>
        <mxCell id="ba2iB4hTEKFOSkWBmRZo-96" value="&lt;font style=&quot;font-size: 10px;&quot;&gt;20&lt;/font&gt;" style="text;html=1;strokeColor=none;fillColor=none;align=center;verticalAlign=middle;whiteSpace=wrap;rounded=0;" vertex="1" parent="1">
          <mxGeometry x="-583" y="1115" width="60" height="30" as="geometry" />
        </mxCell>
        <mxCell id="ba2iB4hTEKFOSkWBmRZo-97" value="&lt;font style=&quot;font-size: 10px;&quot;&gt;21&lt;/font&gt;" style="text;html=1;strokeColor=none;fillColor=none;align=center;verticalAlign=middle;whiteSpace=wrap;rounded=0;" vertex="1" parent="1">
          <mxGeometry x="-389.12" y="496" width="60" height="30" as="geometry" />
        </mxCell>
        <mxCell id="ba2iB4hTEKFOSkWBmRZo-98" value="&lt;font style=&quot;font-size: 10px;&quot;&gt;22&lt;/font&gt;" style="text;html=1;strokeColor=none;fillColor=none;align=center;verticalAlign=middle;whiteSpace=wrap;rounded=0;" vertex="1" parent="1">
          <mxGeometry x="-389.12" y="517" width="60" height="30" as="geometry" />
        </mxCell>
        <mxCell id="ba2iB4hTEKFOSkWBmRZo-99" value="&lt;font style=&quot;font-size: 10px;&quot;&gt;23&lt;/font&gt;" style="text;html=1;strokeColor=none;fillColor=none;align=center;verticalAlign=middle;whiteSpace=wrap;rounded=0;" vertex="1" parent="1">
          <mxGeometry x="-389" y="541" width="60" height="30" as="geometry" />
        </mxCell>
        <mxCell id="ba2iB4hTEKFOSkWBmRZo-100" value="&lt;font style=&quot;font-size: 10px;&quot;&gt;24&lt;/font&gt;" style="text;html=1;strokeColor=none;fillColor=none;align=center;verticalAlign=middle;whiteSpace=wrap;rounded=0;" vertex="1" parent="1">
          <mxGeometry x="-389.12" y="564" width="60" height="30" as="geometry" />
        </mxCell>
        <mxCell id="ba2iB4hTEKFOSkWBmRZo-101" value="&lt;font style=&quot;font-size: 10px;&quot;&gt;25&lt;/font&gt;" style="text;html=1;strokeColor=none;fillColor=none;align=center;verticalAlign=middle;whiteSpace=wrap;rounded=0;" vertex="1" parent="1">
          <mxGeometry x="-504.75" y="591" width="60" height="30" as="geometry" />
        </mxCell>
        <mxCell id="ba2iB4hTEKFOSkWBmRZo-102" value="&lt;font style=&quot;font-size: 10px;&quot;&gt;26&lt;/font&gt;" style="text;html=1;strokeColor=none;fillColor=none;align=center;verticalAlign=middle;whiteSpace=wrap;rounded=0;" vertex="1" parent="1">
          <mxGeometry x="-383.5" y="614" width="60" height="30" as="geometry" />
        </mxCell>
        <mxCell id="ba2iB4hTEKFOSkWBmRZo-103" value="&lt;font style=&quot;font-size: 10px;&quot;&gt;27&lt;/font&gt;" style="text;html=1;strokeColor=none;fillColor=none;align=center;verticalAlign=middle;whiteSpace=wrap;rounded=0;" vertex="1" parent="1">
          <mxGeometry x="-490" y="719" width="60" height="30" as="geometry" />
        </mxCell>
        <mxCell id="ba2iB4hTEKFOSkWBmRZo-104" value="&lt;font style=&quot;font-size: 10px;&quot;&gt;28&lt;/font&gt;" style="text;html=1;strokeColor=none;fillColor=none;align=center;verticalAlign=middle;whiteSpace=wrap;rounded=0;" vertex="1" parent="1">
          <mxGeometry x="-490" y="770" width="60" height="30" as="geometry" />
        </mxCell>
        <mxCell id="ba2iB4hTEKFOSkWBmRZo-105" value="&lt;font style=&quot;font-size: 10px;&quot;&gt;29&lt;/font&gt;" style="text;html=1;strokeColor=none;fillColor=none;align=center;verticalAlign=middle;whiteSpace=wrap;rounded=0;" vertex="1" parent="1">
          <mxGeometry x="-500" y="869" width="60" height="30" as="geometry" />
        </mxCell>
        <mxCell id="ba2iB4hTEKFOSkWBmRZo-106" value="&lt;font style=&quot;font-size: 10px;&quot;&gt;30&lt;/font&gt;" style="text;html=1;strokeColor=none;fillColor=none;align=center;verticalAlign=middle;whiteSpace=wrap;rounded=0;" vertex="1" parent="1">
          <mxGeometry x="-490" y="943" width="60" height="30" as="geometry" />
        </mxCell>
        <mxCell id="ba2iB4hTEKFOSkWBmRZo-107" value="&lt;font style=&quot;font-size: 10px;&quot;&gt;31&lt;/font&gt;" style="text;html=1;strokeColor=none;fillColor=none;align=center;verticalAlign=middle;whiteSpace=wrap;rounded=0;" vertex="1" parent="1">
          <mxGeometry x="-490" y="964" width="60" height="30" as="geometry" />
        </mxCell>
        <mxCell id="ba2iB4hTEKFOSkWBmRZo-108" value="&lt;font style=&quot;font-size: 10px;&quot;&gt;32&lt;/font&gt;" style="text;html=1;strokeColor=none;fillColor=none;align=center;verticalAlign=middle;whiteSpace=wrap;rounded=0;" vertex="1" parent="1">
          <mxGeometry x="-490" y="984" width="60" height="30" as="geometry" />
        </mxCell>
        <mxCell id="ba2iB4hTEKFOSkWBmRZo-109" value="&lt;font style=&quot;font-size: 10px;&quot;&gt;33&lt;/font&gt;" style="text;html=1;strokeColor=none;fillColor=none;align=center;verticalAlign=middle;whiteSpace=wrap;rounded=0;" vertex="1" parent="1">
          <mxGeometry x="-490" y="1004" width="60" height="30" as="geometry" />
        </mxCell>
        <mxCell id="ba2iB4hTEKFOSkWBmRZo-110" value="&lt;font style=&quot;font-size: 10px;&quot;&gt;34&lt;/font&gt;" style="text;html=1;strokeColor=none;fillColor=none;align=center;verticalAlign=middle;whiteSpace=wrap;rounded=0;" vertex="1" parent="1">
          <mxGeometry x="-490" y="1024" width="60" height="30" as="geometry" />
        </mxCell>
        <mxCell id="ba2iB4hTEKFOSkWBmRZo-111" value="&lt;font style=&quot;font-size: 10px;&quot;&gt;35&lt;/font&gt;" style="text;html=1;strokeColor=none;fillColor=none;align=center;verticalAlign=middle;whiteSpace=wrap;rounded=0;" vertex="1" parent="1">
          <mxGeometry x="-490" y="1044" width="60" height="30" as="geometry" />
        </mxCell>
        <mxCell id="ba2iB4hTEKFOSkWBmRZo-112" value="&lt;font style=&quot;font-size: 10px;&quot;&gt;36&lt;/font&gt;" style="text;html=1;strokeColor=none;fillColor=none;align=center;verticalAlign=middle;whiteSpace=wrap;rounded=0;" vertex="1" parent="1">
          <mxGeometry x="-490" y="1068" width="60" height="30" as="geometry" />
        </mxCell>
      </root>
    </mxGraphModel>
  </diagram>
</mxfile>
